<?xml version="1.0" encoding="UTF-8" standalone="no"?>
<!-- Created with Inkscape (http://www.inkscape.org/) -->

<svg
   xmlns:dc="http://purl.org/dc/elements/1.1/"
   xmlns:cc="http://creativecommons.org/ns#"
   xmlns:rdf="http://www.w3.org/1999/02/22-rdf-syntax-ns#"
   xmlns:svg="http://www.w3.org/2000/svg"
   xmlns="http://www.w3.org/2000/svg"
   xmlns:sodipodi="http://sodipodi.sourceforge.net/DTD/sodipodi-0.dtd"
   xmlns:inkscape="http://www.inkscape.org/namespaces/inkscape"
   width="29.700001cm"
   height="42cm"
   viewBox="0 0 1052.3622 1488.189"
   id="svg2"
   version="1.1"
   inkscape:version="0.91 r13725"
   sodipodi:docname="gunungan.svg"
   inkscape:export-filename="/home/cho2/gnome-asia/Artworks/Other/gunungan.png"
   inkscape:export-xdpi="90"
   inkscape:export-ydpi="90">
  <defs
     id="defs4" />
  <sodipodi:namedview
     id="base"
     pagecolor="#ffffff"
     bordercolor="#666666"
     borderopacity="1.0"
     inkscape:pageopacity="0.0"
     inkscape:pageshadow="2"
     inkscape:zoom="0.24748737"
     inkscape:cx="-378.06617"
     inkscape:cy="823.27135"
     inkscape:document-units="cm"
     inkscape:current-layer="layer1"
     showgrid="false"
     units="cm"
     inkscape:window-width="1366"
     inkscape:window-height="713"
     inkscape:window-x="0"
     inkscape:window-y="24"
     inkscape:window-maximized="1">
    <inkscape:grid
       type="xygrid"
       id="grid4189" />
  </sodipodi:namedview>
  <metadata
     id="metadata7">
    <rdf:RDF>
      <cc:Work
         rdf:about="">
        <dc:format>image/svg+xml</dc:format>
        <dc:type
           rdf:resource="http://purl.org/dc/dcmitype/StillImage" />
        <dc:title></dc:title>
      </cc:Work>
    </rdf:RDF>
  </metadata>
  <g
     inkscape:label="Layer 1"
     inkscape:groupmode="layer"
     id="layer1"
     transform="translate(0,435.82677)">
    <path
       inkscape:export-ydpi="90"
       inkscape:export-xdpi="90"
       inkscape:export-filename="/media/winardiaris/Data/AA/2015.gnome.asia/logo/Logo_brown.png"
       id="path4518"
       d="m -22.103683,-277.36645 c -21.426145,5.01988 -34.570954,26.47321 -29.494116,48.14249 L 104.84512,438.51555 c 7.09164,-32.04955 18.24973,-63.40586 30.53931,-92.9856 C 188.95035,220.26152 259.60026,103.54719 327.40365,-14.246292 404.81293,-145.50838 478.4053,-278.83207 552.52385,-411.99441 L -22.103541,-277.36648 Z M 604.66354,-424.21009 c 20.34282,43.14546 40.71744,86.2755 61.27658,129.3067 86.47152,183.85397 184.05291,362.822696 268.37125,547.95925 25.09417,58.0677 51.62818,117.34124 66.58973,179.08562 L 799.24812,-428.56641 c -5.07683,-21.66927 -26.38295,-35.05118 -47.80951,-30.03122 l -146.77492,34.38752 z m -23.42493,29.96743 c -26.79463,49.24571 -53.70889,98.42574 -81.15417,147.30041 C 407.945,-80.181951 306.99642,81.83315 218.18162,250.6282 c -38.19784,76.6387 -80.41081,155.61996 -86.52951,242.88144 -5.71028,54.23572 18.2102,107.42483 54.82917,146.19325 23.99459,30.14437 64.64836,45.02444 80.43287,81.44421 5.39782,17.68695 7.77769,35.7581 8.68251,54.03876 2.42391,12.70648 11.46075,23.46641 25.91317,26.364 l 489.79703,16.89933 c 16.05421,-2.22225 26.14182,-14.48194 27.97883,-28.8157 0.012,-0.13077 0.0519,-0.26381 0.0606,-0.39664 0.0592,-0.50581 0.056,-1.04107 0.0955,-1.55233 -7.2e-4,-0.0283 -0.0183,-0.0525 -0.0158,-0.0674 0.0169,-0.23145 0.0516,-0.47134 0.0656,-0.70347 2.45209,-24.08212 8.12522,-47.25727 24.551,-65.64978 25.55184,-22.47432 56.26091,-39.4351 79.78313,-64.66725 C 961.90573,619.82764 981.852,566.35011 979.14422,512.97762 972.67564,423.22429 935.59727,338.89224 899.10354,257.868 797.02834,39.165356 682.48529,-173.63287 581.73068,-393.12789 l -0.49021,-1.10929 z M 698.64274,4.3441279 C 837.3252,-28.147421 736.72145,206.17439 658.71899,224.44938 580.70563,242.72693 559.96554,36.834444 698.64274,4.3441279 Z M 490.09656,79.059934 c 68.32022,-15.756341 60.04937,147.285836 19.22778,154.228256 -42.15581,7.17054 -101.72896,-123.63384 -26.08747,-152.162033 2.36444,-0.892331 4.65608,-1.557196 6.85966,-2.066353 z M 367.56033,164.98909 c 48.42499,-12.49698 73.46149,113.05072 42.60707,127.33145 -33.43838,15.49546 -111.94137,-80.10707 -55.34793,-120.98055 4.42068,-3.19252 8.63684,-5.29186 12.74087,-6.35091 z m -82.11525,108.58804 c 0.68281,-0.21682 1.34235,-0.34301 2.03054,-0.47573 38.48045,-7.64492 78.36236,88.4556 55.20879,106.01958 -26.46304,20.06707 -113.39548,-48.94779 -71.40339,-95.79947 4.59549,-5.12442 9.36738,-8.3065 14.16406,-9.74438 z m 295.83099,-0.92051 c 68.15132,-16.61247 129.58183,-8.3385 147.13635,33.76405 54.14157,129.84903 -275.45057,259.08187 -123.83332,327.88969 47.6272,21.61532 83.22175,-11.80409 65.6906,-58.53541 -14.62828,-38.98649 124.6442,-97.35577 127.52784,-33.93259 3.8044,83.16638 -60.93579,164.74775 -129.81757,180.88587 C 527.96172,755.53274 355.22726,622.25754 353.64688,497.41918 352.20411,384.94817 474.95987,298.5736 581.27607,272.65662 Z M 1002.872,440.55363 c 5.6807,25.35161 9.3111,51.15361 10.0333,77.43647 4.1059,70.95807 -32.18788,137.79566 -85.02971,182.02019 -18.94112,19.03642 -45.16169,29.11499 -62.88461,49.61605 -17.81303,32.36667 -10.69617,71.79686 -15.9759,107.47419 -2.45196,20.86508 3.73202,45.84117 -9.65226,63.61266 -20.44464,21.70588 -52.91841,13.47722 -79.27735,17.19599 3.89942,20.53965 -11.70987,43.10289 -32.62356,47.19272 -44.44666,1.14697 -89.12884,-1.33023 -133.66808,-2.7248 -13.12459,2.26025 -24.21778,11.8643 -26.7279,27.2989 l -1.32129,43.9898 511.89966,-119.93163 c 21.4266,-5.01997 34.5713,-26.47332 29.4945,-48.1424 l -104.267,-445.0388 z M 155.84874,656.21239 256.29297,1084.9349 c 5.07683,21.6691 26.38281,35.0511 47.80924,30.0312 l 218.85727,-51.2755 1.57503,-54.9885 c -1.46116,-16.32726 -12.71041,-26.92105 -26.33215,-29.78478 -43.98061,-1.30767 -87.9831,-2.55577 -131.87887,-5.20955 -24.72067,0.36163 -46.01441,-25.53035 -40.39507,-49.97462 -4.6879,-2.8428 -11.55149,-2.07657 -17.2823,-2.91219 -23.08195,-1.99656 -54.48197,-2.96118 -65.25413,-28.08603 -4.94348,-33.55431 -0.70192,-68.22492 -1.75331,-102.173 -1.81326,-25.35916 3.05231,-56.62358 -19.56412,-74.36215 -23.69895,-17.64076 -46.61133,-37.49265 -66.22582,-59.98739 z"
       style="color:#000000;display:inline;overflow:visible;visibility:visible;fill:#ab4200;fill-opacity:1;fill-rule:nonzero;stroke:none;stroke-width:5;marker:none;enable-background:accumulate"
       inkscape:connector-curvature="0" />
  </g>
</svg>
