<?xml version="1.0" encoding="UTF-8" standalone="no"?>
<!-- Created with Inkscape (http://www.inkscape.org/) -->

<svg
   xmlns:dc="http://purl.org/dc/elements/1.1/"
   xmlns:cc="http://creativecommons.org/ns#"
   xmlns:rdf="http://www.w3.org/1999/02/22-rdf-syntax-ns#"
   xmlns:svg="http://www.w3.org/2000/svg"
   xmlns="http://www.w3.org/2000/svg"
   xmlns:sodipodi="http://sodipodi.sourceforge.net/DTD/sodipodi-0.dtd"
   xmlns:inkscape="http://www.inkscape.org/namespaces/inkscape"
   width="300"
   height="300"
   id="svg3143"
   version="1.1"
   inkscape:version="0.48.5 r10040"
   sodipodi:docname="logo_GLiB.svg"
   inkscape:export-filename="/home/winardiaris/git/GnomeAsiaSummit2015/Artworks/Logo/GLiB/logo_GLiB-600px.png"
   inkscape:export-xdpi="180"
   inkscape:export-ydpi="180">
  <defs
     id="defs3145" />
  <sodipodi:namedview
     id="base"
     pagecolor="#ffffff"
     bordercolor="#666666"
     borderopacity="1.0"
     inkscape:pageopacity="0.0"
     inkscape:pageshadow="2"
     inkscape:zoom="1.979899"
     inkscape:cx="158.98187"
     inkscape:cy="83.198671"
     inkscape:document-units="px"
     inkscape:current-layer="layer1"
     showgrid="false"
     inkscape:window-width="1366"
     inkscape:window-height="716"
     inkscape:window-x="0"
     inkscape:window-y="26"
     inkscape:window-maximized="1" />
  <metadata
     id="metadata3148">
    <rdf:RDF>
      <cc:Work
         rdf:about="">
        <dc:format>image/svg+xml</dc:format>
        <dc:type
           rdf:resource="http://purl.org/dc/dcmitype/StillImage" />
        <dc:title></dc:title>
      </cc:Work>
    </rdf:RDF>
  </metadata>
  <g
     inkscape:label="Layer 1"
     inkscape:groupmode="layer"
     id="layer1"
     transform="translate(0,-752.36218)">
    <rect
       y="752.36218"
       x="-7.6171875e-07"
       height="299.99997"
       width="300"
       id="rect3058"
       style="fill:#ffffff;fill-opacity:1;stroke:none;opacity:0" />
    <g
       transform="translate(-409.49419,430.23184)"
       id="g3060">
      <g
         id="g3062">
        <path
           inkscape:connector-curvature="0"
           id="path3064"
           d="m 541.46218,343.37201 c 4.71128,17.33202 5.34542,36.66879 -1.90625,53.40624 -1.59484,3.90139 -5.51523,4.65019 -9.03125,5.46875 -6.3198,2.62243 -9.26839,10.94897 -6.0625,17 -4.27984,3.9265 -4.83096,10.81347 -2.875,15.5625 -4.43977,3.9551 -4.26173,10.8881 -1.8125,15.65625 -4.32154,3.69218 -5.70385,10.41022 -2.375,15.3125 1.47961,2.58758 4.84261,3.94587 3.34375,7.46875 -1.19392,18.74845 -3.88703,39.70367 7.3125,56.0625 4.38782,8.36257 11.81432,14.76844 19.78125,19.3125 -2.44191,6.50781 -4.53075,13.26395 -5.34467,20.02377 4.85371,2.71008 12.62109,3.15801 18.81342,3.72623 3.3684,0.49294 5.24262,-1.44434 4.90625,-4.78125 0.41192,-5.96059 -0.75505,-11.88526 -1.25,-17.75 10.78692,-4.76152 19.84106,-13.58854 25.52533,-23.81714 2.20655,-4.22125 -7.27161,1.19737 -10.18158,1.28589 -9.21317,3.78317 -22.76341,4.6231 -28.125,-5.5625 -7.8785,-15.83969 -2.89139,-34.49674 2.47621,-50.39737 7.46031,-22.21933 18.95916,-42.70865 29.93004,-63.22763 -4.50847,-4.9869 -11.43567,-8.58288 -12.90625,-15.8125 -3.20616,-16.88247 -6.99285,-35.3949 -20.59375,-47.18749 -3.07879,-2.70257 -6.89041,-4.13894 -10.65625,-5.625 0.34375,1.29166 0.6875,2.58333 1.03125,3.875 z m 30.4375,64.06249 c 4.83519,-0.20588 4.3518,7.9056 -0.4375,7.09375 -4.36298,-0.48906 -3.9574,-7.12568 0.4375,-7.09375 z m -38,2.375 c 5.2273,-0.0838 3.23049,8.59469 -1.46875,6.15625 -3.00325,-1.45284 -1.91657,-6.2276 1.46875,-6.15625 z m -2.65625,15.03125 c 5.2273,-0.0838 3.23049,8.59469 -1.46875,6.15625 -3.00325,-1.45284 -1.91657,-6.2276 1.46875,-6.15625 z m -2.46875,15.03125 c 5.2273,-0.0838 3.23049,8.59469 -1.46875,6.15625 -3.00325,-1.45284 -1.91657,-6.2276 1.46875,-6.15625 z m -2.3125,16.25 c 5.2273,-0.0838 3.23049,8.59469 -1.46875,6.15625 -3.00325,-1.45284 -1.91657,-6.2276 1.46875,-6.15625 z"
           style="opacity:0.5;fill:#8c8c8c" />
        <path
           inkscape:connector-curvature="0"
           id="path3066"
           d="m 647.14968,439.5595 c -4.44018,0.76184 -10.2642,-0.54469 -13.84289,1.38379 -9.76145,20.74125 -12.36713,44.28291 -12.01795,67.05268 0.83238,12.95205 2.08297,29.12889 14.17334,36.62603 9.8391,4.63135 21.1944,0.32795 30.60051,-3.34544 14.28518,-5.93305 28.97313,-18.32502 28.27449,-35.24831 -2.9e-4,-9.24097 -6.31642,-18.26661 -15.15625,-21.09375 9.08251,-9.15733 9.27808,-25.45156 -0.15625,-34.375 -7.97381,-8.83905 -20.21653,-11.77072 -31.875,-11 z m 6.6875,13.5 c 5.38689,1.14208 12.77644,3.91063 13.75,9.84375 -3.10931,8.22446 -11.06167,15.26227 -17.125,19.78125 -1.13103,-9.81815 -0.11202,-20.69199 3.375,-29.625 z m 14.75,43.3125 c 4.89851,-0.18949 9.74953,5.16786 6.59375,9.875 -4.56493,9.15281 -13.57877,15.79786 -22.78125,19.8125 -3.23814,1.11019 -1.84123,-4.6642 -2.65625,-6.46875 -0.9793,-4.91162 0.16506,-9.69936 4.5625,-12.5625 4.29905,-3.91989 9.13068,-7.84173 14.28125,-10.65625 z"
           style="font-size:144.08859253px;font-style:normal;font-variant:normal;font-weight:bold;font-stretch:normal;line-height:125%;letter-spacing:0px;word-spacing:0px;opacity:0.5;fill:#dc3535;fill-opacity:1;stroke:none;font-family:kabayan;-inkscape-font-specification:kabayan Bold" />
        <path
           inkscape:connector-curvature="0"
           id="path3068"
           d="m 482.99343,441.09075 c -19.11144,2.45116 -39.57606,10.43471 -49.5,28.0625 -14.28572,21.89997 -11.12435,53.82558 8.15625,71.65625 12.13547,12.04096 32.29328,19.37276 48.09375,10 12.36406,-7.0295 25.57078,-19.35145 23.28125,-34.96875 -1.90835,-16.61095 -18.48907,-27.10353 -33.78125,-29.5625 -7.66786,-1.35368 -18.20867,-2.43298 -22.375,5.78125 -7.03077,13.84248 5.45278,34.5087 21.53125,31.5 6.49882,-0.7088 14.3114,-7.73676 10.0625,-14.5 -2.116,-3.91412 -7.18262,-4.45258 -10.3125,-1.46875 -3.41835,1.97981 -9.9447,0.632 -7.84375,-4.5 1.82889,-4.38613 8.5603,-1.60398 11.96875,-0.875 5.36524,1.27661 11.4195,4.61726 10.84375,11.09375 0.90025,14.46438 -15.61271,25.25759 -28.625,19.5625 -12.57189,-3.89245 -16.42789,-18.83688 -15.53125,-30.75 -0.0797,-14.1368 5.85082,-28.42142 18.34375,-35.875 8.48299,-5.7869 18.70921,-8.81963 27.0625,-14.59375 3.68997,-5.66145 -6.10166,-11.39667 -11.375,-10.5625 z"
           style="font-size:144.08859253px;font-style:normal;font-variant:normal;font-weight:bold;font-stretch:normal;line-height:125%;letter-spacing:0px;word-spacing:0px;opacity:0.5;fill:#dc3535;fill-opacity:1;stroke:none;font-family:kabayan;-inkscape-font-specification:kabayan Bold" />
        <path
           inkscape:connector-curvature="0"
           id="path3070"
           d="m 605.24343,425.71575 c -10.30428,0.76617 -12.66342,16.59844 -3.6875,21.0625 7.64908,4.39372 16.36375,-4.37067 14.28125,-12.21875 -0.84862,-4.95913 -5.34062,-9.34146 -10.59375,-8.84375 z m -3.4375,24.0625 c -7.2366,1.49147 -7.16466,10.8312 -8.28125,16.625 -2.24033,22.19871 -5.83591,45.96719 2.875,67.28125 2.22484,6.83529 9.32321,13.11856 16.75,10.0625 7.37064,-1.29591 3.83753,-9.8977 3.72467,-14.89359 -1.5297,-18.10572 -3.03687,-36.39882 -2.47467,-54.51266 -1.34297,-7.53228 -1.28129,-16.26636 -6.25,-22.34375 -1.84503,-1.29437 -4.01769,-2.47961 -6.34375,-2.21875 z"
           style="font-size:144.08859253px;font-style:normal;font-variant:normal;font-weight:bold;font-stretch:normal;line-height:125%;letter-spacing:0px;word-spacing:0px;opacity:0.5;fill:#dc3535;fill-opacity:1;stroke:none;font-family:kabayan;-inkscape-font-specification:kabayan Bold" />
        <path
           inkscape:connector-curvature="0"
           id="path3072"
           d="m 543.39968,342.87201 c 0.84024,3.07785 1.66346,6.39927 2.28125,9.8125 0.0225,0.12427 0.0405,0.25052 0.0625,0.375 0.0309,0.19749 0.0639,0.39607 0.0937,0.59375 0.45782,3.0385 0.7568,6.09438 0.9375,9.125 0.004,0.11388 0.0283,0.23006 0.0313,0.34375 0.004,0.0306 -0.004,0.0632 0,0.0937 0.0145,0.26138 0.0188,0.52033 0.0313,0.78125 0.0271,0.57239 0.0765,1.14917 0.0937,1.71875 0.007,0.21922 -0.005,0.4375 0,0.65625 0.0191,0.81763 0.0333,1.62779 0.0313,2.4375 -0.002,0.92387 -0.0336,1.83924 -0.0625,2.75 -0.003,0.10303 0.004,0.20966 0,0.3125 -0.0283,0.80479 -0.0755,1.6142 -0.125,2.40625 -0.0504,0.80544 -0.0838,1.61616 -0.15625,2.40625 -0.0221,0.24173 -0.0695,0.47858 -0.0937,0.71875 -0.0326,0.32372 -0.0573,0.648 -0.0937,0.96875 -0.0437,0.38571 -0.10715,0.77509 -0.15625,1.15625 -0.0402,0.31144 -0.0812,0.62925 -0.125,0.9375 -0.0757,0.53247 -0.1635,1.07144 -0.25,1.59375 -0.0241,0.14519 -0.0376,0.29312 -0.0625,0.4375 -0.11672,0.67682 -0.23993,1.34227 -0.375,2 -1.28219,6.03942 -2.97148,16.0407 -10.34375,18.90624 -0.24508,-0.0109 -0.47979,-0.008 -0.71875,0 -0.0102,3.4e-4 -0.0211,-3.7e-4 -0.0313,0 -0.22839,0.009 -0.46506,0.0368 -0.6875,0.0625 -0.0103,10e-4 -0.0211,-0.001 -0.0313,0 -0.22181,0.0264 -0.44071,0.0512 -0.65625,0.0937 -0.0103,0.002 -0.021,-0.002 -0.0313,0 -0.21514,0.0432 -0.41646,0.0978 -0.625,0.15625 -0.0215,0.006 -0.0411,0.0252 -0.0625,0.0313 -0.19588,0.0566 -0.40404,0.1179 -0.59375,0.1875 -0.0215,0.008 -0.0411,0.0233 -0.0625,0.0313 -0.18826,0.0707 -0.38065,0.13585 -0.5625,0.21875 -0.22837,0.10458 -0.4385,0.22101 -0.65625,0.34375 -0.16881,0.0948 -0.33783,0.17619 -0.5,0.28125 -0.0311,0.0202 -0.063,0.042 -0.0937,0.0625 -0.33762,0.22452 -0.66228,0.48438 -0.96875,0.75 -0.0331,0.0287 -0.0609,0.0645 -0.0937,0.0937 -0.29766,0.26511 -0.57857,0.5443 -0.84375,0.84375 -0.2958,0.33368 -0.55985,0.69239 -0.8125,1.0625 -0.23466,0.34376 -0.46128,0.69281 -0.65625,1.0625 -0.0111,0.021 -0.0204,0.0414 -0.0313,0.0625 -0.1625,0.31286 -0.30489,0.64112 -0.4375,0.96875 -0.0378,0.0936 -0.0897,0.18655 -0.125,0.28125 -0.0115,0.0306 -0.0201,0.0631 -0.0313,0.0937 -0.0981,0.2697 -0.1728,0.53577 -0.25,0.8125 -0.0349,0.12559 -0.0632,0.24822 -0.0937,0.375 -0.0229,0.095 -0.0421,0.18565 -0.0625,0.28125 -0.0262,0.1226 -0.0405,0.25154 -0.0625,0.375 -0.0496,0.27846 -0.0973,0.56212 -0.125,0.84375 -0.0278,0.28186 -0.0575,0.56035 -0.0625,0.84375 -0.002,0.11524 -0.002,0.22845 0,0.34375 4.7e-4,0.0314 -7.6e-4,0.0624 0,0.0937 0.006,0.26218 0.0359,0.5198 0.0625,0.78125 0.0214,0.20911 0.0278,0.4171 0.0625,0.625 0.0657,0.39572 0.16581,0.79957 0.28125,1.1875 0.0393,0.1321 0.0798,0.27541 0.125,0.40625 0.0291,0.0839 0.0621,0.1667 0.0937,0.25 0.003,0.009 -0.004,0.0223 0,0.0313 0.0789,0.20677 0.18695,0.39107 0.28125,0.59375 0.0643,0.13826 0.1159,0.27018 0.1875,0.40625 0.0395,0.0749 0.0833,0.14455 0.125,0.21875 0.0773,0.13784 0.1649,0.27107 0.25,0.40625 0.044,0.0699 0.0789,0.14955 0.125,0.21875 -0.0596,0.27787 -0.14395,0.54222 -0.21875,0.8125 -0.074,0.0634 -0.14595,0.121 -0.21875,0.1875 -0.15389,0.14033 -0.28953,0.28423 -0.4375,0.4375 -0.0824,0.0852 -0.1696,0.161 -0.25,0.25 -0.13492,0.14912 -0.27738,0.30965 -0.40625,0.46875 -0.0829,0.1024 -0.1699,0.20624 -0.25,0.3125 -0.1144,0.15162 -0.20396,0.30981 -0.3125,0.46875 -0.0862,0.12622 -0.1677,0.2445 -0.25,0.375 -0.0972,0.15387 -0.18985,0.30941 -0.28125,0.46875 -0.0835,0.1458 -0.1716,0.28752 -0.25,0.4375 -0.0794,0.15141 -0.14495,0.31348 -0.21875,0.46875 -0.14513,0.30594 -0.28417,0.61893 -0.40625,0.9375 -0.0723,0.18863 -0.15515,0.3703 -0.21875,0.5625 -0.0239,0.0718 -0.0399,0.14645 -0.0625,0.21875 -0.0839,0.26939 -0.15305,0.53815 -0.21875,0.8125 -0.0301,0.12496 -0.0675,0.24926 -0.0937,0.375 -0.0467,0.22581 -0.0916,0.45995 -0.125,0.6875 -0.0154,0.1047 -0.0188,0.20758 -0.0313,0.3125 -0.005,0.0413 0.004,0.0836 0,0.125 -0.0326,0.30241 -0.0555,0.60379 -0.0625,0.90625 -0.006,0.26055 -0.0136,0.52219 0,0.78125 0.0173,0.32681 0.0742,0.64688 0.125,0.96875 0.003,0.0207 -0.003,0.0418 0,0.0625 0.0103,0.0622 0.0197,0.1255 0.0313,0.1875 0.053,0.28288 0.1065,0.56742 0.1875,0.84375 0.0991,0.34129 0.23103,0.67193 0.375,1 0.0131,0.0297 0.0177,0.0642 0.0313,0.0937 0.28026,0.61756 0.63901,1.19994 1.09375,1.75 0.18434,0.26806 0.16356,0.65405 -0.1875,0.875 -0.55229,0.36239 -1.05761,0.78471 -1.5,1.25 -0.22119,0.23265 -0.43158,0.46467 -0.625,0.71875 -0.38684,0.50815 -0.69419,1.07955 -0.96875,1.65625 -0.13728,0.28835 -0.26608,0.57381 -0.375,0.875 -0.76241,2.10836 -0.82257,4.47961 -0.15625,6.65625 0.0952,0.31095 0.18736,0.63661 0.3125,0.9375 0.12514,0.30089 0.28221,0.58703 0.4375,0.875 0.15529,0.28797 0.31437,0.57156 0.5,0.84375 0.44838,0.94139 -0.0253,2.8446 -1.53125,3.90625 -4.75586,4.52169 -2.5594,12.00711 2.3125,15.25 1.00309,1.10152 -0.054,5.92187 0,8.9375 -0.56549,5.19908 -0.8263,10.90596 -0.8125,17.4375 0.0375,17.72461 1.7885,24.03725 10.28125,37.03125 3.84231,5.87876 8.47497,10.15849 15.03125,13.84375 1.55018,0.87136 2.9241,1.74481 3.0625,1.96875 0.0692,0.11197 -0.039,0.70716 -0.28125,1.5625 -0.12112,0.42767 -0.29034,0.90148 -0.46875,1.4375 -0.17841,0.53602 -0.37176,1.12605 -0.59375,1.71875 -0.35175,0.93915 -0.68587,1.8868 -1,2.8125 -0.0105,0.0307 -0.0208,0.063 -0.0313,0.0937 -0.3019,0.89275 -0.5827,1.77085 -0.84375,2.625 -0.0188,0.0613 -0.044,0.1264 -0.0625,0.1875 -0.24719,0.8155 -0.48322,1.61905 -0.6875,2.375 -0.0216,0.0798 -0.0414,0.171 -0.0625,0.25 -0.19157,0.71987 -0.35314,1.42008 -0.5,2.0625 -0.15648,0.68281 -0.27377,1.30178 -0.375,1.875 -0.005,0.0294 -0.0263,0.0646 -0.0313,0.0937 -0.0185,0.10655 -0.0461,0.2416 -0.0625,0.34375 -0.0686,0.44078 -0.12935,0.87131 -0.15625,1.21875 -0.007,0.0944 -0.0272,0.2255 -0.0313,0.3125 -0.004,0.10076 -4.3e-4,0.2226 0,0.3125 1.7e-4,0.0834 -0.004,0.1762 0,0.25 0.005,0.0732 0.0222,0.15595 0.0313,0.21875 0.0176,0.12668 0.0591,0.2289 0.0937,0.3125 0.0412,0.099 0.0901,0.1533 0.15625,0.1875 -0.0123,0.0213 -0.0186,0.041 -0.0313,0.0625 0.61107,0.25667 15.13853,3.34847 18.5,2.28125 0.0933,0.0181 0.17275,0.002 0.21875,-0.0313 0.002,-0.0102 -0.002,-0.0211 0,-0.0313 0.1213,-0.568 0.21065,-1.13592 0.28125,-1.71875 10e-4,-0.0102 -10e-4,-0.0211 0,-0.0313 0.0697,-0.58324 0.12875,-1.18638 0.15625,-1.78125 4.7e-4,-0.0103 -4.6e-4,-0.021 0,-0.0313 0.0541,-1.20074 0.0351,-2.42767 -0.0313,-3.65625 -5.6e-4,-0.0103 5.7e-4,-0.021 0,-0.0313 -0.13515,-2.47804 -0.45307,-4.97439 -0.65625,-7.40625 -0.8708,-6.01027 -0.83897,-6.97249 0.125,-7.28125 5.26074,-1.68497 13.16287,-7.55807 17.96875,-13.34375 3.5633,-4.28975 6.15194,-7.16056 5.875,-7.4375 0.0318,-0.0561 0.0928,-0.11365 0.0937,-0.15625 -2.72775,0.82481 -4.08767,1.11033 -8.125,2.46875 -24.60276,8.15344 -35.79555,-6.14063 -32.9375,-35.65625 4.10073,-21.97831 13.80083,-46.07528 31.0625,-77.0625 2.57404,-4.62079 4.6875,-8.49452 4.6875,-8.625 0,-0.13047 -1.47955,-1.33143 -3.28125,-2.6875 -6.89512,-5.18968 -9.52428,-10.33747 -11.1875,-21.78124 -1.95568,-12.51108 -9.60562,-35.30623 -24.46875,-41 z m 28.5,62.56249 c 3.06841,0 5.53125,2.49409 5.53125,5.5625 0,3.06841 -2.46284,5.5625 -5.53125,5.5625 -3.06841,0 -5.5625,-2.49409 -5.5625,-5.5625 0,-3.06841 2.49409,-5.5625 5.5625,-5.5625 z m -38,2.375 c 2.89949,0 5.25,2.35051 5.25,5.25 0,2.8995 -2.35051,5.25 -5.25,5.25 -2.8995,0 -5.25,-2.3505 -5.25,-5.25 0,-2.89949 2.3505,-5.25 5.25,-5.25 z m -2.65625,15.03125 c 2.89949,0 5.25,2.35051 5.25,5.25 0,2.8995 -2.35051,5.25 -5.25,5.25 -2.8995,0 -5.25,-2.3505 -5.25,-5.25 0,-2.89949 2.3505,-5.25 5.25,-5.25 z m -2.46875,15.03125 c 2.89949,0 5.25,2.35051 5.25,5.25 0,2.8995 -2.35051,5.25 -5.25,5.25 -2.8995,0 -5.25,-2.3505 -5.25,-5.25 0,-2.89949 2.3505,-5.25 5.25,-5.25 z m -2.3125,16.25 c 2.89949,0 5.25,2.35051 5.25,5.25 0,2.8995 -2.35051,5.25 -5.25,5.25 -2.8995,0 -5.25,-2.3505 -5.25,-5.25 0,-2.89949 2.3505,-5.25 5.25,-5.25 z"
           style="fill:#8c8c8c" />
        <path
           sodipodi:nodetypes="sccccssssccscssssssscccccccccccsssssssssssssssssssss"
           inkscape:connector-curvature="0"
           id="path3074"
           d="m 544.92043,344.74701 c 0.0212,0.0258 0.0424,0.0366 0.0625,0.0625 21.62707,29.58095 13.21499,65.82932 3.6875,97.28124 -9.55016,31.36003 -12.44275,45.32059 -12.46875,60.28125 -0.25043,13.75226 6.5286,32.04682 21.375,32.21875 8.16918,-0.14178 16.55894,-1.83544 24.9375,-5.0625 1.97054,-0.75897 4.90818,-2.27932 5.03125,-2.15625 0.27694,0.27694 -2.3117,3.14775 -5.875,7.4375 -4.80588,5.78568 -12.70801,11.65878 -17.96875,13.34375 -0.96397,0.30876 -0.9958,1.27098 -0.125,7.28125 0.40725,4.87432 1.24773,10.0553 0.25,14.6875 -0.36772,0.26786 -2.32711,-1.22845 -4.65625,-2.71875 -2.32915,-1.49029 -4.42488,-2.6885 -4.65625,-2.6875 -0.23137,0.001 -2.32492,0.69437 -4.65625,1.5625 -2.33133,0.86813 -4.41041,1.59375 -4.625,1.59375 -1.18539,0 0.55769,-7.82146 3.46875,-15.59375 0.88797,-2.37081 1.48215,-4.49481 1.34375,-4.71875 -0.1384,-0.22394 -1.51232,-1.09739 -3.0625,-1.96875 -6.55628,-3.68526 -11.18894,-7.96499 -15.03125,-13.84375 -8.49275,-12.994 -10.24375,-19.30664 -10.28125,-37.03125 -0.0138,-6.53154 0.24701,-12.23842 0.8125,-17.4375 -0.054,-3.01563 1.00309,-7.83598 0,-8.9375 -4.8719,-3.24289 -7.06836,-10.72831 -2.3125,-15.25 1.50597,-1.06165 1.97963,-2.96491 1.53125,-3.9063 -2.97008,-4.35505 -2.04334,-10.91338 2.375,-13.8125 0.35106,-0.22095 0.37184,-0.60694 0.1875,-0.875 -3.8021,-4.59912 -1.20965,-11.99819 2.75,-14.90625 -4.75525,-6.38884 0.0854,-16.54304 8.09375,-16.1875 7.37227,-2.86554 9.06156,-12.86682 10.34375,-18.90624 2.14473,-10.44409 1.97088,-23.37891 -0.46875,-35.5625 -0.32295,-1.49336 -0.97144,-3.88879 -1.60149,-6.06591 z m -10.96875,62.34374 c -3.31371,0 -6,2.68629 -6,6 0,3.31371 2.68629,6 6,6 3.31371,0 6,-2.68629 6,-6 0,-3.31371 -2.68629,-6 -6,-6 z m -2.71875,15.03125 c -3.31371,0 -6,2.68629 -6,6 0,3.31371 2.68629,6 6,6 3.31371,0 6,-2.68629 6,-6 0,-3.31371 -2.68629,-6 -6,-6 z m -2.4375,15.09375 c -3.31371,0 -6,2.68629 -6,6 0,3.31371 2.68629,6 6,6 3.31371,0 6,-2.68629 6,-6 0,-3.31371 -2.68629,-6 -6,-6 z m -2.34375,16.21875 c -3.31371,0 -6,2.68629 -6,6 0,3.31371 2.68629,6 6,6 3.31371,0 6,-2.68629 6,-6 0,-3.31371 -2.68629,-6 -6,-6 z"
           style="fill:#535353" />
        <path
           d="m 467.96248,552.58671 c -15.36948,-3.07389 -27.42488,-12.5357 -36.16623,-28.38545 -2.40149,-5.47534 -3.98646,-11.23888 -4.75493,-17.29063 -0.67241,-6.05168 -0.43227,-12.19945 0.72045,-18.44334 1.24876,-6.24378 3.45811,-11.86323 6.62807,-16.85837 4.51476,-7.97282 10.18224,-13.9765 17.00246,-18.01107 6.82015,-4.13044 15.41743,-7.34842 25.79185,-9.65394 3.07384,-0.67231 5.52334,-0.96048 7.34852,-0.86453 1.82506,0.0962 3.50609,0.62449 5.0431,1.58498 1.63294,1.05675 2.73762,2.16142 3.31404,3.31403 0.57628,1.15281 0.48023,2.01734 -0.28818,2.5936 -0.48036,0.38433 -1.00869,0.81659 -1.58497,1.2968 -1.44095,0.6725 -3.84243,1.77718 -7.20443,3.31403 -3.26607,1.53704 -5.7636,2.7858 -7.49261,3.74631 -1.72911,0.86461 -3.89044,2.01732 -6.48398,3.45812 -2.59364,1.44097 -4.89906,2.97791 -6.91626,4.61084 -2.01728,1.63308 -3.93845,3.41017 -5.76354,5.33128 -4.41875,4.80302 -7.39658,10.99882 -8.93349,18.58743 -1.44091,7.49265 -1.68106,14.88919 -0.72045,22.18964 0.57633,4.13057 2.01722,8.16504 4.32266,12.10344 2.40145,3.93844 5.37927,6.67612 8.93349,8.21305 3.26597,1.63301 6.58001,2.5936 9.94212,2.88177 3.45807,0.19213 6.53196,-0.24014 9.22167,-1.2968 2.78565,-1.05663 5.33121,-2.54555 7.63669,-4.46674 2.30535,-1.92117 4.03441,-4.17855 5.18719,-6.77217 1.2487,-2.59357 2.01717,-5.33125 2.30542,-8.21305 0.2881,-2.97779 -0.24022,-6.05168 -1.58498,-9.22167 -2.20942,-2.68961 -6.09981,-4.80291 -11.67117,-6.33989 -5.57148,-1.63296 -9.5099,-1.63296 -11.81527,0 -1.15275,0.67245 -1.77713,2.30546 -1.87315,4.89901 -0.0961,2.20939 0.67237,3.74634 2.30542,4.61083 1.72901,0.86457 3.60216,1.10472 5.61945,0.72045 2.11325,-0.3842 3.89034,-1.10465 5.33128,-2.16133 1.44083,-0.8645 2.83368,-0.62435 4.17857,0.72044 1.44082,1.2488 2.16127,2.64166 2.16133,4.17857 -0.0961,2.20939 -1.10474,4.08254 -3.02586,5.61946 -1.82518,1.44091 -4.08257,2.44952 -6.77216,3.02586 -6.53207,1.05667 -12.00743,-1.44087 -16.4261,-7.49261 -3.8424,-5.37927 -5.28328,-10.90266 -4.32266,-16.57019 0.8645,-5.47531 3.93838,-8.83738 9.22167,-10.0862 15.75363,-0.48024 28.24129,4.03453 37.46303,13.54433 3.84228,3.74634 6.19573,8.45323 7.06034,14.12068 0.86445,5.57145 0.096,10.66257 -2.30541,15.27339 -4.22668,7.01232 -10.13431,12.82389 -17.7229,17.43472 -7.49267,4.70689 -15.12936,6.29186 -22.91009,4.75492"
           style="font-size:144.08859253px;font-style:normal;font-variant:normal;font-weight:bold;font-stretch:normal;line-height:125%;letter-spacing:0px;word-spacing:0px;fill:#dc3535;fill-opacity:1;stroke:none;font-family:kabayan;-inkscape-font-specification:kabayan Bold"
           id="path3076"
           inkscape:connector-curvature="0" />
        <path
           inkscape:connector-curvature="0"
           id="path3078"
           d="m 605.96218,427.6845 c -4.44603,0 -8.03125,4.09896 -8.03125,9.125 0,5.02604 3.58522,9.09375 8.03125,9.09375 4.44603,0 8.0625,-4.06771 8.0625,-9.09375 0,-5.02604 -3.61647,-9.125 -8.0625,-9.125 z m -3.90625,24.0625 c -1.25027,0.10243 -2.33621,0.80177 -3.21875,2.0625 -1.82513,2.49763 -3.19567,9.2658 -4.15625,20.3125 -0.38424,4.61091 -0.74308,7.86013 -1.03125,9.78125 -0.0961,4.1306 -0.36346,9.4391 -0.84375,15.875 -0.0961,2.01729 -0.0671,4.49096 0.125,7.46875 0.19211,2.97787 0.5799,6.40767 1.15625,10.25 0.57635,3.84239 1.35191,7.39026 2.3125,10.65625 1.05664,3.26602 2.39824,6.24786 4.03125,8.9375 1.72905,2.68966 3.75707,4.35884 6.0625,5.03125 2.40146,0.67242 5.17378,0.28464 8.34375,-1.15625 0.67239,-0.86452 0.99998,-1.51969 1,-2 -1.9212,-18.63543 -3.11348,-36.13866 -3.59375,-52.46875 -0.0961,-3.55412 -0.0961,-5.93866 0,-7.1875 0.096,-1.24869 0.18515,-2.08444 0.28125,-2.46875 0.096,-0.38417 0.0671,-1.12847 -0.125,-2.28125 -0.0961,-1.24869 -0.39472,-3.6043 -0.875,-7.0625 -0.38425,-1.34474 -0.71184,-2.89585 -1,-4.625 -0.28819,-1.72897 -0.64703,-3.09951 -1.03125,-4.15625 -0.28819,-1.15261 -0.85424,-2.64354 -1.71875,-4.46875 -2.21537,-1.78304 -4.11126,-2.6317 -5.71875,-2.5 z"
           style="font-size:144.08859253px;font-style:normal;font-variant:normal;font-weight:bold;font-stretch:normal;line-height:125%;letter-spacing:0px;word-spacing:0px;fill:#dc3535;fill-opacity:1;stroke:none;font-family:kabayan;-inkscape-font-specification:kabayan Bold" />
        <path
           d="m 635.00168,442.07076 c 1.63299,1.1e-4 4.17855,-0.0959 7.6367,-0.28817 3.4581,-0.19202 6.09972,-0.28808 7.92487,-0.28818 9.02951,10e-5 16.33,2.01734 21.90147,6.05172 7.78072,5.57152 11.67111,12.29564 11.67117,20.1724 -6e-5,6.53209 -2.8338,12.53577 -8.50122,18.01108 0.28812,0.19217 1.00856,0.48035 2.16133,0.86453 1.15265,0.38429 1.96915,0.67247 2.4495,0.86453 0.5763,0.19217 1.3928,0.62444 2.44951,1.2968 1.15264,0.67247 2.11323,1.39291 2.88177,2.16133 0.76841,0.76852 1.63294,1.82517 2.59359,3.16994 1.05658,1.34488 2.01717,2.88182 2.88178,4.61084 0.86446,2.88181 1.29672,5.71555 1.29679,8.50123 -7e-5,4.32269 -1.05672,8.45322 -3.16995,12.39162 -2.0173,3.84238 -4.65892,7.15641 -7.92487,9.94211 -3.26606,2.78572 -6.91631,5.28326 -10.95073,7.49261 -4.03453,2.1133 -7.97295,3.79433 -11.81527,5.0431 -3.84239,1.15271 -7.49263,1.92118 -10.95073,2.30541 -1.24879,0.19212 -2.44953,0.28818 -3.60221,0.28818 -3.74633,0 -7.01233,-1.10468 -9.79803,-3.31404 -2.68966,-2.20935 -4.85099,-5.28324 -6.48398,-9.22167 -1.53696,-4.03446 -2.68966,-8.5012 -3.45813,-13.40024 -0.67242,-4.89898 -1.00862,-10.27828 -1.00862,-16.13792 0,-11.33491 1.1527,-22.81396 3.45813,-34.43717 2.40146,-11.62306 5.18717,-20.3164 8.35713,-26.08004 m 35.87806,73.77336 c 4.8029,-5.09109 7.20437,-9.60587 7.20443,-13.54433 -6e-5,-2.11325 -1.00867,-3.93837 -3.02586,-5.47536 -1.92123,-1.63296 -3.9865,-2.44946 -6.19581,-2.44951 -0.48034,5e-5 -0.91261,0.0481 -1.29679,0.14409 -8.26112,5.09118 -14.84116,10.61457 -19.74014,16.57019 -0.19215,1.82515 -0.28821,3.50618 -0.28818,5.0431 -3e-5,2.97786 0.48027,6.72416 1.44089,11.23891 0.48026,0.57637 1.20071,0.86455 2.16133,0.86453 2.20932,2e-5 5.4273,-1.44087 9.65393,-4.32266 4.32261,-2.9778 7.68468,-5.66746 10.0862,-8.06896 M 651.86005,484.5769 c 0.76844,-0.76841 2.40144,-2.25733 4.89901,-4.46675 2.4975,-2.30535 4.32262,-4.03441 5.47537,-5.18719 1.15266,-1.2487 2.44946,-2.92973 3.89039,-5.0431 1.5369,-2.20928 2.6896,-4.41864 3.45813,-6.62807 0.096,-2.4014 -1.00867,-4.56272 -3.31404,-6.48399 -2.2094,-2.01715 -4.61088,-3.45804 -7.20443,-4.32266 -2.49757,-0.9605 -4.56284,-1.44079 -6.19581,-1.44088 l -0.14409,0 c -1.15274,1.24886 -2.25742,4.65895 -3.31404,10.23029 -0.96062,5.5715 -1.44091,10.75868 -1.44088,15.56156 -3e-5,5.76361 0.76844,8.64538 2.30541,8.64532 0.48027,6e-5 1.00859,-0.28812 1.58498,-0.86453"
           style="font-size:144.08859253px;font-style:normal;font-variant:normal;font-weight:bold;font-stretch:normal;line-height:125%;letter-spacing:0px;word-spacing:0px;fill:#dc3535;fill-opacity:1;stroke:none;font-family:kabayan;-inkscape-font-specification:kabayan Bold"
           id="path3080"
           inkscape:connector-curvature="0" />
      </g>
      <g
         id="text3082"
         style="font-size:12px;font-style:normal;font-weight:normal;line-height:125%;letter-spacing:0px;word-spacing:0px;fill:#000000;fill-opacity:1;stroke:none;font-family:Sans">
        <path
           id="path3077"
           style="font-size:20px;font-variant:normal;font-stretch:normal;letter-spacing:5px;font-family:Sans;-inkscape-font-specification:Sans"
           d="m 454.40363,599.64368 c 2.77999,0 4.42,-1.08 5.3,-1.96 l 0,-5.54 -5.5,0 0,1.36 3.94,0 0,3.66 c -0.78,0.64 -2.06,1.02 -3.12,1.02 -1.16,0 -1.98,-0.24 -2.84,-0.74 -1.52,-0.88 -2.64,-2.64 -2.64,-4.94 0,-2.11999 0.76,-3.74 2.4,-4.82 0.82,-0.54 1.76,-0.82 2.78,-0.82 1.18,0 2.76,0.46 3.74,0.98 l 0.66,-1.24 c -1.34,-0.74 -2.72001,-1.18 -4.56,-1.18 -1.3,0 -2.46,0.3 -3.5,0.92 -1.9,1.12 -3.34,3.38001 -3.34,6.3 0,4.02 2.94,7 6.68,7"
           inkscape:connector-curvature="0" />
        <path
           id="path3079"
           style="font-size:20px;font-variant:normal;font-stretch:normal;letter-spacing:5px;font-family:Sans;-inkscape-font-specification:Sans"
           d="m 467.50331,585.58368 0,13.88 1.66,0 0,-11.64 7.56,11.64 2.1,0 0,-13.88 -1.66,0 0,11.62 -7.56,-11.62 -2.1,0"
           inkscape:connector-curvature="0" />
        <path
           id="path3081"
           style="font-size:20px;font-variant:normal;font-stretch:normal;letter-spacing:5px;font-family:Sans;-inkscape-font-specification:Sans"
           d="m 492.34988,598.20368 c -2.44,0 -3.62,-1.22 -3.62,-3.62 l 0,-9 -1.66,0 0,8.58 c 0,3.66 1.5,5.5 5.28,5.5 3.77999,0 5.28,-1.84 5.28,-5.5 l 0,-8.58 -1.66,0 0,9 c 0,2.4 -1.18001,3.62 -3.62,3.62"
           inkscape:connector-curvature="0" />
        <path
           id="path3083"
           style="font-size:20px;font-variant:normal;font-stretch:normal;letter-spacing:5px;font-family:Sans;-inkscape-font-specification:Sans"
           d="m 509.40269,585.58368 -4.84,14.76 1.66,0 4.84,-14.76 -1.66,0"
           inkscape:connector-curvature="0" />
        <path
           id="path3085"
           style="font-size:20px;font-variant:normal;font-stretch:normal;letter-spacing:5px;font-family:Sans;-inkscape-font-specification:Sans"
           d="m 517.933,585.58368 0,13.88 7.88,0 0,-1.46 -6.22,0 0,-12.42 -1.66,0"
           inkscape:connector-curvature="0" />
        <path
           id="path3087"
           style="font-size:20px;font-variant:normal;font-stretch:normal;letter-spacing:5px;font-family:Sans;-inkscape-font-specification:Sans"
           d="m 532.71113,589.82368 0,9.64 1.66,0 0,-9.64 -1.66,0 m 0,-3.76 0,1.66 1.66,0 0,-1.66 -1.66,0"
           inkscape:connector-curvature="0" />
        <path
           id="path3089"
           style="font-size:20px;font-variant:normal;font-stretch:normal;letter-spacing:5px;font-family:Sans;-inkscape-font-specification:Sans"
           d="m 548.56425,593.32368 0,6.14 1.66,0 0,-6.54 c 0,-2.03999 -1.08,-3.3 -3.16,-3.3 -1.02,0 -2.2,0.32 -3.42,0.96 l -0.32,-0.76 -1.16,0 0,9.64 1.66,0 0,-7.76 c 0.98,-0.46 1.9,-0.7 2.66,-0.7 1.56,0 2.08,0.72001 2.08,2.32"
           inkscape:connector-curvature="0" />
        <path
           id="path3091"
           style="font-size:20px;font-variant:normal;font-stretch:normal;letter-spacing:5px;font-family:Sans;-inkscape-font-specification:Sans"
           d="m 559.56644,596.00368 0,-6.14 -1.66,0 0,6.54 c 0,2.04 1.1,3.3 3.18,3.3 1.02,0 2.18,-0.32 3.4,-0.96 l 0.32,0.72 1.16,0 0,-9.6 -1.66,0 0,7.76 c -0.98,0.46 -1.88,0.7 -2.64,0.7 -1.56,0 -2.1,-0.72 -2.1,-2.32"
           inkscape:connector-curvature="0" />
        <path
           id="path3093"
           style="font-size:20px;font-variant:normal;font-stretch:normal;letter-spacing:5px;font-family:Sans;-inkscape-font-specification:Sans"
           d="m 574.92581,589.82368 -1.92,0 3.48,4.86 -3.38,4.78 1.82,0 2.48,-3.54 2.5,3.54 1.98,0 -3.44,-4.82 3.5,-4.82 -1.86,0 -2.58,3.6 -2.58,-3.6"
           inkscape:connector-curvature="0" />
        <path
           id="path3095"
           style="font-size:20px;font-variant:normal;font-stretch:normal;letter-spacing:5px;font-family:Sans;-inkscape-font-specification:Sans"
           d="m 606.86894,589.00368 c 0,1.58 -1.14,2.36 -3.6,2.36 l -1.84,0 0,-4.3 2.66,0 c 1.68,0 2.78,0.50001 2.78,1.94 m 1.1,6.42 c 0,1.86 -1.6,2.58 -3.48,2.58 l -3.06,0 0,-5.24 2.42,0 c 1.88,0 4.12,0.38001 4.12,2.66 m -1.3,-3.58 c 1.12,-0.54 1.8,-1.78 1.8,-2.92 0,-1.01999 -0.34,-1.86 -0.98,-2.44 -0.68,-0.6 -1.72,-0.9 -2.84,-0.9 l -4.88,0 0,13.88 4.5,0 c 1.74,0 3.24,-0.44 4.18,-1.28 0.88,-0.8 1.16,-1.92 1.16,-2.92 0,-1.81999 -1.36,-3.12 -2.94,-3.42"
           inkscape:connector-curvature="0" />
        <path
           id="path3097"
           style="font-size:20px;font-variant:normal;font-stretch:normal;letter-spacing:5px;font-family:Sans;-inkscape-font-specification:Sans"
           d="m 621.248,590.94368 c 1.96,0 2.98,1.66001 2.98,3.72 0,2.06 -1,3.7 -2.98,3.7 -1.96,0 -2.98,-1.66 -2.98,-3.7 0,-2.03999 1.04,-3.72 2.98,-3.72 m -0.04,8.72 c 2.96,0 4.72,-2.02 4.72,-5.02 0,-3.01999 -1.68,-4.98 -4.66,-4.98 -2.96,0 -4.7,1.98001 -4.7,5 0,3 1.68,5 4.64,5"
           inkscape:connector-curvature="0" />
        <path
           id="path3099"
           style="font-size:20px;font-variant:normal;font-stretch:normal;letter-spacing:5px;font-family:Sans;-inkscape-font-specification:Sans"
           d="m 639.83706,599.00368 0,0.28 c 0,0.62 0,1.1 -0.04,1.38 -0.2,1.74 -1.32,2.8 -3.34,2.8 -0.7,0 -1.46,-0.2 -2.3,-0.5 l -0.44,1.16 c 0.8,0.36 2.00001,0.64 2.94,0.64 1.48,0 2.72,-0.46 3.5,-1.2 0.96,-0.91999 1.34,-1.84 1.34,-3.64 l 0,-10.1 -1.18,0 -0.2,0.56 -0.46,-0.2 c -0.79999,-0.36 -1.56,-0.54 -2.28,-0.54 -0.56,0 -1.1,0.1 -1.62,0.32 -1.75999,0.74 -2.9,2.38001 -2.9,4.84 0,1.26 0.32,2.24 0.88,3.06 0.74,1.08 1.88001,1.78 3.54,1.78 0.96,0 1.74001,-0.2 2.56,-0.64 m -5.32,-4.42 c 0,-2.09999 1.00001,-3.62 3.08,-3.62 0.66,0 1.40001,0.16 2.24,0.5 l 0,6.34 c -0.62,0.34 -1.32,0.54 -2.16,0.54 -2.09999,0 -3.16,-1.68 -3.16,-3.76"
           inkscape:connector-curvature="0" />
        <path
           id="path3101"
           style="font-size:20px;font-variant:normal;font-stretch:normal;letter-spacing:5px;font-family:Sans;-inkscape-font-specification:Sans"
           d="m 653.63081,590.94368 c 1.96,0 2.98,1.66001 2.98,3.72 0,2.06 -1,3.7 -2.98,3.7 -1.95999,0 -2.98,-1.66 -2.98,-3.7 0,-2.03999 1.04001,-3.72 2.98,-3.72 m -0.04,8.72 c 2.96,0 4.72,-2.02 4.72,-5.02 0,-3.01999 -1.68,-4.98 -4.66,-4.98 -2.95999,0 -4.7,1.98001 -4.7,5 0,3 1.68001,5 4.64,5"
           inkscape:connector-curvature="0" />
        <path
           id="path3103"
           style="font-size:20px;font-variant:normal;font-stretch:normal;letter-spacing:5px;font-family:Sans;-inkscape-font-specification:Sans"
           d="m 669.87988,589.66368 c -0.94,0 -1.82,0.32 -2.68,0.98 l -0.32,-0.8 -1.2,0 0,9.62 1.66,0 0,-7.66 c 0.7,-0.46 1.42,-0.7 2.06,-0.7 0.62,0 1.1,0.12 1.6,0.32 l 0.2,0 0,-1.58 c -0.42,-0.12 -0.86,-0.18 -1.32,-0.18"
           inkscape:connector-curvature="0" />
      </g>
    </g>
  </g>
</svg>
