<?xml version="1.0" encoding="UTF-8" standalone="no"?>
<!-- Created with Inkscape (http://www.inkscape.org/) -->

<svg
   xmlns:dc="http://purl.org/dc/elements/1.1/"
   xmlns:cc="http://creativecommons.org/ns#"
   xmlns:rdf="http://www.w3.org/1999/02/22-rdf-syntax-ns#"
   xmlns:svg="http://www.w3.org/2000/svg"
   xmlns="http://www.w3.org/2000/svg"
   xmlns:sodipodi="http://sodipodi.sourceforge.net/DTD/sodipodi-0.dtd"
   xmlns:inkscape="http://www.inkscape.org/namespaces/inkscape"
   width="295cm"
   height="60cm"
   viewBox="0 0 10452.756 2125.9842"
   id="svg2"
   version="1.1"
   inkscape:version="0.91 r13725"
   sodipodi:docname="welcome_gate_top.svg"
   inkscape:export-filename="/home/winardiaris/git/GnomeAsiaSummit2015/Artworks/pintuMasuk/welcome_gate_top.png"
   inkscape:export-xdpi="90"
   inkscape:export-ydpi="90">
  <defs
     id="defs4">
    <linearGradient
       id="linearGradient4148">
      <stop
         style="stop-color:#c8c8c8;stop-opacity:1;"
         offset="0"
         id="stop4150" />
      <stop
         style="stop-color:white;stop-opacity:1;"
         offset="1"
         id="stop4152" />
    </linearGradient>
    <clipPath
       clipPathUnits="userSpaceOnUse"
       id="clipPath4331">
      <rect
         style="color:#000000;clip-rule:nonzero;display:inline;overflow:visible;visibility:visible;opacity:1;isolation:auto;mix-blend-mode:normal;color-interpolation:sRGB;color-interpolation-filters:linearRGB;solid-color:#000000;solid-opacity:1;fill:#000000;fill-opacity:1;fill-rule:nonzero;stroke:none;stroke-width:1.99999976;stroke-linecap:butt;stroke-linejoin:miter;stroke-miterlimit:4;stroke-dasharray:none;stroke-dashoffset:0;stroke-opacity:1;color-rendering:auto;image-rendering:auto;shape-rendering:auto;text-rendering:auto;enable-background:accumulate"
         id="rect4333"
         width="10452.756"
         height="2125.9841"
         x="0"
         y="-1073.6218" />
    </clipPath>
  </defs>
  <sodipodi:namedview
     id="base"
     pagecolor="#ffffff"
     bordercolor="#666666"
     borderopacity="1.0"
     inkscape:pageopacity="0.0"
     inkscape:pageshadow="2"
     inkscape:zoom="0.030935922"
     inkscape:cx="1830.1019"
     inkscape:cy="-890.35965"
     inkscape:document-units="cm"
     inkscape:current-layer="layer1"
     showgrid="false"
     units="cm"
     inkscape:window-width="1366"
     inkscape:window-height="716"
     inkscape:window-x="0"
     inkscape:window-y="26"
     inkscape:window-maximized="1"
     showguides="true"
     inkscape:guide-bbox="true">
    <inkscape:grid
       type="xygrid"
       id="grid4800" />
    <sodipodi:guide
       position="0,1268.5715"
       orientation="1,0"
       id="guide4821"
       inkscape:label=""
       inkscape:color="rgb(0,0,255)" />
    <sodipodi:guide
       position="2137.1429,0"
       orientation="0,1"
       id="guide4823"
       inkscape:label=""
       inkscape:color="rgb(0,0,255)" />
    <sodipodi:guide
       position="10452.756,1474.2858"
       orientation="1,0"
       id="guide4825"
       inkscape:label=""
       inkscape:color="rgb(0,0,255)" />
    <sodipodi:guide
       position="1908.5715,2125.9843"
       orientation="0,1"
       id="guide4827"
       inkscape:label=""
       inkscape:color="rgb(0,0,255)" />
    <sodipodi:guide
       position="5226.378,914.28574"
       orientation="1,0"
       id="guide4141"
       inkscape:label=""
       inkscape:color="rgb(0,0,255)" />
    <sodipodi:guide
       position="4731.4286,1062.9922"
       orientation="0,1"
       id="guide4143"
       inkscape:label=""
       inkscape:color="rgb(0,0,255)" />
    <sodipodi:guide
       position="-765.7143,-531.49608"
       orientation="0,1"
       id="guide4730"
       inkscape:label=""
       inkscape:color="rgb(0,0,255)" />
    <sodipodi:guide
       position="-531.49607,1314.2858"
       orientation="1,0"
       id="guide4732"
       inkscape:label=""
       inkscape:color="rgb(0,0,255)" />
    <sodipodi:guide
       position="-1040,2657.4804"
       orientation="0,1"
       id="guide4734"
       inkscape:label=""
       inkscape:color="rgb(0,0,255)" />
    <sodipodi:guide
       position="10984.252,1440"
       orientation="1,0"
       id="guide4738"
       inkscape:label=""
       inkscape:color="rgb(0,0,255)" />
  </sodipodi:namedview>
  <metadata
     id="metadata7">
    <rdf:RDF>
      <cc:Work
         rdf:about="">
        <dc:format>image/svg+xml</dc:format>
        <dc:type
           rdf:resource="http://purl.org/dc/dcmitype/StillImage" />
        <dc:title></dc:title>
      </cc:Work>
    </rdf:RDF>
  </metadata>
  <g
     inkscape:label="Layer 1"
     inkscape:groupmode="layer"
     id="layer1"
     transform="translate(0,1073.622)">
    <g
       id="g4430">
      <rect
         y="-1605.118"
         x="-531.49603"
         height="3188.9763"
         width="11515.748"
         id="rect4769"
         style="color:#000000;clip-rule:nonzero;display:inline;overflow:visible;visibility:visible;opacity:1;isolation:auto;mix-blend-mode:normal;color-interpolation:sRGB;color-interpolation-filters:linearRGB;solid-color:#000000;solid-opacity:1;fill:#eeeeec;fill-opacity:1;fill-rule:nonzero;stroke:none;stroke-width:1.99999976;stroke-linecap:butt;stroke-linejoin:miter;stroke-miterlimit:4;stroke-dasharray:none;stroke-dashoffset:0;stroke-opacity:1;color-rendering:auto;image-rendering:auto;shape-rendering:auto;text-rendering:auto;enable-background:accumulate" />
      <rect
         style="color:black;clip-rule:nonzero;display:inline;overflow:visible;visibility:visible;opacity:1;isolation:auto;mix-blend-mode:normal;color-interpolation:sRGB;color-interpolation-filters:linearRGB;solid-color:black;solid-opacity:1;fill:#a40;fill-opacity:1;fill-rule:nonzero;stroke:none;stroke-width:1.99999976;stroke-linecap:butt;stroke-linejoin:miter;stroke-miterlimit:4;stroke-dasharray:none;stroke-dashoffset:0;stroke-opacity:1;color-rendering:auto;image-rendering:auto;shape-rendering:auto;text-rendering:auto;enable-background:accumulate"
         id="rect4329"
         width="10452.756"
         height="2125.9841"
         x="2.3068405e-05"
         y="-1073.6218" />
      <path
         inkscape:connector-curvature="0"
         id="path4755"
         d="m -531.49606,-1605.1181 11515.74806,0 0,3188.9764"
         style="fill:none;fill-rule:evenodd;stroke:#000000;stroke-width:1px;stroke-linecap:butt;stroke-linejoin:miter;stroke-opacity:1" />
      <path
         inkscape:connector-curvature="0"
         id="path4759"
         d="m -531.49606,-1605.1181 11515.74806,0 0,3188.9764"
         style="fill:none;fill-rule:evenodd;stroke:#000000;stroke-width:1px;stroke-linecap:butt;stroke-linejoin:miter;stroke-opacity:1" />
      <path
         inkscape:connector-curvature="0"
         id="path4765"
         d="m -531.49606,-1605.1181 11515.74806,0 0,3188.9764 -11515.74806,0"
         style="fill:none;fill-rule:evenodd;stroke:#000000;stroke-width:1px;stroke-linecap:butt;stroke-linejoin:miter;stroke-opacity:1" />
      <g
         style="fill:#722d00;fill-opacity:1"
         transform="matrix(-6.0468075,0,0,6.0468075,11113.195,799.4924)"
         id="g6711">
        <path
           style="fill:#722d00;fill-opacity:1"
           d="m 244.54473,-280.2037 c -1.55902,-0.1634 -2.55874,1.46271 -1.34629,3.80683 0.68313,1.32076 2.25824,1.87593 3.49998,1.23363 1.51473,-0.78342 1.56871,-1.97077 0.16397,-3.60785 -0.78451,-0.91427 -1.60903,-1.35836 -2.31766,-1.43261 z m -11.1828,10.22766 c -2.99449,-0.25455 -6.65074,3.12102 -5.64029,6.50501 0.5108,1.71071 2.28598,3.21392 3.94501,3.34064 3.98791,0.30462 6.639,-5.55043 3.93812,-8.69807 -0.61809,-0.71964 -1.40431,-1.07634 -2.24284,-1.14758 z m -12.69276,15.82739 c -0.99607,-0.10522 -2.02848,0.0635 -3.02519,0.59062 -5.33454,2.82155 -6.01528,5.81167 -2.3065,10.13381 3.70873,4.32221 6.76756,4.10349 10.36653,-0.7406 2.91401,-3.92215 -0.71874,-9.5276 -5.03484,-9.98383 z m -9.54772,20.30213 c -5.47528,-0.34874 -10.63712,6.22859 -8.56949,13.15291 0.51604,1.72833 3.23372,3.31748 6.03948,3.5318 9.63589,0.73601 13.89814,-9.6086 6.28565,-15.2557 -1.2119,-0.89903 -2.49211,-1.34851 -3.75564,-1.42901 z m 69.87898,6.00081 c -1.09352,-0.0773 -2.23772,-0.0334 -3.42184,0.15196 -12.1648,1.9035 -31.5803,12.0023 -42.99535,22.36333 -15.78589,14.32843 -23.57222,28.94406 -26.64085,50.00738 -1.57566,10.81543 -1.66729,16.79679 -0.25875,16.90434 1.19897,0.0915 3.09813,-3.84375 4.22034,-8.74506 3.04693,-13.30735 12.29386,-28.27593 23.24957,-37.63599 9.59225,-8.1952 30.40231,-17.71497 43.09143,-19.71198 3.55731,-0.55981 8.24639,-2.33923 10.41996,-3.95474 8.73577,-6.49282 2.90637,-18.63139 -7.66451,-19.37924 z m -86.29857,16.36245 c -7.93288,-0.63639 -12.32764,11.08087 -12.73673,34.46575 -0.47733,27.2827 6.29263,52.53539 18.71835,69.82064 2.82991,3.9367 5.67994,6.69816 6.33365,6.13723 0.65384,-0.56093 -0.86883,-6.73546 -3.38405,-13.72119 -2.51515,-6.98578 -5.10924,-19.58259 -5.76398,-27.99355 -1.15451,-14.82936 -0.56695,-18.93754 7.67368,-53.63819 1.56197,-6.57739 1.09719,-8.18641 -3.35538,-11.61547 -2.76613,-2.13037 -5.2643,-3.27703 -7.48554,-3.45522 z m 80.03762,29.19529 c -37.49676,-2.86406 -65.1685,34.71011 -53.78091,73.02687 5.22726,17.588675 16.28603,30.31128 34.48267,39.670991 10.18418,5.23827 14.6294,6.266862 29.02599,6.715777 16.07196,0.501198 31.1165,-3.023595 31.44834,-7.367967 0.0733,-0.958476 -5.41228,-1.296735 -12.19021,-0.751546 -37.23442,2.995251 -68.88334,-22.67887 -66.64792,-54.065515 1.36187,-19.12029 15.57974,-34.50991 30.46819,-32.9793 5.66874,0.58284 9.95281,2.50464 12.6864,5.69043 l 4.12767,4.8097 -5.40821,9.26219 c -2.9744,5.09415 -5.50966,10.59782 -5.63437,12.23058 -0.7388,9.67214 17.37904,14.44828 27.94812,7.36735 9.1131,-6.10547 13.74841,-15.05927 13.36111,-25.80951 -0.74798,-20.76436 -16.86943,-36.04194 -39.88687,-37.80005 z m -115.28569,27.60926 c -1.25964,-0.0803 -2.66789,0.0562 -4.29618,0.33517 -13.66154,2.34052 -7.37342,23.68465 14.50752,49.24387 14.60452,17.059525 38.23031,33.091543 57.85061,39.256903 10.98081,3.450564 15.48188,3.980228 13.21553,1.554909 -0.45227,-0.482011 -7.69463,-4.999606 -16.09637,-10.036893 -21.33268,-12.790084 -42.27105,-37.639759 -51.35179,-60.944629 -5.70198,-14.63405 -8.37085,-19.06143 -13.82932,-19.40933 z m -16.64959,52.09724 c -2.41841,-0.25001 -4.41423,0.66584 -6.57863,2.52306 -9.04106,7.757905 -2.19375,17.997699 20.84048,31.165057 16.14184,9.227303 33.84971,16.325591 49.60998,19.886057 13.94929,3.151093 28.312,4.237937 34.99387,2.64734 2.98306,-0.710126 4.95964,-1.489996 4.39234,-1.732497 -0.56721,-0.24255 -9.36993,-2.874035 -19.56167,-5.847639 -22.01521,-6.423425 -46.26657,-20.018446 -65.34948,-36.635173 -9.11186,-7.93437 -14.31609,-11.589675 -18.34689,-12.006205 z m 131.44727,61.393443 c -1.56173,-0.182316 -8.12256,1.425568 -15.54867,3.851085 -13.07365,4.270035 -17.62331,4.66271 -37.13787,3.204555 -17.31885,-1.294038 -25.58216,-2.994883 -37.35325,-7.687961 -16.13031,-6.430939 -21.99982,-6.441067 -26.07782,-0.04546 -6.26645,9.827652 2.67029,16.971401 26.00168,20.786128 15.90241,2.600061 39.32356,2.418963 50.99949,-0.394562 16.00186,-3.855943 41.90003,-16.727082 39.43563,-19.59906 -0.0518,-0.05669 -0.15737,-0.09611 -0.31919,-0.114732 z m 16.99264,4.873387 c -1.59928,-0.12216 -6.02748,2.716255 -13.19787,8.702728 -8.30709,6.935482 -20.53793,14.478452 -29.41526,18.1412273 -17.23186,7.1098027 -21.41217,11.0199837 -17.57301,16.4378132 1.3901,1.9616348 4.73938,3.7354575 7.44281,3.9419395 7.65521,0.584739 31.99642,-16.6471317 43.1582,-30.55296 8.65616,-10.784158 11.7768,-16.504915 9.58513,-16.670748 z"
           id="path6713"
           inkscape:connector-curvature="0" />
        <path
           inkscape:connector-curvature="0"
           id="path6715"
           d="m 349.62524,-94.525045 c 22.32793,4.44779 32.33044,30.86819 19.44018,51.349043 -5.91705,9.401421 -14.43999,15.014527 -26.5757,17.502454 -6.79199,1.392397 -9.55136,1.266853 -18.01783,-0.820192 -9.45176,-2.3299 -17.64768,-6.839361 -17.13236,-9.426273 0.11368,-0.57074 3.36691,0.126971 7.22951,1.55063 21.21906,7.82099 43.85908,-1.983643 47.6765,-20.646779 2.32547,-11.369323 -3.45278,-22.661143 -12.38247,-24.197763 -3.39999,-0.5851 -6.21115,-0.16364 -8.32458,1.24771 l -3.19115,2.13064 1.64189,6.2822 c 0.90299,3.45517 1.48315,7.07746 1.28948,8.04972 -1.14729,5.759369 -12.48922,5.587992 -17.49579,-0.26456 -4.31684,-5.04623 -5.55842,-11.02253 -3.57875,-17.22677 3.82373,-11.98363 15.71505,-18.26034 29.42107,-15.53006 z"
           style="fill:#722d00;fill-opacity:1" />
        <path
           inkscape:connector-curvature="0"
           id="path6717"
           d="m 553.74171,-11.874583 c 0.8642,0.879067 1.66319,2.0065166 2.49761,3.3874176 7.00075,11.586016 -12.7821,20.5800764 -45.64182,20.7504594 -21.93229,0.11375 -48.87003,-7.0922164 -65.96082,-17.6443334 -9.56513,-5.9056306 -12.83246,-8.8916706 -9.59294,-8.7674386 0.64502,0.02478 8.60946,2.488616 17.69858,5.4754346 23.07798,7.58389 54.81135,7.170565 77.82686,-1.013807 14.45224,-5.1392286 19.42771,-5.9971096 23.17253,-2.1877326 z"
           style="fill:#722d00;fill-opacity:1" />
        <path
           inkscape:connector-curvature="0"
           id="path6719"
           d="m 466.15549,-21.769123 c 2.17779,-0.946449 3.43717,-2.682364 4.3888,-5.300141 3.97514,-10.934917 -6.75944,-16.366578 -32.67141,-16.5311 -18.15844,-0.115289 -36.6291,2.331836 -51.74676,6.855816 -13.38042,4.004395 -26.12327,9.963513 -31.04682,14.519729 -2.19807,2.034027 -3.50622,3.644961 -2.90729,3.579514 0.59894,-0.06555 9.35084,-2.045355 19.44871,-4.399818 21.81251,-5.085868 48.96514,-5.140664 73.16803,-0.147086 11.55663,2.384475 17.7371,3.000603 21.36674,1.423086 z"
           style="fill:#722d00;fill-opacity:1" />
        <path
           inkscape:connector-curvature="0"
           id="path6721"
           d="m 298.55278,-28.304154 c 1.52712,0.161234 7.43349,3.100343 13.98892,7.00403 11.54088,6.872519 15.79159,8.222423 34.6979,11.018361 16.77902,2.4813764 25.01711,2.6330114 37.23924,0.6860284 16.74823,-2.6680424 22.3429,-1.4188554 24.85679,5.549565 3.86295,10.707754 -6.1841,15.5977396 -29.23255,14.2285466 -15.70952,-0.9332276 -37.98645,-6.1288796 -48.50792,-11.3137186 -14.41971,-7.105973 -36.33512,-24.9239844 -33.3711,-27.1319644 0.0601,-0.04478 0.17087,-0.05719 0.32859,-0.04112 z"
           style="fill:#722d00;fill-opacity:1" />
      </g>
      <g
         style="fill:#722d00;fill-opacity:1"
         id="g6993"
         transform="matrix(7.0954334,0,0,7.0954334,172.5621,845.96097)">
        <g
           style="fill:#722d00;fill-opacity:1"
           id="g6965"
           transform="translate(383.85793,398.00007)">
          <g
             style="fill:#722d00;fill-opacity:1"
             transform="matrix(1,0,0,-1,131.31982,-873.73969)"
             id="g6959">
            <path
               style="fill:#722d00;fill-opacity:1"
               d="m 207.92829,-465.61431 c 0.7354,-1.34277 2.5969,-1.24167 3.8053,1.03496 0.6809,1.28274 0.2512,2.85619 -0.9548,3.49629 -1.4711,0.7809 -2.4546,0.16429 -2.9883,-1.87377 -0.2981,-1.13819 -0.1965,-2.04716 0.1378,-2.65748 z"
               id="path6695"
               inkscape:connector-curvature="0" />
            <path
               style="fill:#722d00;fill-opacity:1"
               d="m 222.35751,-468.90929 c 1.4601,-2.54617 6.2031,-3.6059 8.3589,-0.91343 1.0898,1.36111 1.3102,3.6222 0.4897,5.02489 -1.9721,3.37173 -8.1475,2.24602 -9.17382,-1.67252 -0.2347,-0.89627 -0.084,-1.726 0.32522,-2.43893 z"
               id="path6693"
               inkscape:connector-curvature="0" />
            <path
               style="fill:#722d00;fill-opacity:1"
               d="m 242.12281,-470.3041 c 0.4691,-0.85837 1.1785,-1.59366 2.1558,-2.10102 5.2311,-2.71541 8.0106,-1.59995 9.4198,3.78082 1.4093,5.38078 -0.4666,7.71551 -6.3571,7.91294 -4.7693,0.15986 -7.2514,-5.8732 -5.2185,-9.59274 z"
               id="path6691"
               inkscape:connector-curvature="0" />
            <path
               style="fill:#722d00;fill-opacity:1"
               d="m 263.73311,-466.68601 c 2.7635,-4.59067 10.9145,-5.07968 15.3256,0.42964 1.101,1.37511 0.8665,4.44081 -0.521,6.81308 -4.7652,8.14699 -15.4414,5.81953 -15.7447,-3.43252 -0.048,-1.47293 0.3024,-2.75081 0.9401,-3.8102 z"
               id="path6689"
               inkscape:connector-curvature="0" />
          </g>
          <path
             inkscape:connector-curvature="0"
             id="path6687"
             d="m 511.45646,-458.52217 c -1.02208,-0.73275 -2.1667,-1.37734 -3.43522,-1.90788 -13.03153,-5.45044 -38.07368,-7.24965 -55.45509,-3.98469 -24.03702,4.51521 -40.42936,14.11858 -56.0863,32.85787 -8.03934,9.6221 -11.72341,15.41207 -10.4116,16.36362 1.11661,0.81005 5.33742,-1.89427 9.3796,-6.00939 10.97464,-11.17307 29.00638,-20.24354 45.33754,-22.80642 14.29863,-2.24391 40.35559,0.95922 53.95564,6.63338 3.81277,1.5907 9.46427,2.66984 12.55926,2.39729 12.43856,-1.09496 14.03679,-16.46022 4.15616,-23.54368 z"
             style="fill:#722d00;fill-opacity:1" />
          <path
             inkscape:connector-curvature="0"
             id="path6685"
             d="m 396.83855,-524.46842 c 7.76895,0.23621 10.77367,12.08319 8.65362,34.82679 -2.47347,26.53449 -11.76325,50.31847 -25.68541,65.75969 -3.17074,3.51667 -6.23444,5.89051 -6.80869,5.27559 -0.57423,-0.61493 1.56839,-6.44454 4.76181,-12.95489 3.19348,-6.51025 7.06744,-18.45873 8.60836,-26.55274 2.71695,-14.27048 2.58881,-18.32153 -1.6751,-52.89227 -0.80821,-6.55281 -0.18386,-8.06461 4.50731,-10.91398 2.91442,-1.77013 5.46284,-2.61423 7.6381,-2.54819 z"
             style="fill:#722d00;fill-opacity:1" />
          <path
             inkscape:connector-curvature="0"
             id="path6668"
             d="m 387.74482,-397.7701 c 1.12006,-1.09514 6.21507,-1.75043 15.33775,-1.77113 10.56903,-0.0239 24.45527,-2.05597 33.39679,-4.88676 17.35669,-5.49488 22.93879,-5.19259 23.46632,1.27099 0.19102,2.34034 -1.2019,5.76973 -3.09522,7.62096 -5.36131,5.2421 -34.39061,7.62476 -51.47032,4.22458 -13.24563,-2.63682 -19.17124,-4.95902 -17.63532,-6.45864 z"
             style="fill:#722d00;fill-opacity:1" />
        </g>
        <g
           style="fill:#722d00;fill-opacity:1"
           id="g6975"
           transform="matrix(-1,0,0,1,1040.6684,398.00007)">
          <g
             style="fill:#722d00;fill-opacity:1"
             id="g6977"
             transform="matrix(1,0,0,-1,131.31982,-873.73969)">
            <path
               inkscape:connector-curvature="0"
               id="path6979"
               d="m 207.92829,-465.61431 c 0.7354,-1.34277 2.5969,-1.24167 3.8053,1.03496 0.6809,1.28274 0.2512,2.85619 -0.9548,3.49629 -1.4711,0.7809 -2.4546,0.16429 -2.9883,-1.87377 -0.2981,-1.13819 -0.1965,-2.04716 0.1378,-2.65748 z"
               style="fill:#722d00;fill-opacity:1" />
            <path
               inkscape:connector-curvature="0"
               id="path6981"
               d="m 222.35751,-468.90929 c 1.4601,-2.54617 6.2031,-3.6059 8.3589,-0.91343 1.0898,1.36111 1.3102,3.6222 0.4897,5.02489 -1.9721,3.37173 -8.1475,2.24602 -9.17382,-1.67252 -0.2347,-0.89627 -0.084,-1.726 0.32522,-2.43893 z"
               style="fill:#722d00;fill-opacity:1" />
            <path
               inkscape:connector-curvature="0"
               id="path6983"
               d="m 242.12281,-470.3041 c 0.4691,-0.85837 1.1785,-1.59366 2.1558,-2.10102 5.2311,-2.71541 8.0106,-1.59995 9.4198,3.78082 1.4093,5.38078 -0.4666,7.71551 -6.3571,7.91294 -4.7693,0.15986 -7.2514,-5.8732 -5.2185,-9.59274 z"
               style="fill:#722d00;fill-opacity:1" />
            <path
               inkscape:connector-curvature="0"
               id="path6985"
               d="m 263.73311,-466.68601 c 2.7635,-4.59067 10.9145,-5.07968 15.3256,0.42964 1.101,1.37511 0.8665,4.44081 -0.521,6.81308 -4.7652,8.14699 -15.4414,5.81953 -15.7447,-3.43252 -0.048,-1.47293 0.3024,-2.75081 0.9401,-3.8102 z"
               style="fill:#722d00;fill-opacity:1" />
          </g>
          <path
             style="fill:#722d00;fill-opacity:1"
             d="m 511.45646,-458.52217 c -1.02208,-0.73275 -2.1667,-1.37734 -3.43522,-1.90788 -13.03153,-5.45044 -38.07368,-7.24965 -55.45509,-3.98469 -24.03702,4.51521 -40.42936,14.11858 -56.0863,32.85787 -8.03934,9.6221 -11.72341,15.41207 -10.4116,16.36362 1.11661,0.81005 5.33742,-1.89427 9.3796,-6.00939 10.97464,-11.17307 29.00638,-20.24354 45.33754,-22.80642 14.29863,-2.24391 40.35559,0.95922 53.95564,6.63338 3.81277,1.5907 9.46427,2.66984 12.55926,2.39729 12.43856,-1.09496 14.03679,-16.46022 4.15616,-23.54368 z"
             id="path6987"
             inkscape:connector-curvature="0" />
          <path
             style="fill:#722d00;fill-opacity:1"
             d="m 396.83855,-524.46842 c 7.76895,0.23621 10.77367,12.08319 8.65362,34.82679 -2.47347,26.53449 -11.76325,50.31847 -25.68541,65.75969 -3.17074,3.51667 -6.23444,5.89051 -6.80869,5.27559 -0.57423,-0.61493 1.56839,-6.44454 4.76181,-12.95489 3.19348,-6.51025 7.06744,-18.45873 8.60836,-26.55274 2.71695,-14.27048 2.58881,-18.32153 -1.6751,-52.89227 -0.80821,-6.55281 -0.18386,-8.06461 4.50731,-10.91398 2.91442,-1.77013 5.46284,-2.61423 7.6381,-2.54819 z"
             id="path6989"
             inkscape:connector-curvature="0" />
          <path
             style="fill:#722d00;fill-opacity:1"
             d="m 387.74482,-397.7701 c 1.12006,-1.09514 6.21507,-1.75043 15.33775,-1.77113 10.56903,-0.0239 24.45527,-2.05597 33.39679,-4.88676 17.35669,-5.49488 22.93879,-5.19259 23.46632,1.27099 0.19102,2.34034 -1.2019,5.76973 -3.09522,7.62096 -5.36131,5.2421 -34.39061,7.62476 -51.47032,4.22458 -13.24563,-2.63682 -19.17124,-4.95902 -17.63532,-6.45864 z"
             id="path6991"
             inkscape:connector-curvature="0" />
        </g>
      </g>
      <text
         id="text6723"
         y="-318.97577"
         x="3635.7129"
         style="font-style:normal;font-variant:normal;font-weight:500;font-stretch:normal;font-size:468.90771484px;font-family:'AvantGarde LT Medium';-inkscape-font-specification:'AvantGarde LT Medium, Medium';text-align:start;writing-mode:lr-tb;text-anchor:start;opacity:1;fill:white;fill-opacity:1;stroke:none;stroke-width:1;stroke-linecap:round;stroke-linejoin:round;stroke-miterlimit:4;stroke-dasharray:none;stroke-dashoffset:0;stroke-opacity:1"
         xml:space="preserve"><tspan
           style="font-style:normal;font-variant:normal;font-weight:normal;font-stretch:normal;font-size:976.89099121px;font-family:'Marketing Script';-inkscape-font-specification:'Marketing Script';fill:white;stroke:none"
           y="-318.97577"
           x="3635.7129"
           id="tspan6725"
           sodipodi:role="line">Welcome</tspan></text>
      <g
         id="g4418"
         transform="matrix(6.0468075,0,0,6.0468075,-640.43947,799.4924)"
         style="fill:#722d00;fill-opacity:1">
        <path
           inkscape:connector-curvature="0"
           id="path4420"
           d="m 244.54473,-280.2037 c -1.55902,-0.1634 -2.55874,1.46271 -1.34629,3.80683 0.68313,1.32076 2.25824,1.87593 3.49998,1.23363 1.51473,-0.78342 1.56871,-1.97077 0.16397,-3.60785 -0.78451,-0.91427 -1.60903,-1.35836 -2.31766,-1.43261 z m -11.1828,10.22766 c -2.99449,-0.25455 -6.65074,3.12102 -5.64029,6.50501 0.5108,1.71071 2.28598,3.21392 3.94501,3.34064 3.98791,0.30462 6.639,-5.55043 3.93812,-8.69807 -0.61809,-0.71964 -1.40431,-1.07634 -2.24284,-1.14758 z m -12.69276,15.82739 c -0.99607,-0.10522 -2.02848,0.0635 -3.02519,0.59062 -5.33454,2.82155 -6.01528,5.81167 -2.3065,10.13381 3.70873,4.32221 6.76756,4.10349 10.36653,-0.7406 2.91401,-3.92215 -0.71874,-9.5276 -5.03484,-9.98383 z m -9.54772,20.30213 c -5.47528,-0.34874 -10.63712,6.22859 -8.56949,13.15291 0.51604,1.72833 3.23372,3.31748 6.03948,3.5318 9.63589,0.73601 13.89814,-9.6086 6.28565,-15.2557 -1.2119,-0.89903 -2.49211,-1.34851 -3.75564,-1.42901 z m 69.87898,6.00081 c -1.09352,-0.0773 -2.23772,-0.0334 -3.42184,0.15196 -12.1648,1.9035 -31.5803,12.0023 -42.99535,22.36333 -15.78589,14.32843 -23.57222,28.94406 -26.64085,50.00738 -1.57566,10.81543 -1.66729,16.79679 -0.25875,16.90434 1.19897,0.0915 3.09813,-3.84375 4.22034,-8.74506 3.04693,-13.30735 12.29386,-28.27593 23.24957,-37.63599 9.59225,-8.1952 30.40231,-17.71497 43.09143,-19.71198 3.55731,-0.55981 8.24639,-2.33923 10.41996,-3.95474 8.73577,-6.49282 2.90637,-18.63139 -7.66451,-19.37924 z m -86.29857,16.36245 c -7.93288,-0.63639 -12.32764,11.08087 -12.73673,34.46575 -0.47733,27.2827 6.29263,52.53539 18.71835,69.82064 2.82991,3.9367 5.67994,6.69816 6.33365,6.13723 0.65384,-0.56093 -0.86883,-6.73546 -3.38405,-13.72119 -2.51515,-6.98578 -5.10924,-19.58259 -5.76398,-27.99355 -1.15451,-14.82936 -0.56695,-18.93754 7.67368,-53.63819 1.56197,-6.57739 1.09719,-8.18641 -3.35538,-11.61547 -2.76613,-2.13037 -5.2643,-3.27703 -7.48554,-3.45522 z m 80.03762,29.19529 c -37.49676,-2.86406 -65.1685,34.71011 -53.78091,73.02687 5.22726,17.588675 16.28603,30.31128 34.48267,39.670991 10.18418,5.23827 14.6294,6.266862 29.02599,6.715777 16.07196,0.501198 31.1165,-3.023595 31.44834,-7.367967 0.0733,-0.958476 -5.41228,-1.296735 -12.19021,-0.751546 -37.23442,2.995251 -68.88334,-22.67887 -66.64792,-54.065515 1.36187,-19.12029 15.57974,-34.50991 30.46819,-32.9793 5.66874,0.58284 9.95281,2.50464 12.6864,5.69043 l 4.12767,4.8097 -5.40821,9.26219 c -2.9744,5.09415 -5.50966,10.59782 -5.63437,12.23058 -0.7388,9.67214 17.37904,14.44828 27.94812,7.36735 9.1131,-6.10547 13.74841,-15.05927 13.36111,-25.80951 -0.74798,-20.76436 -16.86943,-36.04194 -39.88687,-37.80005 z m -115.28569,27.60926 c -1.25964,-0.0803 -2.66789,0.0562 -4.29618,0.33517 -13.66154,2.34052 -7.37342,23.68465 14.50752,49.24387 14.60452,17.059525 38.23031,33.091543 57.85061,39.256903 10.98081,3.450564 15.48188,3.980228 13.21553,1.554909 -0.45227,-0.482011 -7.69463,-4.999606 -16.09637,-10.036893 -21.33268,-12.790084 -42.27105,-37.639759 -51.35179,-60.944629 -5.70198,-14.63405 -8.37085,-19.06143 -13.82932,-19.40933 z m -16.64959,52.09724 c -2.41841,-0.25001 -4.41423,0.66584 -6.57863,2.52306 -9.04106,7.757905 -2.19375,17.997699 20.84048,31.165057 16.14184,9.227303 33.84971,16.325591 49.60998,19.886057 13.94929,3.151093 28.312,4.237937 34.99387,2.64734 2.98306,-0.710126 4.95964,-1.489996 4.39234,-1.732497 -0.56721,-0.24255 -9.36993,-2.874035 -19.56167,-5.847639 -22.01521,-6.423425 -46.26657,-20.018446 -65.34948,-36.635173 -9.11186,-7.93437 -14.31609,-11.589675 -18.34689,-12.006205 z m 131.44727,61.393443 c -1.56173,-0.182316 -8.12256,1.425568 -15.54867,3.851085 -13.07365,4.270035 -17.62331,4.66271 -37.13787,3.204555 -17.31885,-1.294038 -25.58216,-2.994883 -37.35325,-7.687961 -16.13031,-6.430939 -21.99982,-6.441067 -26.07782,-0.04546 -6.26645,9.827652 2.67029,16.971401 26.00168,20.786128 15.90241,2.600061 39.32356,2.418963 50.99949,-0.394562 16.00186,-3.855943 41.90003,-16.727082 39.43563,-19.59906 -0.0518,-0.05669 -0.15737,-0.09611 -0.31919,-0.114732 z m 16.99264,4.873387 c -1.59928,-0.12216 -6.02748,2.716255 -13.19787,8.702728 -8.30709,6.935482 -20.53793,14.478452 -29.41526,18.1412273 -17.23186,7.1098027 -21.41217,11.0199837 -17.57301,16.4378132 1.3901,1.9616348 4.73938,3.7354575 7.44281,3.9419395 7.65521,0.584739 31.99642,-16.6471317 43.1582,-30.55296 8.65616,-10.784158 11.7768,-16.504915 9.58513,-16.670748 z"
           style="fill:#722d00;fill-opacity:1" />
        <path
           style="fill:#722d00;fill-opacity:1"
           d="m 349.62524,-94.525045 c 22.32793,4.44779 32.33044,30.86819 19.44018,51.349043 -5.91705,9.401421 -14.43999,15.014527 -26.5757,17.502454 -6.79199,1.392397 -9.55136,1.266853 -18.01783,-0.820192 -9.45176,-2.3299 -17.64768,-6.839361 -17.13236,-9.426273 0.11368,-0.57074 3.36691,0.126971 7.22951,1.55063 21.21906,7.82099 43.85908,-1.983643 47.6765,-20.646779 2.32547,-11.369323 -3.45278,-22.661143 -12.38247,-24.197763 -3.39999,-0.5851 -6.21115,-0.16364 -8.32458,1.24771 l -3.19115,2.13064 1.64189,6.2822 c 0.90299,3.45517 1.48315,7.07746 1.28948,8.04972 -1.14729,5.759369 -12.48922,5.587992 -17.49579,-0.26456 -4.31684,-5.04623 -5.55842,-11.02253 -3.57875,-17.22677 3.82373,-11.98363 15.71505,-18.26034 29.42107,-15.53006 z"
           id="path4422"
           inkscape:connector-curvature="0" />
        <path
           style="fill:#722d00;fill-opacity:1"
           d="m 553.74171,-11.874583 c 0.8642,0.879067 1.66319,2.0065166 2.49761,3.3874176 7.00075,11.586016 -12.7821,20.5800764 -45.64182,20.7504594 -21.93229,0.11375 -48.87003,-7.0922164 -65.96082,-17.6443334 -9.56513,-5.9056306 -12.83246,-8.8916706 -9.59294,-8.7674386 0.64502,0.02478 8.60946,2.488616 17.69858,5.4754346 23.07798,7.58389 54.81135,7.170565 77.82686,-1.013807 14.45224,-5.1392286 19.42771,-5.9971096 23.17253,-2.1877326 z"
           id="path4424"
           inkscape:connector-curvature="0" />
        <path
           style="fill:#722d00;fill-opacity:1"
           d="m 466.15549,-21.769123 c 2.17779,-0.946449 3.43717,-2.682364 4.3888,-5.300141 3.97514,-10.934917 -6.75944,-16.366578 -32.67141,-16.5311 -18.15844,-0.115289 -36.6291,2.331836 -51.74676,6.855816 -13.38042,4.004395 -26.12327,9.963513 -31.04682,14.519729 -2.19807,2.034027 -3.50622,3.644961 -2.90729,3.579514 0.59894,-0.06555 9.35084,-2.045355 19.44871,-4.399818 21.81251,-5.085868 48.96514,-5.140664 73.16803,-0.147086 11.55663,2.384475 17.7371,3.000603 21.36674,1.423086 z"
           id="path4426"
           inkscape:connector-curvature="0" />
        <path
           style="fill:#722d00;fill-opacity:1"
           d="m 298.55278,-28.304154 c 1.52712,0.161234 7.43349,3.100343 13.98892,7.00403 11.54088,6.872519 15.79159,8.222423 34.6979,11.018361 16.77902,2.4813764 25.01711,2.6330114 37.23924,0.6860284 16.74823,-2.6680424 22.3429,-1.4188554 24.85679,5.549565 3.86295,10.707754 -6.1841,15.5977396 -29.23255,14.2285466 -15.70952,-0.9332276 -37.98645,-6.1288796 -48.50792,-11.3137186 -14.41971,-7.105973 -36.33512,-24.9239844 -33.3711,-27.1319644 0.0601,-0.04478 0.17087,-0.05719 0.32859,-0.04112 z"
           id="path4428"
           inkscape:connector-curvature="0" />
      </g>
    </g>
  </g>
</svg>
