<?xml version="1.0" encoding="UTF-8" standalone="no"?>
<!-- Created with Inkscape (http://www.inkscape.org/) -->

<svg
   xmlns:dc="http://purl.org/dc/elements/1.1/"
   xmlns:cc="http://creativecommons.org/ns#"
   xmlns:rdf="http://www.w3.org/1999/02/22-rdf-syntax-ns#"
   xmlns:svg="http://www.w3.org/2000/svg"
   xmlns="http://www.w3.org/2000/svg"
   xmlns:sodipodi="http://sodipodi.sourceforge.net/DTD/sodipodi-0.dtd"
   xmlns:inkscape="http://www.inkscape.org/namespaces/inkscape"
   width="45cm"
   height="240cm"
   viewBox="0 0 1594.4882 8503.9365"
   id="svg4831"
   version="1.1"
   inkscape:version="0.91 r13725"
   sodipodi:docname="welcome_gate_left.svg"
   inkscape:export-filename="/home/winardiaris/git/GnomeAsiaSummit2015/Artworks/pintuMasuk/welcome_gate_left.png"
   inkscape:export-xdpi="90"
   inkscape:export-ydpi="90">
  <defs
     id="defs4833">
    <clipPath
       clipPathUnits="userSpaceOnUse"
       id="clipPath4331">
      <rect
         style="color:#000000;clip-rule:nonzero;display:inline;overflow:visible;visibility:visible;opacity:1;isolation:auto;mix-blend-mode:normal;color-interpolation:sRGB;color-interpolation-filters:linearRGB;solid-color:#000000;solid-opacity:1;fill:#000000;fill-opacity:1;fill-rule:nonzero;stroke:none;stroke-width:1.99999976;stroke-linecap:butt;stroke-linejoin:miter;stroke-miterlimit:4;stroke-dasharray:none;stroke-dashoffset:0;stroke-opacity:1;color-rendering:auto;image-rendering:auto;shape-rendering:auto;text-rendering:auto;enable-background:accumulate"
         id="rect4333"
         width="10452.756"
         height="2125.9841"
         x="0"
         y="-1073.6218" />
    </clipPath>
    <clipPath
       clipPathUnits="userSpaceOnUse"
       id="clipPath4150">
      <rect
         style="color:#000000;clip-rule:nonzero;display:inline;overflow:visible;visibility:visible;opacity:1;isolation:auto;mix-blend-mode:normal;color-interpolation:sRGB;color-interpolation-filters:linearRGB;solid-color:#000000;solid-opacity:1;fill:#000000;fill-opacity:1;fill-rule:nonzero;stroke:none;stroke-width:1.99999976;stroke-linecap:butt;stroke-linejoin:miter;stroke-miterlimit:4;stroke-dasharray:none;stroke-dashoffset:0;stroke-opacity:1;color-rendering:auto;image-rendering:auto;shape-rendering:auto;text-rendering:auto;enable-background:accumulate"
         id="rect4152"
         width="1959.8916"
         height="10452.756"
         x="-1073.6211"
         y="-10452.756"
         transform="matrix(0,1,-1,0,0,0)" />
    </clipPath>
  </defs>
  <sodipodi:namedview
     id="base"
     pagecolor="#ffffff"
     bordercolor="#666666"
     borderopacity="1.0"
     inkscape:pageopacity="0.0"
     inkscape:pageshadow="2"
     inkscape:zoom="0.061871843"
     inkscape:cx="-616.65108"
     inkscape:cy="4487.1524"
     inkscape:document-units="cm"
     inkscape:current-layer="layer1"
     showgrid="false"
     inkscape:window-width="1366"
     inkscape:window-height="716"
     inkscape:window-x="0"
     inkscape:window-y="26"
     inkscape:window-maximized="1"
     units="cm"
     showguides="true"
     inkscape:guide-bbox="true"
     inkscape:snap-page="true"
     inkscape:snap-bbox="true"
     inkscape:snap-others="true"
     inkscape:bbox-nodes="true"
     inkscape:snap-bbox-edge-midpoints="true">
    <sodipodi:guide
       position="0,5302.8571"
       orientation="1,0"
       id="guide5428"
       inkscape:label=""
       inkscape:color="rgb(0,0,255)" />
    <sodipodi:guide
       position="-3382.8572,0"
       orientation="0,1"
       id="guide5430"
       inkscape:label=""
       inkscape:color="rgb(0,0,255)" />
    <sodipodi:guide
       position="1594.4882,4777.1428"
       orientation="1,0"
       id="guide5432"
       inkscape:label=""
       inkscape:color="rgb(0,0,255)" />
    <sodipodi:guide
       position="-2651.4286,8503.937"
       orientation="0,1"
       id="guide5434"
       inkscape:label=""
       inkscape:color="rgb(0,0,255)" />
    <sodipodi:guide
       position="-531.49608,6011.4286"
       orientation="1,0"
       id="guide4909"
       inkscape:label=""
       inkscape:color="rgb(0,0,255)" />
    <sodipodi:guide
       position="-3337.1429,-531.49606"
       orientation="0,1"
       id="guide4911"
       inkscape:label=""
       inkscape:color="rgb(0,0,255)" />
    <sodipodi:guide
       position="-5508.5716,9035.433"
       orientation="0,1"
       id="guide4913"
       inkscape:label=""
       inkscape:color="rgb(0,0,255)" />
    <sodipodi:guide
       position="2125.9843,6720"
       orientation="1,0"
       id="guide4915"
       inkscape:label=""
       inkscape:color="rgb(0,0,255)" />
  </sodipodi:namedview>
  <metadata
     id="metadata4836">
    <rdf:RDF>
      <cc:Work
         rdf:about="">
        <dc:format>image/svg+xml</dc:format>
        <dc:type
           rdf:resource="http://purl.org/dc/dcmitype/StillImage" />
        <dc:title></dc:title>
      </cc:Work>
    </rdf:RDF>
  </metadata>
  <g
     inkscape:label="Layer 1"
     inkscape:groupmode="layer"
     id="layer1"
     transform="translate(0,7451.5748)">
    <g
       id="g4571">
      <rect
         y="-7983.0708"
         x="-531.49609"
         height="9566.9287"
         width="2657.4802"
         id="rect4917"
         style="color:#000000;clip-rule:nonzero;display:inline;overflow:visible;visibility:visible;opacity:1;isolation:auto;mix-blend-mode:normal;color-interpolation:sRGB;color-interpolation-filters:linearRGB;solid-color:#000000;solid-opacity:1;fill:#eeeeec;fill-opacity:1;fill-rule:nonzero;stroke:none;stroke-width:1.99999976;stroke-linecap:butt;stroke-linejoin:miter;stroke-miterlimit:4;stroke-dasharray:none;stroke-dashoffset:0;stroke-opacity:1;color-rendering:auto;image-rendering:auto;shape-rendering:auto;text-rendering:auto;enable-background:accumulate" />
      <rect
         y="-7451.5747"
         x="0"
         height="8503.9375"
         width="1594.4882"
         id="rect5698"
         style="opacity:1;fill:#a40;fill-opacity:1;stroke:none;stroke-width:7.2562542;stroke-linecap:round;stroke-linejoin:round;stroke-miterlimit:4;stroke-dasharray:none;stroke-dashoffset:0;stroke-opacity:1" />
      <g
         style="fill:white"
         transform="matrix(2.6771009,0,0,2.6771009,-4074.4,-5441.6625)"
         id="g6867">
        <path
           inkscape:export-ydpi="90"
           inkscape:export-xdpi="90"
           inkscape:export-filename="/media/winardiaris/Data/AA/2015.gnome.asia/logo/Logo_brown.png"
           id="rect3963-5-8"
           d="m 1633.5773,-587.91667 c -10.3072,0 -18.5928,8.37836 -18.5928,18.80183 l 0,321.20103 c 6.658,-13.85684 15.0957,-26.96319 23.8599,-39.13854 37.8087,-51.39936 82.4942,-97.07297 125.9968,-143.54282 49.3217,-51.58518 97.1229,-104.5182 145.1473,-157.3215 l -276.4112,0 z m 301.4921,0 c 4.6669,21.84751 9.3498,43.69143 14.1275,65.50994 19.7885,93.07511 45.1656,185.10947 63.8356,278.53932 5.2391,29.15976 11.0063,59.02303 11.2323,88.7768 l 0,-414.02423 c 0,-10.42347 -8.2862,-18.80183 -18.5928,-18.80183 l -70.6026,0 z m -13.8835,11.16252 c -17.4795,19.59333 -35.0065,39.14394 -52.7429,58.4985 -59.8311,66.1986 -123.1724,129.29232 -181.7045,196.77397 -25.6057,30.86624 -53.2928,62.3717 -65.4052,101.50902 -8.3982,24.12123 -3.173,50.9309 9.3833,72.52139 7.7209,16.30927 24.6694,27.43765 27.9764,45.73136 0.5714,8.641944 -0.274,17.136565 -1.8143,25.56913 -0.2537,6.053164 2.7191,11.925053 8.9997,14.790312 l 221.5408,60.0333481 c 7.5581,0.70174366 13.4678,-3.8108647 15.8371,-10.1509191 0.033,-0.05943 0.049,-0.115154 0.069,-0.174594 0.081,-0.224669 0.1372,-0.468633 0.2106,-0.697638 0,-0.01007 0,-0.02337 0,-0.03504 0.033,-0.10416 0.074,-0.208974 0.1018,-0.313797 3.6906,-10.719464 8.7536,-20.6812 18.2084,-27.313254 14.0531,-7.518374 29.8682,-11.971659 43.29,-20.964592 21.2927,-12.698136 36.1012,-34.952805 40.5685,-59.579836 6.6393,-41.61835 -1.2588,-84.03485 -9.2439,-124.8805 -23.1808,-110.633 -52.6781,-219.90561 -75.1723,-330.75888 l -0.1017,-0.55812 z m 10.9531,194.2973 c 66.7103,0 -4.1984,96.10217 -41.7198,96.10217 -37.5264,0 -24.9873,-96.10217 41.7198,-96.10217 z m -103.0787,11.79039 c 32.8373,0.11463 11.6474,73.57726 -7.709,72.38186 -19.9888,-1.23396 -33.1796,-67.24485 4.3604,-72.17254 1.1733,-0.15396 2.2893,-0.21299 3.3486,-0.20932 z m -65.0564,26.09236 c 23.4169,-0.52471 21.4205,59.39911 5.8253,62.61466 -16.9029,3.49353 -42.4867,-48.48774 -12.3135,-61.07981 2.3569,-0.98355 4.5037,-1.49038 6.4882,-1.53485 z m -49.0451,40.74314 c 0.3342,-0.0205 0.6486,-0.0106 0.9763,0 18.3641,0.62501 26.283,48.70736 13.8486,54.24278 -14.2107,6.32348 -46.4786,-34.4345 -22.3247,-51.31264 2.643,-1.84574 5.1585,-2.78696 7.4998,-2.93014 z m 134.9961,31.18523 c 32.852,-0.29479 59.9803,10.04141 63.4872,31.11551 10.8158,64.99505 -153.2838,88.71308 -91.4978,136.28714 19.4085,14.944876 39.21,3.50848 36.2084,-19.6739 -2.5055,-19.34057 67.2384,-31.07768 61.7772,-1.84878 -7.15,38.330158 -45.3868,68.614495 -78.5209,68.614495 -67.3528,0 -131.881,-79.227165 -119.2647,-136.322045 11.358,-51.44055 76.5621,-77.71265 127.8106,-78.17242 z m 174.3099,121.60152 c -0.1194,12.16718 -1.2193,24.32077 -3.6977,36.38277 -5.7086,32.795333 -29.3989,59.395763 -58.2193,73.916712 -10.671,6.656958 -23.7043,8.451491 -33.9758,15.90657 -11.581,12.856004 -12.548,31.5964861 -18.7673,47.301089 -3.3468,9.25245 -3.1953,21.30219 -11.1973,27.976035 -11.6417,7.713598 -25.5703,0.491768 -37.9873,-0.627894 -0.4162,9.782571 -9.9446,18.403884 -19.9181,18.034423 -20.3902,-4.225363 -40.5008,-10.128545 -60.6612,-15.522862 -6.2262,-0.371416 -12.311,2.822871 -15.1045,9.59281 l -5.302,19.918076 246.2377,0 c 10.3066,0 18.5928,-8.37838 18.5928,-18.801831 l 0,-214.075898 z m -409.2803,7.84864 0,206.227258 c 0,10.423451 8.2856,18.801831 18.5928,18.801831 l 105.2759,0 6.5932,-24.906345 c 1.0779,-7.601322 -2.9201,-13.633853 -8.8254,-16.394922 -19.9157,-5.294938 -39.8472,-10.56507 -59.58,-16.464704 -11.3111,-2.476179 -18.2551,-16.5577707 -13.0809,-27.1039427 -1.834,-1.7971029 -5.0455,-2.1810065 -7.5697,-3.1743494 -10.312,-3.3763526 -24.5275,-7.1707599 -26.7552,-19.7785589 1.3304,-15.828722 6.9688,-31.185343 10.1162,-46.777849 1.8824,-11.757504 7.4411,-25.494217 -0.9769,-35.999098 -8.9218,-10.57608 -17.2488,-22.07634 -23.79,-34.42932 z"
           style="color:black;display:inline;overflow:visible;visibility:visible;fill:white;fill-opacity:1;fill-rule:nonzero;stroke:none;stroke-width:5;marker:none;enable-background:accumulate"
           inkscape:connector-curvature="0" />
        <g
           style="fill:white"
           id="g6843"
           transform="matrix(1.000014,0,0,1.000014,-0.02262766,-0.00326909)">
          <g
             id="g3029-9-7"
             style="fill:white;fill-opacity:1"
             transform="matrix(0.33437746,0,0,0.33437746,1455.0257,-39.542808)"
             inkscape:export-filename="/media/winardiaris/Data/AA/2015.gnome.asia/logo/Logo_brown.png"
             inkscape:export-xdpi="90"
             inkscape:export-ydpi="90">
            <path
               d="m 902.20598,745.76019 0,0 m -37.728,-26.352 c 3.072,-1.05591 6.192,-1.58391 9.36,-1.584 8.736,9e-5 13.584,3.55209 14.544,10.656 -1.536,3.74408 -5.328,6.24007 -11.376,7.488 -5.952,1.24807 -11.808,2.44807 -17.568,3.6 -6.72,2.01607 -11.424,5.76006 -14.112,11.232 3.648,3.84005 9.6,7.77605 17.856,11.808 10.464,5.18404 16.944,8.64004 19.44,10.368 6.624,4.51203 10.992,9.93603 13.104,16.272 -1.0561,7.10401 -4.896,12.76801 -11.52,16.992 -5.952,3.648 -12.864,5.472 -20.736,5.472 -7.68,0 -13.968,-1.728 -18.864,-5.184 -0.096,-4.41599 2.208,-8.20799 6.912,-11.376 4.128,-2.30398 8.256,-4.55998 12.384,-6.768 -3.456,-4.89598 -9.696,-9.07197 -18.72,-12.528 -10.752,-4.12796 -17.76,-7.53596 -21.024,-10.224 -3.168,-1.72796 -4.704,-3.93595 -4.608,-6.624 0,-1.63195 0.768,-4.31995 2.304,-8.064 1.632,-3.74394 2.352,-6.62394 2.16,-8.64 2.688,-6.71993 7.392,-12.28792 14.112,-16.704 6.72,-4.51191 13.68,-6.76791 20.88,-6.768 1.92,9e-5 3.744,0.19209 5.472,0.576"
               style="font-style:normal;font-variant:normal;font-weight:normal;font-stretch:normal;font-size:144px;line-height:125%;font-family:Buttweasel;-inkscape-font-specification:Buttweasel;letter-spacing:0px;word-spacing:0px;fill:white;fill-opacity:1;stroke:none"
               id="path5298-2-1"
               inkscape:connector-curvature="0" />
            <path
               d="m 980.21345,747.63219 c -1.248,-22.27192 -1.872,-33.35991 -1.872,-33.264 0,-6.6239 0.528,-11.51989 1.584,-14.688 -0.288,-3.45589 -2.4,-5.95189 -6.336,-7.488 -3.264,-1.05588 -6.576,-2.11188 -9.936,-3.168 -5.376,9.60011 -8.064,22.4641 -8.064,38.592 0,2.59208 0.048,6.48007 0.144,11.664 0.192,5.18406 0.288,9.07206 0.288,11.664 0,14.68804 -2.112,26.64003 -6.336,35.856 -0.576,0.19202 -2.4,0.91202 -5.472,2.16 -2.304,0.86402 -4.224,1.29602 -5.76,1.296 -2.4,2e-5 -4.32,-1.00798 -5.76,-3.024 -0.96,-4.22397 -1.632,-9.11997 -2.016,-14.688 -0.192,-4.03196 -0.24,-9.26396 -0.144,-15.696 0.192,-9.21594 0.288,-14.44793 0.288,-15.696 l 0,-19.872 c 0,-6.04791 0,-9.5519 0,-10.512 -2.784,-4.6079 -6.288,-6.9119 -10.512,-6.912 -1.152,10e-5 -2.208,0.2401 -3.16797,0.72 -0.384,-0.2879 -1.344,0.4801 -2.88,2.304 -3.072,5.3761 -4.608,10.99209 -4.608,16.848 l -0.144,31.248 c -0.096,21.50403 1.632,38.97601 5.184,52.416 5.37597,3.264 11.75997,4.896 19.15197,4.896 2.592,0 6.384,-0.192 11.376,-0.576 4.992,-0.48 8.784,-0.72 11.376,-0.72 2.496,0 4.896,0.144 7.2,0.432 6.24,-0.768 10.944,-6 14.112,-15.696 1.92,-8.63998 2.88,-18.47997 2.88,-29.52 0,-4.89595 -0.192,-11.08795 -0.576,-18.576"
               style="font-style:normal;font-variant:normal;font-weight:normal;font-stretch:normal;font-size:144px;line-height:125%;font-family:Buttweasel;-inkscape-font-specification:Buttweasel;letter-spacing:0px;word-spacing:0px;fill:white;fill-opacity:1;stroke:none"
               id="path5300-2-7"
               inkscape:connector-curvature="0" />
            <path
               d="m 1109.1609,743.02419 c -4.6081,-2.97593 -9.8881,-4.46393 -15.84,-4.464 -4.1281,7e-5 -9.4081,1.20007 -15.84,3.6 -6.336,2.30406 -10.08,3.45606 -11.232,3.456 -3.84,6e-5 -7.2,-2.39994 -10.08,-7.2 -3.36,-5.56792 -6.24,-8.78392 -8.64,-9.648 -4.32,-1.53592 -12.24,-2.97592 -23.76,-4.32 l 0.288,-3.888 c 0.192,-4.12791 -1.056,-6.86391 -3.744,-8.208 -1.824,-0.9599 -4.944,-1.4399 -9.3599,-1.44 -5.088,10e-5 -7.92,3.50409 -8.496,10.512 l -0.144,-0.288 c 0.288,0.67209 0.528,2.25608 0.72,4.752 0.096,3.16808 0.192,4.99208 0.288,5.472 l 0.288,0 c -0.48,5.85607 -2.16,16.70406 -5.04005,32.544 -2.496,13.53603 -3.744,24.24002 -3.744,32.112 0,6.91201 4.656,10.368 13.96805,10.368 3.744,0 6.048,-2.64 6.9119,-7.92 0.192,-1.24799 0.288,-5.18399 0.288,-11.808 0,-1.24798 0,-3.31198 0,-6.192 -0.096,-2.87997 -0.144,-5.13597 -0.144,-6.768 0,-13.91995 2.688,-23.32794 8.064,-28.224 11.904,0.76806 17.856,10.27205 17.856,28.512 0,1.63203 -0.384,4.12803 -1.152,7.488 -0.768,3.36002 -1.152,5.95202 -1.152,7.776 0,7.10401 4.608,10.65601 13.824,10.656 5.664,10e-6 8.304,-6.33599 7.92,-19.008 4.224,-7.29597 7.824,-12.43196 10.8,-15.408 4.8959,-4.99195 10.4159,-7.48795 16.56,-7.488 6.3359,5e-5 9.5039,7.63204 9.504,22.896 -10e-5,2.30402 -0.096,4.99202 -0.288,8.064 -0.096,3.07202 -0.1441,4.84801 -0.144,5.328 -1e-4,6.24001 1.3919,10.944 4.176,14.112 2.7839,3.072 7.2959,4.94399 13.536,5.616 3.5519,-6.144 5.3279,-13.34399 5.328,-21.6 -10e-5,-7.29598 -1.2961,-15.64797 -3.888,-25.056 -0.2881,-1.05596 -2.8321,-9.16795 -7.632,-24.336"
               style="font-style:normal;font-variant:normal;font-weight:normal;font-stretch:normal;font-size:144px;line-height:125%;font-family:Buttweasel;-inkscape-font-specification:Buttweasel;letter-spacing:0px;word-spacing:0px;fill:white;fill-opacity:1;stroke:none"
               id="path5302-6-1"
               inkscape:connector-curvature="0" />
            <path
               d="m 1245.5672,743.02419 c -4.6081,-2.97593 -9.8881,-4.46393 -15.84,-4.464 -4.1281,7e-5 -9.4081,1.20007 -15.84,3.6 -6.3361,2.30406 -10.0801,3.45606 -11.232,3.456 -3.8401,6e-5 -7.2001,-2.39994 -10.08,-7.2 -3.3601,-5.56792 -6.2401,-8.78392 -8.64,-9.648 -4.3201,-1.53592 -12.2401,-2.97592 -23.76,-4.32 l 0.288,-3.888 c 0.1919,-4.12791 -1.056,-6.86391 -3.744,-8.208 -1.824,-0.9599 -4.944,-1.4399 -9.36,-1.44 -5.088,10e-5 -7.92,3.50409 -8.496,10.512 l -0.144,-0.288 c 0.288,0.67209 0.528,2.25608 0.72,4.752 0.096,3.16808 0.192,4.99208 0.288,5.472 l 0.288,0 c -0.48,5.85607 -2.16,16.70406 -5.04,32.544 -2.496,13.53603 -3.744,24.24002 -3.744,32.112 0,6.91201 4.656,10.368 13.968,10.368 3.744,0 6.048,-2.64 6.912,-7.92 0.192,-1.24799 0.288,-5.18399 0.288,-11.808 0,-1.24798 0,-3.31198 0,-6.192 -0.096,-2.87997 -0.144,-5.13597 -0.144,-6.768 0,-13.91995 2.688,-23.32794 8.064,-28.224 11.9039,0.76806 17.8559,10.27205 17.856,28.512 -10e-5,1.63203 -0.3841,4.12803 -1.152,7.488 -0.7681,3.36002 -1.1521,5.95202 -1.152,7.776 -10e-5,7.10401 4.6079,10.65601 13.824,10.656 5.6639,10e-6 8.3039,-6.33599 7.92,-19.008 4.2239,-7.29597 7.8239,-12.43196 10.8,-15.408 4.8959,-4.99195 10.4159,-7.48795 16.56,-7.488 6.3359,5e-5 9.5039,7.63204 9.504,22.896 -10e-5,2.30402 -0.096,4.99202 -0.288,8.064 -0.096,3.07202 -0.1441,4.84801 -0.144,5.328 -10e-5,6.24001 1.3919,10.944 4.176,14.112 2.7839,3.072 7.2959,4.94399 13.536,5.616 3.5519,-6.144 5.3279,-13.34399 5.328,-21.6 -10e-5,-7.29598 -1.2961,-15.64797 -3.888,-25.056 -0.2881,-1.05596 -2.8321,-9.16795 -7.632,-24.336"
               style="font-style:normal;font-variant:normal;font-weight:normal;font-stretch:normal;font-size:144px;line-height:125%;font-family:Buttweasel;-inkscape-font-specification:Buttweasel;letter-spacing:0px;word-spacing:0px;fill:white;fill-opacity:1;stroke:none"
               id="path5304-6-5"
               inkscape:connector-curvature="0" />
            <path
               inkscape:connector-curvature="0"
               id="path5318-5-6"
               d="m 1299.6854,646.73268 c 1.152,1.82413 1.728,4.03213 1.728,6.624 0,3.93613 -1.248,7.63212 -3.744,11.088 -2.496,3.45611 -5.376,5.18411 -8.64,5.184 -2.88,1.1e-4 -5.568,-1.53589 -8.064,-4.608 -0.672,-2.68788 -1.344,-5.37588 -2.016,-8.064 -0.864,-3.26387 -1.296,-5.95187 -1.296,-8.064 0,-3.74386 1.248,-6.81586 3.744,-9.216 4.896,0.0961 8.256,0.38414 10.08,0.864 3.648,0.96014 6.384,3.02414 8.208,6.192"
               style="font-style:normal;font-variant:normal;font-weight:normal;font-stretch:normal;font-size:144px;line-height:125%;font-family:Buttweasel;-inkscape-font-specification:Buttweasel;letter-spacing:0px;word-spacing:0px;fill:white;fill-opacity:1;stroke:none" />
            <path
               inkscape:connector-curvature="0"
               id="path5306-3-5"
               d="m 1298.1654,754.46341 c -0.768,2.50451 -1.92,8.39736 -3.456,17.67855 -1.632,9.72323 -3.072,16.79464 -4.32,21.21427 -2.016,7.07143 -4.368,11.27007 -7.056,12.59596 -6.816,-1.62054 -10.944,-5.89284 -12.384,-12.81694 0.576,-18.8571 1.2,-37.78785 1.872,-56.79235 1.44,-24.89721 4.752,-41.17618 9.936,-48.837 1.44,-0.29452 2.736,-0.44185 3.888,-0.44196 4.032,1.1e-4 6.912,2.35725 8.64,7.07141 1.056,3.09386 1.824,8.39742 2.304,15.9107 0.48,8.3974 1.056,13.92195 1.728,16.57365 l -1.152,27.84371"
               style="font-style:normal;font-variant:normal;font-weight:normal;font-stretch:normal;font-size:144px;line-height:125%;font-family:Buttweasel;-inkscape-font-specification:Buttweasel;letter-spacing:0px;word-spacing:0px;fill:white;fill-opacity:1;stroke:none" />
            <path
               d="m 1367.7714,731.47219 c -2.88,-5.66391 -4.32,-12.91191 -4.32,-21.744 0,-3.16789 0.24,-7.87189 0.72,-14.112 0.48,-6.33588 0.72,-10.94387 0.72,-13.824 0,-2.87987 -0.144,-5.42386 -0.432,-7.632 -3.744,-4.99186 -8.4,-7.48785 -13.968,-7.488 -3.456,1.5e-4 -6.24,1.34414 -8.352,4.032 l 0,1.296 c -0.768,0.76814 -1.44,1.48814 -2.016,2.16 -0.288,2.20814 -0.432,4.75213 -0.432,7.632 0,2.88013 0.24,7.48812 0.72,13.824 0.48,6.24011 0.72,10.94411 0.72,14.112 0,8.83209 -1.44,16.08009 -4.32,21.744 -1.536,2.01608 -4.464,3.60008 -8.784,4.752 -5.664,1.44007 -8.976,2.40007 -9.936,2.88 -3.264,1.63207 -4.896,4.27207 -4.896,7.92 0,0.67206 0.048,1.39206 0.144,2.16 1.536,3.93606 4.512,6.24006 8.928,6.912 3.744,0.38406 7.488,0.72006 11.232,1.008 3.84,0.86405 6.096,3.50405 6.768,7.92 l -0.576,12.384 c -1.824,12.28802 -2.736,19.29602 -2.736,21.024 0,3.55201 0.48,6.72001 1.44,9.504 -0.096,0.384 0.24,1.392 1.008,3.024 0.768,1.632 1.488,2.688 2.16,3.168 0.576,0.768 1.104,1.44 1.584,2.016 7.584,-2.016 12.72,-3.984 15.408,-5.904 2.688,-1.92 4.032,-4.22399 4.032,-6.912 0,-1.15199 -0.528,-3.88799 -1.584,-8.208 -0.96,-4.31998 -1.44,-8.15997 -1.44,-11.52 0,-4.03197 0.624,-8.25596 1.872,-12.672 1.248,-4.51195 4.08,-7.72795 8.496,-9.648 4.032,-1.15195 8.064,-2.35195 12.096,-3.6 4.608,-1.63194 7.68,-4.46394 9.216,-8.496 0.096,-0.76794 0.144,-1.48794 0.144,-2.16 0,-3.64793 -1.584,-6.28793 -4.752,-7.92 -0.96,-0.47993 -4.32,-1.43993 -10.08,-2.88 -4.32,-1.15192 -7.248,-2.73592 -8.784,-4.752"
               style="font-style:normal;font-variant:normal;font-weight:normal;font-stretch:normal;font-size:144px;line-height:125%;font-family:Buttweasel;-inkscape-font-specification:Buttweasel;letter-spacing:0px;word-spacing:0px;fill:white;fill-opacity:1;stroke:none"
               id="path5308-2-5"
               inkscape:connector-curvature="0" />
          </g>
          <g
             style="fill:white"
             id="g4222-8-0"
             transform="matrix(0.82152416,0,0,0.82152416,587.29016,-252.07429)"
             inkscape:export-filename="/media/winardiaris/Data/AA/2015.gnome.asia/logo/Logo_brown.png"
             inkscape:export-xdpi="90"
             inkscape:export-ydpi="90">
            <g
               style="fill:white"
               transform="matrix(1.098291,0,0,1.098291,2029.3133,-100.13465)"
               id="g3956-2-4">
              <path
                 inkscape:connector-curvature="0"
                 d="m -565.99523,509.46063 c -8.08731,0.21792 -14.47394,3.12448 -19.17071,8.69866 -4.86385,5.80101 -7.31024,13.81651 -7.31024,24.03862 0,10.19394 2.44651,18.18745 7.31024,23.98846 4.88761,5.801 11.59815,8.69866 20.15764,8.69866 8.5831,0 15.3105,-2.89766 20.17436,-8.69866 4.86373,-5.80101 7.29358,-13.79452 7.29353,-23.98846 -5e-5,-10.22211 -2.4298,-18.23761 -7.29353,-24.03862 -4.86386,-5.80075 -11.59131,-8.69866 -20.17436,-8.69866 -0.33434,0 -0.6582,-0.009 -0.98693,0 z m 0.60221,11.77669 c 0.12927,-0.003 0.25357,0 0.38472,0 4.21998,0 7.48996,1.8261 9.8028,5.48697 2.31266,3.66086 3.47944,8.82788 3.47949,15.47362 0,6.61757 -1.16692,11.74604 -3.47949,15.40691 -2.31274,3.66086 -5.58286,5.50352 -9.8028,5.50352 -4.19632,0 -7.43983,-1.84266 -9.75257,-5.50352 -2.31274,-3.66087 -3.47944,-8.78934 -3.47949,-15.40691 0,-6.64574 1.16684,-11.81276 3.47949,-15.47362 2.24035,-3.54647 5.35963,-5.37604 9.36785,-5.48697 z"
                 style="font-style:normal;font-variant:normal;font-weight:bold;font-stretch:normal;font-size:148.699646px;line-height:125%;font-family:'Bitstream Vera Sans';text-align:start;writing-mode:lr-tb;text-anchor:start;fill:white;fill-opacity:1;stroke:none"
                 id="path3787-66-5" />
              <path
                 inkscape:connector-curvature="0"
                 d="m -657.35432,568.97161 c -7.12362,5.98235 -17.72219,5.91366 -22.13752,5.91366 -8.8932,0 -15.93855,-2.92879 -21.13613,-8.78612 -5.19765,-5.88525 -7.7964,-13.85456 -7.7964,-23.90791 0,-10.16578 2.64646,-18.16325 7.93945,-23.99241 5.293,-5.82892 12.54098,-8.74363 21.74413,-8.74363 3.55245,0 6.94991,0.39433 10.19254,1.18273 3.26638,0.78841 6.34203,1.95706 9.22697,3.50595 l -3.70487,10.9527 c -1.62185,-0.88773 -3.4788,-1.76286 -5.20022,-2.37807 -2.93262,-0.98557 -5.87712,-1.47823 -8.83351,-1.47823 -5.48379,0 -9.71581,1.81623 -12.69601,5.44892 -2.95649,3.60454 -4.4347,8.7718 -4.4347,15.50204 0,6.67415 1.4305,11.82733 4.29167,15.46003 2.86099,3.6327 7.16068,5.44892 12.19522,5.44892 5.11476,0 8.28269,-1.28922 9.97226,-2.64762 l 0,-10.91144 -11.08087,0 0,-10.89809 21.45799,0"
                 style="font-style:normal;font-variant:normal;font-weight:bold;font-stretch:normal;font-size:148.699646px;line-height:125%;font-family:'Bitstream Vera Sans';text-align:start;writing-mode:lr-tb;text-anchor:start;fill:white;fill-opacity:1;stroke:none"
                 id="path3789-9-4" />
              <path
                 inkscape:connector-curvature="0"
                 d="m -528.50252,510.59568 17.5241,0 12.15952,39.37066 12.23105,-39.37066 14.81181,0 6.69132,63.06461 -13.01787,0 -4.0148,-39.4349 -12.30257,39.62391 -8.72628,0 -12.30263,-40.9623 -4.01479,40.77329 -13.05365,0 6.69132,-63.06461"
                 style="font-style:normal;font-variant:normal;font-weight:bold;font-stretch:normal;font-size:148.699646px;line-height:125%;font-family:'Bitstream Vera Sans';text-align:start;writing-mode:lr-tb;text-anchor:start;fill:white;fill-opacity:1;stroke:none"
                 id="path3793-86-9" />
              <path
                 inkscape:connector-curvature="0"
                 d="m -455.68828,510.59568 37.15811,0 0,12.29183 -23.38928,0 0,13.08097 17.97969,0 0,10.95369 -17.97969,0 0,14.44629 24.17608,0 0,12.29183 -37.94491,0 0,-63.06461"
                 style="font-style:normal;font-variant:normal;font-weight:bold;font-stretch:normal;font-size:148.699646px;line-height:125%;font-family:'Bitstream Vera Sans';text-align:start;writing-mode:lr-tb;text-anchor:start;fill:white;fill-opacity:1;stroke:none"
                 id="path3795-9-9" />
              <path
                 inkscape:connector-curvature="0"
                 d="m -647.94283,510.59568 8.6869,0 27.44915,37.90083 0,-37.90083 11.71533,0 0,63.06461 -8.6869,0 -27.4491,-37.90083 0,37.90083 -11.71538,0 0,-63.06461"
                 style="font-style:normal;font-variant:normal;font-weight:bold;font-stretch:normal;font-size:148.699646px;line-height:125%;font-family:'Bitstream Vera Sans';text-align:start;writing-mode:lr-tb;text-anchor:start;fill:white;fill-opacity:1;stroke:none"
                 id="path3791-9-5" />
            </g>
            <text
               x="1581.7286"
               y="477.86325"
               style="font-style:normal;font-weight:normal;font-size:25.88836098px;font-family:'Bitstream Vera Sans';fill:white;fill-opacity:1;stroke:none"
               id="text3797-1-9"
               xml:space="preserve"><tspan
                 x="1581.7286"
                 y="477.86325"
                 style="letter-spacing:9.33191109;fill:white"
                 id="tspan3799-2-9"><tspan
                   style="letter-spacing:0.21289776;fill:white"
                   id="tspan3801-7-4">TM</tspan></tspan></text>
          </g>
          <text
             sodipodi:linespacing="125%"
             id="text5185-6-0"
             y="184.03157"
             x="1894.2184"
             style="font-style:normal;font-weight:normal;font-size:96.68563843px;line-height:125%;font-family:Sans;letter-spacing:61.50489426px;word-spacing:0px;fill:white;fill-opacity:1;stroke:none"
             xml:space="preserve"
             inkscape:export-filename="/media/winardiaris/Data/AA/2015.gnome.asia/logo/Logo_brown.png"
             inkscape:export-xdpi="90"
             inkscape:export-ydpi="90"><tspan
               style="font-weight:bold;font-size:40.12529373px;-inkscape-font-specification:'Sans Bold';letter-spacing:0px;fill:white"
               y="184.03157"
               x="1894.2184"
               id="tspan5187-4-0"
               sodipodi:role="line">ASIA</tspan></text>
          <text
             xml:space="preserve"
             style="font-style:normal;font-weight:normal;font-size:8.02505875px;line-height:125%;font-family:Sans;letter-spacing:0px;word-spacing:0px;fill:white;fill-opacity:1;stroke:none"
             x="1921.5619"
             y="215.44022"
             id="text3033-2-6"
             sodipodi:linespacing="125%"
             inkscape:export-filename="/media/winardiaris/Data/AA/2015.gnome.asia/logo/Logo_brown.png"
             inkscape:export-xdpi="90"
             inkscape:export-ydpi="90"><tspan
               sodipodi:role="line"
               id="tspan3035-2-9"
               x="1921.5619"
               y="215.44022"
               style="font-weight:bold;font-size:40.12529373px;-inkscape-font-specification:'Sans Bold';fill:white">2015</tspan></text>
        </g>
      </g>
      <g
         transform="matrix(-1,0,0,1,1596.4239,0)"
         id="g4508">
        <path
           inkscape:connector-curvature="0"
           id="path6656"
           d="m 757.96927,-2150.2019 c 10.60948,-0.2993 16.51958,11.1943 7.1256,26.3946 -5.29245,8.5644 -16.2128,11.5001 -24.26488,6.5238 -9.8217,-6.0702 -9.57368,-14.1139 0.75362,-24.4415 5.76798,-5.7678 11.56329,-8.3409 16.38566,-8.4769 z m 70.2222,74.8145 c 20.34782,-0.1742 43.2913,24.5002 34.72405,46.8249 -4.33043,11.2857 -17.08941,20.5188 -28.35549,20.5188 -27.08054,0 -41.95896,-40.8952 -22.10103,-60.7524 4.54155,-4.5418 10.03555,-6.5423 15.73247,-6.5913 z m 77.52955,113.3983 c 6.7785,-0.1968 13.66223,1.4745 20.11893,5.5474 34.55937,21.7996 37.61281,42.3371 10.34574,69.6041 -27.26707,27.2671 -47.80483,24.2135 -69.60386,-10.3458 -17.65036,-27.9813 9.76566,-63.9514 39.13919,-64.8057 z m 53.98891,141.9856 c 37.1441,0.4694 68.60087,47.5353 51.07147,93.2163 -4.3756,11.4019 -23.54203,20.7291 -42.5951,20.7291 -65.43263,0 -88.87351,-72.0357 -34.56826,-106.2344 8.64583,-5.4446 17.51985,-7.8191 26.09189,-7.711 z m -474.85685,4.4785 c 7.42213,0.041 15.12439,0.929 23.02274,2.7905 81.14461,19.1237 207.01396,97.3141 278.73522,173.1488 99.18509,104.8733 144.21457,207.5606 154.06974,351.3445 5.06014,73.8287 2.59498,114.2568 -6.96981,114.2568 -8.14159,0 -18.9335,-27.5473 -23.9827,-61.2154 -13.70801,-91.4108 -68.41706,-197.2339 -137.55359,-266.0746 -60.53306,-60.2731 -196.11547,-135.2734 -280.75148,-155.2987 -23.72716,-5.614 -54.4665,-20.045 -68.30774,-32.0724 -55.62803,-48.3383 -10.01369,-127.2814 61.73762,-126.8795 z m 574.17582,154.966 c 53.8837,-0.2057 77.5118,81.1654 68.2149,239.2509 -10.8466,184.4351 -69.5732,351.4285 -162.37398,461.71627 -21.13492,25.11778 -41.79976,42.29136 -45.92453,38.16714 -4.12409,-4.12422 9.33932,-45.02408 29.92217,-90.88871 20.58217,-45.8647 44.59083,-129.5702 53.34874,-186.0158 15.4414,-99.5196 13.5925,-127.5578 -24.14739,-366.0756 -7.15293,-45.2105 -3.18531,-55.8334 28.64249,-76.6876 19.7732,-12.9559 37.2302,-19.4088 52.3176,-19.4666 z m -555.39947,155.8291 c 254.6227,0 422.06225,267.9375 325.42499,520.7472 -44.3599,116.04808 -125.57966,196.23758 -253.25416,250.04262 -71.45615,30.11267 -101.99598,34.7649 -199.42103,30.37189 -108.76287,-4.90415 -208.51302,-36.45847 -208.51302,-65.95887 0,-6.50842 37.20833,-5.96367 82.68602,1.21222 249.82972,39.42178 476.73509,-117.58777 477.82761,-330.63626 0.66958,-129.7857 -87.3854,-241.0147 -188.68789,-238.3585 -38.57141,1.0114 -68.4847,11.7766 -88.58245,31.8745 l -30.34647,30.3426 31.73552,65.3192 c 17.45357,35.9251 31.73141,74.3885 31.73141,85.4758 0,65.6787 -124.77821,88.5805 -192.48059,35.326 -58.37537,-45.918 -85.05143,-108.7564 -76.89344,-181.1333 15.75638,-139.7972 132.47295,-234.6251 288.7735,-234.6251 z m 764.07237,245.8421 c 8.5447,0.1072 17.9824,1.7554 28.8311,4.4783 91.0243,22.8458 37.5656,163.7004 -123.3359,324.97085 -107.3937,107.6403 -275.16184,203.69174 -410.80028,235.19755 -75.91161,17.63273 -106.57306,18.88765 -90.02137,3.68285 3.29599,-3.02755 54.52526,-29.78525 113.84487,-59.46023 150.61456,-75.34704 304.78678,-232.31349 378.10888,-384.96572 46.0414,-95.8557 66.3427,-124.3695 103.3727,-123.9036 z m 85.5386,360.30095 c 16.4567,-0.44069 29.4576,6.77161 43.1123,20.42605 57.0369,57.03695 5.5302,122.63609 -156.7672,199.65293 -113.7335,53.97114 -236.9423,92.76126 -345.17839,108.67145 -95.79824,14.08072 -193.32304,14.01171 -237.61324,-0.17218 -19.7732,-6.33241 -32.71461,-12.61631 -28.75997,-13.96129 3.95464,-1.3447 64.73982,-14.57122 135.07886,-29.39108 151.94006,-32.01264 322.67424,-111.28932 460.07474,-213.63096 65.6069,-48.86714 102.626,-70.86117 130.0529,-71.59471 z M 434.16426,-551.8935 c 10.6375,-0.42567 54.10165,13.81282 102.98533,34.01708 86.06058,35.56943 116.57308,40.5665 249.07063,40.78494 117.58907,0.19472 174.25221,-7.02721 256.14088,-32.64062 112.214,-35.09866 151.8451,-32.1404 176.0785,13.1403 37.2378,69.579 -26.7792,113.19941 -186.2596,126.92177 -108.69999,9.35305 -266.72575,-3.94672 -344.10088,-28.96194 -106.04286,-34.28383 -274.24696,-134.53288 -256.12858,-152.65125 0.36212,-0.36759 1.11301,-0.56642 2.21372,-0.61015 z m -117.23241,24.13854 c 10.85954,0 39.29155,21.44607 84.61278,65.55904 52.50626,51.10615 131.18844,108.33659 189.23175,137.642 112.669,56.8854 138.87362,85.43889 110.16148,120.03564 -10.39631,12.52654 -33.92191,22.77485 -52.28011,22.77485 -51.98289,0 -207.42802,-128.88665 -275.61209,-228.52228 -52.87795,-77.26909 -70.99633,-117.49984 -56.11381,-117.48925 z"
           style="fill:#722d00;fill-opacity:1" />
        <path
           style="fill:white;fill-opacity:1"
           d="m 1570.8809,-3408.7091 c -6.7812,-7.628 -18.7251,-4.1946 -23.1819,12.4004 -2.5102,9.3502 2.6285,18.9328 11.4191,21.2933 10.7236,2.8796 16.1937,-2.5939 16.6221,-16.6323 0.2391,-7.8401 -1.7771,-13.5944 -4.8593,-17.0614 z m -98.6685,0.1127 c -13.2851,-14.3659 -45.684,-14.1771 -55.6752,6.5326 -5.0512,10.4693 -3.1101,25.4895 4.3127,33.3799 17.843,18.9665 56.2887,2.4414 57.112,-24.5502 0.1845,-6.1737 -2.0299,-11.3397 -5.7495,-15.3623 z m -130.5066,20.4176 c -4.3284,-4.8774 -10.0342,-8.597 -17.142,-10.4359 -38.0392,-9.8411 -54.4351,1.5523 -55.5658,38.616 -1.1315,37.0638 14.5395,49.436 53.1075,41.933 31.2278,-6.075 38.3568,-48.9771 19.6003,-70.1131 z m -135.018,55.7412 c -24.8026,-25.7062 -78.4936,-16.7261 -98.9378,25.6502 -5.1032,10.5771 0.9934,30.147 13.5468,43.4912 43.1136,45.8282 109.0115,14.7815 97.1825,-45.7865 -1.8831,-9.6425 -6.068,-17.4226 -11.7915,-23.3549 z m 309.7465,335.5338 c -4.9201,-5.171 -10.6164,-9.9808 -17.1243,-14.2864 -66.8606,-44.232 -204.559,-80.8695 -304.9296,-81.1348 -138.8039,-0.3662 -240.39473,35.756 -347.59296,123.5924 -55.04248,45.1016 -81.73289,73.4666 -75.4306,80.1654 5.36418,5.7023 31.76899,-4.8898 58.67599,-23.5376 73.05563,-50.6296 183.21987,-82.0391 276.98887,-78.9756 82.0991,2.6822 223.9633,48.2248 293.7557,94.308 19.5655,12.9194 49.927,24.94 67.4708,26.7092 70.5085,7.1111 95.7442,-76.8522 48.1861,-126.8406 z m -486.8602,-300.0378 c -35.36014,-37.8751 -107.91905,-0.8082 -212.51411,109.8654 -122.0295,129.1207 -200.29422,280.2837 -216.39155,417.9486 -3.66631,31.3528 -2.07912,57.1417 3.52761,57.3128 5.60606,0.1715 25.38063,-36.207 43.94175,-80.843 18.56112,-44.636 61.36799,-116.6046 95.13138,-159.9303 59.52732,-76.3881 80.38348,-93.5677 272.30382,-224.2946 36.3789,-24.7789 41.2046,-34.5571 34.8395,-70.5898 -3.9546,-22.3855 -10.9374,-38.8639 -20.8384,-49.4691 z m 256.8118,491.6696 c -167.7702,-178.3341 -465.75593,-119.0631 -579.14645,115.1964 -52.04985,107.5327 -54.69743,217.2547 -8.25705,342.1283 25.99145,69.8879 42.85674,94.3433 110.12595,159.6837 75.09855,72.9444 162.92396,122.0169 183.58607,102.5791 4.55795,-4.2885 -20.33962,-29.9892 -55.33081,-57.1129 -192.22301,-149.0025 -231.76327,-411.377 -83.26746,-552.5198 90.46206,-85.9819 226.38135,-97.6009 291.26945,-24.8995 24.7062,27.6811 36.8762,55.7252 36.042,83.0438 l -1.2558,41.247 -66.6591,20.8116 c -36.6617,11.4466 -73.0092,26.7901 -80.7736,34.0956 -46.00105,43.2755 20.1756,145.7588 102.0828,158.0869 70.6239,10.63 132.2126,-12.0904 177.5283,-65.4931 87.5296,-103.1484 77.0417,-247.3765 -25.9443,-356.8471 z m -675.63066,-373.1602 c -5.70513,-5.9145 -13.07806,-11.4381 -22.13383,-17.2424 -75.97584,-48.6988 -139.4045,81.5516 -146.33879,300.5053 -4.62764,146.1412 38.6411,326.9317 105.9472,442.69 37.66885,64.7862 56.99179,87.0871 56.73557,65.4764 -0.0683,-4.3031 -15.06562,-57.8143 -33.36711,-118.9132 -46.46771,-155.1348 -38.115,-366.5395 20.48857,-518.4757 36.79906,-95.4059 43.39446,-128.412 18.66839,-154.0404 z m -308.71069,177.4914 c -10.535,-11.8159 -24.15282,-16.17 -42.71258,-16.7366 -77.52954,-2.3663 -89.53626,76.932 -36.54012,241.3488 37.13796,115.219 91.15215,227.0714 151.32514,313.3613 53.2592,76.3734 117.56721,144.6332 156.68385,166.3075 17.46383,9.6763 30.39157,14.5999 28.72854,10.9439 -1.66439,-3.6557 -32.45156,-54.9437 -68.41843,-113.9729 -77.69215,-127.5099 -134.66481,-299.3251 -153.51836,-462.9907 -9.00248,-78.1487 -17.99061,-118.5682 -35.54804,-138.2613 z m 362.75904,872.1437 c -6.71087,-7.7307 -45.32191,-28.7907 -91.68235,-49.7157 -81.61742,-36.8387 -105.22159,-54.9169 -192.67669,-147.5721 -77.61563,-82.2297 -109.89364,-126.6744 -145.91107,-200.9046 -49.35444,-101.7194 -77.53911,-127.5273 -125.22028,-114.6645 -73.268121,19.7647 -61.639236,93.3424 33.83172,214.0821 65.07188,82.2946 178.50954,184.2105 247.01269,221.9202 93.88241,51.6812 274.92543,103.4353 275.67768,78.8072 0,-0.4995 -0.33479,-1.1529 -1.0317,-1.9526 z m 60.33833,98.0129 c -7.15565,-7.6062 -40.91017,-13.3886 -101.66802,-16.0651 -70.39096,-3.1007 -162.31723,-20.4996 -221.08751,-41.8428 -114.07854,-41.4299 -151.34359,-40.9698 -156.65584,1.9357 -1.92335,15.5351 6.39998,38.765 18.49621,51.6225 34.25124,36.4081 226.94364,60.3565 341.6535,42.4616 88.9596,-13.8775 129.07448,-27.696 119.26166,-38.1119 z"
           id="path6658"
           inkscape:connector-curvature="0" />
        <path
           style="fill:#722d00;fill-opacity:1"
           d="m 24.481786,-4490.3067 c 4.400119,-8.035 15.539798,-7.43 22.770614,6.1932 4.074209,7.6757 1.503146,17.0912 -5.713322,20.9214 -8.80297,4.6729 -14.68847,0.9831 -17.881973,-11.2125 -1.783961,-6.8108 -1.17587,-12.25 0.824681,-15.9021 z m 86.342084,-19.7168 c 8.73806,-15.2361 37.11951,-21.5774 50.01992,-5.4659 6.52092,8.1448 7.84027,21.6749 2.93045,30.0685 -11.80107,20.1761 -48.75386,13.44 -54.89558,-10.0082 -1.40408,-5.3633 -0.50561,-10.3283 1.94589,-14.5944 z m 118.27437,-8.3465 c 2.80746,-5.1364 7.0518,-9.5363 12.90041,-12.5723 31.30233,-16.2488 47.93464,-9.5739 56.36729,22.6241 8.43334,32.1981 -2.79175,46.169 -38.04053,47.3504 -28.53859,0.9565 -43.39173,-35.1447 -31.22717,-57.4022 z m 129.31429,21.6503 c 16.53597,-27.4701 65.3117,-30.3963 91.70695,2.571 6.58856,8.2285 5.18517,26.5734 -3.11698,40.7689 -28.51468,48.7509 -92.40044,34.8235 -94.21515,-20.5399 -0.28697,-8.8139 1.80856,-16.4606 5.62518,-22.8 z m -203.59773,355.7459 c 3.26525,-5.5119 7.28275,-10.8636 12.11195,-15.9373 49.60997,-52.1235 162.71761,-111.8289 250.47333,-132.2179 121.35924,-28.1958 217.49022,-16.9961 328.91229,38.3198 57.21111,28.4033 86.25804,47.8583 82.08954,54.9843 -3.5481,6.066 -28.775,2.1021 -56.06051,-8.8076 -74.07983,-29.6221 -176.76384,-34.9771 -258.18312,-13.4659 -71.28533,18.8341 -186.25005,87.1667 -238.05257,141.4986 -14.52312,15.2317 -38.67048,31.8452 -53.663,36.9161 -60.25634,20.3811 -99.19534,-48.0064 -67.62791,-101.2895 z m 365.67378,-360.2608 c 23.32883,-40.2363 94.25136,-22.38 207.98213,53.4375 132.68749,88.4549 231.51525,204.9825 273.24399,322.1857 9.5039,26.6927 13.2939,49.5729 8.4237,50.8486 -4.8702,1.2756 -29.47598,-26.5786 -54.67759,-61.901 -25.2023,-35.3223 -77.10457,-89.6873 -115.34392,-120.8103 -67.41816,-54.8735 -89.11334,-65.7149 -283.26857,-141.5387 -36.8018,-14.3724 -42.98725,-21.9575 -44.65506,-54.7592 -1.0358,-20.378 1.76415,-36.1964 8.29532,-47.4626 z m -125.93222,481.7107 c 110.9602,-189.7077 383.55575,-197.6971 529.79957,-15.5269 67.13119,83.6222 91.48217,179.0807 75.93207,297.6525 -8.70454,66.3612 -18.54673,91.1429 -64.27585,161.8152 -51.05095,78.897 -118.03045,139.4654 -140.00918,126.6096 -4.84902,-2.8362 11.771,-30.3205 36.93571,-61.0767 138.24367,-168.9578 120.14374,-406.4366 -38.11227,-500.0938 -96.40769,-57.0544 -217.65009,-39.9234 -259.81744,36.7106 -16.05497,29.1783 -21.07001,56.1567 -14.85382,79.8888 l 9.38169,35.8328 62.49603,4.8202 c 34.37217,2.6516 69.25199,8.7755 77.51246,13.6071 48.93424,28.6217 11.62137,131.5689 -57.56025,158.8032 -59.64962,23.4825 -118.09331,15.9739 -168.46305,-21.6448 -97.28977,-72.6612 -117.07868,-200.9454 -48.96567,-317.3978 z m 516.13597,-462.1418 c 3.80364,-6.3201 9.14391,-12.6329 15.90056,-19.5294 56.68842,-57.862 138.33661,43.3492 188.37291,233.5085 33.3978,126.9223 31.851,293.776 -3.7845,408.5639 -19.944,64.2428 -32.3703,87.6334 -36.4855,68.6758 -0.8192,-3.7748 1.5694,-53.6044 5.3095,-110.732 9.4986,-145.0516 -40.2651,-328.3213 -122.04654,-449.4736 -51.35362,-76.0757 -63.75116,-103.6267 -47.26643,-131.0132 z m 305.71947,93.2818 c 6.8434,-12.4527 17.8833,-18.9968 34.0066,-23.2198 67.3512,-17.6399 93.7799,49.323 80.4361,203.8057 -9.3516,108.2576 -34.144,216.959 -69.457,304.5338 -31.2559,77.5111 -73.8079,150.1427 -103.6761,176.96 -13.3349,11.9722 -23.6568,18.8761 -22.9353,15.3437 0.7215,-3.5325 17.3559,-54.5847 36.9672,-113.4494 42.3614,-127.1543 57.6996,-288.9082 41.3256,-435.8773 -7.8178,-70.1764 -8.0726,-107.3422 3.3329,-128.0967 z m -142.212,835.8452 c 4.3188,-8.1109 33.8679,-34.2892 70.2236,-61.9057 64.0046,-48.619 81.025,-69.1751 138.9276,-167.7976 51.3884,-87.5257 70.7011,-132.8902 87.3034,-205.0636 22.7501,-98.9008 42.2247,-127.1389 86.5217,-125.4615 68.068,2.5772 72.6703,69.282 13.3951,194.084 -40.4004,85.0633 -119.1749,197.0053 -171.5315,243.7528 -71.7547,64.0671 -219.747,145.7018 -225.3503,124.3069 -0.1162,-0.4338 0.068,-1.0762 0.5056,-1.9152 z m -33.1034,97.8639 c 4.7329,-8.0912 33.1013,-19.9287 85.7176,-34.4719 60.958,-16.8487 137.887,-50.5313 185.0147,-81.0057 91.4822,-59.1546 124.1763,-66.2358 137.4402,-29.767 4.8019,13.2047 2.1857,35.199 -5.8144,48.8763 -22.6538,38.7302 -186.4216,98.3788 -290.3682,105.7599 -80.6131,5.7246 -118.4828,1.6915 -111.9899,-9.3916 z"
           id="path6660"
           inkscape:connector-curvature="0" />
      </g>
    </g>
  </g>
</svg>
