<?xml version="1.0" encoding="UTF-8" standalone="no"?>
<!-- Created with Inkscape (http://www.inkscape.org/) -->

<svg
   xmlns:dc="http://purl.org/dc/elements/1.1/"
   xmlns:cc="http://creativecommons.org/ns#"
   xmlns:rdf="http://www.w3.org/1999/02/22-rdf-syntax-ns#"
   xmlns:svg="http://www.w3.org/2000/svg"
   xmlns="http://www.w3.org/2000/svg"
   xmlns:sodipodi="http://sodipodi.sourceforge.net/DTD/sodipodi-0.dtd"
   xmlns:inkscape="http://www.inkscape.org/namespaces/inkscape"
   id="svg2"
   version="1.1"
   inkscape:version="0.48.5 r10040"
   width="1052.3625"
   height="744.095"
   xml:space="preserve"
   sodipodi:docname="csdnlogo.svg"><metadata
     id="metadata8"><rdf:RDF><cc:Work
         rdf:about=""><dc:format>image/svg+xml</dc:format><dc:type
           rdf:resource="http://purl.org/dc/dcmitype/StillImage" /><dc:title></dc:title></cc:Work></rdf:RDF></metadata><defs
     id="defs6"><clipPath
       clipPathUnits="userSpaceOnUse"
       id="clipPath16"><path
         d="m 0,595.276 841.89,0 L 841.89,0 0,0 0,595.276 z"
         id="path18" /></clipPath></defs><sodipodi:namedview
     pagecolor="#ffffff"
     bordercolor="#666666"
     borderopacity="1"
     objecttolerance="10"
     gridtolerance="10"
     guidetolerance="10"
     inkscape:pageopacity="0"
     inkscape:pageshadow="2"
     inkscape:window-width="1366"
     inkscape:window-height="716"
     id="namedview4"
     showgrid="false"
     inkscape:zoom="0.4407816"
     inkscape:cx="322.19413"
     inkscape:cy="386.1813"
     inkscape:window-x="0"
     inkscape:window-y="26"
     inkscape:window-maximized="1"
     inkscape:current-layer="g10" /><g
     id="g10"
     inkscape:groupmode="layer"
     inkscape:label="csdnlogo"
     transform="matrix(1.25,0,0,-1.25,0,744.095)"><g
       id="g3834"
       inkscape:export-filename="/home/winardiaris/git/GnomeAsiaSummit2015/Artworks/Logo/CSDN/logo-600px.png"
       inkscape:export-xdpi="58.37838"
       inkscape:export-ydpi="58.37838"><rect
         transform="scale(1,-1)"
         y="-457.638"
         x="50.945019"
         height="320"
         width="740"
         id="rect3064"
         style="fill:#e6e6e6;fill-opacity:1;stroke:none;opacity:0" /><g
         transform="translate(-0.13138997,4.8116617)"
         id="g12"><g
           clip-path="url(#clipPath16)"
           id="g14"><g
             transform="translate(469.668,287.0195)"
             id="g20"><path
               inkscape:connector-curvature="0"
               id="path22"
               style="fill:#231f20;fill-opacity:1;fill-rule:nonzero;stroke:none"
               d="m 0,0 c 3.368,-0.648 7.782,-1.299 16.506,-1.299 34.897,0 59.488,17.174 61.974,41.331 3.592,34.916 -18.248,47.127 -55.016,46.909 -4.759,0 -11.378,0 -14.883,-0.651 L 0,0 z m -28.825,114.854 c 9.893,1.081 25.074,2.167 45.96,2.167 34.894,0 63.088,-6.07 80.546,-18.867 C 113.37,86.229 123.812,66.926 120.932,38.949 118.255,12.928 104.748,-5.291 85.08,-16.568 67.068,-27.192 44.39,-31.747 10.291,-31.747 c -20.096,0 -39.285,1.084 -53.867,3.253 l 14.751,143.348 z" /></g><g
             transform="translate(615.7813,398.2441)"
             id="g24"><path
               inkscape:connector-curvature="0"
               id="path26"
               style="fill:#231f20;fill-opacity:1;fill-rule:nonzero;stroke:none"
               d="m 0,0 c 138.512,26.147 150.454,-20.856 146.174,-62.45 l -8.055,-76.938 -43.973,0 7.356,70.163 c 1.591,15.464 11.509,45.694 -36.325,44.562 -16.544,-0.392 -24.754,-2.67 -24.754,-2.67 0,0 -1.436,-18.681 -3.187,-32.475 l -8.325,-79.58 -43.127,0 8.555,78.427" /></g><g
             transform="translate(231.6924,258.0527)"
             id="g28"><path
               inkscape:connector-curvature="0"
               id="path30"
               style="fill:#c81c22;fill-opacity:1;fill-rule:nonzero;stroke:none"
               d="m 0,0 c -8.285,-2.885 -25.456,-4.837 -49.429,-4.837 -68.959,0 -106.174,32.419 -101.765,75.272 5.257,51.072 60.394,79.806 120.77,79.806 23.382,0 37.135,-1.89 50.048,-5.06 l -4.143,-34.389 c -8.581,2.887 -28.685,5.551 -44.961,5.551 -35.515,0 -65.69,-10.603 -69.139,-44.129 -3.084,-29.981 18.091,-44.312 58.045,-44.312 13.91,0 34.422,1.997 43.896,4.885 L 0,0 z" /></g><g
             transform="translate(258.3086,293.8965)"
             id="g32"><path
               inkscape:connector-curvature="0"
               id="path34"
               style="fill:#231f20;fill-opacity:1;fill-rule:nonzero;stroke:none"
               d="m 0,0 c 12.674,-4.627 39.103,-9.256 60.477,-9.256 23.02,0 35.842,6.393 36.864,16.307 0.93,9.033 -8.501,10.27 -34.504,16.442 -35.92,8.813 -58.845,22.475 -56.602,44.291 2.608,25.34 36.477,44.513 88.43,44.513 25.32,0 49.878,-1.788 62.598,-5.976 l -4.364,-31.954 c -8.257,2.863 -39.87,6.866 -61.245,6.866 -21.699,0 -32.926,-6.831 -33.697,-14.323 -0.977,-9.474 10.301,-9.923 38.467,-17.415 38.132,-9.694 54.81,-23.357 52.634,-44.511 -2.561,-24.902 -33.02,-46.054 -93.848,-46.054 -25.321,0 -47.164,4.624 -59.182,9.253 L 0,0 z" /></g><g
             transform="translate(100.8994,216.8457)"
             id="g36"><path
               inkscape:connector-curvature="0"
               id="path38"
               style="fill:#231f20;fill-opacity:1;fill-rule:nonzero;stroke:none"
               d="m 0,0 c -0.612,-0.731 -1.463,-1.77 -2.56,-3.108 -1.096,-1.341 -2.256,-2.559 -3.473,-3.656 -1.097,-1.097 -2.257,-2.073 -3.473,-2.925 -1.097,-0.855 -1.891,-1.462 -2.377,-1.829 l 1.828,-0.547 c 1.341,-0.246 5.18,-0.367 11.517,-0.367 3.776,0 6.581,0.06 8.41,0.184 2.071,0.241 3.775,0.548 5.118,0.914 l -1.097,0.73 c -0.731,0.488 -1.708,1.098 -2.925,1.829 -1.096,0.973 -2.194,1.887 -3.29,2.742 C 6.581,-5.06 5.544,-4.084 4.57,-3.108 3.839,-2.5 2.742,-1.159 1.279,0.914 1.399,0.79 1.34,0.914 1.097,1.279 L 0,0 z m -0.183,4.57 c 0.609,0 2.011,-0.306 4.204,-0.914 l 0,-0.549 L 2.559,2.742 3.473,1.462 C 3.716,1.218 4.082,0.852 4.57,0.365 5.055,-0.245 5.421,-0.672 5.667,-0.914 6.518,-1.77 7.312,-2.5 8.043,-3.108 c 0.851,-0.61 1.829,-1.462 2.925,-2.559 1.097,-0.855 2.314,-1.646 3.657,-2.377 1.339,-0.61 2.742,-1.279 4.204,-2.011 1.828,-0.61 3.9,-1.403 6.215,-2.377 l -2.924,-2.376 -1.28,0.366 c -0.366,0.121 -0.977,0.424 -1.828,0.914 -0.488,0.242 -0.854,0.424 -1.097,0.549 -0.977,0.607 -1.892,1.096 -2.742,1.461 l 0,-4.386 -2.011,0.365 c -0.488,0.121 -1.402,0.183 -2.742,0.183 l -7.495,0 0,-7.861 3.473,0 c 2.194,0 4.631,0.365 7.312,1.097 l 0,-4.388 -2.011,0.184 c -1.462,0.241 -4.387,0.365 -8.774,0.365 l 0,-8.592 6.398,0 c 4.022,0 7.798,0.307 11.334,0.914 l 0,-4.387 -2.559,0.366 c -1.709,0.123 -3.23,0.182 -4.571,0.182 l -4.387,0 -7.861,0 -7.86,0 c -1.951,0 -3.537,-0.059 -4.753,-0.182 -2.682,0 -4.875,-0.121 -6.582,-0.366 l 0,4.387 2.377,-0.365 c 1.097,-0.366 6.152,-0.549 15.173,-0.549 l 0,8.592 -3.473,0 c -1.585,0 -4.022,-0.183 -7.312,-0.549 l 0,4.388 2.01,-0.548 c 0.975,-0.366 3.9,-0.549 8.775,-0.549 l 0,7.861 -4.022,0 c -1.828,0 -3.23,-0.062 -4.204,-0.183 -1.097,0 -2.257,-0.123 -3.473,-0.365 l 0,4.204 -1.28,-0.914 c -0.246,-0.244 -0.914,-0.672 -2.011,-1.28 -0.977,-0.489 -1.828,-0.975 -2.56,-1.462 l -3.473,2.377 0.914,0.365 c 0.731,0.121 1.582,0.425 2.559,0.914 0.975,0.607 2.012,1.156 3.108,1.645 1.097,0.732 2.194,1.463 3.291,2.194 0.485,0.487 1.28,1.217 2.376,2.194 -0.731,-0.61 -0.548,-0.489 0.549,0.365 0.974,0.853 1.828,1.646 2.559,2.377 0.243,0.365 0.668,0.852 1.28,1.462 0.485,0.486 0.851,0.914 1.097,1.28 0.731,0.608 1.828,2.194 3.29,4.753 l 0.183,0 z" /></g><g
             transform="translate(200.3599,214.6514)"
             id="g40"><path
               inkscape:connector-curvature="0"
               id="path42"
               style="fill:#231f20;fill-opacity:1;fill-rule:nonzero;stroke:none"
               d="m 0,0 -1.828,-2.011 -5.85,5.485 0,0.365 L -5.85,5.851 0,0 z m -14.99,-16.087 -2.559,-2.011 -6.216,7.313 1.828,2.011 6.947,-7.313 z m 1.645,23.4 c 0.484,0 1.704,-0.183 3.656,-0.548 l 0,-0.367 -0.365,-0.365 c -0.124,-0.124 -0.183,-0.428 -0.183,-0.914 l 0,-8.958 4.387,0 c 2.678,0 5.786,0.304 9.323,0.914 l 0,-4.387 -2.559,0.366 c -0.731,0.121 -1.769,0.182 -3.108,0.182 l -8.043,0 0,-1.645 c 0,-1.22 0.059,-2.072 0.183,-2.559 0.118,-0.489 0.365,-1.159 0.731,-2.011 0.484,-0.976 0.973,-1.89 1.462,-2.742 l 1.097,0.731 c 0.608,0.608 1.398,1.28 2.377,2.011 0.365,0.366 0.973,0.915 1.828,1.645 0.849,0.731 1.58,1.401 2.193,2.011 l 2.925,-2.925 0,-0.365 -0.731,-0.366 c -0.123,0 -0.366,-0.062 -0.731,-0.183 -0.366,0 -0.613,-0.062 -0.731,-0.183 -0.49,-0.123 -1.404,-0.731 -2.742,-1.828 -0.49,-0.365 -1.221,-0.854 -2.194,-1.462 -0.855,-0.61 -1.527,-1.096 -2.011,-1.463 l 0.183,-0.182 0.365,-0.549 c 0.366,-0.489 0.667,-0.976 0.914,-1.462 0.732,-1.097 1.764,-2.377 3.108,-3.839 1.339,-1.463 2.436,-2.5 3.291,-3.108 0.241,-0.244 0.731,-0.672 1.462,-1.28 0.85,-0.61 1.581,-1.158 2.194,-1.645 l -1.097,-0.365 -0.183,0 C 2.925,-30.773 2.07,-31.26 1.097,-31.991 l -1.28,1.096 c -0.365,0.367 -0.914,0.915 -1.645,1.646 -0.366,0.366 -0.672,0.67 -0.914,0.914 -0.247,0.366 -0.731,0.974 -1.463,1.828 -0.489,0.732 -0.855,1.28 -1.096,1.646 -0.49,0.486 -1.038,1.217 -1.646,2.193 -0.366,0.607 -0.672,1.035 -0.914,1.28 -0.247,0.487 -1.037,2.011 -2.376,4.57 l 0,-18.098 -0.549,-0.365 c -0.365,-0.242 -0.796,-0.732 -1.279,-1.463 l -2.194,-0.183 c -0.247,0 -0.549,-0.058 -0.914,-0.182 -0.731,-0.121 -1.645,-0.183 -2.742,-0.183 l -1.097,3.839 0.914,-0.183 c 0.366,-0.121 1.398,-0.183 3.108,-0.183 l 1.462,0.914 0,10.603 -0.548,-0.549 c -0.124,-0.124 -0.549,-0.489 -1.28,-1.096 -0.489,-0.49 -0.914,-0.856 -1.279,-1.097 -0.855,-0.61 -3.232,-2.925 -7.13,-6.947 l -2.559,2.742 2.376,1.645 c 0.608,0.487 1.463,1.097 2.559,1.829 0.974,0.731 1.764,1.338 2.377,1.828 1.097,0.852 2.925,2.376 5.484,4.57 l 0,12.613 -3.473,0 c -1.586,0 -2.925,-0.061 -4.022,-0.182 -1.22,0 -2.623,-0.124 -4.205,-0.366 l 0,4.387 2.377,-0.548 c 1.828,-0.245 4.936,-0.366 9.323,-0.366 l 0,11.152 0.183,0 z M -38.572,2.377 c 1.339,-0.245 3.532,-0.365 6.581,-0.365 2.925,0 5.785,0.303 8.592,0.914 l 0,-4.388 -2.011,0.365 c -0.489,0.121 -1.097,0.183 -1.828,0.183 l -3.108,0 0,-10.785 0.731,0 c 0.118,-0.124 1.705,0.182 4.753,0.914 l 0,-4.388 -2.011,0.366 c -0.855,0.121 -2.011,0.183 -3.473,0.183 l 0,-10.603 0.549,0.183 c 0.118,0.121 0.973,0.425 2.559,0.914 1.339,0.486 2.494,0.914 3.473,1.279 l -0.548,-3.473 -1.829,-0.548 c -1.096,-0.124 -2.806,-0.672 -5.118,-1.646 -1.952,-0.61 -4.511,-1.586 -7.678,-2.924 l -2.011,3.107 2.925,0.731 c 2.07,0.487 3.715,0.974 4.936,1.463 l 0,11.517 -1.097,0 c -0.979,0 -2.559,-0.183 -4.753,-0.549 l 0,4.388 1.828,-0.365 c 1.215,-0.367 2.559,-0.549 4.022,-0.549 l 0,10.785 -1.828,0 c -1.462,0 -3.291,-0.183 -5.484,-0.548 l 0,4.388 1.828,-0.549 z" /></g><path
             inkscape:connector-curvature="0"
             id="path44"
             style="fill:#231f20;fill-opacity:1;fill-rule:nonzero;stroke:none"
             d="m 273.86,212.823 -22.485,0 0,-2.559 22.485,0 0,2.559 z m 0,5.302 -22.485,0 0,-2.925 22.485,0 0,2.925 z m -14.99,-27.238 -9.506,0 0,-5.118 1.828,0.365 c 0.244,0 0.549,0.059 0.914,0.182 0.486,0 1.582,0.183 3.291,0.549 1.216,0.242 2.376,0.487 3.473,0.732 l 0,3.29 z m 0,5.849 -9.506,0 0,-3.473 9.506,0 0,3.473 z m 0,6.216 -9.506,0 0,-3.839 9.506,0 0,3.839 z m -8.226,17.733 c 0.731,-0.124 1.948,-0.183 3.656,-0.183 l 8.044,0 5.118,0 c 1.34,0 2.496,0.059 3.474,0.183 2.071,0 4.022,0.121 5.85,0.365 l 0,-2.742 0,-3.839 0,-6.581 -1.463,0 -27.238,0 0.183,2.559 c 0,0.366 0.06,0.853 0.182,1.463 0.12,0.852 0.183,1.704 0.183,2.559 0,0.242 -0.063,0.914 -0.183,2.01 -0.122,1.584 -0.245,3.109 -0.365,4.571 l 2.559,-0.365 z m -7.495,-14.808 c 2.313,-0.365 8.592,-0.549 18.829,-0.549 5.85,0 10.298,0.06 13.345,0.184 3.291,0.241 6.216,0.548 8.775,0.914 l 0,-4.023 -3.473,0.367 c -0.978,0.121 -2.623,0.182 -4.937,0.182 l -4.752,0 -9.324,0 0,-14.625 2.56,0.549 -0.548,-2.925 -2.012,-0.366 0,-3.655 1.463,0.365 c 0.974,0.244 2.131,0.793 3.473,1.645 l 0.914,0.731 0.183,0.183 c 0.731,0.487 1.523,1.156 2.376,2.011 l -0.73,1.097 c -0.123,0.121 -0.366,0.425 -0.732,0.914 -0.488,0.486 -0.853,0.853 -1.097,1.097 -0.122,0.242 -0.365,0.67 -0.731,1.279 -0.731,0.974 -1.402,1.949 -2.011,2.926 l 2.925,1.462 0.366,-1.28 c 0.365,-0.731 0.791,-1.463 1.28,-2.194 0.365,-0.609 1.216,-1.645 2.559,-3.107 l 0,0.182 c 0,0.121 0.365,0.549 1.096,1.28 0.61,0.852 1.158,1.645 1.646,2.376 0.485,0.853 1.033,2.132 1.645,3.839 l -5.118,0 c -2.926,0 -5.548,-0.182 -7.861,-0.548 l 0,3.839 1.462,-0.548 c 0.851,-0.245 3.108,-0.366 6.764,-0.366 l 5.119,0 c 1.216,0.121 2.437,0.242 3.656,0.366 l -0.549,-1.462 c -0.365,-0.856 -0.428,-1.038 -0.182,-0.549 -0.246,-0.489 -0.795,-1.769 -1.646,-3.839 -0.246,-0.365 -0.487,-0.855 -0.731,-1.463 -0.488,-0.854 -1.097,-1.707 -1.828,-2.559 -0.612,-0.855 -1.16,-1.707 -1.645,-2.559 l 0.365,-0.183 c 0.244,-0.245 0.486,-0.489 0.731,-0.731 0.732,-0.489 1.646,-1.038 2.743,-1.646 0.608,-0.365 1.34,-0.793 2.193,-1.279 l 0.549,0 c 0.366,-0.242 1.523,-0.549 3.473,-0.914 l -2.559,-3.474 -1.28,0.732 c -0.246,0.124 -0.731,0.427 -1.462,0.914 -0.854,0.61 -1.709,1.221 -2.559,1.828 l -1.463,0.914 c -0.612,0.121 -1.28,0.548 -2.011,1.279 -0.246,0.121 -0.429,0.242 -0.548,0.366 l -1.463,-1.462 c -1.462,-1.218 -2.376,-1.887 -2.742,-2.011 -0.488,-0.242 -1.219,-0.67 -2.194,-1.279 -0.731,-0.488 -1.343,-0.914 -1.827,-1.281 l -2.012,2.925 0,-3.839 -2.742,0 0,7.13 -0.548,0 c -0.122,0 -0.854,-0.124 -2.194,-0.366 -1.097,-0.244 -2.011,-0.427 -2.742,-0.548 -1.828,-0.245 -5.365,-0.855 -10.603,-1.828 l -1.096,2.559 4.935,0.366 0,17.732 -6.764,-0.549 0,4.023 3.291,-0.549 z" /><g
             transform="translate(339.4092,221.416)"
             id="g46"><path
               inkscape:connector-curvature="0"
               id="path48"
               style="fill:#231f20;fill-opacity:1;fill-rule:nonzero;stroke:none"
               d="m 0,0 c 0.852,0 2.194,-0.124 4.021,-0.366 l 0,-0.548 -0.913,-0.914 -0.183,-0.549 0,-5.302 0,-4.204 c 0,-0.854 -0.062,-1.403 -0.183,-1.645 l 6.033,0 c 3.656,0 7.922,0.303 12.796,0.914 l 0,-4.388 -3.473,0.366 c -0.976,0.121 -2.377,0.183 -4.204,0.183 l -3.657,0 -7.129,0 0.183,-0.732 c 0.121,-0.244 0.303,-0.671 0.548,-1.279 0.244,-0.489 0.428,-0.914 0.548,-1.279 0.366,-1.098 0.853,-2.135 1.463,-3.109 0.486,-0.975 1.097,-2.134 1.828,-3.472 0.487,-0.732 1.218,-1.707 2.194,-2.926 -0.611,0.731 -0.549,0.608 0.182,-0.365 0.366,-0.365 0.853,-0.855 1.463,-1.463 0.486,-0.61 0.914,-1.097 1.279,-1.462 0.366,-0.365 0.852,-0.793 1.463,-1.279 0.61,-0.611 1.097,-1.098 1.462,-1.463 0.976,-0.732 1.159,-0.855 0.549,-0.365 0.61,-0.49 1.462,-1.16 2.559,-2.012 0.61,-0.365 2.377,-1.338 5.301,-2.925 l -2.924,-2.559 -1.463,1.097 c -1.097,0.732 -2.073,1.462 -2.925,2.193 -0.486,0.367 -1.158,0.915 -2.01,1.646 -0.366,0.242 -0.67,0.425 -0.914,0.548 -1.098,0.731 -2.073,1.584 -2.926,2.559 -0.365,0.367 -0.852,0.914 -1.462,1.646 -0.486,0.486 -0.852,0.852 -1.097,1.097 -0.244,0.366 -0.548,0.852 -0.914,1.462 -0.487,0.487 -0.852,0.915 -1.097,1.28 -0.486,0.973 -1.035,1.828 -1.645,2.559 -0.245,0.366 -0.486,0.852 -0.732,1.462 -0.244,0.488 -0.486,0.914 -0.73,1.281 -0.245,0.486 -0.67,1.338 -1.28,2.558 -0.245,0.487 -0.428,0.914 -0.549,1.28 L 1.28,-21.389 c 0,-0.124 -0.062,-0.366 -0.183,-0.731 -0.245,-0.855 -0.487,-1.586 -0.731,-2.193 -0.487,-1.221 -1.035,-2.5 -1.646,-3.839 -0.121,-0.245 -0.366,-0.732 -0.731,-1.463 -0.244,-0.365 -0.793,-1.28 -1.645,-2.742 -1.097,-1.462 -2.256,-2.866 -3.473,-4.205 -0.487,-0.489 -1.28,-1.097 -2.377,-1.828 -0.731,-0.607 -1.28,-1.035 -1.645,-1.28 -1.584,-1.097 -3.353,-2.376 -5.302,-3.839 l -3.29,2.377 2.193,1.279 c 0.853,0.367 1.949,0.976 3.291,1.829 0.245,0.121 0.427,0.242 0.549,0.365 1.096,0.731 2.193,1.584 3.29,2.559 0.245,0.243 0.61,0.608 1.097,1.097 0.487,0.366 1.096,0.974 1.828,1.828 0.975,1.097 1.707,2.071 2.194,2.925 0.365,0.608 0.793,1.339 1.279,2.194 0.121,0.243 0.183,0.425 0.183,0.548 0.365,0.853 0.793,1.828 1.279,2.925 0.487,1.098 0.914,2.498 1.28,4.205 0.366,1.583 0.549,2.56 0.549,2.925 l -5.119,0 c -2.438,0 -4.449,-0.062 -6.032,-0.183 -1.828,0 -3.84,-0.124 -6.033,-0.366 l 0,4.388 3.473,-0.548 c 2.56,-0.245 7.251,-0.366 14.076,-0.366 l 0,0.366 0,5.483 0,4.571 C -0.487,-2.012 -0.61,-0.977 -0.731,0 L 0,0 z" /></g><path
             inkscape:connector-curvature="0"
             id="path50"
             style="fill:#231f20;fill-opacity:1;fill-rule:nonzero;stroke:none"
             d="m 435.762,209.898 -12.796,0 0,-12.248 12.796,0 0,12.248 z m -16.087,0 -12.796,0 0,-12.248 12.796,0 0,12.248 z m 0.366,12.066 c 0.851,0 2.193,-0.183 4.022,-0.548 l 0,-0.366 -0.915,-1.097 -0.182,-0.365 0,-6.947 4.387,0 c 1.708,0 5.057,0.121 10.054,0.366 0.732,0.121 1.342,0.182 1.828,0.182 l -0.182,-3.656 0,-17.367 -3.291,0 0,2.56 -12.796,0 0,-17.367 -3.291,0 0,17.367 -12.797,0 0,-2.925 -3.29,0 0,6.946 0,7.679 c -0.122,2.069 -0.246,4.325 -0.366,6.763 l 3.656,-0.182 c 2.803,-0.245 7.067,-0.366 12.797,-0.366 l 0,3.291 c 0,2.314 -0.122,4.325 -0.365,6.032 l 0.731,0 z" /><g
             transform="translate(498.6611,220.6846)"
             id="g52"><path
               inkscape:connector-curvature="0"
               id="path54"
               style="fill:#231f20;fill-opacity:1;fill-rule:nonzero;stroke:none"
               d="M 0,0 C 0.484,-0.489 1.463,-1.28 2.925,-2.377 4.264,-3.474 5.42,-4.388 6.398,-5.119 L 3.474,-7.495 1.463,-5.484 c -0.856,0.852 -2.624,2.435 -5.302,4.753 0.242,-0.124 0.06,0.059 -0.549,0.548 L -2.011,1.828 0,0 z m -15.173,-7.495 c 2.194,-0.366 8.044,-0.549 17.55,-0.549 5.36,0 9.506,0.06 12.431,0.183 3.167,0.242 6.032,0.548 8.591,0.914 l 0,-4.387 -3.473,0.183 -0.548,0 c -2.441,0.242 -4.694,0.365 -6.764,0.365 l -0.549,-1.828 c -0.365,-1.097 -0.731,-2.318 -1.096,-3.657 -0.614,-1.34 -1.097,-2.558 -1.463,-3.655 -0.123,-0.245 -0.306,-0.61 -0.548,-1.097 -0.124,-0.366 -0.549,-1.22 -1.28,-2.559 -0.247,-0.489 -0.613,-1.221 -1.097,-2.194 -0.365,-0.611 -0.612,-1.037 -0.731,-1.28 -0.731,-0.854 -1.162,-1.463 -1.28,-1.828 l 0.366,-0.182 c 0.242,-0.246 0.791,-0.672 1.645,-1.281 0.366,-0.365 1.097,-0.913 2.194,-1.644 0.242,-0.124 0.425,-0.245 0.548,-0.366 0.974,-0.611 2.011,-1.28 3.108,-2.011 1.097,-0.489 2.13,-1.037 3.108,-1.646 0.483,-0.244 1.279,-0.609 2.376,-1.096 0.242,-0.123 0.425,-0.183 0.549,-0.183 0.118,0 0.301,-0.061 0.548,-0.183 1.339,-0.121 2.984,-0.424 4.936,-0.914 l -0.731,-0.914 c -0.124,-0.121 -0.247,-0.303 -0.365,-0.549 -0.614,-0.73 -1.221,-1.583 -1.829,-2.558 l -2.925,1.462 -1.462,0.731 c -1.097,0.489 -2.194,1.097 -3.291,1.828 -0.49,0.244 -1.22,0.611 -2.194,1.097 -0.613,0.242 -1.096,0.486 -1.463,0.731 -0.365,0.243 -0.854,0.548 -1.461,0.915 -0.979,0.731 -1.71,1.279 -2.194,1.645 -1.097,0.731 -2.259,1.704 -3.473,2.925 l -1.097,-1.097 -2.194,-2.194 c -0.366,-0.244 -0.795,-0.548 -1.28,-0.914 -0.613,-0.365 -1.096,-0.672 -1.463,-0.914 -0.247,-0.244 -0.672,-0.548 -1.279,-0.914 -0.854,-0.366 -1.462,-0.731 -1.828,-1.097 -1.097,-0.731 -2.317,-1.462 -3.656,-2.193 -0.366,-0.121 -1.097,-0.425 -2.194,-0.914 -1.586,-0.732 -2.989,-1.401 -4.205,-2.011 l -2.925,3.472 2.011,0.549 c 0.242,0.124 0.667,0.244 1.28,0.366 0.484,0 1.097,0.183 1.829,0.548 0.731,0.366 1.645,0.672 2.742,0.914 0.241,0.122 0.607,0.304 1.096,0.548 0.732,0.366 1.215,0.67 1.462,0.914 0.974,0.609 1.888,1.157 2.743,1.646 0.973,0.731 1.887,1.4 2.742,2.011 0.118,0.121 0.425,0.424 0.914,0.914 0.973,0.852 1.946,1.766 2.925,2.742 l -1.28,1.463 c -0.854,0.851 -1.645,1.645 -2.377,2.376 -0.247,0.366 -0.547,0.852 -0.914,1.463 -0.489,0.486 -0.854,0.914 -1.096,1.279 -0.123,0.121 -0.306,0.366 -0.548,0.731 -0.248,0.487 -0.672,1.28 -1.281,2.377 -0.123,0.241 -0.365,0.608 -0.73,1.097 -0.613,1.339 -1.345,2.68 -2.194,4.021 l 2.924,1.463 0.367,-1.097 c 0.365,-0.855 0.79,-1.769 1.279,-2.743 0.118,-0.123 0.242,-0.305 0.366,-0.547 0.241,-0.611 0.79,-1.463 1.645,-2.56 0.731,-1.097 1.645,-2.317 2.742,-3.656 0.85,-1.097 1.828,-2.318 2.925,-3.656 l 0.731,0.914 c 0.366,0.608 0.914,1.338 1.646,2.194 0.607,0.973 1.156,2.011 1.645,3.107 0.241,0.487 0.484,1.097 0.731,1.829 0.242,0.731 0.484,1.338 0.731,1.828 0.366,0.731 0.85,2.253 1.463,4.57 0.118,0.607 0.242,1.097 0.365,1.462 l -10.602,0 c -6.098,0 -11.824,-0.183 -17.185,-0.548 l 0,4.387 3.291,-0.548 z" /></g><path
             inkscape:connector-curvature="0"
             id="path56"
             style="fill:#231f20;fill-opacity:1;fill-rule:nonzero;stroke:none"
             d="m 558.461,216.846 3.107,0 0,-33.637 -3.107,0 0,33.637 z" /><g
             transform="translate(578,216.8457)"
             id="g58"><path
               inkscape:connector-curvature="0"
               id="path60"
               style="fill:#231f20;fill-opacity:1;fill-rule:nonzero;stroke:none"
               d="m 0,0 24.496,0 0,-2.742 -10.602,0 0,-30.895 -3.291,0 0,30.895 L 0,-2.742 0,0 z" /></g><g
             transform="translate(667.9648,222.5127)"
             id="g62"><path
               inkscape:connector-curvature="0"
               id="path64"
               style="fill:#231f20;fill-opacity:1;fill-rule:nonzero;stroke:none"
               d="m 0,0 c 0.121,0 0.487,-0.063 1.098,-0.183 1.096,-0.124 2.131,-0.245 3.107,-0.366 l 0,-0.548 -1.097,-0.914 0,-0.549 0,-14.625 2.376,0 c 1.463,0 3.96,0.367 7.495,1.098 l 0,-4.388 -2.559,0.183 c -1.951,0.242 -4.387,0.366 -7.312,0.366 l 0,-19.927 3.473,0 c 2.07,0 4.813,0.246 8.227,0.732 l 0,-4.022 -2.376,0.183 c -1.587,0.245 -5.667,0.365 -12.248,0.365 -5.851,0 -10.725,-0.182 -14.625,-0.548 l 0,4.022 2.377,-0.183 c 1.217,-0.365 5.179,-0.549 11.881,-0.549 l 0,19.927 -2.742,0 c -0.975,0 -2.925,-0.124 -5.849,-0.366 -0.732,-0.123 -1.28,-0.183 -1.646,-0.183 l 0,4.388 2.377,-0.549 c 1.462,-0.365 4.081,-0.549 7.86,-0.549 l 0,7.13 c 0,4.388 -0.182,7.738 -0.547,10.055 L 0,0 z m -13.893,-7.313 -2.377,-2.559 -1.828,1.828 c -0.365,0.366 -1.096,1.035 -2.193,2.011 -1.218,1.097 -2.314,2.132 -3.291,3.108 l 2.377,2.376 7.312,-6.764 z M -27.055,-11.7 c 0.976,-0.365 2.925,-0.548 5.85,-0.548 2.072,0 3.594,0.059 4.57,0.183 1.341,0 2.742,0.121 4.204,0.365 l -0.548,-1.279 c 0,-0.125 -0.062,-0.307 -0.183,-0.549 -0.121,-0.366 -0.548,-1.097 -1.279,-2.194 -0.246,-0.365 -0.67,-0.975 -1.28,-1.828 -0.245,-0.61 -0.487,-1.038 -0.731,-1.279 -0.611,-1.221 -0.914,-2.011 -0.914,-2.377 l 1.462,-1.462 c 0.366,-0.489 2.315,-2.194 5.85,-5.119 l -1.828,-2.56 -1.828,1.828 c -1.218,1.339 -2.438,2.498 -3.656,3.474 l 0,-20.108 -3.291,0 0,20.473 -0.548,-0.548 c -0.121,-0.124 -0.428,-0.489 -0.914,-1.096 -0.366,-0.489 -0.67,-0.856 -0.914,-1.097 -0.611,-0.855 -1.949,-2.135 -4.022,-3.84 l -3.473,2.377 1.279,0.549 c 0.731,0.365 1.463,0.79 2.194,1.279 0.244,0.243 0.548,0.549 0.914,0.914 0.366,0.243 0.669,0.487 0.914,0.732 0.731,0.73 1.645,1.765 2.742,3.107 0.121,0.121 0.303,0.365 0.548,0.732 0.732,1.096 1.463,2.01 2.194,2.742 0.121,0.241 0.304,0.486 0.549,0.73 0.61,0.974 1.158,1.95 1.645,2.926 l -4.022,0 c -1.828,0 -3.169,-0.062 -4.022,-0.183 -0.975,0 -1.949,-0.123 -2.925,-0.366 l 0,4.388 1.463,-0.366 z" /></g><g
             transform="translate(749.0537,214.6514)"
             id="g66"><path
               inkscape:connector-curvature="0"
               id="path68"
               style="fill:#231f20;fill-opacity:1;fill-rule:nonzero;stroke:none"
               d="m 0,0 c 0.121,0 0.607,-0.244 1.463,-0.73 0.851,-0.49 1.583,-0.915 2.193,-1.281 l 0,-0.365 -1.463,-0.549 -0.73,-0.914 C 1.218,-4.204 0.853,-4.753 0.365,-5.483 0,-5.973 -0.245,-6.339 -0.365,-6.581 -0.489,-6.825 -0.731,-7.253 -1.097,-7.86 c -0.489,-0.976 -0.855,-1.707 -1.096,-2.194 -0.856,-1.342 -1.953,-2.925 -3.291,-4.753 l 3.656,-3.656 c 2.681,-2.559 5.178,-5.363 7.495,-8.409 l -2.56,-2.377 -1.279,1.645 c -0.489,0.732 -1.221,1.767 -2.193,3.108 0.73,-0.731 0.669,-0.672 -0.184,0.183 -0.244,0.366 -0.609,0.852 -1.097,1.462 -0.61,0.608 -1.037,1.097 -1.279,1.463 -0.245,0.242 -0.61,0.669 -1.096,1.28 -1.097,1.096 -2.074,2.07 -2.925,2.924 l -0.367,-0.365 c -0.123,-0.124 -0.731,-0.855 -1.828,-2.194 -0.854,-0.855 -1.524,-1.524 -2.01,-2.011 -2.56,-2.438 -4.387,-4.021 -5.485,-4.753 -0.61,-0.489 -1.828,-1.342 -3.656,-2.559 0.366,0.121 0.06,-0.123 -0.914,-0.731 l -2.925,2.559 1.097,0.366 c 0.852,0.365 1.705,0.79 2.559,1.279 0.732,0.608 1.646,1.156 2.743,1.646 0.973,0.731 1.828,1.4 2.559,2.01 l 1.097,1.097 c 0.486,0.366 0.852,0.67 1.097,0.914 0.731,0.608 1.462,1.401 2.194,2.377 0.73,0.973 0.79,1.097 0.182,0.365 0.608,0.732 1.218,1.339 1.829,1.829 l -3.109,3.107 c -2.072,2.07 -3.655,3.533 -4.753,4.388 -0.73,0.731 -2.072,1.949 -4.021,3.656 0.121,-0.124 -0.062,0 -0.549,0.365 l 2.012,2.377 2.193,-2.011 c 1.704,-1.463 4.995,-4.694 9.871,-9.689 l 0.732,1.28 c 0.607,0.852 1.156,1.828 1.645,2.925 0.732,1.097 1.339,2.193 1.828,3.29 0.121,0.853 1.035,2.742 2.742,5.667 L 0,0 z M 8.044,0.914 5.118,1.28 c -0.73,0.121 -2.925,0.183 -6.58,0.183 l -7.861,0 -15.905,0 0,-33.454 14.808,0 c 9.141,0 16.087,0.183 20.84,0.549 l 0,-3.474 -2.925,0.183 -19.194,0 -8.593,0 -4.569,0 c -1.952,0 -3.353,-0.059 -4.205,-0.183 l 0.182,3.474 c 0.242,2.435 0.366,7.86 0.366,16.269 0,7.434 -0.183,14.136 -0.548,20.11 L -25.41,4.57 c 2.435,-0.123 4.021,-0.182 4.753,-0.182 l 4.021,0 6.764,0 c 7.92,0 13.893,0.303 17.916,0.914 l 0,-4.388 z" /></g></g></g></g></g></svg>