<?xml version="1.0" encoding="UTF-8"?>
<!DOCTYPE svg PUBLIC "-//W3C//DTD SVG 1.1//EN" "http://www.w3.org/Graphics/SVG/1.1/DTD/svg11.dtd">
<!-- Creator: CorelDRAW X6 -->
<svg xmlns="http://www.w3.org/2000/svg" xml:space="preserve" width="210mm" height="297mm" version="1.1" style="shape-rendering:geometricPrecision; text-rendering:geometricPrecision; image-rendering:optimizeQuality; fill-rule:evenodd; clip-rule:evenodd"
viewBox="0 0 21000 29700"
 xmlns:xlink="http://www.w3.org/1999/xlink">
 <defs>
  <style type="text/css">
   <![CDATA[
    .fil2 {fill:#332C2B}
    .fil1 {fill:#FEFEFE}
    .fil0 {fill:#E62129}
    .fil3 {fill:#5F5D5D;fill-rule:nonzero}
   ]]>
  </style>
 </defs>
 <g id="Layer_x0020_1">
  <metadata id="CorelCorpID_0Corel-Layer"/>
  <g id="_712225376">
   <path class="fil0" d="M15519 215c1685,0 3060,1313 3060,2923 0,1497 -1189,2737 -2711,2903 568,531 922,1271 922,2088 0,1610 -1374,2923 -3060,2923 -1228,0 -2291,-697 -2777,-1699 -486,1001 -1549,1699 -2777,1699 -1685,0 -3060,-1313 -3060,-2923 0,-883 414,-1677 1065,-2213 -1568,-123 -2807,-1384 -2807,-2912 0,-1610 1374,-2923 3060,-2923 610,0 1179,172 1657,467 -37,-181 -56,-367 -56,-557 0,-1610 1374,-2923 3060,-2923 1685,0 3060,1313 3060,2923 0,192 -20,379 -57,561 425,-215 909,-336 1422,-336zm-3189 4826c23,66 35,137 35,210 0,174 -70,334 -184,453l678 878c340,-161 764,-70 998,232 261,339 186,819 -169,1069 -355,250 -858,177 -1119,-162 -234,-302 -198,-716 63,-979l-679 -879c-90,39 -189,62 -294,62 -181,0 -346,-66 -471,-173l0 1444c374,64 659,377 659,753 0,421 -359,764 -800,764 -441,0 -801,-343 -800,-764 0,-375 285,-689 659,-753l0 -1406c-118,85 -265,136 -423,136 -98,0 -192,-19 -277,-54l-662 921c271,255 320,667 97,977 -249,347 -749,435 -1113,197 -363,-238 -456,-716 -206,-1063 222,-309 643,-414 989,-264l663 -921c-122,-121 -197,-286 -197,-467 0,-96 21,-188 59,-270l-1466 454c52,360 -172,715 -546,831 -419,130 -872,-91 -1008,-491 -136,-401 95,-833 514,-963 373,-116 774,46 953,366l1466 -454c-182,-122 -302,-324 -302,-552 0,-35 3,-70 9,-104l-1151 -390c-188,316 -593,468 -963,342 -415,-140 -634,-579 -487,-976 147,-397 606,-606 1022,-465 370,125 584,486 523,845l1155 391c121,-184 331,-309 572,-317l-890 -1153c-341,161 -765,70 -999,-232 -262,-338 -186,-819 169,-1069 355,-250 858,-178 1119,161 233,302 199,716 -62,979l978 1267c36,-253 219,-462 464,-546l0 -1175c-374,-64 -659,-377 -659,-752 0,-421 359,-764 800,-764 441,0 800,344 800,764 0,375 -285,689 -659,752l0 1138c250,16 465,157 577,358l786 -1092c-270,-255 -320,-667 -97,-976 250,-347 749,-435 1113,-197 363,238 456,716 206,1063 -222,309 -643,413 -989,264l-916 1274c54,-13 110,-20 168,-20 241,0 455,117 582,294l1107 -343c-52,-359 172,-715 546,-831 419,-130 872,91 1008,492 136,400 -95,833 -515,962 -374,116 -774,-47 -952,-367l-1084 335c9,43 14,86 14,131 0,238 -130,448 -325,568l1374 465c188,-315 592,-467 962,-342 415,141 634,579 487,976 -148,397 -607,606 -1022,465 -371,-125 -584,-487 -522,-845l-1366 -463z"/>
   <path class="fil1" d="M8507 18174l80 -774c-133,157 -279,306 -432,448 117,109 235,217 352,326zm-12915 -454c-43,-203 -71,-411 -86,-622l-191 371 277 250zm-12609 -1141c140,105 280,210 420,314l36 27 32 31c4,4 7,7 11,11l35 -341 -534 -41zm-2083 -2913l0 -342 3550 -188 -73 533 1714 0 28 -458 3733 -87 30 441 3125 0 185 -358 4349 -76 -252 490c534,0 1068,0 1602,0l422 0 14 -468 698 0c815,0 1629,0 2444,0l762 0 -37 598 582 -117c721,-145 1443,-290 2165,-434l162 -32 160 38c312,75 620,166 920,277 625,232 1281,581 1695,1103l95 -917 2270 0 28 -458 3733 -87 471 7012 -3508 0 -157 -1035 -52 0 -260 1080 -1167 -36 -1464 0c-820,0 -1640,0 -2459,0l-312 0 -213 -217c-80,-82 -160,-163 -240,-245l-15 476 -2834 0 -2 36 -676 0c-1262,0 -2524,0 -3786,0l-4658 0 -987 -891 -77 870 -2339 -39 -3453 0 -157 -1035 -52 0 -260 1080 -3188 -97 104 -1010c-257,284 -515,568 -772,852l-215 237 -328 0c-1028,0 -2056,0 -3084,0l-1874 0 1395 -1196c382,-327 763,-654 1145,-981 -378,-275 -756,-551 -1133,-826l-18 -13 -17 -14c-482,-399 -863,-929 -828,-1563 42,-760 652,-1344 1249,-1778l195 -141 245 2c559,4 1118,8 1676,11zm46256 4133c165,-352 268,-725 258,-1128 -27,-150 -72,-285 -132,-408 -32,104 -60,208 -86,313 -96,400 -157,843 -40,1223zm6894 0c165,-352 268,-725 258,-1127 -27,-150 -72,-285 -132,-408 -32,104 -60,208 -86,313 -96,400 -156,843 -40,1223zm-9570 -3020c58,-61 118,-121 180,-180l16 -15 -592 -275c152,141 287,297 395,471zm17382 -1573c246,-454 724,-775 1298,-775 841,0 1477,689 1477,1476 0,787 -636,1476 -1477,1476 -202,0 -392,-40 -564,-111l-13 436 -1780 125 1752 145 -495 2250 -1614 111 39 1799 -3615 0 -27 -719c-216,215 -457,410 -722,586l-185 123 -225 0c-1089,0 -2179,0 -3269,0l-216 0 -180 -114c-638,-402 -1088,-936 -1369,-1568 -339,628 -830,1146 -1451,1559l-185 123 -225 0c-911,0 -1822,0 -2732,0l19 18 -1771 0c-820,0 -1640,0 -2459,0l-312 0 -213 -217c-80,-82 -160,-163 -240,-245l-15 476 -3405 0 -237 -5789 -700 -239 2489 -499c722,-145 1443,-290 2165,-434l162 -32 160 38c311,75 620,166 920,277 281,105 569,233 838,390l2080 -272c841,-110 1682,-220 2523,-330l244 -32 213 118c443,245 873,520 1259,843 476,398 832,810 1061,1248 176,-298 404,-579 689,-849l16 -15 -1455 -677 2344 -306c841,-110 1682,-220 2523,-330l244 -32 213 118c421,233 830,493 1201,794l207 -1003 5015 58z"/>
   <g>
    <path class="fil0" d="M42787 14360l0 -982 437 0c110,0 190,9 239,27 50,18 90,49 120,94 30,45 45,97 45,155 0,74 -23,135 -68,183 -45,48 -113,78 -203,91 45,25 82,53 111,83 29,30 68,83 118,159l126 192 -248 0 -150 -214c-53,-76 -90,-124 -109,-144 -20,-20 -40,-33 -62,-41 -22,-7 -57,-11 -105,-11l-42 0 0 410 -208 0zm208 -567l153 0c100,0 162,-4 187,-12 25,-8 44,-22 58,-42 14,-20 21,-44 21,-74 0,-33 -9,-60 -28,-80 -18,-20 -45,-33 -78,-39 -17,-2 -67,-3 -151,-3l-162 0 0 249zm220 -563c358,0 650,304 650,678 0,373 -292,678 -650,678 -358,0 -650,-304 -650,-678 0,-373 292,-678 650,-678zm0 -113c418,0 759,355 759,791 0,436 -341,791 -759,791 -418,0 -759,-355 -759,-791 0,-436 341,-791 759,-791z"/>
    <polygon class="fil0" points="-16319,13867 -18329,13974 -18329,15787 -16598,15920 "/>
    <path class="fil0" d="M-18479 14356c-750,-5 -1499,-10 -2249,-15 -1004,729 -1378,1457 -385,2277 492,359 985,718 1478,1077 216,158 187,433 -80,616 -455,390 -910,780 -1365,1169 1028,0 2056,0 3084,0 316,-349 632,-698 948,-1046 267,-307 369,-706 64,-1000 -562,-421 -1124,-841 -1687,-1262 -620,-572 -288,-1257 193,-1816z"/>
    <path class="fil0" d="M-14166 19480l-1832 -56 523 -5069 2297 0 29 -473 2384 -56 378 5626 -2122 0 -157 -1035 -1244 0 -255 1063zm1366 -1943l-348 -2290 -550 2290 899 0z"/>
    <polygon class="fil0" points="-7534,14252 -10041,14252 -10041,19446 -7996,19480 -7851,17831 -5988,19512 -3417,19512 -5507,17621 -3566,13838 -6304,13886 -7749,16685 "/>
    <path class="fil0" d="M-3458 14307c801,0 1603,0 2404,0 -459,2337 -657,4435 977,4868 52,-1779 104,-3557 156,-5336 815,0 1629,0 2444,0 -118,1891 -236,3782 -353,5673 -1342,0 -2684,0 -4026,0 -2424,-772 -1938,-3251 -1603,-5205z"/>
    <path class="fil0" d="M2968 19476l-190 -4638 2355 -14 -91 2898c274,-337 538,-679 767,-1033 950,-1468 -474,-1920 -1832,-2384 722,-145 1443,-290 2165,-434 1425,341 3261,1185 2152,2823 -254,375 -645,748 -1142,1129 590,546 1180,1093 1770,1639 -820,0 -1640,0 -2460,0 -476,-487 -953,-973 -1429,-1460l-46 1474 -2019 0z"/>
    <path class="fil0" d="M10985 19480l-1832 -56 523 -5069 2297 0 29 -473 2384 -56 378 5626 -2122 0 -157 -1035 -1244 0 -255 1063zm1366 -1943l-348 -2290 -550 2290 899 0z"/>
    <path class="fil0" d="M18434 19476l-190 -4638 2355 -14 -91 2898c274,-337 538,-679 767,-1033 950,-1468 -474,-1920 -1832,-2384 722,-145 1443,-290 2165,-434 1425,341 3261,1185 2152,2823 -254,375 -645,748 -1142,1129 590,546 1180,1093 1770,1639 -820,0 -1640,0 -2460,0 -476,-487 -953,-973 -1429,-1460l-46 1474 -2019 0z"/>
    <path class="fil0" d="M27017 15087c-599,0 -1198,0 -1798,0 -546,517 -970,1173 -955,2326 166,897 612,1574 1338,2033 1090,0 2179,0 3269,0 675,-449 1118,-1004 1380,-1642 526,-1279 228,-2174 -865,-3086 -339,-283 -728,-534 -1146,-765 -841,110 -1682,220 -2523,330 1099,511 2251,968 2466,2326 40,915 -359,1678 -879,2399 -1423,-896 -793,-2744 -287,-3919z"/>
    <path class="fil0" d="M33911 15087c-599,0 -1198,0 -1798,0 -546,517 -970,1173 -955,2326 166,897 612,1574 1338,2033 1090,0 2179,0 3269,0 675,-449 1118,-1004 1380,-1642 526,-1279 228,-2174 -865,-3086 -339,-283 -728,-534 -1146,-765 -841,110 -1682,220 -2523,330 1099,511 2251,968 2466,2326 40,915 -358,1678 -879,2399 -1423,-896 -793,-2744 -287,-3919z"/>
    <polygon class="fil0" points="41975,13893 37490,13841 37219,15158 37978,15193 37472,15608 37616,19454 39806,19454 39769,17705 41523,17583 41740,16596 39859,16440 39968,15210 41939,15071 "/>
   </g>
   <path class="fil2" d="M-4592 21827l72 84c9,11 16,23 21,35l15 -32c49,-103 96,-206 139,-311 36,-87 70,-175 100,-265 22,-65 43,-133 57,-200 7,-31 16,-78 13,-110l-5 -47 132 -69 200 229c20,23 33,50 27,81 -5,29 -26,52 -49,70 -11,9 -21,18 -30,29 -15,17 -28,38 -41,57 -24,37 -46,75 -67,113 -36,64 -70,128 -105,192 -53,99 -105,197 -157,296l-22 43 -205 -16c-7,23 -23,43 -41,59 -10,9 -20,25 -28,36 -19,30 -36,62 -52,93 -10,19 -19,39 -29,59 62,-6 125,-13 187,-20 75,-8 151,-17 226,-26 52,-7 105,-14 157,-24 37,-7 74,-14 110,-24 30,-8 59,-17 87,-28l41 -15 172 137c30,24 54,56 44,96 -10,44 -51,65 -95,69l-372 33c-45,133 -98,263 -161,389 -49,97 -105,192 -169,282l509 284 9 25c11,30 22,61 31,92 8,27 15,54 20,81 5,27 9,54 11,81 4,46 -14,93 -66,105 -39,10 -74,-7 -102,-31 -67,-56 -135,-113 -205,-166 -72,-55 -145,-107 -218,-159 -54,-38 -108,-75 -163,-111 -113,113 -244,209 -386,288 -181,102 -377,180 -577,242l-69 21 -50 -138c-1,13 -2,25 -3,37 -2,17 -4,36 -8,53 -11,43 -38,81 -89,85 -48,4 -82,-28 -103,-65l-145 -252 19 -34c15,-28 27,-57 35,-87 11,-39 16,-82 19,-122 5,-63 5,-128 5,-191l0 -718c-10,16 -19,32 -29,48 -55,90 -114,178 -176,263 -54,73 -110,144 -169,213 -47,54 -97,106 -150,154l-60 54 -117 -146 35 -43c104,-130 203,-264 291,-405 72,-115 138,-234 194,-357 32,-71 62,-144 88,-217 -9,1 -18,3 -27,4 -40,7 -80,14 -120,24 -27,6 -55,13 -81,23l-39 14 -330 -243 690 -81 0 -229c0,-102 -5,-204 -21,-305 -12,-76 -30,-155 -61,-227l-20 -46 122 -106 259 205c20,16 37,35 46,58 11,29 6,60 -9,87 -10,18 -16,38 -20,57 -8,34 -12,69 -15,104 -5,56 -5,113 -5,169l0 195c29,-5 57,-11 85,-17 36,-8 74,-18 108,-32l43 -17 147 124c30,25 52,57 41,98 -12,44 -53,62 -96,66l-329 33 0 122 307 191 4 33c0,0 0,0 0,0l392 -31c25,-62 50,-125 73,-188 17,-47 34,-95 46,-143 6,-24 12,-53 12,-77 0,-15 -2,-31 -7,-45l-22 -58 133 -68c-6,-21 -13,-42 -20,-62 -14,-42 -28,-84 -44,-125 -20,-54 -41,-108 -63,-161 -29,-72 -59,-143 -90,-214l-29 -67 185 -69 358 534 -7 29c-9,38 -21,75 -36,111 -16,36 -36,69 -60,100 -15,19 -33,36 -56,44zm-1082 1852l44 -17c96,-36 192,-76 284,-120 78,-37 154,-79 227,-125 65,-41 127,-86 185,-136 35,-30 69,-62 101,-96 -35,-21 -71,-41 -107,-62 -47,-27 -93,-53 -141,-79 -45,-24 -89,-48 -134,-71l-67 -35 38 -63c21,-34 41,-68 60,-103 18,-32 35,-65 51,-97 18,-36 35,-73 51,-110 4,-8 7,-16 11,-25 -5,1 -10,1 -15,2 -34,5 -68,11 -101,18 -31,7 -61,14 -91,22l-36 10 -65 -47c0,1 0,1 -1,2 -17,34 -45,63 -88,65 -39,1 -68,-20 -90,-48l-115 -142 0 907c0,75 0,149 -1,224 -1,42 -1,84 -3,126zm1260 -1198l-347 30c-20,43 -40,86 -60,129 -22,47 -44,93 -66,140 -11,23 -22,46 -34,69l250 141c36,-48 69,-97 100,-149 40,-68 74,-139 104,-212 20,-49 37,-99 53,-149zm-466 -764c-6,38 -16,76 -29,113 -14,37 -30,72 -52,105 -22,34 -55,61 -100,57 -44,-4 -72,-37 -85,-75 -18,-52 -37,-104 -57,-156 -22,-57 -46,-113 -71,-169 -24,-53 -48,-106 -73,-158 -20,-40 -40,-80 -64,-118l-41 -67 170 -75 405 515 -4 29zm3923 -242c16,36 27,73 35,111 8,42 12,85 12,127 0,91 -10,183 -26,273 -17,100 -43,198 -73,294 -31,100 -69,198 -112,294 -43,94 -91,185 -146,273 -51,81 -110,159 -176,229 -60,63 -127,120 -205,162 -73,40 -152,64 -237,64 -70,0 -135,-20 -193,-58 -59,-39 -105,-92 -140,-152 -40,-68 -67,-142 -85,-218 -21,-88 -29,-180 -29,-270 0,-149 24,-295 75,-435 49,-136 120,-262 212,-376 92,-115 202,-213 327,-295 130,-85 272,-148 422,-192 161,-47 328,-69 496,-69 187,0 375,25 549,89 153,57 292,139 406,253 111,111 192,241 246,386 58,155 82,319 82,483 0,147 -26,291 -84,428 -59,139 -151,259 -267,360 -133,116 -295,198 -463,258 -212,76 -444,114 -669,134l-62 5 -62 -213 86 -10c187,-22 381,-61 554,-132 131,-54 259,-126 360,-223 86,-83 154,-178 197,-287 42,-107 62,-219 62,-334 0,-103 -10,-205 -34,-305 -22,-93 -56,-182 -104,-265 -46,-79 -106,-149 -179,-208 -78,-63 -169,-108 -265,-139 -117,-38 -244,-51 -367,-51 -24,0 -49,1 -73,3 -23,2 -47,4 -70,7zm-254 48c-73,20 -143,48 -210,83 -86,45 -164,100 -235,165 -73,67 -136,142 -188,225 -55,87 -96,181 -125,278 -31,106 -45,215 -45,325 0,54 4,108 13,162 8,44 20,88 38,128 12,26 28,54 50,73 12,10 24,17 41,17 44,0 86,-17 122,-40 52,-33 98,-78 137,-125 51,-61 94,-126 133,-195 44,-77 82,-157 116,-239 35,-85 65,-171 91,-259 24,-84 44,-169 58,-254 12,-74 21,-150 21,-225 0,-24 -2,-47 -6,-71 -3,-16 -6,-33 -11,-49zm4478 1951l0 -211c-28,3 -56,6 -84,9 -52,6 -103,12 -155,19 -42,6 -85,13 -127,20 -26,5 -52,10 -77,18l-39 12 -326 -259 807 -61c-1,-20 -1,-41 -3,-61 -2,-33 -6,-66 -13,-98 -2,-9 -4,-17 -6,-26 -35,6 -69,13 -104,21 -43,9 -86,20 -128,32 -36,10 -71,21 -106,32 -24,7 -50,8 -74,1 -28,-8 -51,-26 -66,-49l-138 -208 98 -25c26,-7 53,-15 78,-25 21,-9 41,-21 59,-34 28,-21 53,-48 76,-74 39,-44 75,-91 110,-138 23,-32 46,-63 69,-95 -41,5 -82,11 -123,17 -77,12 -154,28 -229,49l-33 9 -72 -45c-28,150 -67,298 -116,443 -62,184 -143,360 -242,529 -101,173 -223,334 -362,481l-46 49 -170 -126 43 -56c88,-113 171,-231 246,-353 65,-108 125,-219 174,-334 47,-110 87,-223 118,-339 33,-121 58,-245 79,-369 27,-161 50,-324 64,-487 12,-136 21,-273 22,-409 1,-102 0,-205 -10,-306l-6 -63 171 -33 118 248 1070 -102 116 -147 201 153c24,18 44,41 48,71 5,37 -15,67 -43,90 -11,9 -21,20 -30,32 -7,10 -13,20 -18,31 -7,16 -11,35 -15,52l-44 196 56 62c25,28 45,62 35,100 -12,48 -58,65 -104,69l-1296 106c-4,37 -9,74 -13,111 -3,23 -6,46 -9,69 168,-12 336,-25 504,-42 145,-14 291,-30 435,-49 100,-13 200,-28 298,-49 60,-12 124,-26 182,-46l38 -13 180 131c31,22 55,51 49,91 -8,48 -51,69 -97,73l-632 56 617 345 5 34c6,42 10,85 9,128 -1,34 -4,70 -15,103 -12,34 -38,62 -77,69 -39,6 -73,-12 -97,-40 -22,-26 -45,-52 -70,-76 -23,-22 -46,-44 -70,-65l-416 65 3 2c19,16 35,35 41,59 7,29 -2,57 -21,80 -5,7 -9,16 -12,24 -5,12 -7,26 -9,39 72,-7 145,-16 216,-28 54,-9 119,-21 170,-42l42 -17 167 132c28,22 47,53 42,89 -7,45 -48,69 -93,73l-549 41 0 219c72,-4 144,-7 216,-12 72,-5 144,-9 215,-16 51,-4 101,-10 151,-17 35,-5 70,-10 104,-18 25,-6 51,-13 75,-21l40 -14 184 146c33,26 58,65 44,107 -15,45 -58,61 -103,61 -181,3 -362,11 -543,17 -140,5 -281,10 -421,16 -108,5 -216,11 -323,17 -85,5 -169,12 -254,19 -71,6 -141,14 -211,23 -65,8 -131,18 -196,29l-34 6 -346 -275 1126 -55zm314 -1243l-61 5c0,11 -2,21 -6,32 -12,29 -37,47 -66,58 -4,1 -9,5 -12,7 -11,8 -24,21 -33,31 -26,27 -50,54 -74,82l-120 138 522 -64c-11,-9 -22,-18 -33,-27 -44,-35 -89,-70 -135,-102l-54 -37 73 -123zm209 -899l-1019 93c-1,20 -3,40 -5,61 -4,42 -7,85 -12,127 -1,10 -2,20 -4,31l1005 -99 34 -212zm3423 457l0 -238c0,-61 -1,-123 -4,-185 -2,-44 -6,-88 -14,-131 -6,-35 -14,-70 -24,-104l-19 -62 174 -67 139 268 635 -84 99 -165 227 148c26,17 47,40 52,71 5,31 -8,58 -28,81 -14,15 -28,32 -36,50 -8,16 -11,36 -13,53l-99 744 47 55 14 -40 156 -10 92 274c10,30 12,60 -6,88 -18,28 -49,41 -81,44 -15,4 -43,21 -55,28 -56,34 -110,73 -163,112 -75,55 -148,111 -221,168 45,67 91,133 140,197 43,57 91,113 143,162 40,37 85,70 135,96 50,26 104,45 159,59 71,18 144,30 217,40l64 9 0 172 -678 63 -719 -1189 -51 8 0 821 312 -247 135 139 -44 48c-69,75 -138,150 -206,226 -46,51 -92,102 -136,154 -28,32 -55,65 -81,99 -15,19 -29,39 -42,60 -14,23 -36,42 -64,49 -30,7 -58,-1 -83,-16l-253 -156 85 -61c19,-14 38,-29 54,-46 10,-11 19,-24 24,-38 8,-19 11,-39 14,-59 4,-33 4,-66 4,-99l0 -897c-2,7 -3,13 -5,20 -10,41 -42,74 -88,75 -35,1 -66,-16 -89,-40l-187 -188 0 1045c0,57 0,114 -1,171 0,39 -2,77 -3,115 -1,26 -3,52 -6,78 -3,20 -6,41 -12,61 -12,40 -40,74 -87,75 -44,1 -74,-28 -95,-60l-165 -250 30 -39c16,-20 27,-43 36,-67 11,-29 16,-61 19,-91 5,-52 5,-105 5,-156l0 -663c-1,1 -2,3 -2,4 -54,83 -111,165 -171,243 -58,75 -119,148 -183,218 -56,61 -116,119 -180,172l-48 39 -149 -122 47 -54c95,-108 184,-220 267,-337 86,-121 163,-247 232,-377 54,-100 101,-203 144,-307 -19,3 -37,6 -56,9 -39,7 -78,14 -115,25 -28,7 -55,16 -81,27l-44 17 -287 -255 628 -72 0 -294c0,-61 -1,-121 -3,-182 -1,-45 -4,-89 -8,-133 -3,-34 -8,-68 -15,-101 -6,-30 -13,-59 -22,-89l-18 -57 144 -69 228 232c17,17 30,36 35,59 4,24 -2,47 -15,68 -11,17 -18,37 -23,56 -8,29 -12,60 -15,90 -5,44 -6,90 -6,134l0 251c35,-6 70,-13 104,-20 28,-6 64,-16 89,-30l45 -27 132 104zm0 182c-13,4 -27,6 -40,7l-329 33 0 36 369 194 0 -271zm1041 430l-446 60 149 234c46,-41 92,-82 137,-124 45,-42 89,-86 129,-132 10,-12 21,-25 31,-37zm-164 -945l-596 80 0 217c36,-6 72,-12 107,-19 45,-8 90,-16 134,-27 30,-7 59,-15 88,-25 20,-7 38,-15 56,-26l45 -26 139 112 26 -286zm-42 466c-10,3 -21,5 -32,7l-522 77 0 245 532 -87 22 -242z"/>
   <path class="fil3" d="M11926 22925c-2,20 -3,40 -3,62 -1,21 -1,42 -1,62 -1,45 1,96 4,151 4,55 14,111 30,168 17,58 44,112 82,165 38,53 91,100 159,141 49,28 97,49 145,61 48,12 96,19 144,22 48,3 95,4 143,3 67,0 133,-6 198,-19 66,-13 128,-34 188,-64 57,-30 103,-65 139,-105 36,-40 64,-81 85,-125 20,-43 34,-85 44,-126 9,-40 14,-76 16,-107 2,-32 3,-55 2,-72l0 -1889 -557 0 0 1869c1,43 -4,80 -15,111 -10,32 -29,57 -56,74 -27,18 -65,27 -114,27 -46,0 -82,-10 -108,-29 -26,-19 -44,-47 -55,-83 -10,-36 -17,-79 -18,-129 -2,-50 -2,-106 -1,-168l-453 0zm2057 -532c33,-29 71,-58 113,-87 42,-29 91,-54 145,-74 55,-21 117,-31 187,-32 48,1 89,8 125,22 35,14 61,32 77,54 12,15 20,32 24,52 5,20 8,47 9,81 1,34 1,79 1,136 -82,4 -169,17 -259,37 -91,19 -180,48 -270,86 -83,37 -151,80 -203,127 -52,48 -92,98 -121,151 -28,52 -48,103 -58,154 -10,50 -16,95 -15,137 1,81 12,150 32,208 21,58 50,106 85,144 35,38 75,68 118,90 44,22 87,38 132,47 45,9 87,13 126,13 54,-1 103,-8 148,-21 46,-13 84,-26 114,-40 30,-14 49,-24 58,-29 25,-14 47,-29 65,-44 19,-14 36,-31 52,-49 16,-18 34,-39 53,-63l14 0c11,21 26,43 45,68 19,24 43,48 73,71 30,23 66,42 109,57 43,15 93,23 153,23l143 0 0 -319c-23,-1 -42,-7 -56,-17 -15,-10 -26,-22 -33,-35 -8,-14 -12,-25 -15,-37 -2,-11 -3,-18 -3,-21l0 -864c1,-32 -1,-66 -5,-105 -4,-39 -16,-80 -36,-123 -20,-43 -52,-87 -98,-131 -38,-35 -82,-65 -132,-88 -49,-23 -100,-40 -153,-53 -53,-12 -103,-21 -149,-26 -47,-4 -87,-7 -120,-7 -97,1 -183,7 -254,20 -72,13 -135,30 -188,53 -53,22 -101,47 -143,75 -42,27 -83,56 -121,85l230 273zm679 672c1,30 -3,63 -10,100 -7,37 -20,73 -39,108 -19,34 -46,63 -81,86 -35,22 -80,34 -135,35 -39,-1 -74,-10 -103,-29 -29,-19 -52,-45 -67,-78 -16,-32 -24,-69 -24,-109 1,-60 13,-112 37,-155 24,-43 56,-78 93,-106 38,-28 78,-50 121,-68 42,-17 82,-29 119,-38 37,-9 67,-15 89,-19l0 273zm961 1204l491 0 0 -818 24 0c32,48 70,92 114,131 44,39 95,70 152,93 57,23 123,35 197,35 68,-1 127,-8 176,-23 49,-16 90,-36 124,-62 34,-26 62,-55 83,-88 23,-33 40,-67 52,-102 13,-35 21,-76 27,-123 5,-47 9,-105 10,-172 1,-68 1,-150 1,-248 0,-89 0,-176 -1,-259 -1,-83 -5,-160 -10,-231 -5,-70 -14,-131 -27,-181 -8,-35 -21,-72 -39,-111 -18,-39 -44,-76 -76,-111 -32,-35 -75,-64 -128,-86 -53,-22 -118,-34 -196,-34 -110,0 -207,26 -290,78 -84,52 -151,131 -204,238l-28 0 0 -279 -452 0 0 2354zm491 -1852c20,-21 43,-40 70,-59 27,-19 57,-35 91,-48 34,-13 71,-19 111,-19 15,-1 32,1 50,4 19,3 37,9 55,21 18,11 34,29 48,53 14,24 24,57 31,99 2,9 3,27 4,53 2,26 3,56 4,90 1,34 2,69 3,104 1,35 2,67 2,94 1,28 1,48 1,61 1,82 -1,153 -3,213 -3,59 -10,109 -21,147 -12,38 -31,66 -58,85 -27,19 -64,28 -113,28 -36,-1 -70,-7 -102,-21 -32,-13 -62,-29 -90,-49 -29,-20 -56,-40 -83,-60l0 -795zm1545 -23c33,-29 71,-58 113,-87 42,-29 91,-54 145,-74 55,-21 117,-31 187,-32 48,1 89,8 125,22 35,14 61,32 77,54 12,15 20,32 24,52 5,20 8,47 9,81 1,34 1,79 1,136 -82,4 -169,17 -259,37 -91,19 -180,48 -270,86 -83,37 -151,80 -203,127 -52,48 -92,98 -121,151 -28,52 -48,103 -58,154 -10,50 -16,95 -15,137 1,81 12,150 32,208 21,58 50,106 85,144 35,38 75,68 118,90 44,22 87,38 132,47 45,9 87,13 126,13 54,-1 103,-8 149,-21 46,-13 84,-26 114,-40 30,-14 49,-24 58,-29 25,-14 47,-29 65,-44 19,-14 36,-31 52,-49 16,-18 34,-39 53,-63l14 0c11,21 26,43 45,68 19,24 43,48 73,71 30,23 66,42 109,57 43,15 93,23 153,23l143 0 0 -319c-23,-1 -42,-7 -56,-17 -15,-10 -26,-22 -33,-35 -8,-14 -12,-25 -15,-37 -2,-11 -3,-18 -3,-21l0 -864c1,-32 -1,-66 -5,-105 -4,-39 -16,-80 -36,-123 -20,-43 -52,-87 -98,-131 -38,-35 -82,-65 -132,-88 -49,-23 -100,-40 -153,-53 -53,-12 -103,-21 -149,-26 -47,-4 -87,-7 -120,-7 -97,1 -183,7 -254,20 -72,13 -135,30 -188,53 -53,22 -101,47 -143,75 -42,27 -83,56 -121,85l230 273zm679 672c1,30 -3,63 -10,100 -7,37 -20,73 -39,108 -19,34 -46,63 -81,86 -35,22 -80,34 -135,35 -39,-1 -74,-10 -103,-29 -29,-19 -52,-45 -67,-78 -16,-32 -24,-69 -24,-109 1,-60 13,-112 37,-155 24,-43 56,-78 93,-106 38,-28 78,-50 121,-68 42,-17 82,-29 119,-38 37,-9 67,-15 89,-19l0 273zm968 628l491 0 0 -1207c31,-33 62,-63 93,-90 31,-28 65,-50 101,-66 36,-17 77,-25 123,-26 41,1 72,10 94,28 23,18 38,39 48,66 9,26 15,53 17,79 2,27 2,49 2,67l0 1150 491 0 0 -1290c1,-28 -1,-62 -3,-104 -3,-42 -12,-86 -26,-132 -15,-47 -38,-90 -71,-131 -33,-41 -79,-75 -138,-101 -59,-26 -135,-39 -227,-40 -61,1 -118,11 -170,30 -53,19 -102,47 -146,80 -44,34 -84,72 -119,115 -36,44 -67,89 -94,137l-10 0 0 -326 -452 0 0 1762zm2503 -2440l0 446 651 0 0 1995 585 0 0 -1995 637 0 0 -446 -1873 0zm3143 1656c1,-113 0,-211 -2,-292 -1,-81 -5,-151 -12,-209 -6,-58 -17,-109 -33,-153 -15,-44 -37,-85 -64,-124 -30,-44 -67,-85 -112,-122 -45,-38 -102,-68 -169,-91 -68,-23 -152,-35 -251,-36 -38,-1 -82,2 -131,7 -49,5 -100,16 -153,33 -53,17 -104,42 -153,75 -48,34 -91,79 -127,135 -41,66 -70,141 -88,224 -18,84 -28,174 -32,270 -4,96 -5,196 -5,300 0,4 1,18 2,43 1,24 4,54 8,90 3,36 8,73 14,112 6,39 13,75 21,108 23,81 55,149 95,203 40,54 86,98 138,131 51,33 105,59 161,76 56,17 111,28 165,34 55,6 104,9 150,8 81,-1 153,-6 218,-16 65,-11 127,-24 186,-42 59,-18 119,-37 181,-58l-52 -352c-73,34 -136,60 -191,79 -55,19 -107,32 -154,40 -48,7 -96,11 -145,11 -68,-1 -123,-12 -166,-33 -43,-22 -77,-50 -101,-85 -24,-35 -41,-74 -51,-117 -10,-43 -16,-85 -18,-128 -2,-43 -2,-83 -1,-119l874 0zm-874 -263c-2,-57 -1,-112 1,-167 2,-55 10,-105 23,-151 13,-45 35,-81 67,-109 31,-28 75,-42 132,-42 60,1 107,12 142,36 34,23 59,56 74,99 15,42 24,92 28,149 3,57 5,119 4,186l-470 0zm2611 -193c-1,-35 -3,-74 -7,-115 -3,-41 -14,-84 -30,-127 -17,-44 -44,-89 -81,-133 -41,-47 -85,-84 -133,-110 -49,-27 -97,-45 -146,-57 -49,-12 -95,-19 -138,-22 -42,-3 -78,-4 -108,-3 -124,1 -229,19 -314,57 -85,37 -154,88 -207,155 -52,66 -89,144 -113,232 -23,88 -35,185 -34,288l0 416c-1,70 6,140 20,208 13,68 36,132 67,193 32,60 75,114 129,161 42,36 87,64 135,85 48,20 94,34 140,43 46,9 89,14 128,16 38,2 70,3 95,2 123,-1 225,-17 303,-47 79,-30 142,-70 186,-118 45,-49 78,-101 99,-156 20,-56 34,-110 39,-161 6,-52 9,-96 9,-133l-418 0c1,47 -5,90 -17,127 -12,38 -33,68 -63,91 -30,22 -72,34 -126,34 -62,1 -110,-9 -145,-29 -34,-19 -59,-52 -72,-95 -14,-44 -20,-103 -20,-175l0 -515c-1,-26 1,-56 3,-90 3,-34 12,-69 25,-102 14,-33 37,-61 68,-83 32,-22 76,-34 133,-34 57,1 100,11 127,31 28,20 46,45 56,75 9,30 15,62 16,93l393 0zm491 1240l491 0 0 -1224c45,-39 83,-71 116,-96 33,-26 64,-45 95,-58 31,-13 64,-19 102,-19 41,1 73,9 95,26 23,17 39,39 50,65 10,27 17,55 19,85 2,30 3,59 3,86l0 1134 487 0 0 -1267c1,-37 -1,-76 -3,-117 -3,-41 -10,-83 -22,-125 -12,-42 -31,-84 -59,-124 -41,-58 -92,-101 -154,-130 -62,-28 -131,-43 -204,-43 -64,-1 -126,9 -187,31 -60,21 -118,54 -173,101 -55,47 -106,110 -152,188l-21 0 7 -239 0 -715 -491 0 0 2440z"/>
  </g>
 </g>
</svg>
