<?xml version="1.0" encoding="UTF-8"?>
<!DOCTYPE svg PUBLIC "-//W3C//DTD SVG 1.1//EN" "http://www.w3.org/Graphics/SVG/1.1/DTD/svg11.dtd">
<!-- Creator: CorelDRAW X6 -->
<svg xmlns="http://www.w3.org/2000/svg" xml:space="preserve" width="210mm" height="297mm" version="1.1" style="shape-rendering:geometricPrecision; text-rendering:geometricPrecision; image-rendering:optimizeQuality; fill-rule:evenodd; clip-rule:evenodd"
viewBox="0 0 21000 29700"
 xmlns:xlink="http://www.w3.org/1999/xlink">
 <defs>
  <style type="text/css">
   <![CDATA[
    .fil1 {fill:#5F5D5D}
    .fil2 {fill:#005BA8}
    .fil0 {fill:#5F5D5D;fill-rule:nonzero}
   ]]>
  </style>
 </defs>
 <g id="Layer_x0020_1">
  <metadata id="CorelCorpID_0Corel-Layer"/>
  <g id="_712136736">
   <path class="fil0" d="M-1815 22067l0 -146 376 0 0 345c-37,35 -89,67 -159,94 -69,27 -139,40 -210,40 -90,0 -169,-19 -236,-57 -67,-38 -118,-92 -151,-163 -34,-71 -51,-148 -51,-231 0,-90 19,-170 56,-241 38,-70 93,-124 166,-161 55,-29 124,-43 207,-43 107,0 191,23 251,68 60,45 99,107 116,187l-173 32c-12,-43 -35,-76 -69,-101 -34,-25 -75,-37 -126,-37 -76,0 -137,24 -182,73 -45,49 -67,120 -67,216 0,103 23,180 68,231 45,51 105,77 179,77 37,0 73,-7 110,-22 37,-14 68,-32 94,-52l0 -110 -200 0zm787 318l0 -866 640 0 0 147 -466 0 0 192 433 0 0 146 -433 0 0 236 482 0 0 146 -656 0zm1056 0l0 -866 170 0 353 578 0 -578 162 0 0 866 -175 0 -348 -565 0 565 -162 0zm1314 0l0 -720 -256 0 0 -147 686 0 0 147 -255 0 0 720 -174 0zm793 0l0 -866 640 0 0 147 -466 0 0 192 433 0 0 146 -433 0 0 236 482 0 0 146 -656 0zm1056 0l0 -866 170 0 353 578 0 -578 162 0 0 866 -175 0 -348 -565 0 565 -162 0zm1521 -318l0 -146 376 0 0 345c-37,35 -89,67 -159,94 -69,27 -139,40 -210,40 -90,0 -169,-19 -236,-57 -67,-38 -118,-92 -151,-163 -34,-71 -51,-148 -51,-231 0,-90 19,-170 56,-241 38,-70 93,-124 166,-161 55,-29 124,-43 207,-43 107,0 191,23 251,68 60,45 99,107 116,187l-173 32c-12,-43 -35,-76 -69,-101 -34,-25 -75,-37 -126,-37 -76,0 -137,24 -182,73 -45,49 -67,120 -67,216 0,103 23,180 68,231 45,51 105,77 179,77 37,0 73,-7 110,-22 37,-14 68,-32 94,-52l0 -110 -200 0zm1119 318l0 -866 261 0 157 591 155 -591 261 0 0 866 -162 0 0 -682 -171 682 -168 0 -171 -682 0 682 -162 0zm1257 0l0 -866 640 0 0 147 -466 0 0 192 433 0 0 146 -433 0 0 236 482 0 0 146 -656 0zm1249 0l0 -720 -256 0 0 -147 686 0 0 147 -255 0 0 720 -174 0zm1482 0l-190 0 -75 -197 -345 0 -71 197 -185 0 336 -866 184 0 346 866zm-321 -343l-119 -321 -117 321 236 0zm668 343l0 -859 174 0 0 713 433 0 0 146 -608 0zm1221 0l0 -158 453 -562 -402 0 0 -147 632 0 0 136 -473 584 491 0 0 146 -701 0zm1057 0l0 -866 174 0 0 866 -174 0zm592 0l0 -866 170 0 353 578 0 -578 162 0 0 866 -175 0 -348 -565 0 565 -162 0zm1672 -318l169 54c-26,95 -69,165 -129,211 -60,46 -137,69 -229,69 -115,0 -209,-39 -283,-118 -74,-79 -111,-186 -111,-322 0,-144 37,-256 111,-336 74,-80 172,-120 293,-120 106,0 191,31 257,94 39,37 69,90 88,160l-173 41c-10,-45 -31,-80 -64,-106 -32,-26 -72,-39 -118,-39 -64,0 -116,23 -156,69 -40,46 -60,121 -60,224 0,110 20,188 59,234 39,47 90,70 153,70 46,0 86,-15 120,-44 33,-29 57,-76 72,-139zm1347 318l-190 0 -75 -197 -345 0 -71 197 -185 0 336 -866 184 0 346 866zm-321 -343l-119 -321 -117 321 236 0zm668 343l0 -859 174 0 0 713 433 0 0 146 -608 0zm981 -866l174 0 0 469c0,74 2,123 6,145 7,35 25,64 53,85 28,22 67,32 115,32 49,0 87,-10 112,-30 25,-20 40,-45 45,-75 5,-30 8,-79 8,-147l0 -479 174 0 0 455c0,104 -5,177 -14,220 -9,43 -27,79 -52,109 -25,29 -59,53 -102,71 -42,18 -98,26 -166,26 -82,0 -145,-9 -188,-29 -43,-19 -76,-44 -101,-74 -25,-30 -41,-63 -49,-96 -11,-50 -17,-123 -17,-220l0 -462zm1120 866l0 -866 261 0 157 591 155 -591 261 0 0 866 -162 0 0 -682 -171 682 -168 0 -171 -682 0 682 -162 0zm1257 0l0 -866 640 0 0 147 -466 0 0 192 433 0 0 146 -433 0 0 236 482 0 0 146 -656 0z"/>
   <path class="fil1" d="M20564 21563l0 -176c-24,22 -39,53 -39,88 0,35 15,66 39,88zm5 -180l84 0c18,0 32,2 41,5 9,4 17,10 22,19 6,9 8,19 8,30 0,14 -5,26 -14,36 -9,10 -24,16 -43,19 7,3 12,7 16,10 8,7 15,16 22,27l18 29c21,-21 35,-51 35,-83 0,-65 -53,-118 -117,-118 -27,0 -53,9 -73,25zm170 199l2 3 -5 0c-25,22 -59,36 -95,36 -80,0 -144,-65 -144,-145 0,-80 65,-145 144,-145 80,0 144,65 144,145 0,42 -18,80 -47,107zm-37 -6l-21 -34c-8,-12 -14,-21 -19,-28 -5,-6 -10,-11 -13,-13 -4,-3 -8,-4 -12,-5 -3,-1 -8,-1 -15,-1l-31 0 0 86c16,8 33,12 51,12 22,0 43,-6 60,-17zm-112 -104l57 0c12,0 22,-1 29,-4 7,-3 12,-7 16,-12 4,-6 5,-12 5,-18 0,-10 -3,-17 -10,-24 -7,-6 -18,-9 -33,-9l-64 0 0 67z"/>
  </g>
  <path class="fil2" d="M7349 19842l175 0 0 -2551 -175 0 0 2551zm-105 170l0 -2815 438 0 0 2815 -438 0zm-139 85l661 0 0 -3039 -661 0 0 3039zm-105 159l0 -3303 924 0 0 3303 -924 0zm-104 50l1078 0 0 -3457 -1078 0 0 3457zm-105 159l0 -3721 1341 0 0 3721 -1341 0zm-2002 -623l175 0 0 -2390 719 0 0 -161 -1611 0 0 161 717 0 0 2390zm-105 -2220l-717 0 0 -425 1874 0 0 425 -719 0 0 2390 -438 0 0 -2390zm-139 2475l661 0 0 -2390 719 0 0 -649 -2097 0 0 649 717 0 0 2390zm-105 -2231l-717 0 0 -913 2361 0 0 913 -719 0 0 2390 -924 0 0 -2390zm-104 2440l1078 0 0 -2390 719 0 0 -1067 -2514 0 0 1067 717 0 0 2390zm-105 -2231l-717 0 0 -1331 2778 0 0 1331 -719 0 0 2390 -1341 0 0 -2390zm-2571 1767l1067 0 0 -161 -893 0 0 -2390 -175 0 0 2551zm333 -255l893 0 0 425 -1331 0 0 -2815 438 0 0 2390zm-577 510l1554 0 0 -649 -893 0 0 -2390 -661 0 0 3039zm820 -754l893 0 0 913 -1817 0 0 -3303 924 0 0 2390zm-1028 963l1971 0 0 -1067 -893 0 0 -2390 -1078 0 0 3457zm1237 -1172l893 0 0 1331 -2234 0 0 -3721 1341 0 0 2390zm-4121 -1843l0 1598c0,264 44,568 227,771 176,196 437,251 690,251 253,0 513,-56 689,-251 183,-204 227,-507 227,-771l0 -1598 -175 0 0 1675c0,208 -37,439 -184,597 -144,154 -354,198 -556,198 -203,0 -417,-43 -561,-198 -147,-158 -184,-389 -184,-597l0 -1675 -171 0zm-105 -94l434 0 0 1806 1 45 2 43 3 41 4 39 6 38 7 36 8 34 9 32 10 31 11 29 12 27 13 25 14 24 15 22 16 21 17 19 18 18 19 17 21 16 22 15 23 14 25 13 26 12 28 11 30 10 31 8 33 7 34 6 36 5 38 3 40 2 41 1 41 -1 39 -2 37 -3 36 -5 34 -6 32 -7 31 -8 29 -10 28 -10 26 -12 25 -13 23 -14 22 -15 20 -16 19 -17 18 -18 17 -20 16 -21 15 -22 14 -24 13 -26 12 -27 11 -29 10 -31 9 -32 8 -34 7 -36 6 -38 4 -39 3 -41 2 -43 1 -46 0 -1806 438 0 0 1731 -1 68 -3 66 -5 65 -7 62 -9 61 -11 59 -13 57 -15 55 -17 53 -19 51 -21 49 -24 47 -26 45 -28 43 -30 41 -33 38 -35 36 -37 34 -39 32 -41 29 -43 27 -45 24 -47 22 -49 19 -50 17 -52 15 -54 12 -56 10 -57 8 -59 5 -61 3 -62 1 -62 -1 -61 -3 -59 -5 -57 -8 -56 -10 -54 -12 -52 -15 -51 -17 -49 -19 -47 -22 -45 -24 -43 -27 -41 -29 -39 -32 -37 -34 -35 -36 -33 -39 -30 -41 -28 -43 -26 -45 -24 -47 -21 -49 -19 -51 -17 -53 -15 -55 -13 -57 -11 -59 -9 -61 -7 -62 -5 -64 -3 -66 -1 -67 0 -1731zm-139 -139l0 1844 1 70 3 70 5 68 7 66 9 65 12 63 14 61 16 60 19 58 21 56 24 54 26 53 29 51 32 48 34 46 37 44 40 41 42 39 45 36 47 33 49 30 51 27 53 25 54 22 56 19 58 16 59 14 61 11 62 8 63 6 65 4 66 1 66 -1 65 -3 63 -6 62 -8 60 -11 59 -14 58 -16 56 -19 54 -22 53 -25 51 -27 49 -30 47 -33 45 -36 42 -39 39 -41 37 -44 34 -46 32 -48 29 -51 26 -53 24 -55 21 -56 19 -58 16 -59 14 -62 12 -63 9 -65 7 -66 5 -68 3 -70 1 -70 0 -1844 -661 0 0 1918 -1 43 -2 39 -3 37 -4 35 -5 34 -6 31 -7 29 -8 27 -9 26 -9 23 -10 22 -10 20 -11 18 -11 17 -12 15 -13 14 -13 13 -14 12 -15 12 -16 11 -17 10 -19 10 -20 9 -22 8 -24 8 -25 7 -27 6 -29 5 -31 4 -33 3 -35 2 -37 1 -37 -1 -36 -2 -34 -3 -32 -4 -30 -5 -28 -6 -26 -7 -24 -8 -22 -8 -21 -9 -19 -10 -17 -10 -16 -11 -15 -12 -14 -12 -13 -13 -12 -14 -12 -15 -11 -17 -11 -18 -10 -20 -10 -22 -9 -23 -8 -25 -8 -27 -7 -29 -6 -31 -5 -33 -4 -35 -3 -37 -2 -39 -1 -43 0 -1917 -658 0zm-105 -105l921 0 0 2048 1 40 2 35 3 33 3 31 4 28 5 26 6 24 6 21 6 19 7 17 7 15 7 13 7 12 7 10 7 9 7 8 7 7 8 7 8 7 9 6 11 6 12 6 14 6 16 6 18 6 20 5 22 5 24 4 27 3 29 3 31 2 33 1 32 -1 30 -2 28 -2 26 -3 23 -4 22 -5 19 -5 17 -6 15 -6 14 -6 12 -6 11 -6 9 -6 8 -7 8 -7 7 -7 7 -8 7 -9 7 -10 7 -12 7 -14 7 -15 7 -17 7 -20 6 -22 5 -24 5 -26 4 -29 3 -31 2 -33 2 -35 1 -40 0 -2049 924 0 0 1977 -1 73 -3 74 -5 72 -8 71 -10 70 -13 68 -15 67 -18 65 -21 64 -24 62 -26 61 -30 59 -33 57 -36 55 -39 53 -42 50 -45 47 -48 44 -51 41 -53 38 -56 35 -58 31 -60 28 -61 24 -63 21 -64 18 -65 15 -66 12 -67 9 -69 6 -70 4 -71 1 -71 -1 -70 -4 -69 -6 -68 -9 -66 -12 -65 -15 -64 -18 -63 -21 -61 -24 -60 -28 -58 -31 -56 -35 -54 -38 -51 -41 -48 -44 -46 -47 -42 -50 -39 -53 -36 -55 -33 -57 -30 -59 -26 -60 -24 -62 -21 -64 -18 -65 -15 -67 -13 -68 -10 -70 -8 -71 -5 -72 -3 -74 -1 -73 0 -1977zm-104 -104l0 2054 1 74 3 76 6 75 8 74 11 73 13 71 16 70 19 69 22 68 25 66 28 64 31 63 35 61 38 59 42 57 45 54 49 51 52 48 55 44 58 41 60 37 62 33 64 30 65 26 67 22 68 19 69 16 70 12 71 10 72 7 73 4 74 1 74 -1 73 -4 72 -7 71 -10 70 -12 69 -16 68 -19 66 -22 65 -26 64 -30 62 -33 60 -37 57 -41 55 -44 52 -48 49 -51 45 -54 42 -57 39 -59 35 -61 32 -63 28 -65 25 -66 22 -67 19 -68 16 -70 13 -71 10 -72 8 -74 6 -75 3 -76 1 -75 0 -2054 -1078 0 0 2125 -1 38 -1 33 -2 30 -3 28 -4 26 -4 23 -5 20 -5 18 -5 16 -5 13 -5 11 -5 10 -5 8 -4 6 -4 5 -4 5 -4 4 -4 4 -4 3 -5 4 -7 4 -8 4 -10 4 -12 4 -14 4 -16 4 -18 4 -20 3 -23 3 -25 2 -28 1 -30 0 -30 -1 -28 -1 -26 -2 -23 -3 -21 -3 -19 -4 -16 -4 -14 -5 -12 -5 -10 -4 -8 -4 -7 -4 -5 -4 -4 -3 -4 -4 -3 -3 -4 -4 -4 -5 -4 -6 -5 -8 -5 -9 -5 -11 -5 -14 -5 -16 -5 -18 -5 -21 -4 -23 -4 -25 -3 -28 -2 -30 -1 -33 -1 -38 0 -2125 -1075 0zm1527 2349l1 -1 3 -7 3 -10 4 -12 3 -15 3 -18 3 -21 3 -23 2 -26 1 -29 1 -36 0 -2256 1341 0 0 2187 -1 78 -4 80 -6 79 -9 78 -11 77 -14 76 -17 76 -20 74 -24 73 -27 72 -31 71 -35 70 -39 68 -43 65 -47 63 -51 60 -54 57 -58 53 -61 50 -64 45 -66 41 -69 37 -71 33 -72 28 -73 25 -74 21 -75 17 -76 13 -76 10 -77 7 -77 4 -78 1 -78 -1 -78 -4 -77 -7 -76 -10 -76 -14 -75 -17 -74 -21 -73 -25 -72 -29 -71 -33 -69 -37 -67 -41 -64 -45 -61 -50 -58 -53 -55 -57 -51 -60 -47 -63 -43 -65 -39 -68 -35 -69 -31 -70 -27 -72 -24 -74 -20 -74 -17 -75 -14 -76 -11 -77 -8 -78 -6 -79 -4 -80 -1 -77 0 -2187 1338 0 0 2256 0 35 1 29 2 26 3 23 3 20 3 18 4 15 3 12 3 10 3 7 1 2 2 1 8 2 10 3 13 3 15 3 18 2 21 2 24 1 26 0 25 0 43 -3 18 -2 14 -2 12 -3 9 -2 8 -2 2 -1zm-4177 561l21 -3 966 -2308 353 2337 192 0 -408 -2425 -222 0 -898 2107 -865 -2107 -217 0 -372 2425 126 0 371 -2299 954 2272zm-856 -1712l-315 1915 -408 0 410 -2702 424 0 778 1895 807 -1895 428 0 446 2702 -467 0 -323 -1976 -811 1952 -174 1 -795 -1892zm703 2017l310 0 707 -1790 261 1778 678 11 -454 -2960 -613 0 -728 1708 -701 -1708 -610 0 -456 2960 632 0 285 -1759 689 1759zm-607 -1198l-205 1364 -923 0 494 -3238 817 0 614 1496 637 -1496 820 0 491 3238 -952 -13 -256 -1358 -503 1370 -490 0 -544 -1364zm475 1428l630 0 419 -1234 173 1234 1113 0 -508 -3419 -949 0 -582 1366 -561 -1366 -946 0 -531 3419 1096 0 204 -1254 441 1254zm-357 -672l-119 838 -1395 0 570 -3697 1153 0 474 1153 492 -1153 1155 0 544 3697 -1388 0 -121 -800 -260 800 -814 0 -292 -838zm30493 -3229l79 0c27,0 99,1 123,-7 11,-4 19,-10 26,-19 7,-11 10,-25 10,-38 0,-14 -3,-29 -12,-40 -10,-11 -23,-16 -37,-18 -29,-4 -74,-2 -104,-2l-85 0 0 124zm285 484l-114 -171c-21,-31 -49,-77 -75,-104 -9,-10 -20,-18 -32,-23 -17,-6 -45,-6 -63,-6l0 307 -53 0c52,22 108,33 166,33 60,0 118,-12 172,-36zm16 -339c10,8 19,17 28,27 33,35 63,84 88,124l36 57c59,-76 91,-168 91,-265 0,-238 -194,-433 -431,-433 -57,0 -113,11 -165,33l185 0c55,0 129,2 182,22 43,16 76,44 101,83 25,40 37,85 37,133 0,59 -17,113 -57,158 -26,29 -59,48 -94,61zm-512 229l0 -572c-69,78 -108,179 -108,286 0,107 39,208 108,286zm323 -863c317,0 575,259 575,577 0,318 -258,577 -575,577 -317,0 -575,-259 -575,-577 0,-318 258,-577 575,-577zm-1104 1855l0 -911 -2111 0 0 3457 1078 0 0 -1350 1032 4 0 -891 -1059 0 0 -310 1059 0zm-866 165l0 14 1048 0 0 31c0,373 0,747 0,1120l0 31 -1049 -4 0 1349 -1341 0 0 -3721 2391 0 0 1180 -1048 0zm-5995 706l0 -90 -2 -45 -3 -44 -4 -44 -5 -44 -6 -44 -7 -44 -8 -44 -9 -44 -10 -43 -11 -43 -12 -42 -13 -42 -14 -42 -15 -41 -17 -42 -18 -42 -19 -40 -19 -39 -20 -39 -22 -39 -22 -38 -23 -37 -24 -37 -26 -37 -26 -35 -27 -35 -28 -35 -29 -34 -29 -33 -31 -33 -33 -34 -33 -32 -32 -30 -33 -29 -34 -28 -35 -27 -35 -26 -36 -25 -37 -25 -37 -24 -37 -23 -38 -22 -39 -21 -40 -20 -40 -19 -40 -18 -40 -17 -41 -16 -42 -15 -42 -14 -43 -13 -43 -12 -43 -11 -43 -10 -44 -9 -44 -8 -44 -7 -44 -6 -45 -5 -45 -3 -44 -3 -45 -1 -45 -1 -45 1 -45 1 -45 3 -44 3 -44 5 -44 6 -44 7 -44 8 -43 9 -43 10 -43 11 -43 12 -42 13 -42 14 -41 15 -42 16 -41 17 -40 18 -40 19 -39 20 -39 21 -38 22 -38 23 -37 24 -37 25 -36 25 -36 27 -35 27 -34 28 -33 29 -32 30 -32 31 -32 33 -31 33 -30 33 -29 34 -28 35 -27 35 -26 36 -25 36 -24 37 -23 38 -22 38 -21 38 -21 39 -19 40 -19 40 -17 40 -16 41 -16 41 -15 42 -13 42 -12 42 -11 43 -10 43 -9 43 -8 43 -7 44 -6 44 -5 44 -4 45 -3 45 -2 45 0 45 0 44 2 45 3 44 4 44 5 44 6 44 7 44 8 43 9 43 10 43 11 43 12 42 13 42 15 42 16 41 16 40 17 40 19 40 19 39 21 39 21 38 22 38 23 38 24 37 25 36 26 36 27 35 28 34 29 34 30 33 31 33 32 32 33 31 33 30 34 30 34 29 35 28 35 27 36 26 36 25 37 24 38 23 39 22 39 21 39 20 40 19 40 18 41 17 41 16 42 15 42 14 42 13 42 12 43 11 43 10 43 9 43 8 44 7 44 6 44 5 44 4 44 3 45 2 45 0 44 0 45 -2 44 -3 44 -4 44 -5 44 -6 44 -7 44 -8 43 -9 43 -10 43 -11 42 -12 42 -13 42 -14 42 -15 42 -16 41 -17 40 -18 40 -19 39 -20 39 -21 39 -22 38 -23 37 -24 37 -25 36 -26 35 -26 35 -28 34 -28 34 -29 33 -30 33 -31 32 -32 31 -33 30 -33 29 -34 28 -34 27 -35 26 -35 25 -36 24 -37 23 -37 22 -38 22 -38 21 -39 20 -39 19 -40 18 -41 17 -41 16 -41 15 -42 14 -42 12 -42 11 -42 10 -43 9 -43 8 -43 7 -44 6 -44 5 -44 4 -44 3 -44 2 -45zm152 -68l0 96 -2 48 -3 48 -4 48 -5 47 -6 47 -8 47 -9 47 -10 47 -11 46 -12 45 -13 45 -15 45 -16 45 -17 44 -18 44 -19 44 -20 43 -21 42 -22 42 -23 41 -24 41 -25 40 -26 40 -27 39 -28 38 -29 37 -30 37 -31 36 -32 35 -33 35 -34 35 -35 34 -35 32 -36 32 -37 31 -37 29 -38 28 -39 28 -39 26 -40 26 -41 25 -42 24 -42 22 -42 21 -43 21 -43 19 -44 18 -45 17 -45 16 -45 15 -45 14 -45 13 -46 12 -46 11 -46 9 -47 8 -47 7 -47 6 -47 5 -47 4 -47 3 -48 2 -47 1 -48 -1 -48 -2 -48 -3 -47 -4 -47 -5 -47 -6 -47 -7 -47 -8 -46 -9 -46 -11 -46 -12 -45 -13 -45 -14 -45 -15 -45 -16 -44 -17 -44 -18 -43 -20 -43 -21 -42 -21 -41 -22 -42 -24 -41 -25 -39 -25 -39 -26 -39 -28 -38 -29 -37 -30 -37 -31 -36 -32 -35 -32 -35 -34 -34 -35 -33 -35 -32 -36 -31 -36 -30 -37 -29 -38 -28 -38 -27 -39 -26 -39 -25 -40 -24 -41 -23 -41 -22 -42 -21 -42 -20 -43 -19 -43 -18 -43 -17 -45 -16 -46 -14 -45 -13 -45 -12 -46 -11 -46 -10 -46 -9 -46 -8 -47 -6 -47 -5 -47 -4 -48 -3 -48 -2 -48 0 -47 1 -48 2 -48 3 -48 4 -48 5 -47 6 -47 8 -47 9 -47 10 -46 11 -47 12 -47 13 -46 14 -45 16 -46 17 -45 18 -43 19 -43 20 -43 21 -42 22 -42 23 -41 24 -41 25 -41 26 -40 27 -39 28 -38 29 -38 30 -37 31 -36 32 -36 33 -35 34 -35 34 -33 35 -32 36 -32 37 -31 37 -29 38 -29 38 -27 39 -27 40 -26 40 -25 41 -23 42 -23 43 -22 43 -20 43 -19 44 -18 45 -17 44 -16 45 -15 45 -14 46 -13 46 -11 46 -10 47 -9 47 -8 47 -7 47 -6 47 -5 47 -4 47 -3 48 -2 48 -1 48 1 48 2 47 3 48 4 48 5 47 6 46 7 47 8 47 9 46 10 46 12 46 13 46 14 45 15 45 16 44 17 43 18 43 19 43 20 43 21 42 22 41 23 40 24 40 25 39 27 38 27 38 28 37 29 36 30 35 31 35 32 36 34 36 36 33 35 31 35 31 36 30 37 29 38 28 38 27 39 26 40 25 40 24 40 23 42 22 42 21 42 20 43 20 45 18 46 16 44 15 45 14 45 13 46 12 46 11 46 10 47 9 47 7 47 6 47 5 47 4 47 3 47 2 48zm-6767 -1705l0 3457 1078 0 0 -577 423 577 1345 0 -1091 -1453 60 -49 41 -37 38 -39 36 -41 34 -43 31 -45 29 -47 26 -48 23 -49 21 -51 18 -51 15 -52 12 -52 10 -53 8 -53 5 -53 3 -53 1 -54 -1 -61 -3 -60 -6 -59 -8 -59 -11 -59 -14 -58 -17 -57 -20 -57 -24 -56 -27 -54 -30 -52 -34 -51 -37 -49 -40 -46 -42 -43 -46 -41 -48 -38 -49 -34 -51 -31 -52 -28 -54 -25 -110 -42 -57 -17 -58 -15 -58 -12 -59 -10 -60 -8 -61 -6 -62 -4 -63 -3 -61 -1 -902 0zm1964 2044l1175 1565 -1675 0 -225 -307 0 307 -1341 0 0 -3721 1035 0 63 1 66 3 66 5 65 7 65 9 64 11 63 13 63 16 62 19 61 22 60 25 60 28 59 32 57 35 55 38 55 43 52 47 48 49 45 52 42 55 38 58 34 59 31 61 27 63 23 64 19 64 16 64 13 65 9 65 6 65 4 65 1 66 -1 59 -3 59 -6 58 -8 59 -11 59 -14 58 -17 58 -20 58 -23 57 -26 55 -29 54 -32 53 -35 51 -38 49 -41 47 -44 45 -12 11zm8851 -271l0 -90 -2 -45 -3 -44 -4 -44 -5 -44 -6 -44 -7 -44 -8 -44 -9 -44 -10 -43 -11 -43 -12 -42 -13 -42 -14 -42 -15 -41 -17 -42 -18 -42 -18 -40 -20 -39 -20 -39 -22 -39 -22 -38 -23 -37 -24 -37 -26 -37 -26 -35 -27 -35 -28 -35 -29 -34 -29 -33 -31 -33 -33 -34 -33 -32 -32 -29 -33 -29 -34 -28 -35 -27 -35 -26 -36 -25 -37 -25 -37 -24 -37 -23 -38 -22 -39 -21 -40 -20 -40 -19 -40 -18 -40 -17 -41 -16 -41 -15 -42 -14 -43 -13 -43 -12 -43 -11 -43 -10 -44 -9 -44 -8 -44 -7 -44 -6 -45 -5 -45 -3 -44 -3 -45 -1 -45 -1 -45 1 -45 1 -44 3 -44 3 -44 5 -44 6 -44 7 -44 8 -43 9 -43 10 -43 11 -43 12 -42 13 -42 14 -41 15 -42 16 -41 17 -40 18 -40 19 -40 20 -39 21 -38 22 -38 23 -37 24 -37 25 -36 25 -35 27 -35 27 -34 28 -33 29 -32 30 -32 31 -32 33 -31 33 -30 33 -29 34 -28 35 -27 35 -26 36 -25 36 -24 37 -23 38 -22 38 -21 38 -21 39 -19 40 -19 40 -17 40 -16 41 -16 41 -15 42 -13 42 -12 42 -11 43 -10 43 -9 43 -8 43 -7 44 -6 44 -5 44 -4 45 -3 45 -2 45 0 45 0 44 2 45 3 44 4 44 5 44 6 44 7 44 8 43 9 43 10 43 11 43 12 42 13 42 15 42 16 41 16 40 17 40 19 40 20 39 21 39 21 38 22 38 23 38 24 37 25 36 26 36 27 35 28 34 29 34 30 33 31 33 32 32 33 31 33 30 34 30 34 29 35 28 35 27 36 26 36 25 37 24 38 23 39 22 39 21 39 20 40 19 40 18 41 17 41 16 42 15 42 14 42 13 42 12 43 11 43 10 43 9 43 8 44 7 44 6 44 5 44 4 44 3 45 2 45 0 44 0 45 -2 44 -3 44 -4 44 -5 44 -6 44 -7 44 -8 43 -9 43 -10 43 -11 42 -12 42 -13 42 -14 42 -15 42 -16 41 -17 40 -18 40 -19 39 -20 39 -21 39 -22 38 -23 37 -24 37 -25 36 -26 35 -26 35 -28 34 -28 34 -29 33 -30 33 -31 32 -32 31 -33 30 -33 29 -34 28 -34 27 -35 26 -35 25 -36 24 -37 23 -37 22 -38 22 -38 21 -39 20 -39 19 -40 18 -41 17 -41 16 -41 15 -42 14 -42 12 -42 11 -42 10 -43 9 -43 8 -43 7 -44 6 -44 5 -44 4 -44 3 -44 2 -45zm152 -68l0 96 -2 48 -3 48 -4 48 -5 47 -6 47 -8 47 -9 47 -10 47 -11 46 -12 45 -13 45 -15 45 -16 45 -17 44 -18 44 -19 44 -20 43 -21 42 -22 42 -23 41 -24 41 -25 40 -26 40 -27 39 -28 38 -29 37 -30 37 -31 36 -32 35 -33 35 -34 35 -35 34 -35 32 -36 32 -37 31 -37 29 -38 28 -39 28 -39 26 -40 26 -41 25 -42 24 -42 22 -42 21 -43 21 -43 19 -44 18 -45 17 -45 16 -45 15 -45 14 -45 13 -46 12 -46 11 -46 9 -47 8 -47 7 -47 6 -47 5 -47 4 -47 3 -48 2 -47 1 -48 -1 -48 -2 -48 -3 -47 -4 -47 -5 -47 -6 -47 -7 -47 -8 -46 -9 -46 -11 -46 -12 -45 -13 -45 -14 -45 -15 -45 -16 -44 -17 -44 -18 -43 -20 -43 -21 -42 -21 -41 -22 -42 -24 -41 -25 -39 -25 -39 -26 -39 -28 -38 -29 -37 -30 -37 -31 -36 -32 -35 -32 -35 -34 -34 -35 -33 -35 -32 -36 -31 -36 -30 -37 -29 -38 -28 -38 -27 -39 -26 -39 -25 -40 -24 -41 -23 -41 -22 -42 -21 -42 -20 -43 -19 -43 -18 -43 -17 -45 -16 -46 -14 -45 -13 -45 -12 -46 -11 -46 -10 -46 -9 -46 -8 -47 -6 -47 -5 -47 -4 -48 -3 -48 -2 -48 -1 -47 1 -48 2 -48 3 -48 4 -48 5 -47 6 -47 8 -47 9 -47 10 -46 11 -47 12 -46 13 -46 14 -45 16 -46 17 -45 18 -43 19 -43 20 -43 21 -42 22 -42 23 -41 24 -41 25 -40 26 -40 27 -39 28 -38 29 -38 30 -37 31 -36 32 -36 33 -35 34 -35 34 -33 35 -32 36 -32 37 -31 37 -29 38 -29 38 -27 39 -27 40 -26 40 -25 41 -23 42 -23 43 -22 43 -20 43 -19 44 -18 45 -17 44 -16 45 -15 45 -14 46 -13 46 -11 46 -10 47 -9 47 -8 47 -7 47 -6 47 -5 47 -4 47 -3 48 -2 48 -1 48 1 48 2 47 3 48 4 48 5 47 6 46 7 47 8 47 9 46 10 46 12 46 13 46 14 45 15 45 16 44 17 43 18 43 19 43 20 43 21 42 22 41 23 40 24 40 25 39 27 39 27 38 28 38 29 36 30 35 31 35 32 36 34 36 36 33 35 31 35 31 36 30 37 29 38 28 38 27 39 26 40 25 40 24 40 23 42 22 42 21 42 20 43 20 45 18 46 16 44 16 45 14 45 13 46 12 46 11 46 10 47 9 47 7 47 6 47 5 47 4 47 3 47 2 48zm-9316 284l1048 1395 -1152 0 -539 -734 0 734 -924 0 0 -3303 825 0 59 1 60 2 59 4 58 6 57 8 56 10 110 26 54 16 52 18 51 21 50 23 49 26 47 29 45 31 44 35 42 38 39 40 36 42 34 45 31 47 28 48 25 50 22 52 19 52 16 53 13 54 11 55 8 55 6 56 3 57 1 58 -1 51 -3 50 -5 50 -7 50 -9 49 -12 49 -14 48 -16 47 -19 47 -21 45 -24 44 -26 43 -29 42 -31 40 -33 38 -35 36 -37 34 -39 32 -41 30 -41 26zm-1470 -1805l0 3039 661 0 0 -1004 737 1004 821 0 -984 -1310 55 -24 38 -19 37 -21 36 -23 35 -25 33 -27 32 -29 30 -31 28 -32 26 -34 24 -35 22 -37 20 -38 18 -39 16 -40 14 -41 12 -42 10 -42 8 -43 6 -44 4 -44 3 -45 1 -46 -1 -52 -3 -51 -5 -50 -7 -49 -9 -49 -12 -48 -14 -46 -16 -45 -19 -44 -21 -43 -24 -41 -26 -40 -29 -38 -31 -36 -33 -34 -36 -32 -38 -30 -39 -27 -41 -25 -42 -23 -44 -21 -45 -18 -47 -16 -48 -15 -49 -13 -50 -11 -104 -16 -54 -6 -55 -4 -57 -2 -56 -1 -692 0zm583 1723l0 1233 -438 0 0 -2815 580 0 54 1 53 2 52 4 50 5 49 7 47 8 46 10 45 11 43 13 42 15 40 16 39 18 37 20 35 22 34 23 32 25 30 27 28 29 26 30 24 32 22 34 20 35 18 37 16 38 14 39 12 41 10 42 8 43 6 44 5 45 3 47 1 48 -1 42 -2 41 -4 40 -6 39 -7 38 -9 37 -11 36 -12 35 -14 35 -16 33 -17 32 -19 31 -21 30 -23 29 -24 28 -26 26 -27 25 -29 23 -30 22 -31 20 -32 18 -33 17 -34 15 -35 13 -36 12 -37 10 -38 9 -14 3 948 1262 -541 0 -905 -1233zm1153 1077l-936 -1246 62 0c175,0 346,-42 476,-166 127,-123 171,-285 171,-458 0,-193 -47,-383 -200,-512 -165,-138 -408,-169 -615,-169l-447 0 0 2551 175 0 0 -1246 189 0 915 1246 211 0zm-1285 -2382l270 0c153,0 355,19 477,122 118,99 146,261 146,407 0,140 -28,293 -142,386 -121,98 -332,113 -481,113l-270 0 0 -1028zm103 103l0 764 138 0 39 0 37 -1 35 -2 33 -3 31 -3 30 -4 28 -5 26 -5 24 -6 22 -7 20 -7 18 -8 17 -8 15 -8 13 -8 10 -8 21 -20 18 -23 16 -27 14 -32 11 -36 8 -43 5 -49 2 -55 -2 -58 -5 -52 -9 -46 -12 -41 -14 -34 -17 -29 -19 -25 -23 -22 -10 -8 -13 -9 -15 -9 -17 -9 -18 -8 -20 -8 -22 -7 -24 -7 -25 -6 -27 -5 -29 -4 -30 -4 -32 -3 -34 -2 -36 -1 -38 -1 -138 0zm354 669l-54 7 -31 2 -32 2 -34 1 -62 1 0 -540 61 1 33 1 31 2 29 3 27 3 25 4 23 4c46,10 91,22 125,56l2 2 10 12 9 17 9 22 9 30 7 36 5 43 2 50 -2 47 -5 42 -1 4c-24,62 -34,102 -99,130l-2 1 -19 6 -20 5 -22 5 -24 4zm-121 -430l0 268 15 -1 24 -3 22 -3 18 -3c56,-17 44,-16 62,-76 5,-45 4,-87 -8,-130 -13,-43 -88,-48 -134,-51zm5556 741l0 86 -2 43 -3 42 -4 42 -5 42 -6 42 -7 42 -8 42 -9 41 -10 41 -11 40 -12 40 -13 40 -14 40 -15 39 -16 39 -17 39 -18 38 -19 38 -20 37 -21 37 -21 36 -22 36 -23 35 -24 35 -25 34 -26 33 -27 33 -28 32 -28 32 -30 31 -31 31 -32 30 -32 29 -32 28 -33 27 -34 26 -34 25 -35 25 -35 24 -36 23 -36 22 -37 21 -37 20 -38 19 -38 18 -39 17 -39 16 -40 16 -40 14 -40 14 -40 12 -41 12 -41 10 -41 10 -41 8 -42 8 -42 6 -42 5 -42 4 -42 4 -43 2 -43 2 -43 0 -43 0 -43 -2 -43 -2 -42 -4 -42 -4 -42 -5 -42 -6 -42 -8 -41 -8 -41 -10 -41 -10 -40 -11 -41 -12 -40 -14 -40 -15 -39 -16 -39 -16 -39 -17 -38 -18 -37 -19 -37 -20 -37 -21 -36 -22 -35 -23 -35 -24 -35 -25 -34 -26 -33 -26 -33 -27 -32 -28 -32 -29 -31 -30 -31 -31 -29 -31 -29 -32 -27 -32 -27 -33 -26 -34 -25 -34 -24 -35 -23 -35 -22 -36 -21 -36 -20 -37 -20 -37 -19 -38 -18 -38 -17 -38 -16 -38 -15 -40 -14 -40 -13 -40 -12 -40 -11 -41 -10 -41 -9 -41 -8 -41 -7 -42 -6 -42 -5 -42 -4 -42 -2 -42 -2 -43 0 -43 0 -43 2 -43 2 -43 4 -43 5 -42 6 -42 7 -42 8 -42 9 -41 10 -42 11 -41 12 -40 13 -40 14 -40 15 -40 16 -39 17 -39 18 -38 19 -38 20 -37 20 -37 21 -36 22 -36 23 -35 24 -35 25 -34 26 -34 27 -33 28 -32 28 -32 30 -31 31 -31 31 -30 31 -29 32 -28 33 -27 33 -26 34 -25 34 -24 35 -24 36 -23 36 -22 37 -21 37 -20 38 -19 38 -18 38 -17 39 -16 40 -15 40 -14 40 -13 40 -12 41 -11 41 -10 41 -9 42 -8 42 -7 42 -6 42 -5 43 -4 43 -3 43 -2 43 -1 44 -1 44 1 43 2 43 2 43 3 43 4 42 5 42 6 42 7 42 8 41 9 41 10 41 11 41 12 40 13 40 14 39 15 39 16 39 17 38 18 38 19 37 20 37 21 36 22 36 23 35 24 34 24 34 25 33 26 32 27 32 28 31 28 32 30 31 32 29 31 28 32 28 32 27 33 26 34 25 34 24 35 23 35 22 35 21 36 21 37 20 37 19 37 18 38 17 40 16 40 15 39 14 40 13 40 12 41 11 41 10 41 9 42 8 42 7 42 6 42 5 42 4 42 3 42 2 43zm-152 58l0 -80 -1 -40 -2 -39 -3 -39 -4 -39 -5 -39 -6 -39 -7 -39 -8 -38 -9 -38 -10 -38 -11 -37 -12 -37 -13 -37 -14 -36 -15 -37 -16 -36 -16 -35 -17 -35 -18 -34 -19 -34 -20 -33 -21 -33 -22 -33 -22 -32 -23 -31 -24 -31 -25 -31 -26 -30 -26 -29 -27 -29 -29 -29 -29 -28 -29 -26 -29 -26 -30 -25 -31 -24 -31 -23 -32 -22 -32 -22 -33 -21 -33 -20 -34 -19 -34 -18 -35 -18 -35 -17 -36 -16 -36 -15 -36 -14 -37 -13 -37 -12 -38 -12 -38 -10 -38 -10 -38 -9 -39 -8 -39 -7 -39 -6 -39 -5 -40 -4 -40 -3 -40 -2 -40 -1 -41 0 -41 0 -40 1 -40 2 -40 3 -40 4 -39 5 -39 6 -39 7 -39 8 -38 8 -38 9 -38 10 -37 11 -37 12 -37 13 -37 14 -36 15 -35 16 -35 17 -35 18 -34 18 -34 19 -33 20 -33 21 -32 22 -32 23 -31 23 -31 24 -30 25 -30 26 -29 27 -28 27 -28 29 -27 29 -26 30 -26 30 -25 31 -24 31 -23 32 -22 32 -22 33 -21 33 -20 33 -19 34 -18 34 -17 35 -16 35 -15 36 -15 36 -14 37 -13 37 -12 37 -11 37 -10 38 -9 38 -8 38 -7 38 -6 39 -5 39 -4 39 -3 40 -2 40 -1 40 0 40 0 39 1 39 2 39 3 39 4 39 5 39 6 38 7 38 8 38 9 38 10 38 11 37 12 37 13 37 14 36 15 36 15 35 16 35 17 35 18 34 19 34 20 33 21 33 21 32 22 32 23 32 24 31 25 31 26 30 26 30 27 29 28 29 29 28 29 27 30 26 30 25 31 24 31 24 32 23 32 22 33 21 34 20 34 20 34 18 34 18 35 17 36 16 36 15 36 14 37 13 37 13 37 11 37 11 38 10 38 9 38 8 38 7 39 6 39 5 39 4 39 3 40 2 40 1 40 0 40 0 40 -1 39 -2 39 -3 39 -4 39 -5 39 -6 39 -7 38 -8 38 -9 38 -10 38 -11 37 -11 37 -13 37 -13 37 -14 36 -15 36 -16 35 -17 35 -18 34 -19 34 -20 33 -20 33 -21 32 -22 32 -23 31 -24 31 -24 31 -25 30 -26 29 -27 29 -28 28 -28 27 -29 26 -29 26 -30 25 -30 24 -31 23 -31 22 -32 21 -32 21 -33 20 -33 19 -34 18 -34 17 -35 16 -35 16 -36 15 -36 14 -36 13 -37 12 -37 11 -37 10 -37 9 -38 8 -38 7 -38 6 -38 5 -39 4 -39 3 -39 2 -39 1 -40zm-91 -52l0 74 -1 37 -2 37 -3 36 -4 36 -5 36 -6 36 -7 35 -8 35 -8 35 -9 35 -10 35 -11 34 -12 34 -13 34 -14 34 -15 33 -15 33 -16 32 -17 32 -18 31 -18 31 -19 30 -20 30 -21 30 -21 29 -22 29 -23 28 -24 28 -24 27 -25 27 -26 26 -27 26 -27 25 -28 24 -28 23 -29 23 -29 22 -30 21 -30 20 -31 20 -31 19 -32 18 -32 17 -32 17 -33 16 -33 15 -34 14 -34 13 -34 12 -35 12 -35 11 -35 10 -35 9 -35 8 -36 7 -36 7 -36 6 -36 5 -36 4 -37 3 -37 2 -37 1 -37 0 -37 0 -37 -1 -37 -2 -37 -3 -37 -4 -36 -5 -36 -6 -36 -7 -36 -7 -35 -8 -35 -9 -35 -10 -35 -11 -34 -12 -34 -12 -34 -13 -34 -14 -33 -15 -33 -16 -32 -17 -32 -17 -31 -18 -31 -19 -30 -20 -30 -20 -30 -21 -29 -22 -29 -23 -28 -24 -28 -24 -27 -25 -27 -26 -26 -27 -25 -27 -25 -28 -24 -28 -23 -28 -22 -29 -22 -29 -21 -30 -20 -30 -19 -31 -18 -31 -18 -31 -17 -32 -16 -32 -15 -33 -14 -33 -14 -33 -13 -34 -12 -34 -11 -34 -10 -34 -9 -35 -8 -35 -7 -35 -7 -35 -6 -36 -5 -36 -4 -36 -3 -36 -2 -36 -1 -37 0 -37 0 -37 1 -37 2 -37 3 -37 4 -36 5 -36 6 -36 7 -36 7 -35 8 -35 9 -35 10 -35 11 -34 12 -34 13 -34 14 -34 14 -33 15 -33 16 -32 17 -32 17 -32 18 -31 19 -31 20 -30 21 -30 22 -29 22 -29 23 -28 24 -28 25 -28 25 -27 26 -27 26 -25 27 -25 27 -24 28 -23 28 -23 29 -22 29 -21 30 -20 30 -19 31 -19 31 -18 32 -17 32 -16 33 -15 33 -15 34 -14 34 -13 34 -12 34 -11 35 -11 35 -10 35 -9 35 -8 36 -7 36 -6 36 -5 37 -5 37 -4 37 -3 37 -2 38 -1 38 0 38 0 38 1 37 2 37 3 37 4 37 5 36 5 36 6 36 7 36 8 35 9 35 10 35 11 35 11 34 12 34 13 33 14 33 15 33 15 32 16 32 17 31 18 31 19 31 19 30 20 29 21 29 22 29 22 28 23 27 24 27 25 27 26 26 27 25 27 25 28 24 28 23 29 22 29 21 29 21 30 20 30 19 31 18 31 18 32 17 32 16 32 15 33 15 34 13 34 13 34 12 34 11 34 10 35 9 35 8 35 7 35 7 36 6 36 5 36 4 36 3 37 2 37 1 37zm-151 7c0,-179 -33,-352 -101,-517 -70,-165 -170,-311 -297,-437 -127,-124 -273,-221 -438,-286 -169,-68 -347,-99 -528,-99 -181,0 -358,31 -527,98 -165,65 -310,163 -437,287 -127,126 -227,272 -296,437 -69,165 -102,338 -102,517 0,177 33,348 102,512 69,165 170,310 296,435 128,126 276,224 442,293 167,68 342,100 521,100 180,0 355,-32 522,-100 167,-68 315,-166 444,-293 127,-125 226,-269 296,-433 69,-164 103,-336 103,-514zm-1344 1220c-156,0 -308,-27 -452,-87 -143,-60 -268,-148 -377,-258 -110,-112 -196,-242 -256,-387 -60,-146 -88,-299 -88,-457 0,-158 28,-311 88,-457 60,-145 146,-275 256,-387 110,-109 237,-197 380,-257 143,-60 293,-88 449,-88 156,0 308,28 452,88 144,59 271,146 380,257 110,112 196,242 256,387 60,146 88,299 88,457 0,158 -29,311 -89,457 -60,145 -145,275 -255,387 -111,110 -238,197 -382,256 -144,60 -294,88 -450,88zm-48 -158l54 0 26 -1 26 -2 26 -2 26 -3 25 -3 25 -4 25 -5 25 -5 25 -6 24 -6 24 -7 24 -8 24 -8 24 -9 23 -9 47 -21 45 -23 44 -25 43 -27 42 -30 41 -32 40 -34 38 -36 36 -38 34 -40 32 -41 29 -43 27 -44 25 -45 23 -46 21 -48 9 -24 9 -25 8 -25 8 -25 7 -25 6 -25 6 -25 5 -25 5 -25 4 -26 3 -26 3 -26 2 -26 2 -26 1 -27 0 -27 0 -27 -1 -27 -2 -27 -2 -26 -3 -26 -3 -26 -4 -26 -4 -25 -5 -25 -6 -25 -6 -25 -7 -25 -8 -25 -8 -25 -9 -24 -9 -23 -21 -48 -23 -46 -25 -45 -27 -44 -30 -42 -32 -41 -34 -40 -36 -39 -38 -36 -39 -34 -40 -32 -41 -30 -43 -27 -44 -25 -45 -23 -47 -21 -23 -9 -24 -9 -24 -8 -24 -8 -24 -7 -25 -6 -25 -6 -25 -5 -25 -5 -25 -4 -26 -3 -26 -3 -26 -2 -26 -2 -27 -1 -27 0 -27 0 -26 1 -26 2 -26 2 -26 3 -25 3 -25 4 -25 5 -25 5 -24 6 -24 6 -24 7 -24 8 -24 8 -24 9 -23 9 -47 21 -45 23 -44 25 -43 27 -42 30 -41 32 -40 34 -38 36 -36 39 -34 41 -32 42 -30 43 -27 44 -25 45 -23 46 -21 47 -9 23 -9 24 -8 24 -8 24 -7 25 -6 25 -6 25 -5 25 -5 26 -4 26 -3 26 -3 26 -2 27 -2 27 -1 27 0 27 0 27 1 27 2 27 2 26 3 26 3 26 4 26 5 26 5 25 6 25 6 25 7 25 8 25 8 24 9 24 9 23 21 48 23 46 25 45 27 44 29 42 32 41 34 40 36 39 38 37 39 35 40 32 41 30 42 27 43 25 44 23 46 21 23 9 23 9 24 8 24 8 24 7 24 6 25 6 25 5 25 5 26 4 26 3 26 3 26 2 27 2 27 1zm71 -87l-49 0 -24 -1 -24 -1 -24 -2 -23 -2 -23 -3 -23 -4 -23 -4 -22 -5 -22 -5 -22 -6 -21 -6 -21 -7 -21 -7 -20 -8 -19 -8 -42 -19 -39 -20 -38 -22 -37 -24 -37 -26 -36 -29 -35 -31 -34 -33 -33 -35 -31 -36 -28 -37 -26 -38 -24 -39 -22 -40 -20 -41 -19 -43 -8 -20 -8 -21 -7 -22 -7 -22 -6 -22 -6 -22 -5 -22 -5 -23 -4 -23 -4 -23 -3 -23 -2 -24 -2 -24 -1 -24 -1 -24 0 -25 0 -25 1 -24 1 -24 2 -24 3 -24 3 -23 4 -23 4 -23 5 -23 5 -22 6 -22 6 -22 7 -22 7 -22 8 -21 8 -20 19 -43 20 -41 22 -40 24 -39 26 -38 29 -37 31 -37 32 -34 33 -32 36 -31 36 -29 37 -27 38 -24 39 -22 40 -20 42 -19 20 -8 21 -8 21 -7 21 -7 21 -6 22 -6 22 -5 22 -5 22 -4 23 -4 23 -3 23 -3 23 -2 24 -1 24 -1 24 0 24 0 24 1 24 1 23 2 23 2 23 3 23 4 23 4 22 5 22 5 22 6 22 6 21 7 21 7 21 8 20 8 43 19 40 20 39 22 38 24 37 26 36 28 35 31 34 33 32 35 31 36 28 37 26 38 24 39 22 40 20 41 19 43 8 20 8 22 7 22 7 22 6 22 6 22 5 22 5 23 4 23 4 23 3 23 2 23 2 24 1 24 1 24 0 24 0 24 -1 24 -1 24 -2 24 -3 23 -3 23 -4 23 -4 23 -5 23 -5 22 -6 22 -6 22 -7 22 -7 22 -8 22 -8 20 -19 44 -21 41 -23 40 -24 39 -26 38 -28 37 -30 36 -32 34 -34 32 -36 31 -37 29 -37 26 -38 24 -39 22 -40 20 -43 19 -20 8 -21 8 -21 7 -21 7 -22 6 -22 6 -22 5 -22 5 -23 4 -22 4 -23 3 -23 2 -23 2 -23 1 -24 1zm-71 -162l43 0 20 -1 20 -1 20 -2 20 -2 19 -3 19 -3 19 -4 19 -4 18 -4 19 -5 19 -5 18 -6 18 -6 18 -7 17 -7 38 -17 34 -17 33 -19 33 -21 32 -23 32 -25 31 -27 29 -27 27 -29 26 -31 24 -32 23 -33 21 -34 19 -35 18 -36 17 -39 7 -17 7 -19 6 -19 6 -19 5 -19 5 -19 4 -19 4 -19 4 -20 3 -20 3 -20 2 -20 2 -20 1 -21 1 -21 0 -21 0 -21 -1 -21 -1 -21 -2 -21 -2 -20 -3 -20 -3 -20 -4 -19 -4 -19 -4 -19 -5 -19 -5 -19 -6 -19 -6 -19 -7 -19 -6 -16 -17 -38 -18 -35 -19 -35 -21 -33 -23 -33 -25 -32 -27 -31 -28 -30 -29 -28 -30 -26 -31 -24 -31 -22 -32 -20 -33 -19 -34 -17 -38 -17 -17 -7 -18 -7 -19 -6 -18 -6 -18 -5 -19 -5 -19 -4 -19 -4 -19 -4 -20 -3 -20 -3 -20 -2 -20 -2 -21 -1 -21 -1 -21 0 -21 0 -20 1 -21 1 -20 2 -20 2 -20 3 -19 3 -19 3 -19 4 -19 4 -18 5 -18 5 -18 6 -18 6 -18 7 -16 6 -37 17 -34 17 -33 19 -32 21 -32 23 -32 25 -31 27 -28 27 -27 29 -27 32 -25 32 -23 33 -21 34 -19 35 -18 35 -17 38 -6 16 -7 18 -6 19 -6 19 -5 19 -5 19 -4 19 -4 19 -4 20 -3 20 -3 20 -2 20 -2 21 -1 21 -1 21 0 22 0 22 1 21 1 21 2 21 2 20 3 20 3 20 4 20 4 20 4 19 5 19 5 19 6 19 6 19 7 18 7 16 17 38 18 35 19 34 21 34 23 33 24 32 26 31 28 30 30 29 30 27 31 25 31 23 32 21 32 19 33 17 37 16 15 6 17 6 17 6 18 6 18 5 18 5 18 4 19 4 19 3 19 3 20 3 20 2 21 2 21 1 21 1zm67 -47l-40 0 -20 -1 -19 -1 -19 -2 -19 -2 -18 -2 -17 -3 -18 -3 -17 -4 -16 -4 -16 -4 -16 -5 -16 -5 -15 -5 -15 -6 -13 -5 -34 -15 -30 -15 -29 -17 -29 -19 -28 -20 -28 -22 -28 -24 -27 -26 -26 -28 -24 -28 -22 -29 -20 -30 -19 -30 -17 -31 -16 -32 -15 -36 -6 -14 -6 -16 -6 -17 -5 -17 -5 -18 -4 -17 -4 -17 -4 -18 -3 -18 -3 -18 -2 -18 -2 -19 -2 -19 -1 -19 -1 -19 0 -20 0 -20 1 -19 1 -19 2 -19 2 -19 2 -18 3 -18 3 -18 4 -17 4 -17 4 -17 5 -17 5 -17 6 -16 6 -16 6 -14 15 -35 16 -32 18 -31 19 -31 21 -30 23 -30 25 -29 24 -26 25 -24 29 -25 29 -23 29 -21 29 -19 30 -17 31 -15 34 -15 14 -6 16 -6 16 -6 16 -5 16 -5 17 -4 17 -4 17 -4 17 -3 17 -3 18 -2 18 -2 18 -1 19 -1 19 -1 19 0 19 0 19 1 19 1 19 2 18 2 18 2 18 3 17 3 17 4 17 4 17 4 17 5 16 5 17 6 16 6 15 6 35 15 31 15 30 17 29 18 28 20 28 22 27 24 26 25 25 27 24 28 22 29 20 30 19 30 18 31 16 32 15 35 5 14 6 17 6 17 5 17 5 17 5 17 4 17 4 17 3 17 3 18 2 18 2 18 1 19 1 19 1 19 0 19 0 19 -1 19 -1 19 -1 18 -2 18 -2 19 -3 18 -3 18 -4 17 -4 17 -5 17 -5 17 -5 17 -6 17 -6 17 -6 14 -16 36 -16 33 -18 31 -19 30 -21 30 -22 29 -24 28 -24 25 -26 24 -28 24 -29 22 -29 20 -30 19 -30 17 -31 15 -35 15 -14 6 -16 6 -16 6 -17 5 -17 5 -17 4 -16 4 -17 4 -18 3 -17 3 -17 2 -18 2 -18 1 -18 1 -19 1zm-62 -157l34 0 15 -1 15 -1 15 -1 15 -2 14 -2 14 -2 14 -3 14 -3 13 -3 13 -3 14 -4 13 -4 13 -5 13 -5 11 -4 30 -13 25 -13 24 -14 24 -15 24 -17 24 -19 24 -20 21 -20 19 -20 20 -23 18 -24 17 -24 16 -25 14 -26 13 -27 13 -31 4 -11 5 -14 5 -14 4 -14 4 -14 4 -14 3 -14 3 -14 3 -15 2 -15 2 -16 2 -15 1 -15 1 -16 0 -16 0 -16 0 -17 0 -16 -1 -16 -1 -16 -2 -15 -2 -15 -2 -15 -3 -14 -3 -14 -3 -14 -4 -14 -4 -14 -4 -14 -5 -14 -5 -14 -4 -10 -13 -29 -13 -26 -14 -26 -15 -25 -17 -24 -18 -24 -20 -24 -21 -23 -22 -21 -22 -20 -23 -18 -23 -16 -23 -15 -24 -13 -25 -12 -29 -13 -11 -4 -13 -5 -14 -5 -13 -4 -13 -4 -14 -4 -14 -3 -14 -3 -14 -3 -15 -2 -15 -2 -15 -2 -15 -1 -16 -1 -16 -1 -16 0 -16 0 -15 0 -16 1 -15 1 -15 2 -15 2 -14 2 -14 2 -14 3 -13 3 -13 4 -13 4 -13 4 -13 5 -13 5 -10 4 -29 13 -25 12 -24 14 -24 15 -24 17 -24 19 -24 21 -20 19 -19 20 -21 24 -19 25 -17 25 -16 25 -14 26 -13 26 -13 30 -4 10 -5 13 -5 13 -4 14 -4 14 -4 14 -3 13 -3 14 -3 15 -2 15 -2 15 -2 15 -1 16 -1 16 -1 16 0 17 0 17 1 16 1 15 1 16 2 16 2 15 2 14 3 16 3 15 3 13 4 14 4 15 4 14 5 13 5 13 4 10 13 31 13 26 14 25 16 25 17 24 18 24 20 23 22 23 23 22 23 20 23 18 23 17 23 15 23 13 24 12 28 13 9 4 12 4 12 4 13 4 13 4 13 3 13 3 14 3 14 3 14 2 15 2 15 2 16 1 16 1 17 1zm7590 -1460l0 405 1039 0 0 784 -1025 0 0 1350 -894 0 0 -3315 1957 0 0 776 -1078 0zm-769 2366l606 0 0 -1350 1025 0 0 -495 -1025 0 0 -675 1064 0 0 -506 -1669 0 0 3027zm540 -2559l0 792 1057 0 0 400 -1057 0 0 1295 -407 0 0 -2860 1503 0 0 372 -1096 0zm-296 2310l119 0 0 -1295 1057 0 0 -111 -1057 0 0 -1081 1096 0 0 -83 -1215 0 0 2571zm-1063 -1278l0 86 -2 43 -3 42 -4 42 -5 42 -6 42 -7 42 -8 42 -9 41 -10 41 -11 40 -12 40 -13 40 -14 40 -15 39 -16 39 -17 39 -18 38 -19 38 -20 37 -21 37 -21 36 -22 36 -23 35 -24 35 -25 34 -26 33 -27 33 -28 32 -28 32 -30 31 -31 31 -32 30 -32 29 -32 28 -33 27 -34 26 -34 25 -35 25 -35 24 -36 23 -36 22 -37 21 -37 20 -38 19 -38 18 -39 17 -39 16 -40 16 -40 14 -40 14 -40 12 -41 12 -41 10 -41 10 -41 8 -42 8 -42 6 -42 5 -42 4 -42 4 -43 2 -43 2 -43 0 -43 0 -43 -2 -43 -2 -42 -4 -42 -4 -42 -5 -42 -6 -42 -8 -41 -8 -41 -10 -41 -10 -40 -11 -41 -12 -40 -14 -40 -15 -39 -16 -39 -16 -39 -17 -38 -18 -37 -19 -37 -20 -37 -21 -36 -22 -35 -23 -35 -24 -35 -25 -34 -26 -33 -26 -33 -27 -32 -28 -32 -29 -31 -30 -31 -31 -29 -31 -29 -32 -27 -32 -27 -33 -26 -34 -25 -34 -24 -35 -23 -35 -22 -36 -21 -36 -20 -37 -20 -37 -19 -38 -18 -38 -17 -38 -16 -38 -15 -40 -14 -40 -13 -40 -12 -40 -11 -41 -10 -41 -9 -41 -8 -41 -7 -42 -6 -42 -5 -42 -4 -42 -2 -42 -2 -43 0 -43 0 -43 2 -43 2 -43 4 -43 5 -42 6 -42 7 -42 8 -42 9 -41 10 -42 11 -41 12 -40 13 -40 14 -40 15 -40 16 -39 17 -39 18 -38 19 -38 20 -37 20 -37 21 -36 22 -36 23 -35 24 -35 25 -34 26 -34 27 -33 28 -32 28 -32 30 -31 31 -31 31 -30 31 -29 32 -28 33 -27 33 -26 34 -25 34 -24 35 -24 36 -23 36 -22 37 -21 37 -20 38 -19 38 -18 38 -17 39 -16 40 -15 40 -14 40 -13 40 -12 41 -11 41 -10 41 -9 42 -8 42 -7 42 -6 42 -5 43 -4 43 -3 43 -2 43 -1 44 -1 44 1 43 2 43 2 43 3 43 4 42 5 42 6 42 7 42 8 41 9 41 10 41 11 41 12 40 13 40 14 39 15 39 16 39 17 38 18 38 19 37 20 37 21 36 22 36 23 35 24 34 24 34 25 33 26 32 27 32 28 31 28 32 30 31 32 29 31 28 32 28 32 27 33 26 34 25 34 24 35 23 35 22 35 21 36 21 37 20 37 19 37 18 38 17 40 16 40 15 39 14 40 13 40 12 41 11 41 10 41 9 42 8 42 7 42 6 42 5 42 4 42 3 42 2 43zm-152 58l0 -80 -1 -40 -2 -39 -3 -39 -4 -39 -5 -39 -6 -39 -7 -39 -8 -38 -9 -38 -10 -38 -11 -37 -12 -37 -13 -37 -14 -36 -15 -37 -16 -36 -16 -35 -17 -35 -18 -34 -19 -34 -20 -33 -21 -33 -22 -33 -22 -32 -23 -31 -24 -31 -25 -31 -26 -30 -26 -29 -27 -29 -29 -29 -29 -28 -29 -26 -29 -26 -30 -25 -31 -24 -31 -23 -32 -22 -32 -22 -33 -21 -33 -20 -34 -19 -34 -18 -35 -18 -35 -17 -36 -16 -36 -15 -36 -14 -37 -13 -37 -12 -38 -12 -38 -10 -38 -10 -38 -9 -39 -8 -39 -7 -39 -6 -39 -5 -40 -4 -40 -3 -40 -2 -40 -1 -41 0 -41 0 -40 1 -40 2 -40 3 -40 4 -39 5 -39 6 -39 7 -39 8 -38 8 -38 9 -38 10 -37 11 -37 12 -37 13 -37 14 -36 15 -35 16 -35 17 -35 18 -34 18 -34 19 -33 20 -33 21 -32 22 -32 23 -31 23 -31 24 -30 25 -30 26 -29 27 -28 27 -28 29 -27 29 -26 30 -26 30 -25 31 -24 31 -23 32 -22 32 -22 33 -21 33 -20 33 -19 34 -18 34 -17 35 -16 35 -15 36 -15 36 -14 37 -13 37 -12 37 -11 37 -10 38 -9 38 -8 38 -7 38 -6 39 -5 39 -4 39 -3 40 -2 40 -1 40 0 40 0 39 1 39 2 39 3 39 4 39 5 39 6 38 7 38 8 38 9 38 10 38 11 37 12 37 13 37 14 36 15 36 15 35 16 35 17 35 18 34 19 34 20 33 21 33 21 32 22 32 23 32 24 31 25 31 26 30 26 30 27 29 28 29 29 28 29 27 30 26 30 25 31 24 31 24 32 23 32 22 33 21 34 20 34 20 34 18 34 18 35 17 36 16 36 15 36 14 37 13 37 13 37 11 37 11 38 10 38 9 38 8 38 7 39 6 39 5 39 4 39 3 40 2 40 1 40 0 40 0 40 -1 39 -2 39 -3 39 -4 39 -5 39 -6 39 -7 38 -8 38 -9 38 -10 38 -11 37 -11 37 -13 37 -13 37 -14 36 -15 36 -16 35 -17 35 -18 34 -19 34 -20 33 -20 33 -21 32 -22 32 -23 31 -24 31 -24 31 -25 30 -26 29 -27 29 -28 28 -28 27 -29 26 -29 26 -30 25 -30 24 -31 23 -31 22 -32 21 -32 21 -33 20 -33 19 -34 18 -34 17 -35 16 -35 16 -36 15 -36 14 -36 13 -37 12 -37 11 -37 10 -37 9 -38 8 -38 7 -38 6 -38 5 -39 4 -39 3 -39 2 -39 1 -40zm-91 -52l0 74 -1 37 -2 37 -3 36 -4 36 -5 36 -6 36 -7 35 -8 35 -8 35 -9 35 -10 35 -11 34 -12 34 -13 34 -14 34 -15 33 -15 33 -16 32 -17 32 -18 31 -18 31 -19 30 -20 30 -21 30 -21 29 -22 29 -23 28 -24 28 -24 27 -25 27 -26 26 -27 26 -27 25 -28 24 -28 23 -29 23 -29 22 -30 21 -30 20 -31 20 -31 19 -32 18 -32 17 -32 17 -33 16 -33 15 -34 14 -34 13 -34 12 -35 12 -35 11 -35 10 -35 9 -35 8 -36 7 -36 7 -36 6 -36 5 -36 4 -37 3 -37 2 -37 1 -37 0 -37 0 -37 -1 -37 -2 -37 -3 -37 -4 -36 -5 -36 -6 -36 -7 -36 -7 -35 -8 -35 -9 -35 -10 -35 -11 -34 -12 -34 -12 -34 -13 -34 -14 -33 -15 -33 -16 -32 -17 -32 -17 -31 -18 -31 -19 -30 -20 -30 -20 -30 -21 -29 -22 -29 -23 -28 -24 -28 -24 -27 -25 -27 -26 -26 -27 -25 -27 -25 -28 -24 -28 -23 -28 -22 -29 -22 -29 -21 -30 -20 -30 -19 -31 -18 -31 -18 -31 -17 -32 -16 -32 -15 -33 -14 -33 -14 -33 -13 -34 -12 -34 -11 -34 -10 -34 -9 -35 -8 -35 -7 -35 -7 -35 -6 -36 -5 -36 -4 -36 -3 -36 -2 -36 -1 -37 0 -37 0 -37 1 -37 2 -37 3 -37 4 -36 5 -36 6 -36 7 -36 7 -35 8 -35 9 -35 10 -35 11 -34 12 -34 13 -34 14 -34 14 -33 15 -33 16 -32 17 -32 18 -32 18 -31 19 -31 20 -30 21 -30 22 -29 22 -29 23 -28 24 -28 25 -28 25 -27 26 -27 26 -25 27 -25 27 -24 28 -23 28 -23 29 -22 29 -21 30 -20 30 -19 31 -19 31 -18 32 -17 32 -16 33 -15 33 -15 34 -14 34 -13 34 -12 34 -11 35 -11 35 -10 35 -9 35 -8 36 -7 36 -6 36 -5 37 -5 37 -4 37 -3 37 -2 38 -1 38 0 38 0 38 1 37 2 37 3 37 4 37 5 36 5 36 6 36 7 36 8 35 9 35 10 35 11 35 11 34 12 34 13 33 14 33 15 33 15 32 16 32 17 31 18 31 19 31 19 30 20 29 21 29 22 29 22 28 23 27 24 27 25 27 26 26 27 25 27 25 28 24 28 23 29 22 29 21 29 21 30 20 30 19 31 18 31 18 32 17 32 16 32 15 33 15 34 14 34 13 34 12 34 11 34 10 35 9 35 8 35 7 35 7 36 6 36 5 36 4 36 3 37 2 37 1 37zm-151 7c0,-179 -33,-352 -101,-517 -70,-165 -170,-311 -297,-437 -127,-124 -273,-221 -438,-286 -169,-68 -347,-99 -528,-99 -181,0 -358,31 -527,98 -165,65 -310,163 -437,287 -127,126 -227,272 -296,437 -69,165 -102,338 -102,517 0,177 33,348 102,512 69,165 170,310 296,435 128,126 276,224 442,293 167,68 342,100 521,100 180,0 355,-32 522,-100 167,-68 315,-166 444,-293 127,-125 226,-269 296,-433 69,-164 103,-336 103,-514zm-1344 1220c-156,0 -308,-27 -452,-87 -143,-60 -268,-148 -377,-258 -110,-112 -196,-242 -256,-387 -60,-146 -88,-299 -88,-457 0,-158 28,-311 88,-457 60,-145 146,-275 256,-387 110,-109 237,-197 380,-257 143,-60 293,-88 449,-88 156,0 308,28 452,88 144,59 271,146 380,257 110,112 196,242 256,387 60,146 88,299 88,457 0,158 -29,311 -89,457 -60,145 -145,275 -255,387 -111,110 -238,197 -382,256 -144,60 -294,88 -450,88zm-48 -158l54 0 26 -1 26 -2 26 -2 26 -3 25 -3 25 -4 25 -5 25 -5 25 -6 24 -6 24 -7 24 -8 24 -8 24 -9 23 -9 47 -21 45 -23 44 -25 43 -27 42 -30 41 -32 40 -34 38 -36 36 -38 34 -40 32 -41 29 -43 27 -44 25 -45 23 -46 21 -48 9 -24 9 -25 8 -25 8 -25 7 -25 6 -25 6 -25 5 -25 5 -25 4 -26 3 -26 3 -26 2 -26 2 -26 1 -27 0 -27 0 -27 -1 -27 -2 -27 -2 -26 -3 -26 -3 -26 -4 -26 -5 -25 -5 -25 -6 -25 -6 -25 -7 -25 -8 -25 -8 -25 -9 -24 -9 -23 -21 -48 -23 -46 -25 -45 -27 -44 -30 -42 -32 -41 -34 -40 -36 -39 -38 -36 -39 -34 -40 -32 -41 -30 -43 -27 -44 -25 -45 -23 -47 -21 -23 -9 -24 -9 -24 -8 -24 -8 -24 -7 -25 -6 -25 -6 -25 -5 -25 -5 -25 -4 -26 -3 -26 -3 -26 -2 -26 -2 -27 -1 -27 0 -27 0 -26 1 -26 2 -26 2 -26 3 -25 3 -25 4 -25 5 -25 5 -24 6 -24 6 -24 7 -24 8 -24 8 -24 9 -23 9 -47 21 -45 23 -44 25 -43 27 -42 30 -41 32 -40 34 -38 36 -36 39 -34 41 -32 42 -30 43 -27 44 -25 45 -23 46 -21 47 -9 23 -9 24 -8 24 -8 24 -7 25 -6 25 -6 25 -5 25 -5 26 -4 26 -3 26 -3 26 -2 27 -2 27 -1 27 0 27 0 27 1 27 2 27 2 26 3 26 3 26 4 26 5 26 5 25 6 25 6 25 7 25 8 25 8 24 9 24 9 23 21 48 23 46 25 45 27 44 29 42 32 41 34 40 36 39 38 37 39 35 40 32 41 30 42 27 43 25 44 23 46 21 23 9 23 9 24 8 24 8 24 7 24 6 25 6 25 5 25 5 26 4 26 3 26 3 26 2 27 2 27 1zm71 -87l-49 0 -24 -1 -24 -1 -24 -2 -23 -2 -23 -3 -23 -4 -23 -4 -22 -5 -22 -5 -22 -6 -21 -6 -21 -7 -21 -7 -20 -8 -19 -8 -42 -19 -39 -20 -38 -22 -37 -24 -37 -26 -36 -29 -35 -31 -34 -33 -33 -35 -31 -36 -28 -37 -26 -38 -24 -39 -22 -40 -20 -41 -19 -43 -8 -20 -8 -21 -7 -22 -7 -22 -6 -22 -6 -22 -5 -22 -5 -23 -4 -23 -4 -23 -3 -23 -2 -24 -2 -24 -1 -24 -1 -24 0 -25 0 -25 1 -24 1 -24 2 -24 3 -24 3 -23 4 -23 4 -23 5 -23 5 -22 6 -22 6 -22 7 -22 7 -22 8 -21 8 -20 19 -43 20 -41 22 -40 24 -39 26 -38 29 -37 31 -37 32 -34 33 -32 36 -31 36 -29 37 -27 38 -24 39 -22 40 -20 42 -19 20 -8 21 -8 21 -7 21 -7 21 -6 22 -6 22 -5 22 -5 22 -4 23 -4 23 -3 23 -3 23 -2 24 -1 24 -1 24 0 24 0 24 1 24 1 23 2 23 2 23 3 23 4 23 4 22 5 22 5 22 6 22 6 21 7 21 7 21 8 20 8 43 19 40 20 39 22 38 24 37 26 36 28 35 31 34 33 32 35 31 36 28 37 26 38 24 39 22 40 20 41 19 43 8 20 8 22 7 22 7 22 6 22 6 22 5 22 5 23 4 23 4 23 3 23 2 23 2 24 1 24 1 24 0 24 0 24 -1 24 -1 24 -2 24 -3 23 -3 23 -4 23 -4 23 -5 23 -5 22 -6 22 -6 22 -7 22 -7 22 -8 22 -8 20 -19 44 -21 41 -22 40 -24 39 -26 38 -28 37 -30 36 -32 34 -34 32 -36 31 -37 29 -37 26 -38 24 -39 22 -40 20 -43 19 -20 8 -21 8 -21 7 -21 7 -22 6 -22 6 -22 5 -22 5 -22 4 -22 4 -23 3 -23 2 -23 2 -23 1 -24 1zm-71 -162l43 0 20 -1 20 -1 20 -2 20 -2 19 -3 19 -3 19 -4 19 -4 18 -4 19 -5 19 -5 18 -6 18 -6 18 -7 17 -7 38 -17 34 -17 33 -19 33 -21 32 -23 32 -25 31 -27 29 -27 27 -29 26 -31 24 -32 23 -33 21 -34 19 -35 18 -36 17 -39 7 -17 7 -19 6 -19 6 -19 5 -19 5 -19 4 -19 4 -19 4 -20 3 -20 3 -20 2 -20 2 -20 1 -21 1 -21 0 -21 0 -21 -1 -21 -1 -21 -2 -21 -2 -20 -3 -20 -3 -20 -4 -19 -4 -19 -4 -19 -5 -19 -5 -19 -6 -19 -6 -19 -7 -19 -6 -16 -17 -38 -18 -35 -19 -35 -21 -33 -23 -33 -25 -32 -27 -31 -28 -30 -29 -28 -30 -26 -31 -24 -31 -22 -32 -20 -33 -19 -34 -17 -38 -17 -17 -7 -18 -7 -19 -6 -18 -6 -18 -5 -19 -5 -19 -4 -19 -4 -19 -4 -20 -3 -20 -3 -20 -2 -20 -2 -21 -1 -21 -1 -21 0 -21 0 -20 1 -21 1 -20 2 -20 2 -20 3 -19 3 -19 3 -19 4 -19 4 -18 5 -18 5 -18 6 -18 6 -18 7 -16 6 -37 17 -34 17 -33 19 -32 21 -32 23 -32 25 -31 27 -28 27 -27 29 -27 32 -25 32 -23 33 -21 34 -19 35 -18 35 -17 38 -6 16 -7 18 -6 19 -6 19 -5 19 -5 19 -4 19 -4 19 -4 20 -3 20 -3 20 -2 20 -2 21 -1 21 -1 21 0 22 0 22 1 21 1 21 2 21 2 20 3 20 3 20 4 20 4 20 4 19 5 19 5 19 6 19 6 19 7 18 7 16 17 38 18 35 19 34 21 34 23 33 24 32 26 31 28 30 30 29 30 27 31 25 32 23 32 21 32 19 33 17 37 16 15 6 17 6 17 6 18 6 18 5 18 5 18 4 19 4 19 3 19 3 20 3 20 2 21 2 21 1 21 1zm67 -47l-40 0 -20 -1 -19 -1 -19 -2 -18 -2 -18 -2 -17 -3 -18 -3 -17 -4 -16 -4 -16 -4 -16 -5 -16 -5 -15 -5 -15 -6 -13 -5 -34 -15 -30 -15 -29 -17 -29 -19 -28 -20 -28 -22 -28 -24 -27 -26 -26 -28 -24 -28 -22 -29 -20 -30 -19 -30 -17 -31 -16 -32 -15 -36 -6 -14 -6 -16 -6 -17 -5 -17 -5 -18 -4 -17 -4 -17 -4 -18 -3 -18 -3 -18 -2 -18 -2 -19 -2 -19 -1 -19 -1 -19 0 -20 0 -20 1 -19 1 -19 2 -19 2 -19 2 -18 3 -18 3 -18 4 -17 4 -17 4 -17 5 -17 5 -17 6 -16 6 -16 6 -14 15 -35 16 -32 18 -31 19 -31 21 -30 23 -30 25 -29 24 -26 25 -24 29 -25 29 -23 29 -21 29 -19 30 -17 31 -15 34 -15 14 -6 16 -6 16 -6 16 -5 16 -5 17 -4 17 -4 17 -4 17 -3 17 -3 18 -2 18 -2 18 -1 19 -1 19 -1 19 0 19 0 19 1 19 1 19 2 18 2 18 2 18 3 17 3 17 4 17 4 17 4 17 5 16 5 17 6 16 6 15 6 35 15 31 15 30 17 29 18 28 20 28 22 27 24 26 25 25 27 24 28 22 29 20 30 19 30 18 31 16 32 15 35 5 14 6 17 6 17 5 17 5 17 5 17 4 17 4 17 3 17 3 18 2 18 2 18 1 19 1 19 1 19 0 19 0 19 -1 19 -1 19 -1 18 -2 18 -2 19 -3 18 -3 18 -4 17 -4 17 -5 17 -5 17 -5 17 -6 17 -6 17 -6 14 -16 36 -16 33 -18 31 -19 30 -21 30 -22 29 -24 28 -24 25 -26 24 -28 24 -29 22 -29 20 -30 19 -30 17 -31 15 -35 15 -14 6 -16 6 -16 6 -17 5 -17 5 -17 4 -16 4 -17 4 -18 3 -17 3 -17 2 -18 2 -18 1 -18 1 -19 1zm-62 -157l34 0 15 -1 15 -1 15 -1 15 -2 14 -2 14 -2 14 -3 14 -3 13 -3 13 -3 14 -4 13 -4 13 -5 13 -5 11 -4 30 -13 25 -13 24 -14 24 -15 24 -17 24 -19 24 -20 21 -20 19 -20 20 -23 18 -24 17 -24 16 -25 14 -26 13 -27 13 -31 4 -11 5 -14 5 -14 4 -14 4 -14 4 -14 3 -14 3 -14 3 -15 2 -15 2 -16 2 -15 1 -15 1 -16 1 -16 0 -16 0 -17 0 -16 -1 -16 -1 -16 -2 -15 -2 -15 -2 -15 -3 -14 -3 -14 -3 -14 -4 -14 -4 -14 -4 -14 -5 -14 -5 -14 -4 -10 -13 -29 -13 -26 -14 -26 -15 -25 -17 -24 -18 -24 -20 -24 -21 -23 -22 -21 -22 -20 -23 -18 -23 -16 -23 -15 -24 -13 -25 -12 -29 -13 -11 -4 -13 -5 -14 -5 -13 -4 -13 -4 -14 -4 -14 -3 -14 -3 -14 -3 -15 -2 -15 -2 -15 -2 -15 -1 -16 -1 -16 -1 -16 0 -16 0 -15 0 -16 1 -15 1 -15 2 -15 2 -14 2 -14 2 -14 3 -13 3 -13 4 -13 4 -13 4 -13 5 -13 5 -10 4 -29 13 -25 12 -24 14 -24 15 -24 17 -24 19 -24 21 -20 19 -19 20 -21 24 -19 25 -17 25 -16 25 -14 26 -13 26 -13 30 -4 10 -5 13 -5 13 -4 14 -4 14 -4 14 -3 13 -3 14 -3 15 -2 15 -2 15 -2 15 -1 16 -1 16 -1 16 0 17 0 17 1 16 1 15 1 16 2 16 2 15 2 14 3 16 3 15 3 13 4 14 4 15 4 14 5 13 5 13 4 10 13 31 13 26 14 25 16 25 17 24 18 24 20 23 22 23 23 22 23 20 23 18 23 17 23 15 23 13 24 12 28 13 9 4 12 4 12 4 13 4 13 4 13 3 13 3 14 3 14 3 14 2 15 2 15 2 16 1 16 1 17 1z"/>
  <g id="_878134576">
   <polygon class="fil2" points="9284,11883 9132,11883 9132,9661 9284,9661 "/>
   <polygon class="fil2" points="9516,11883 9365,11883 9365,9661 9516,9661 "/>
   <polygon class="fil2" points="9734,11883 9583,11883 9583,9661 9734,9661 "/>
   <path class="fil2" d="M9436 8589l-155 4 -153 12 -151 20 -149 28 -146 35 -143 43 -140 50 -137 57 -134 63 -130 70 -127 76 -123 82 -119 88 -114 94 -110 99 -105 105 -100 110 -95 115 -90 119 -85 124 -79 128 -73 132 -67 136 -61 140 -54 143 -48 146 -41 149 -34 152 -27 155 -19 157 -12 160 -4 162 0 2 0 18 -148 0 0 -18c0,-2 0,0 0,-2 0,-1089 518,-2122 1412,-2747 520,-363 1129,-559 1763,-559 634,0 1243,196 1763,559 894,624 1412,1658 1412,2747 0,1 0,1 0,2l0 18 -148 0 1 -20 -4 -162 -12 -160 -19 -157 -27 -155 -34 -152 -41 -149 -48 -146 -54 -143 -61 -140 -67 -136 -73 -132 -79 -128 -85 -124 -90 -119 -95 -115 -100 -110 -105 -105 -110 -99 -114 -94 -119 -88 -123 -82 -127 -76 -130 -70 -134 -63 -137 -57 -140 -50 -143 -43 -146 -35 -149 -28 -151 -20 -153 -12 -155 -4z"/>
   <polygon class="fil2" points="9436,8824 9292,8827 9150,8839 9010,8857 8873,8883 8737,8916 8605,8955 8475,9001 8348,9053 8224,9112 8103,9176 7986,9247 7872,9323 7762,9404 7656,9491 7554,9583 7457,9680 7364,9781 7275,9887 7192,9998 7114,10112 7040,10231 6973,10353 6911,10479 6855,10608 6804,10740 6760,10876 6722,11014 6691,11155 6666,11298 6648,11444 6637,11592 6634,11742 6634,11743 6634,11762 6486,11762 6486,11742 6490,11584 6501,11428 6520,11275 6546,11124 6579,10976 6619,10831 6665,10688 6718,10549 6777,10413 6843,10281 6914,10152 6991,10027 7073,9907 7161,9791 7254,9679 7352,9572 7454,9470 7561,9374 7673,9282 7789,9197 7908,9116 8032,9042 8159,8974 8290,8913 8424,8858 8560,8809 8700,8768 8843,8734 8987,8706 9135,8687 9284,8675 9436,8671 9587,8675 9737,8687 9884,8706 10029,8734 10172,8768 10311,8809 10448,8858 10582,8913 10712,8975 10840,9043 10963,9117 11083,9197 11199,9283 11310,9374 11417,9471 11520,9573 11618,9679 11711,9791 11798,9907 11881,10028 11958,10152 12029,10281 12094,10413 12153,10549 12206,10689 12252,10831 12292,10976 12325,11125 12351,11275 12370,11429 12381,11584 12385,11742 12385,11744 12385,11762 12237,11762 12237,11742 12234,11592 12223,11444 12205,11298 12180,11155 12149,11014 12111,10876 12067,10741 12017,10608 11961,10479 11899,10353 11831,10231 11758,10113 11680,9998 11596,9888 11508,9782 11415,9680 11317,9583 11216,9491 11109,9404 11000,9323 10886,9247 10768,9176 10648,9112 10524,9053 10397,9001 10267,8955 10134,8916 9999,8883 9862,8857 9722,8839 9580,8827 "/>
   <polygon class="fil2" points="9436,9058 9303,9061 9173,9072 9044,9089 8918,9113 8794,9142 8672,9179 8553,9221 8436,9269 8322,9323 8211,9382 8103,9447 7998,9517 7897,9592 7799,9672 7706,9756 7616,9845 7530,9939 7449,10037 7372,10138 7300,10244 7233,10353 7170,10465 7113,10581 7062,10700 7016,10821 6975,10945 6940,11072 6911,11202 6889,11334 6872,11468 6862,11604 6859,11742 6859,11744 6859,11762 6711,11762 6711,11742 6715,11596 6725,11452 6742,11311 6766,11171 6797,11035 6834,10900 6877,10769 6925,10640 6980,10515 7040,10393 7106,10274 7177,10159 7253,10047 7334,9940 7420,9837 7511,9738 7606,9644 7705,9554 7808,9470 7915,9391 8025,9317 8140,9248 8257,9185 8378,9129 8501,9078 8627,9033 8756,8995 8888,8963 9022,8938 9158,8920 9296,8909 9436,8905 9576,8909 9714,8920 9850,8938 9984,8963 10115,8995 10244,9033 10371,9078 10494,9129 10615,9186 10732,9248 10846,9317 10957,9391 11064,9470 11167,9555 11266,9644 11361,9738 11451,9837 11537,9940 11618,10048 11694,10159 11765,10274 11831,10393 11891,10515 11946,10641 11995,10769 12038,10901 12074,11035 12105,11172 12129,11311 12146,11453 12157,11596 12160,11742 12160,11762 12012,11762 12012,11742 12009,11604 11999,11468 11983,11334 11960,11202 11931,11073 11896,10946 11856,10822 11810,10700 11758,10581 11701,10466 11639,10353 11572,10244 11499,10139 11423,10037 11341,9939 11256,9846 11166,9757 11072,9672 10975,9592 10873,9517 10769,9447 10661,9382 10550,9323 10436,9269 10319,9221 10200,9179 10078,9143 9954,9113 9827,9089 9699,9072 9568,9061 "/>
   <polygon class="fil2" points="9436,9292 9315,9295 9196,9305 9078,9321 8963,9342 8850,9369 8739,9402 8630,9441 8524,9485 8420,9534 8318,9588 8220,9647 8124,9711 8032,9779 7943,9852 7857,9930 7775,10011 7697,10097 7622,10186 7552,10279 7486,10375 7425,10475 7368,10577 7316,10683 7269,10791 7227,10902 7190,11015 7158,11131 7132,11249 7111,11369 7096,11491 7087,11616 7084,11742 7084,11744 7084,11762 6936,11762 6936,11742 6939,11608 6949,11476 6965,11346 6987,11219 7015,11093 7049,10970 7088,10850 7133,10732 7183,10617 7238,10505 7298,10396 7363,10290 7433,10188 7508,10089 7587,9994 7670,9904 7757,9817 7848,9735 7943,9658 8041,9585 8142,9517 8247,9454 8355,9396 8465,9344 8579,9298 8695,9257 8813,9222 8933,9193 9056,9170 9180,9153 9307,9143 9436,9140 9564,9143 9691,9153 9816,9170 9939,9193 10059,9222 10177,9257 10293,9298 10406,9344 10517,9397 10624,9454 10729,9517 10831,9585 10929,9658 11024,9735 11115,9817 11202,9904 11285,9995 11364,10090 11438,10188 11508,10290 11573,10396 11634,10505 11689,10617 11739,10732 11784,10850 11823,10971 11857,11094 11884,11219 11906,11347 11922,11476 11932,11608 11935,11742 11935,11744 11935,11762 11787,11762 11787,11742 11784,11616 11775,11492 11760,11369 11739,11249 11713,11132 11682,11016 11645,10902 11602,10791 11555,10683 11503,10578 11447,10475 11385,10375 11319,10279 11249,10186 11175,10097 11097,10011 11015,9930 10929,9853 10840,9780 10747,9711 10652,9647 10553,9588 10452,9534 10348,9485 10242,9441 10133,9402 10022,9369 9909,9342 9793,9321 9676,9305 9557,9295 "/>
   <polygon class="fil2" points="9056,9563 9056,11883 8905,11883 8905,9597 8806,9626 8708,9661 8611,9700 8517,9745 8426,9794 8337,9847 8250,9905 8167,9967 8086,10033 8008,10103 7934,10177 7863,10254 7796,10335 7732,10419 7673,10506 7617,10596 7566,10689 7519,10785 7476,10882 7438,10983 7405,11085 7376,11190 7352,11296 7334,11405 7320,11515 7312,11628 7309,11742 7309,11743 7309,11762 7162,11762 7161,11742 7164,11620 7173,11500 7187,11382 7207,11266 7233,11152 7263,11040 7299,10930 7340,10823 7385,10719 7436,10617 7491,10517 7550,10421 7613,10328 7681,10238 7753,10152 7829,10069 7908,9991 7991,9916 8078,9845 8167,9779 8259,9717 8355,9660 8453,9607 8553,9560 8656,9518 8762,9480 8869,9449 8978,9422 9090,9401 9203,9386 9319,9377 9436,9374 9553,9377 9668,9386 9782,9401 9893,9422 10003,9449 10110,9481 10215,9518 10318,9560 10419,9608 10517,9660 10612,9717 10705,9779 10794,9845 10880,9916 10963,9991 11043,10070 11118,10152 11190,10239 11258,10329 11322,10422 11381,10518 11436,10617 11486,10719 11532,10824 11572,10931 11608,11040 11639,11152 11664,11266 11684,11382 11698,11500 11707,11620 11710,11742 11710,11744 11710,11762 11562,11762 11562,11742 11560,11628 11551,11516 11538,11405 11519,11297 11495,11190 11467,11086 11433,10983 11395,10883 11353,10785 11306,10690 11254,10597 11199,10507 11139,10420 11076,10335 11008,10255 10938,10177 10863,10103 10786,10033 10705,9967 10621,9905 10535,9847 10446,9794 10354,9745 10260,9701 10164,9661 10066,9626 9966,9597 9966,11883 9815,11883 9815,9563 9759,9552 9653,9538 9545,9530 9436,9527 9326,9530 9218,9538 9113,9552 "/>
   <polygon class="fil2" points="6262,15113 6252,15113 6252,15269 6262,15269 6301,15269 12517,15269 12583,15269 12614,15269 12614,15113 12583,15113 12517,15113 6301,15113 "/>
   <polygon class="fil2" points="8905,14901 8905,13191 9056,13191 9056,14901 9132,14901 9132,13191 9284,13191 9284,14901 9365,14901 9365,13191 9516,13191 9516,14901 9583,14901 9583,13191 9734,13191 9734,14901 9815,14901 9815,13191 9966,13191 9966,14901 11552,14901 11552,11968 11703,11968 11703,14901 11780,14901 11780,11968 11931,11968 11931,14901 12012,14901 12012,11968 12163,11968 12163,14901 12230,14901 12230,11968 12381,11968 12381,14901 12462,14901 12462,11968 12614,11968 12614,14856 12614,15004 12614,15058 12583,15058 12517,15058 6301,15058 6262,15058 6252,15058 6252,15004 6252,14934 6252,11968 6403,11968 6403,14901 6479,14901 6479,11968 6631,11968 6631,14901 6711,14901 6711,11968 6863,11968 6863,14901 6929,14901 6929,11968 7081,11968 7081,14901 7162,14901 7162,11968 7313,11968 7313,14901 "/>
  </g>
 </g>
</svg>
