<?xml version="1.0" encoding="UTF-8"?>
<!DOCTYPE svg PUBLIC "-//W3C//DTD SVG 1.1//EN" "http://www.w3.org/Graphics/SVG/1.1/DTD/svg11.dtd">
<!-- Creator: CorelDRAW X6 -->
<svg xmlns="http://www.w3.org/2000/svg" xml:space="preserve" width="210mm" height="297mm" version="1.1" style="shape-rendering:geometricPrecision; text-rendering:geometricPrecision; image-rendering:optimizeQuality; fill-rule:evenodd; clip-rule:evenodd"
viewBox="0 0 21000 29700"
 xmlns:xlink="http://www.w3.org/1999/xlink">
 <defs>
  <style type="text/css">
   <![CDATA[
    .fil0 {fill:#CBDA06}
    .fil1 {fill:#005BA8}
    .fil2 {fill:#005BA8;fill-rule:nonzero}
   ]]>
  </style>
 </defs>
 <g id="Layer_x0020_1">
  <metadata id="CorelCorpID_0Corel-Layer"/>
  <g id="_699834112">
   <path class="fil0" d="M5385 7379l0 -2819c2285,1473 4052,3323 5365,5211 -416,555 -798,1114 -1150,1668 -1112,-1417 -2488,-2797 -4215,-4060z"/>
   <path class="fil0" d="M5385 10344l0 -2331c1618,1271 2843,2695 3771,4149 -305,515 -583,1023 -840,1520 -685,-1156 -1615,-2287 -2931,-3339z"/>
   <path class="fil0" d="M7353 15712l-1968 0 0 -4807c1251,1096 2044,2305 2555,3531 -212,438 -407,865 -587,1276z"/>
   <path class="fil1" d="M5438 4000l11606 0c-2424,1482 -4314,3279 -5803,5137 -1489,-1858 -3379,-3655 -5803,-5137z"/>
   <path class="fil1" d="M11218 10546c-795,1655 -1343,3410 -1704,5221l3462 -29c-408,-1775 -852,-3535 -1758,-5192z"/>
   <path class="fil0" d="M17097 10906l0 4807 -1968 0c-180,-411 -375,-837 -587,-1276 511,-1226 1303,-2435 2555,-3531z"/>
   <path class="fil0" d="M17097 8014l0 2331c-1316,1052 -2246,2183 -2931,3339 -257,-497 -535,-1006 -840,-1520 928,-1455 2154,-2878 3771,-4149z"/>
   <path class="fil0" d="M17097 4560l0 2819c-1727,1263 -3103,2643 -4215,4060 -351,-554 -733,-1113 -1150,-1668 1313,-1888 3079,-3739 5364,-5211z"/>
  </g>
  <path class="fil2" d="M-1740 18735l-1582 0 0 461 524 0 0 1855 527 0 0 -1855 530 0 0 -461zm1306 0l-668 0 -611 2316 533 0 126 -539 533 0 135 539 545 0 -593 -2316zm-557 1378l105 -464c7,-33 14,-70 22,-112 8,-41 16,-83 25,-127 8,-44 17,-87 25,-129 8,-42 16,-81 24,-117l6 0c8,35 16,74 24,116 9,41 17,84 25,128 8,43 17,86 25,127 8,41 16,79 24,114l102 464 -408 0zm2760 -1378l-1582 0 0 461 524 0 0 1855 527 0 0 -1855 530 0 0 -461zm1306 0l-668 0 -611 2316 533 0 126 -539 533 0 135 539 545 0 -593 -2316zm-557 1378l105 -464c7,-33 14,-70 22,-112 8,-41 16,-83 25,-127 8,-44 17,-87 25,-129 9,-42 16,-81 24,-117l6 0c8,35 16,74 24,116 8,41 17,84 25,128 8,43 17,86 25,127 8,41 16,79 24,114l102 464 -408 0zm2727 491l-767 0 0 -1870 -527 0 0 2316 1294 0 0 -446zm1160 -1903c-125,0 -239,21 -342,61 -103,40 -194,98 -274,171 -79,73 -146,160 -201,260 -54,100 -96,209 -124,328 -28,119 -42,244 -42,375 0,128 12,250 37,368 25,117 63,225 113,325 50,99 114,186 189,260 76,74 165,131 266,172 102,41 216,62 344,62 147,0 280,-26 399,-78 120,-51 222,-129 309,-231 86,-102 152,-230 199,-383 46,-152 70,-329 70,-531 0,-94 -8,-188 -23,-282 -15,-93 -39,-183 -72,-269 -32,-86 -74,-167 -124,-240 -50,-74 -110,-138 -180,-193 -70,-55 -150,-98 -240,-128 -90,-31 -192,-46 -304,-47zm-15 434c67,1 126,20 177,59 51,39 93,92 127,161 33,68 59,147 76,237 16,89 25,185 25,287 0,113 -9,217 -25,311 -17,94 -43,175 -77,244 -34,68 -76,121 -126,158 -50,37 -109,56 -176,57 -67,-1 -126,-20 -177,-56 -52,-37 -95,-90 -130,-158 -35,-68 -62,-148 -80,-241 -18,-93 -26,-195 -26,-306 0,-100 8,-196 25,-286 17,-90 42,-170 76,-240 34,-70 77,-125 129,-165 52,-40 113,-61 183,-61zm2951 581l-773 0 0 416 276 0 0 485c-15,8 -37,13 -65,16 -28,3 -61,5 -99,5 -80,0 -154,-15 -223,-44 -69,-30 -130,-75 -182,-135 -52,-60 -93,-136 -122,-227 -29,-91 -44,-198 -45,-321 0,-132 17,-245 50,-339 32,-94 78,-172 137,-232 59,-60 128,-104 207,-133 79,-28 165,-43 259,-42 65,0 122,4 173,10 51,7 97,16 138,27 40,12 78,25 111,40l99 -437c-34,-16 -77,-31 -130,-45 -53,-14 -113,-25 -182,-34 -68,-9 -143,-13 -224,-13 -130,0 -255,16 -374,48 -119,32 -228,79 -327,143 -99,64 -186,144 -259,240 -73,96 -131,208 -171,336 -40,128 -61,272 -61,432 0,121 12,237 36,346 23,109 59,209 106,301 47,91 106,170 176,238 92,90 206,158 340,205 134,46 293,70 475,70 62,0 125,-4 188,-10 62,-7 123,-15 181,-26 58,-11 112,-22 161,-35 49,-13 91,-26 126,-39l0 -1243zm1480 -983l-668 0 -611 2316 533 0 126 -539 533 0 135 539 545 0 -593 -2316zm-557 1378l105 -464c7,-33 14,-70 22,-112 8,-41 16,-83 25,-127 8,-44 17,-87 25,-129 9,-42 16,-81 24,-117l6 0c8,35 16,74 24,116 9,41 17,84 25,128 8,43 17,86 25,127 8,41 16,79 24,114l102 464 -408 0zm3557 -1378l-635 0 -198 746c-23,90 -45,182 -67,277 -22,94 -42,188 -62,282 -19,94 -37,185 -53,275l-12 0c-23,-137 -50,-275 -80,-414 -31,-139 -63,-278 -96,-416l-186 -749 -644 0 -159 2316 473 0 39 -824c4,-84 9,-174 13,-270 4,-97 9,-196 13,-297 4,-101 7,-200 10,-296l9 0c16,95 34,192 53,290 19,97 39,192 59,283 20,91 40,173 59,248l207 824 399 0 228 -830c21,-75 44,-157 67,-248 24,-90 47,-184 71,-281 24,-97 45,-192 65,-286l9 0c-1,102 -1,204 1,304 2,100 4,198 8,292 4,94 8,182 12,264l33 827 497 0 -132 -2316zm2415 1870l-767 0 0 -1870 -527 0 0 2316 1294 0 0 -446zm1603 6l-788 0 0 -539 704 0 0 -431 -704 0 0 -464 743 0 0 -440 -1270 0 0 2316 1315 0 0 -440zm1600 -1804c-37,-18 -80,-35 -130,-50 -50,-15 -106,-27 -169,-37 -62,-9 -130,-14 -204,-14 -134,1 -253,18 -357,54 -103,35 -191,85 -262,149 -71,64 -125,138 -161,223 -37,85 -55,176 -55,275 1,138 47,263 140,376 93,112 231,211 414,295 80,35 145,69 196,101 51,32 88,66 113,102 24,36 36,77 36,123 0,46 -12,87 -36,122 -24,35 -61,62 -109,82 -49,20 -110,29 -184,30 -62,0 -124,-6 -186,-17 -61,-11 -119,-26 -174,-44 -54,-18 -102,-37 -144,-59l-90 443c37,20 85,39 144,58 59,18 126,32 200,44 73,11 150,17 228,18 140,-1 265,-18 374,-53 109,-35 201,-85 277,-149 75,-64 132,-140 171,-228 39,-88 59,-185 59,-291 1,-96 -17,-185 -53,-268 -36,-82 -92,-158 -169,-227 -77,-69 -177,-131 -299,-186 -93,-42 -168,-79 -223,-112 -55,-32 -95,-65 -119,-97 -24,-32 -36,-70 -35,-112 0,-38 11,-74 33,-106 22,-32 56,-58 101,-77 44,-19 101,-29 169,-30 62,0 118,5 170,15 51,10 96,22 136,37 39,15 73,29 101,43l99 -434zm1816 -72l-1582 0 0 461 524 0 0 1855 527 0 0 -1855 530 0 0 -461zm1306 0l-668 0 -611 2316 533 0 126 -539 533 0 135 539 545 0 -593 -2316zm-557 1378l105 -464c7,-33 14,-70 22,-112 8,-41 16,-83 25,-127 8,-44 17,-87 25,-129 9,-42 16,-81 24,-117l6 0c8,35 16,74 24,116 8,41 17,84 25,128 8,43 17,86 25,127 8,41 16,79 24,114l102 464 -408 0zm2589 -156c72,-28 136,-70 194,-124 57,-54 103,-119 137,-195 34,-75 51,-159 52,-250 -1,-105 -16,-195 -46,-270 -30,-74 -70,-136 -122,-185 -51,-49 -109,-88 -173,-117 -64,-29 -130,-50 -199,-64 -68,-13 -135,-22 -199,-26 -64,-4 -123,-6 -175,-5 -80,0 -158,2 -233,7 -75,4 -146,10 -213,17 -66,7 -126,16 -181,24l0 2283 524 0 0 -902 102 0c58,-1 108,9 147,30 39,20 72,57 98,109 26,52 47,125 63,218 17,91 35,174 52,248 18,74 34,136 50,187 16,51 28,88 38,110l545 0c-11,-23 -23,-58 -37,-104 -14,-46 -28,-100 -43,-160 -14,-60 -30,-124 -45,-190 -15,-66 -30,-130 -45,-193 -17,-74 -39,-140 -65,-197 -25,-57 -57,-106 -94,-146 -37,-40 -82,-70 -135,-91l0 -12zm-632 -198l0 -626c15,-4 36,-8 65,-11 28,-3 63,-4 105,-4 31,0 65,4 101,12 36,9 71,24 103,46 33,22 60,54 80,96 21,41 32,95 32,160 0,63 -14,120 -41,169 -27,48 -67,87 -120,115 -52,28 -115,42 -189,43l-138 0zm1366 1291l527 0 0 -2316 -527 0 0 2316z"/>
 </g>
</svg>
