<?xml version="1.0" encoding="UTF-8"?>
<!DOCTYPE svg PUBLIC "-//W3C//DTD SVG 1.1//EN" "http://www.w3.org/Graphics/SVG/1.1/DTD/svg11.dtd">
<!-- Creator: CorelDRAW X6 -->
<svg xmlns="http://www.w3.org/2000/svg" xml:space="preserve" width="210mm" height="297mm" version="1.1" style="shape-rendering:geometricPrecision; text-rendering:geometricPrecision; image-rendering:optimizeQuality; fill-rule:evenodd; clip-rule:evenodd"
viewBox="0 0 21000 29700"
 xmlns:xlink="http://www.w3.org/1999/xlink">
 <defs>
  <style type="text/css">
   <![CDATA[
    .fil0 {fill:#FEFEFE}
    .fil1 {fill:#006A3D}
    .fil3 {fill:#006A41}
    .fil2 {fill:#006A3D;fill-rule:nonzero}
   ]]>
  </style>
 </defs>
 <g id="Layer_x0020_1">
  <metadata id="CorelCorpID_0Corel-Layer"/>
  <g id="_646926304">
   <g>
    <path class="fil0" d="M17250 24073l215 -1015 2446 0 -471 2194 405 0 0 -1545 4663 0 0 -15184 -3849 0 -1384 1384 2504 0 1545 2406 -2941 8074 -2674 1671 -5099 0 0 -711c-49,-154 -129,-335 -186,-474 -175,-430 -360,-857 -546,-1282l-121 -277 2718 -7394 2528 -2013 2029 0 -1384 -1384 -26336 0 -1384 1384 7060 0 -1554 4514 -2052 0 -2768 7636 -4710 0 2768 -7636 -2239 0 1555 -4514 1698 0 -1384 -1384 -3849 0 0 15184 4593 0 139 -649 6602 0 164 1029c43,-110 98,-215 166,-316 182,-268 436,-462 733,-589 295,-126 615,-174 934,-174 696,0 1337,209 1700,698 108,-110 227,-209 356,-296 231,-156 484,-276 758,-334 215,-46 435,-68 655,-68 582,0 1147,162 1541,613 337,386 496,858 496,1369 0,208 -30,417 -75,621 -60,267 -171,520 -311,754 -162,271 -374,501 -629,686 -229,167 -480,302 -753,374 -231,62 -468,90 -707,90 -542,0 -1066,-139 -1475,-509 -53,-48 -102,-98 -148,-150 -152,176 -338,318 -547,430 -337,178 -734,229 -1110,229 -361,0 -739,-45 -1071,-193l23 143 -2454 0 -7 -78 -37 78 -3076 0 -151 -347 -72 347 -2448 0 282 -1318 -6513 0 0 -20066 7064 0 732 732 732 -732 27881 0 732 732 732 -732 7064 0 0 20066 -6262 0 -276 1318 -5075 0 -7 -78 -37 78 -12198 0 941 -4409 13054 0 162 1015zm-24477 714l-351 306 83 169 268 -475zm12482 -12522l110 -341 2541 -2017 4775 0 1538 2395 -1052 3156 -1641 0 1068 1442 -1313 3489 -2670 1668 -5099 0 0 -711c-49,-154 -129,-335 -186,-474 -175,-430 -360,-856 -546,-1282l-95 -218 -989 2685 -8952 0 3691 -10137 2529 -2013 4776 0 1515 2359zm-355 1096l-1274 3458 11 -29 1571 0c-6,-11 -12,-21 -18,-32 -234,-416 -477,-829 -721,-1240l-173 -292 604 -1865z"/>
    <g>
     <path class="fil1" d="M-11473 10659l7409 0 -1036 3009 -2044 0 -2768 7636 -3108 0 2768 -7636 -2257 0 1036 -3009zm-5760 -3825l5999 0 1044 1044 1044 -1044 27258 0 1044 1044 1044 -1044 5999 0 0 18561 -5599 0 0 -936 4663 0 0 -16689 -4914 0 -1193 1193 -1193 -1193 -26959 0 -1193 1193 -1193 -1193 -4914 0 0 16689 4663 0 0 936 -5599 0 0 -18561zm21685 5571l-3279 8899 -3082 0 1493 -3974 -1206 0 -1646 3974 -2910 0 3250 -8927 2157 -1717 4102 0 1121 1746zm-3548 1263l-1107 0 -724 1888 1221 0 610 -1888zm9583 1646l-2337 0 594 -1646 1145 0 -383 1036 3122 0 766 -2299 -1121 -1746 -4102 0 -2157 1713 -894 2763c766,1294 1121,1940 1064,1940l2470 0 -568 1362 -1197 0 374 -894 -3108 0 -681 1746c587,1344 852,2015 795,2015l4130 0 2271 -1419 1079 -2867 -1261 -1703zm6654 3122l-1150 0 1845 -4755 1053 14 -1748 4740zm4229 -7778l-4102 0 -2157 1717 -2541 6912c587,1344 852,2015 795,2015l4130 0 2271 -1419 2725 -7480 -1121 -1746z"/>
     <path class="fil2" d="M-7252 23810l-1257 1095 889 1808 -970 0 -547 -1257 -633 544 -149 713 -905 0 620 -2902 905 0 -236 1085 8 9 1095 -1095 1180 0zm2859 2902l-879 0 -40 -475 -946 0 -226 475 -966 0 1639 -2902 956 0 462 2902zm-977 -1091l-89 -1058 -8 0 -499 1058 595 0zm4407 -1006l-839 46c-19,-252 -160,-378 -422,-378 -107,0 -189,23 -247,68 -57,46 -86,100 -86,164 0,46 24,90 70,132 46,41 155,95 328,159 220,85 397,164 535,239 137,76 249,173 337,293 87,120 131,270 131,449 0,169 -47,326 -142,472 -94,145 -230,266 -407,360 -178,94 -430,141 -758,141 -460,0 -787,-89 -980,-265 -193,-177 -289,-404 -289,-681l0 -68 843 -57c0,181 40,309 120,383 80,75 190,112 331,112 143,0 251,-31 326,-93 75,-62 112,-132 112,-212 0,-59 -24,-114 -72,-165 -47,-50 -164,-109 -350,-176 -426,-153 -696,-295 -809,-424 -113,-130 -170,-285 -170,-468 0,-166 47,-318 140,-455 93,-137 228,-243 406,-320 177,-76 390,-114 638,-114 785,0 1204,285 1254,855zm2215 -855c442,0 767,118 974,355 207,237 310,528 310,874 0,133 -19,286 -57,456 -39,171 -112,348 -222,531 -109,182 -251,338 -426,465 -175,128 -343,213 -504,255 -161,43 -332,64 -512,64 -415,0 -738,-105 -970,-315 -232,-210 -349,-504 -349,-883 0,-198 29,-391 86,-579 57,-188 143,-366 257,-533 114,-167 255,-307 422,-420 167,-113 331,-187 493,-221 162,-34 328,-51 498,-51zm-382 2340c173,0 320,-66 441,-196 120,-131 209,-295 264,-494 55,-199 83,-341 83,-425 0,-186 -47,-326 -142,-422 -94,-95 -215,-143 -361,-143 -164,0 -305,60 -423,179 -118,120 -207,279 -266,478 -59,198 -89,368 -89,508 0,148 44,270 131,368 87,97 207,147 362,147zm7032 -2291l-626 2902 -746 0 537 -2217 -12 0 -1075 2217 -661 0 -125 -2217 -8 0 -418 2217 -746 0 620 -2902 1095 0 109 1839 8 0 920 -1839 1129 0zm3173 0l-132 624 -1473 0 -97 462 1420 0 -130 588 -1418 0 -123 568 1598 0 -143 662 -2493 0 620 -2902 2372 0zm3326 0l-149 713 -942 0 -474 2189 -901 0 472 -2189 -901 0 150 -713 2744 0zm2502 2902l-879 0 -40 -475 -946 0 -226 475 -966 0 1639 -2902 956 0 462 2902zm-977 -1091l-89 -1058 -8 0 -499 1058 595 0zm4017 382l-149 709 -2340 0 616 -2902 905 0 -471 2194 1439 0z"/>
    </g>
   </g>
   <path class="fil3" d="M22570 11494l0 -1087 512 0c129,0 222,10 280,29 58,20 105,54 140,104 35,50 52,107 52,171 0,82 -27,149 -80,202 -53,53 -133,87 -238,100 53,28 96,58 130,91 34,33 80,92 138,176l147 212 -290 0 -176 -237c-62,-85 -105,-138 -128,-160 -23,-22 -47,-37 -73,-45 -26,-8 -66,-12 -122,-12l-49 0 0 454 -243 0zm243 -628l180 0c117,0 189,-4 218,-13 29,-9 52,-24 68,-46 16,-22 25,-49 25,-82 0,-37 -11,-66 -33,-89 -22,-23 -52,-37 -92,-43 -20,-2 -79,-4 -177,-4l-189 0 0 276zm257 -624c419,0 762,337 762,751 0,414 -342,751 -762,751 -419,0 -762,-337 -762,-751 0,-414 342,-751 762,-751zm0 -125c489,0 889,393 889,876 0,482 -399,876 -889,876 -489,0 -889,-393 -889,-876 0,-482 399,-876 889,-876z"/>
  </g>
 </g>
</svg>
