<?xml version="1.0" encoding="UTF-8"?>
<!DOCTYPE svg PUBLIC "-//W3C//DTD SVG 1.1//EN" "http://www.w3.org/Graphics/SVG/1.1/DTD/svg11.dtd">
<!-- Creator: CorelDRAW X6 -->
<svg xmlns="http://www.w3.org/2000/svg" xml:space="preserve" width="210mm" height="297mm" version="1.1" style="shape-rendering:geometricPrecision; text-rendering:geometricPrecision; image-rendering:optimizeQuality; fill-rule:evenodd; clip-rule:evenodd"
viewBox="0 0 21000 29700"
 xmlns:xlink="http://www.w3.org/1999/xlink">
 <defs>
  <style type="text/css">
   <![CDATA[
    .fil1 {fill:#E62129}
    .fil0 {fill:#FEFEFE}
    .fil2 {fill:#FFF000}
    .fil4 {fill:#474443}
    .fil3 {fill:#474443;fill-rule:nonzero}
   ]]>
  </style>
 </defs>
 <g id="Layer_x0020_1">
  <metadata id="CorelCorpID_0Corel-Layer"/>
  <g id="_877896672">
   <path class="fil0" d="M23325 15890l0 415 -88 0 0 1024 -841 0 0 980 -1759 0 0 -846c-89,153 -204,292 -341,416 -183,162 -396,288 -633,374 -240,87 -494,129 -753,129 -260,0 -514,-41 -756,-129 -239,-87 -451,-214 -635,-378 -167,-149 -301,-323 -395,-518 -95,195 -229,369 -396,520l-2 2c-183,162 -395,287 -632,373 -241,87 -494,129 -753,129 -260,0 -514,-41 -756,-129 -239,-87 -451,-214 -634,-378 -13,-12 -27,-24 -40,-37l338 470 -5019 0 -97 -346 -289 0 -93 346 -6914 0 0 -811c-31,74 -69,146 -117,213 -157,221 -370,390 -630,504 -269,118 -562,168 -860,168 -299,0 -592,-49 -862,-167 -261,-114 -474,-283 -630,-504 -14,-19 -27,-39 -39,-59 -77,134 -183,257 -318,365 -327,262 -733,366 -1162,366 -232,0 -461,-31 -684,-89 -234,-60 -457,-150 -667,-259l-258 -134 480 -1070c-158,-185 -228,-406 -228,-642 0,-377 152,-705 463,-953 254,-203 557,-307 881,-342l-1106 0 -77 -537 5003 -1218c712,-3840 4385,-6693 8675,-6693 4290,0 7963,2853 8675,6693l5003 1218 -64 448c126,-88 283,-141 453,-141 410,0 744,305 744,680 0,97 -23,191 -65,278l218 311 -525 0c-112,59 -240,91 -372,91 -165,0 -318,-50 -442,-133zm-159 -947c14,-17 28,-34 44,-49l-4049 0c173,18 342,56 506,115 238,85 450,211 634,374l3 3c134,121 245,258 332,408l0 -851 2530 0zm-4508 -49l-3065 0c173,18 342,56 506,115 238,85 450,211 634,374l3 3c165,150 296,323 390,516 94,-195 227,-369 394,-518 183,-163 395,-289 632,-375 164,-59 333,-97 506,-115zm-5236 2048c-31,29 -64,55 -99,78l215 300c-1,-2 -2,-5 -3,-7 -53,-120 -90,-244 -113,-371zm237 -1222c80,-123 178,-235 292,-337 183,-163 395,-289 632,-375 164,-59 333,-97 506,-115l-17377 0c116,12 230,32 343,60 157,38 309,92 455,156l0 -167 5026 0c194,0 392,17 580,63l-41 -63 2052 0 120 253 117 -253 3478 0 642 1677 0 -1677 1700 0c397,0 809,72 1121,310 171,130 285,289 354,467zm-5852 127l-699 1027 0 764 699 -1791zm-2745 599c-33,144 -96,279 -196,401 -56,68 -120,126 -191,174l667 929 0 -1077 -280 -426zm-6552 -286l-39 86c13,11 26,21 39,33l0 -118zm16831 683c47,0 84,-7 115,-39 45,-46 53,-113 53,-171 0,-60 -9,-129 -54,-176 -32,-33 -67,-40 -114,-40 -48,0 -83,7 -116,41 -45,47 -55,115 -55,174 0,58 8,125 53,170 33,33 70,40 118,40zm3568 0c47,0 84,-7 115,-39 45,-46 53,-113 53,-171 0,-60 -9,-129 -54,-176 -32,-33 -67,-40 -114,-40 -48,0 -83,7 -116,41 -45,47 -55,115 -55,174 0,58 8,125 53,170 33,33 70,40 118,40z"/>
   <g>
    <path class="fil1" d="M18108 13385l4929 1200 -13305 0 -13305 0 4929 -1200c587,-3740 4123,-6631 8376,-6631 4253,0 7789,2891 8376,6631z"/>
    <path class="fil2" d="M3119 12956l1087 -265 -2242 -187 1155 452zm12141 -265l1087 265 1155 -452 -2242 187zm-5527 -1346l4203 1023 2507 -2072 -3801 1559 2014 -3331 -3041 2601 721 -3748 -1952 3362 -651 -3759 -651 3759 -1952 -3362 721 3748 -3041 -2601 2014 3331 -3801 -1559 2507 2072 4203 -1023z"/>
    <g>
     <path class="fil1" d="M-3933 17766l345 -770c155,99 293,171 414,217 121,46 235,69 340,69 74,0 133,-13 175,-38 43,-26 64,-60 64,-105 0,-76 -106,-135 -319,-174 -69,-14 -122,-24 -161,-32 -225,-50 -397,-139 -516,-267 -119,-128 -179,-287 -179,-477 0,-296 116,-536 348,-721 232,-185 536,-278 911,-278 173,0 343,21 510,62 167,41 336,104 506,188l-329 719c-104,-70 -208,-124 -314,-161 -105,-37 -206,-55 -305,-55 -75,0 -133,12 -175,35 -41,23 -62,56 -62,97 0,78 150,146 451,205 48,10 85,18 111,23 207,42 370,130 489,261 119,131 179,290 179,477 0,304 -120,553 -361,746 -241,193 -554,289 -939,289 -197,0 -394,-26 -592,-77 -198,-51 -395,-128 -592,-231zm2814 -1024l0 -1491 1082 0 0 1498c0,174 23,294 68,360 45,66 122,99 232,99 108,0 185,-34 232,-101 47,-68 70,-187 70,-357l0 -1498 1082 0 0 1491c0,195 -14,356 -42,483 -28,126 -73,232 -135,317 -121,171 -285,303 -493,394 -208,92 -446,137 -713,137 -269,0 -508,-46 -716,-137 -208,-91 -373,-223 -493,-394 -60,-84 -104,-189 -131,-314 -27,-125 -41,-287 -41,-486zm4388 -783l0 537 168 0c103,0 182,-23 237,-69 55,-46 84,-111 84,-196 0,-88 -28,-155 -84,-202 -55,-47 -134,-71 -237,-71l-168 0zm-1061 2042l0 -2750 1362 0c394,0 696,79 905,239 208,159 312,389 312,687 0,196 -53,357 -157,483 -105,127 -246,201 -425,222l804 1120 -1213 0 -526 -907 0 907 -1061 0zm3505 0l0 -1215 -1008 -1535 1234 0 253 533c23,46 50,115 82,206 3,9 5,16 6,21 15,-44 41,-108 78,-193 7,-15 12,-26 15,-32l248 -535 1226 0 -1045 1535 0 1215 -1090 0zm3080 -1000l450 0 -92 -312c-46,-158 -77,-280 -93,-365 -17,-85 -27,-165 -31,-240l-18 0c-4,75 -15,155 -31,240 -17,85 -48,207 -93,365l-93 312zm-1436 1000l1073 -2750 1205 0 1053 2750 -1164 0 -97 -346 -816 0 -93 346 -1162 0zm4559 -2042l0 537 168 0c103,0 182,-23 237,-69 55,-46 84,-111 84,-196 0,-88 -28,-155 -84,-202 -55,-47 -134,-71 -237,-71l-168 0zm-1061 2042l0 -2750 1362 0c395,0 696,79 905,239 209,159 312,389 312,687 0,196 -53,357 -157,483 -105,127 -246,201 -425,222l804 1120 -1213 0 -526 -907 0 907 -1061 0zm4519 -851c152,0 274,-47 367,-142 93,-95 139,-220 139,-377 0,-158 -46,-284 -139,-380 -93,-96 -215,-144 -367,-144 -152,0 -275,48 -369,145 -93,96 -140,222 -140,379 0,157 46,282 140,377 93,94 216,142 369,142zm1610 -519c0,201 -39,389 -117,562 -78,174 -192,329 -343,465 -151,134 -325,237 -522,308 -197,71 -406,107 -628,107 -225,0 -435,-36 -631,-107 -197,-71 -371,-175 -523,-312 -149,-133 -263,-286 -339,-458 -76,-173 -115,-362 -115,-566 0,-204 39,-393 115,-567 77,-174 190,-328 339,-460 151,-135 324,-238 521,-308 196,-71 407,-106 633,-106 226,0 437,35 633,106 197,71 371,174 523,308 147,134 260,289 338,462 78,174 117,363 117,566zm1958 519c152,0 274,-47 367,-142 93,-95 139,-220 139,-377 0,-158 -46,-284 -139,-380 -93,-96 -215,-144 -367,-144 -152,0 -275,48 -369,145 -93,96 -140,222 -140,379 0,157 46,282 140,377 93,94 216,142 369,142zm1610 -519c0,201 -39,389 -117,562 -78,174 -192,329 -343,465 -151,134 -325,237 -522,308 -197,71 -406,107 -628,107 -225,0 -435,-36 -631,-107 -197,-71 -371,-175 -523,-312 -149,-133 -263,-286 -339,-458 -77,-173 -115,-362 -115,-566 0,-204 39,-393 115,-567 76,-174 190,-328 339,-460 151,-135 324,-238 521,-308 196,-71 407,-106 633,-106 226,0 437,35 633,106 197,71 371,174 523,308 147,134 260,289 338,462 78,174 117,363 117,566zm454 1370l0 -2750 2013 0 0 746 -929 0 0 319 841 0 0 705 -841 0 0 980 -1084 0z"/>
     <path class="fil1" d="M23580 15569l0 -451c-68,55 -111,136 -111,225 0,89 43,170 111,225zm15 -462l236 0c50,0 89,5 115,14 26,9 47,26 63,49 16,24 23,50 23,78 0,37 -13,68 -39,93 -26,25 -66,41 -120,48 20,9 35,17 45,26 22,18 43,41 62,69l52 74c60,-55 97,-130 97,-214 0,-166 -148,-302 -330,-302 -77,0 -148,24 -204,65zm479 510l5 7 -13 0c-71,57 -165,91 -266,91 -224,0 -407,-167 -407,-371 0,-205 183,-371 407,-371 224,0 407,167 407,371 0,108 -51,205 -132,273zm-105 -15l-60 -86c-22,-31 -40,-55 -54,-71 -14,-16 -27,-28 -38,-35 -11,-7 -23,-11 -34,-14 -9,-2 -22,-2 -42,-2l-87 0 0 221c44,19 93,30 144,30 62,0 120,-16 170,-43zm-315 -267l161 0c34,0 61,-3 80,-10 19,-7 34,-17 44,-31 10,-14 15,-30 15,-46 0,-24 -10,-45 -29,-60 -19,-16 -50,-24 -92,-24l-179 0 0 171z"/>
    </g>
   </g>
  </g>
  <g id="_877895552">
   <path class="fil3" d="M131 19020l0 -105 295 0 0 247c-29,25 -70,48 -125,67 -55,19 -110,29 -166,29 -71,0 -133,-14 -186,-41 -53,-27 -92,-66 -119,-117 -27,-51 -40,-106 -40,-165 0,-65 15,-122 44,-172 30,-50 73,-89 130,-115 43,-21 98,-31 162,-31 84,0 150,16 197,48 47,32 78,77 92,134l-136 23c-10,-30 -28,-55 -54,-72 -26,-18 -59,-26 -99,-26 -60,0 -107,17 -143,52 -35,35 -53,86 -53,154 0,73 18,129 54,166 36,37 83,55 141,55 29,0 58,-5 86,-15 29,-10 54,-23 74,-37l0 -79 -157 0zm619 228l0 -620 503 0 0 105 -366 0 0 137 341 0 0 104 -341 0 0 169 379 0 0 105 -516 0zm831 0l0 -620 133 0 278 414 0 -414 127 0 0 620 -138 0 -274 -404 0 404 -127 0zm1033 0l0 -515 -201 0 0 -105 539 0 0 105 -201 0 0 515 -137 0zm624 0l0 -620 503 0 0 105 -366 0 0 137 341 0 0 104 -341 0 0 169 379 0 0 105 -516 0zm831 0l0 -620 133 0 278 414 0 -414 127 0 0 620 -138 0 -274 -404 0 404 -127 0zm1196 -228l0 -105 295 0 0 247c-29,25 -70,48 -125,67 -55,19 -110,29 -165,29 -71,0 -133,-14 -186,-41 -53,-27 -92,-66 -119,-117 -27,-51 -40,-106 -40,-165 0,-65 15,-122 44,-172 30,-50 73,-89 130,-115 43,-21 98,-31 162,-31 84,0 150,16 197,48 47,32 78,77 92,134l-136 23c-10,-30 -28,-55 -54,-72 -26,-18 -59,-26 -99,-26 -60,0 -107,17 -143,52 -35,35 -53,86 -53,154 0,73 18,129 54,166 36,37 83,55 141,55 29,0 58,-5 86,-15 29,-10 54,-23 74,-37l0 -79 -157 0zm880 228l0 -620 205 0 123 423 122 -423 206 0 0 620 -127 0 0 -488 -135 488 -132 0 -134 -488 0 488 -127 0zm989 0l0 -620 503 0 0 105 -366 0 0 137 341 0 0 104 -341 0 0 169 379 0 0 105 -516 0zm982 0l0 -515 -201 0 0 -105 539 0 0 105 -201 0 0 515 -137 0zm1165 0l-149 0 -59 -141 -271 0 -56 141 -145 0 264 -620 145 0 272 620zm-252 -245l-94 -230 -92 230 185 0zm526 245l0 -615 137 0 0 511 341 0 0 105 -478 0zm960 0l0 -113 357 -402 -316 0 0 -105 497 0 0 97 -372 418 386 0 0 105 -552 0zm831 0l0 -620 137 0 0 620 -137 0zm466 0l0 -620 133 0 278 414 0 -414 127 0 0 620 -138 0 -274 -404 0 404 -127 0zm1315 -228l133 38c-20,68 -54,118 -102,151 -47,33 -107,49 -180,49 -90,0 -164,-28 -222,-84 -58,-56 -87,-133 -87,-231 0,-103 29,-183 88,-241 58,-57 135,-86 230,-86 83,0 150,22 202,67 31,26 54,65 70,114l-136 30c-8,-32 -25,-58 -50,-76 -25,-19 -56,-28 -93,-28 -50,0 -91,16 -123,50 -31,33 -47,86 -47,160 0,78 15,134 46,167 31,33 71,50 120,50 37,0 68,-11 94,-32 26,-21 45,-54 57,-100zm1060 228l-149 0 -59 -141 -271 0 -56 141 -145 0 264 -620 145 0 272 620zm-252 -245l-94 -230 -92 230 185 0zm526 245l0 -615 137 0 0 511 341 0 0 105 -478 0zm772 -620l137 0 0 336c0,53 2,88 5,104 6,25 20,46 42,61 22,15 52,23 91,23 39,0 68,-7 88,-22 20,-14 32,-32 36,-53 4,-21 6,-56 6,-105l0 -343 137 0 0 326c0,75 -4,127 -11,158 -7,31 -21,57 -41,78 -20,21 -47,38 -80,51 -33,13 -77,19 -131,19 -65,0 -114,-7 -147,-21 -34,-14 -60,-31 -79,-53 -19,-22 -32,-45 -38,-69 -9,-36 -13,-88 -13,-157l0 -331zm881 620l0 -620 205 0 123 423 122 -423 206 0 0 620 -127 0 0 -488 -135 488 -132 0 -134 -488 0 488 -127 0zm989 0l0 -620 503 0 0 105 -366 0 0 137 341 0 0 104 -341 0 0 169 379 0 0 105 -516 0z"/>
   <path class="fil4" d="M17783 18689l0 -149c-23,18 -37,45 -37,75 0,30 14,56 37,75zm5 -153l78 0c17,0 29,2 38,5 9,3 16,8 21,16 5,8 8,16 8,26 0,12 -4,22 -13,31 -9,8 -22,14 -40,16 7,3 12,6 15,9 7,6 14,14 21,23l17 25c20,-18 32,-43 32,-71 0,-55 -49,-100 -109,-100 -25,0 -49,8 -68,21zm159 169l2 2 -4 0c-24,19 -55,30 -88,30 -74,0 -135,-55 -135,-123 0,-68 60,-123 135,-123 74,0 135,55 135,123 0,36 -17,68 -44,90zm-35 -5l-20 -28c-7,-10 -13,-18 -18,-24 -5,-5 -9,-9 -13,-11 -4,-2 -7,-4 -11,-5 -3,-1 -7,-1 -14,-1l-29 0 0 73c14,6 31,10 48,10 21,0 40,-5 56,-14zm-104 -88l53 0c11,0 20,-1 27,-3 6,-2 11,-6 15,-10 3,-5 5,-10 5,-15 0,-8 -3,-15 -10,-20 -6,-5 -17,-8 -30,-8l-59 0 0 57z"/>
  </g>
 </g>
</svg>
