<?xml version="1.0" encoding="UTF-8" standalone="no"?>
<!-- Created with Inkscape (http://www.inkscape.org/) -->

<svg
   xmlns:dc="http://purl.org/dc/elements/1.1/"
   xmlns:cc="http://creativecommons.org/ns#"
   xmlns:rdf="http://www.w3.org/1999/02/22-rdf-syntax-ns#"
   xmlns:svg="http://www.w3.org/2000/svg"
   xmlns="http://www.w3.org/2000/svg"
   xmlns:xlink="http://www.w3.org/1999/xlink"
   xmlns:sodipodi="http://sodipodi.sourceforge.net/DTD/sodipodi-0.dtd"
   xmlns:inkscape="http://www.inkscape.org/namespaces/inkscape"
   width="160"
   height="160"
   id="svg3327"
   version="1.1"
   inkscape:version="0.91 r13725"
   sodipodi:docname="logo-KPLI-NTB.svg"
   inkscape:export-filename="/home/cho2/gnome-asia/Artworks/Logo/Kaipang/logo-KPLI-NTB_160px.png"
   inkscape:export-xdpi="90"
   inkscape:export-ydpi="90">
  <defs
     id="defs3329">
    <clipPath
       clipPathUnits="userSpaceOnUse"
       id="clipPath4150">
      <rect
         style="color:#000000;clip-rule:nonzero;display:inline;overflow:visible;visibility:visible;opacity:1;isolation:auto;mix-blend-mode:normal;color-interpolation:sRGB;color-interpolation-filters:linearRGB;solid-color:#000000;solid-opacity:1;fill:#f44336;fill-opacity:1;fill-rule:nonzero;stroke:none;stroke-width:30;stroke-linecap:butt;stroke-linejoin:miter;stroke-miterlimit:4;stroke-dasharray:none;stroke-dashoffset:0;stroke-opacity:1;color-rendering:auto;image-rendering:auto;shape-rendering:auto;text-rendering:auto;enable-background:accumulate"
         id="rect4152"
         width="160"
         height="120"
         x="0"
         y="912.36218" />
    </clipPath>
    <radialGradient
       inkscape:collect="always"
       xlink:href="#linearGradient3672"
       id="radialGradient5181"
       gradientUnits="userSpaceOnUse"
       gradientTransform="matrix(0.85597534,0,0,0.73306977,-61.598725,-6.749743)"
       cx="204.05124"
       cy="131.96754"
       fx="204.05124"
       fy="131.96754"
       r="106.25859" />
    <linearGradient
       id="linearGradient3672">
      <stop
         style="stop-color:#ffffff;stop-opacity:1;"
         offset="0"
         id="stop3674" />
      <stop
         style="stop-color:#9c9cff;stop-opacity:1;"
         offset="1"
         id="stop3676" />
    </linearGradient>
    <filter
       inkscape:collect="always"
       id="filter3976">
      <feGaussianBlur
         inkscape:collect="always"
         stdDeviation="2.7294922"
         id="feGaussianBlur3978" />
    </filter>
    <radialGradient
       inkscape:collect="always"
       xlink:href="#linearGradient3696"
       id="radialGradient5163"
       gradientUnits="userSpaceOnUse"
       gradientTransform="matrix(1.5725634,-5.9375674e-8,5.4434891e-8,1.4417069,-109.26944,-66.255116)"
       cx="190.84248"
       cy="149.99797"
       fx="190.84248"
       fy="149.99797"
       r="81.177994" />
    <linearGradient
       id="linearGradient3696">
      <stop
         id="stop3698"
         offset="0"
         style="stop-color:#ffffff;stop-opacity:1;" />
      <stop
         id="stop3700"
         offset="1"
         style="stop-color:#d2d2d2;stop-opacity:1;" />
    </linearGradient>
    <radialGradient
       inkscape:collect="always"
       xlink:href="#linearGradient3696"
       id="radialGradient5159"
       gradientUnits="userSpaceOnUse"
       gradientTransform="matrix(1.5725634,-5.9375674e-8,5.4434891e-8,1.4417069,-109.26944,-66.255116)"
       cx="190.84248"
       cy="149.99797"
       fx="190.84248"
       fy="149.99797"
       r="81.177994" />
    <radialGradient
       inkscape:collect="always"
       xlink:href="#linearGradient3696"
       id="radialGradient5161"
       gradientUnits="userSpaceOnUse"
       gradientTransform="matrix(1.5725634,-5.9375674e-8,5.4434891e-8,1.4417069,-109.26944,-66.255116)"
       cx="190.84248"
       cy="149.99797"
       fx="190.84248"
       fy="149.99797"
       r="81.177994" />
    <radialGradient
       inkscape:collect="always"
       xlink:href="#linearGradient3696"
       id="radialGradient5171"
       gradientUnits="userSpaceOnUse"
       gradientTransform="matrix(1.6198102,5.5052632e-8,-6.1454355e-8,1.8081677,-115.95121,-99.564757)"
       cx="187.07536"
       cy="123.19813"
       fx="187.07536"
       fy="123.19813"
       r="27.950808" />
    <radialGradient
       inkscape:collect="always"
       xlink:href="#linearGradient3696"
       id="radialGradient5165"
       gradientUnits="userSpaceOnUse"
       gradientTransform="matrix(1.6198102,5.5052632e-8,-6.1454355e-8,1.8081677,-115.95121,-99.564757)"
       cx="187.07536"
       cy="123.19813"
       fx="187.07536"
       fy="123.19813"
       r="27.950808" />
    <radialGradient
       inkscape:collect="always"
       xlink:href="#linearGradient3696"
       id="radialGradient5167"
       gradientUnits="userSpaceOnUse"
       gradientTransform="matrix(1.6198102,5.5052632e-8,-6.1454355e-8,1.8081677,-115.95121,-99.564757)"
       cx="187.07536"
       cy="123.19813"
       fx="187.07536"
       fy="123.19813"
       r="27.950808" />
    <radialGradient
       inkscape:collect="always"
       xlink:href="#linearGradient3696"
       id="radialGradient5169"
       gradientUnits="userSpaceOnUse"
       gradientTransform="matrix(1.6198102,5.5052632e-8,-6.1454355e-8,1.8081677,-115.95121,-99.564757)"
       cx="187.07536"
       cy="123.19813"
       fx="187.07536"
       fy="123.19813"
       r="27.950808" />
    <radialGradient
       inkscape:collect="always"
       xlink:href="#linearGradient3680"
       id="radialGradient5179"
       gradientUnits="userSpaceOnUse"
       gradientTransform="matrix(1,0,0,0.83693368,0,18.171994)"
       cx="201.78683"
       cy="111.43928"
       fx="201.78683"
       fy="111.43928"
       r="58.771519" />
    <linearGradient
       id="linearGradient3680">
      <stop
         style="stop-color:#ffffff;stop-opacity:1;"
         offset="0"
         id="stop3682" />
      <stop
         style="stop-color:#f2f2f2;stop-opacity:1;"
         offset="1"
         id="stop3684" />
    </linearGradient>
    <radialGradient
       inkscape:collect="always"
       xlink:href="#linearGradient3680"
       id="radialGradient5173"
       gradientUnits="userSpaceOnUse"
       gradientTransform="matrix(1,0,0,0.83693368,0,18.171994)"
       cx="201.78683"
       cy="111.43928"
       fx="201.78683"
       fy="111.43928"
       r="58.771519" />
    <radialGradient
       inkscape:collect="always"
       xlink:href="#linearGradient3680"
       id="radialGradient5175"
       gradientUnits="userSpaceOnUse"
       gradientTransform="matrix(1,0,0,0.83693368,0,18.171994)"
       cx="201.78683"
       cy="111.43928"
       fx="201.78683"
       fy="111.43928"
       r="58.771519" />
    <radialGradient
       inkscape:collect="always"
       xlink:href="#linearGradient3680"
       id="radialGradient5177"
       gradientUnits="userSpaceOnUse"
       gradientTransform="matrix(1,0,0,0.83693368,0,18.171994)"
       cx="201.78683"
       cy="111.43928"
       fx="201.78683"
       fy="111.43928"
       r="58.771519" />
  </defs>
  <sodipodi:namedview
     id="base"
     pagecolor="#ffffff"
     bordercolor="#666666"
     borderopacity="1.0"
     inkscape:pageopacity="0.0"
     inkscape:pageshadow="2"
     inkscape:zoom="1.979899"
     inkscape:cx="117.28952"
     inkscape:cy="98.74473"
     inkscape:document-units="px"
     inkscape:current-layer="layer1"
     showgrid="true"
     inkscape:window-width="1366"
     inkscape:window-height="713"
     inkscape:window-x="0"
     inkscape:window-y="24"
     inkscape:window-maximized="1"
     showguides="true"
     inkscape:guide-bbox="true">
    <inkscape:grid
       type="xygrid"
       id="grid3385"
       empspacing="5"
       visible="true"
       enabled="true"
       snapvisiblegridlinesonly="true" />
    <sodipodi:guide
       position="80,160"
       orientation="1,0"
       id="guide4146"
       inkscape:label=""
       inkscape:color="rgb(0,0,255)" />
    <sodipodi:guide
       position="0,121.42857"
       orientation="1,0"
       id="guide4136"
       inkscape:label=""
       inkscape:color="rgb(0,0,255)" />
    <sodipodi:guide
       position="160,98.571429"
       orientation="1,0"
       id="guide4138"
       inkscape:label=""
       inkscape:color="rgb(0,0,255)" />
  </sodipodi:namedview>
  <metadata
     id="metadata3332">
    <rdf:RDF>
      <cc:Work
         rdf:about="">
        <dc:format>image/svg+xml</dc:format>
        <dc:type
           rdf:resource="http://purl.org/dc/dcmitype/StillImage" />
        <dc:title />
      </cc:Work>
    </rdf:RDF>
  </metadata>
  <g
     inkscape:label="Layer 1"
     inkscape:groupmode="layer"
     id="layer1"
     transform="translate(0,-892.36218)">
    <g
       transform="matrix(0.78491806,0,0,0.78491806,-17.351158,902.00707)"
       id="g4457">
      <path
         inkscape:connector-curvature="0"
         sodipodi:nodetypes="cccsccsccsccsccsccsccsccsccsccsccssccscsccsccsccccsssc"
         id="path2838"
         d="M 102.60541,13.31662 C 98.730993,13.2568 92.108061,14.775025 92.108061,14.775025 L 86.699008,35.74528 c 0,0 -5.186763,0.809762 -7.59678,1.792199 -2.603918,1.061477 -7.249043,4.360124 -7.249043,4.360124 L 49.089584,29.592957 c 0,0 -5.028525,4.39856 -7.249047,6.874552 -2.12509,2.369589 -5.777831,7.596781 -5.777831,7.596781 l 15.915793,17.707992 c 0,0 -1.76182,5.04436 -2.541176,7.59678 -0.657732,2.154093 -1.818946,6.526805 -1.818946,6.526805 l -24.208058,3.95889 c 0,0 -0.656784,6.291537 -0.374489,9.415725 0.300083,3.321033 1.443319,10.486839 1.443319,10.486839 l 25.332659,3.262269 c 0,0 3.074018,5.70584 5.417287,8.66446 1.753863,2.21444 6.138385,6.87684 6.138385,6.87684 l -10.472894,17.7208 c 0,0 4.947346,6.43743 7.958465,8.68069 3.11337,2.31944 10.485698,5.08236 10.485698,5.08236 L 85.60229,138.46232 c 0,0 7.118457,3.4679 10.860191,4.70786 3.997259,1.32464 12.304649,2.88892 12.304649,2.88892 l 7.57002,20.24917 c 0,0 5.7886,1.09727 9.41345,1.08391 3.26405,-0.012 9.76346,-1.08391 9.76346,-1.08391 l 3.98792,-20.62365 c 0,0 8.29648,-2.13107 12.30465,-3.61115 3.59428,-1.32725 10.4857,-4.70787 10.4857,-4.70787 l 18.80472,11.58242 c 0,0 6.65831,-3.99069 9.40177,-6.87455 1.86739,-1.96296 4.69506,-6.87456 4.69506,-6.87456 l -17.36024,-16.26352 c 0,0 1.06281,-4.46551 2.16668,-8.69351 1.8526,-7.09577 1.87431,-10.504695 3.15641,-10.806682 2.05596,-0.484289 11.51551,-0.166846 18.90714,-1.496822 l 1.099,-10.834576 c -0.10398,-2.911656 -3.27621,-9.779707 -4.72295,-9.779707 -1.44674,0 -19.88177,-3.235508 -19.88177,-3.235508 0,0 -2.80358,-6.009775 -4.70787,-8.693487 -2.07432,-2.92339 -7.22229,-7.944532 -7.22229,-7.944532 l 8.31672,-15.205224 c 0,0 -3.69185,-5.232113 -6.15232,-7.222292 -2.768,-2.23893 -9.38898,-5.082353 -9.38898,-5.082353 l -18.83031,7.964426 c 0,0 -7.46507,-3.191526 -10.48799,-3.614568 -3.00637,-0.420726 -10.48797,-1.069969 -10.48797,-1.069969 l -7.9411,-18.821192 c 0,0 -5.16308,-1.022749 -9.05063,-1.082774 z m 12.12679,51.37133 c 17.4784,0 31.64434,12.054852 31.64434,26.936464 0,14.881616 -14.16594,26.936476 -31.64434,26.936476 -17.478398,0 -31.64434,-12.05486 -31.64434,-26.936476 0,-14.881612 14.165942,-26.936464 31.64434,-26.936464 z"
         style="fill:url(#radialGradient5181);fill-opacity:1;stroke:#000000;stroke-width:1.71195078;stroke-linecap:round;stroke-linejoin:round;stroke-miterlimit:100;stroke-dasharray:none;stroke-opacity:1" />
      <path
         inkscape:connector-curvature="0"
         style="opacity:0.56000001;fill:none;stroke:#ffffff;stroke-width:1.62121761;stroke-linecap:round;stroke-linejoin:round;stroke-miterlimit:100;stroke-dasharray:none;stroke-opacity:1"
         d="m 101.81705,13.994451 c -3.697506,-0.05621 -8.932965,1.731938 -8.932965,1.731938 l -4.80039,21.149485 c 0,0 -5.311614,0.760817 -7.611602,1.683873 -2.485011,0.997318 -9.449851,5.181639 -9.449851,5.181639 l -22.0859,-12.645969 c 0,0 -4.437218,4.132697 -6.556349,6.459033 -2.028064,2.226363 -4.428964,6.052552 -4.428964,6.052552 l 15.912454,18.446101 c 0,0 -3.489802,5.462823 -4.233584,7.860957 -0.62769,2.023896 -3.544315,7.217375 -3.544315,7.217375 l -20.5709,4.081277 c 0,0 -0.626807,6.634617 -0.357407,9.569989 0.286389,3.12029 1.01572,8.044546 1.01572,8.044546 l 24.537636,2.703403 c 0,0 4.3804,7.53108 6.616693,10.31086 1.673769,2.08059 6.219785,7.18456 6.219785,7.18456 L 52.10565,135.67576 c 0,0 6.168214,6.41002 9.041836,8.5177 2.971201,2.17924 7.8368,4.05179 7.8368,4.05179 l 16.60599,-11.60572 c 0,0 8.240182,4.34335 11.811052,5.50836 3.814762,1.24458 12.466192,2.3526 12.466192,2.3526 l 6.50101,20.11032 c 0,0 5.52427,1.03094 8.98361,1.01839 3.11501,-0.0114 9.31767,-1.01839 9.31767,-1.01839 l 3.44413,-20.82384 c 0,0 7.91768,-2.00226 11.74283,-3.39287 3.43017,-1.24703 11.09198,-6.59342 11.09198,-6.59342 l 20.11618,13.41412 c 0,0 5.63094,-2.6644 8.24913,-5.37397 1.78211,-1.84432 3.75731,-6.09735 3.75731,-6.09735 L 176.50382,119.7396 c 0,0 1.01429,-6.3657 2.06776,-10.33813 1.768,-6.6669 1.78873,-10.954816 3.01228,-11.238566 1.96209,-0.455001 11.71309,0.20493 18.7672,-1.044656 l 1.04883,-9.818014 c -0.0992,-2.735664 -1.6799,-9.188596 -4.5073,-9.188596 -1.38069,0 -19.69734,-3.039949 -19.69734,-3.039949 0,0 -3.39893,-6.369881 -5.21626,-8.891388 -1.97962,-2.746687 -7.25421,-7.464334 -7.25421,-7.464334 l 7.93697,-16.0946 c 0,0 -3.1616,-4.192499 -5.50972,-6.062383 -2.6416,-2.103604 -9.68365,-2.966735 -9.68365,-2.966735 l -17.97051,7.48303 c 0,0 -7.48589,-4.807045 -10.37078,-5.204515 -2.86911,-0.395299 -11.09416,-1.366983 -11.09416,-1.366983 l -7.21681,-19.130318 c 0,0 -5.28903,-1.322616 -8.99907,-1.379012 z m 13.01982,52.244819 c 16.68034,0 30.19947,11.32622 30.19947,25.308338 0,13.982112 -13.51913,25.308342 -30.19947,25.308342 -16.680316,0 -30.199447,-11.32623 -30.199447,-25.308342 0,-13.982118 13.519131,-25.308338 30.199447,-25.308338 z"
         id="path3752"
         sodipodi:nodetypes="cccsccsccsccsccsccsccsccsccsccsccssccscsccsccsccccsssc" />
      <path
         inkscape:connector-curvature="0"
         id="path3749"
         d="m 113.82254,59.068326 c -21.27443,0 -38.53721,14.665401 -38.53721,32.743968 0,18.078546 17.26278,32.715956 38.53721,32.715956 21.27441,0 38.50856,-14.63741 38.50856,-32.715956 0,-18.078567 -17.23415,-32.743968 -38.50856,-32.743968 z m 0.20039,4.393842 c 18.47298,0 33.44092,12.513652 33.44092,27.958308 0,15.444664 -14.96794,27.958294 -33.44092,27.958294 -18.472948,0 -33.46951,-12.51363 -33.46951,-27.958294 0,-15.444656 14.996562,-27.958308 33.46951,-27.958308 z"
         style="opacity:0.55980859;fill:#ffffff;fill-opacity:1;stroke:none" />
      <g
         transform="matrix(0.85597541,0,0,0.85597541,-61.598726,-22.969281)"
         id="g4173">
        <g
           style="fill:#000000;fill-opacity:1;stroke:none;filter:url(#filter3976)"
           id="g3786"
           transform="translate(4,0)">
          <path
             inkscape:connector-curvature="0"
             style="fill:#000000;fill-opacity:1;stroke:none"
             d="m 212.11577,99.010866 c -0.84509,-3.380331 -18.16928,13.098784 -18.16928,13.098784 l -2.53525,-3.38033 c 0,0 -4.64796,0.84508 -5.91558,7.1832 -1.26762,6.33812 -0.42254,8.87337 -0.42254,8.87337 0,0 7.1832,-8.45083 12.2537,-8.02829 5.07049,0.42254 13.09878,-2.53525 16.05657,-4.22541 2.95779,-1.69017 -5.49304,-10.98608 -1.26762,-13.521324 z"
             id="path3788"
             sodipodi:nodetypes="cccscssc" />
          <path
             inkscape:connector-curvature="0"
             style="fill:#000000;fill-opacity:1;stroke:none"
             d="m 177.04483,90.98258 c 0,0 -1.26762,2.95779 7.18321,4.647955 8.45082,1.690166 10.56353,2.535249 10.56353,2.535249 l 0,10.986076 c 0,0 -4.64796,3.38033 -6.76066,3.80287 -2.11271,0.42254 -8.87337,7.60575 -8.87337,10.14099 0,2.53525 -12.67624,0 -12.67624,0 0,0 -13.09878,-6.33812 -1.69017,-21.12706 11.40862,-14.788952 12.67624,-9.295914 12.2537,-10.98608 z"
             id="path3790"
             sodipodi:nodetypes="csccsscsc" />
          <path
             inkscape:connector-curvature="0"
             style="fill:#000000;fill-opacity:1;stroke:none"
             d="m 168.594,131.12401 c 0,0 -5.0705,5.49304 0,14.78895 1.58029,2.89719 11.83116,15.21149 10.56354,6.33812 -0.51056,-3.57391 5.49304,-10.56354 -0.84508,-16.47912 -6.33812,-5.91557 -8.45083,-4.64795 -9.71846,-4.64795 z"
             id="path3792"
             sodipodi:nodetypes="csssc" />
        </g>
        <path
           inkscape:connector-curvature="0"
           sodipodi:nodetypes="cscssc"
           id="path3796"
           d="m 186.96041,153.94124 c 3.38033,0 1.69017,-3.80287 8.02829,-4.64795 6.33812,-0.84508 4.64795,5.91558 4.64795,5.91558 0,0 4.64796,6.76066 -1.26762,3.38033 -5.91558,-3.38033 -4.22542,2.95779 -9.29591,0.42254 -5.0705,-2.53525 -0.42254,-4.64795 -2.11271,-5.0705 z"
           style="fill:#000000;fill-opacity:1;stroke:none;filter:url(#filter3976)" />
        <g
           id="g4167">
          <g
             transform="translate(4,0)"
             id="g3780"
             style="fill:#000000;fill-opacity:1;stroke:none;filter:url(#filter3976)">
            <path
               inkscape:connector-curvature="0"
               sodipodi:nodetypes="cscccccc"
               id="path3782"
               d="m 142.70627,115.48998 c 0,0 10.27146,8.2651 68.45171,40.14143 33.86646,18.55506 44.36684,27.46519 44.36684,27.46519 0,0 5.0705,-0.42254 10.14099,-0.42254 -0.1865,21.81955 -78.23175,-34.05214 -105.63534,-47.74718 -40.10947,-18.73441 -17.74673,-5.91558 -38.45126,-9.29591 -9.75372,-2.63752 -2.32944,-29.884695 10.98607,-19.4369 3.80287,3.38033 6.33812,7.1832 10.14099,9.29591 z"
               style="fill:#000000;fill-opacity:1;stroke:none" />
            <path
               inkscape:connector-curvature="0"
               style="fill:#000000;fill-opacity:1;stroke:none"
               d="m 247.8579,111.6871 c -8.34232,3.7077 13.96072,-3.60459 -72.67712,44.36685 -43.07856,23.85263 -28.36199,17.8321 -28.36199,17.8321 -24.40409,1.6198 -23.54381,27.4008 -6.70894,4.98513 2.95779,-2.53525 9.63874,-4.64455 83.66319,-43.9443 36.33255,-19.28903 19.4369,-11.40862 38.8738,-8.87337 6.18635,0.80692 11.01626,-3.04971 6.76067,-6.33812 -9.29592,-7.1832 0.84508,-14.3664 -6.76066,-17.32419 -4.34978,-1.69158 -3.80288,-4.22542 -7.60575,-0.84509 -3.80287,3.38033 -5.07049,5.0705 -7.1832,10.14099 z"
               id="path3784"
               sodipodi:nodetypes="csccsssssc" />
          </g>
          <path
             inkscape:connector-curvature="0"
             style="fill:#000000;fill-opacity:1;stroke:none;filter:url(#filter3976)"
             d="m 157.80506,89.714956 c 0,0 -8.45083,6.338121 -9.71846,15.211494 -1.26762,8.87337 14.78895,24.08485 14.78895,25.77502 0,1.69016 1.26763,9.71845 4.22542,9.29591 2.95779,-0.42254 10.98607,-6.76066 9.71845,-8.02829 -1.26763,-1.26762 4.22541,3.80287 4.22541,3.80287 0,0 1.26763,13.94387 1.69017,11.40862 0.42254,-2.53525 2.53525,-10.14099 5.07049,-9.71845 2.53525,0.42254 3.38033,-3.80287 0.84509,-8.45083 -2.53525,-4.64795 -3.80288,-5.49303 -3.80288,-5.49303 0,0 -7.1832,-1e-5 -13.09878,-0.84509 -1.67318,-0.23903 -10.98608,-13.94386 2.53525,-26.620103 13.52132,-12.676241 25.77502,-8.450828 25.77502,-8.450828 0,0 11.40862,7.183204 12.2537,11.408617 0.84509,4.225414 5.0705,3.380334 2.95779,18.169274 -0.84509,5.91558 2.95779,-6.33812 5.0705,-11.40861 2.11271,-5.0705 2.53524,-5.49304 2.53524,-5.49304 l 6.33813,-2.957789 c 0,0 3.80287,-7.605745 32.95822,-32.113144 7.38288,-6.205897 -16.90165,4.225414 -21.97215,5.493038 -5.07049,1.267624 -1.69016,-4.225414 -1.69016,-4.225414 0,0 -8.02828,3.380331 -11.40862,3.380331 -4.22541,0 -11.40862,-2.95779 -18.16928,-1.267624 -6.76066,1.690166 -16.05657,8.028286 -16.05657,8.028286 0,0 -2.95779,-2.95779 -6.33812,-3.802872 -3.38033,-0.845083 -21.97215,2.957789 -24.92994,6.760661 -2.95779,3.802873 -3.80287,10.140993 -3.80287,10.140993 z"
             id="path3798"
             sodipodi:nodetypes="csssscssscsscsssccsscsscssc" />
        </g>
        <path
           inkscape:connector-curvature="0"
           sodipodi:nodetypes="cscsccscsscc"
           id="path3800"
           d="m 186.96041,138.72975 c 0,0 -4.64795,0.84509 -5.0705,8.87337 -0.42254,8.02829 0.84509,9.71845 0.84509,9.71845 0,0 4.64795,-8.87336 12.2537,-9.71845 7.60574,-0.84508 11.83116,-0.84508 11.83116,-0.84508 l 24.08485,-33.38077 c 0,0 -8.87337,0.42254 -6.76066,-6.76066 2.11271,-7.183202 5.91558,-10.986075 5.91558,-10.986075 0,0 -8.45083,0.422542 -10.98608,6.338125 -1.48875,3.47374 3.80288,13.52132 -11.40861,25.77502 -15.21149,12.2537 -13.09878,14.3664 -13.09878,14.3664 0,0 -3.38034,-2.95778 -7.60575,-3.38033 z"
           style="fill:#000000;fill-opacity:1;stroke:none;filter:url(#filter3976)" />
        <path
           inkscape:connector-curvature="0"
           id="path3804"
           d="m 274.84901,75.34855 c -13.09877,0 6.76066,-7.605745 -4.64795,-2.535248 -45.51834,20.230384 -42.67668,32.535688 -42.67668,32.535688 0,0 -0.84508,3.80287 1.69017,4.64795 2.53525,0.84508 4.22541,0 4.22541,0 0,0 12.67624,-18.591818 41.40905,-34.64839 z"
           style="fill:#000000;stroke:none;filter:url(#filter3976)"
           sodipodi:nodetypes="cscscc" />
      </g>
      <g
         transform="matrix(0.85597541,0,0,0.85597541,-61.598726,-22.969281)"
         id="g3762">
        <g
           id="g3656"
           style="fill:url(#radialGradient5163);fill-opacity:1;stroke:#000000;stroke-width:2;stroke-miterlimit:4;stroke-dasharray:none;stroke-opacity:1">
          <path
             inkscape:connector-curvature="0"
             sodipodi:nodetypes="cscsssssssssc"
             id="path2834"
             d="m 142.70627,115.48998 c 0,0 10.27146,8.2651 68.45171,40.14143 33.86646,18.55506 44.36684,27.46519 44.36684,27.46519 0,0 5.0705,-0.42254 10.14099,-0.42254 5.0705,0 7.1832,5.91558 2.95779,6.76066 -4.22541,0.84508 0.84508,9.29591 -5.49304,10.56353 -6.33812,1.26762 -6.33812,-8.02829 -9.29591,-10.56354 -2.95779,-2.53525 -38.65279,-28.74761 -93.80418,-54.50783 -40.10947,-18.73441 -17.74673,-5.91558 -38.45126,-9.29591 -6.15723,-1.00526 -16.5093,3.28841 -7.18321,-5.91558 8.36155,-8.25208 -0.84508,-14.3664 6.76066,-17.32419 4.34978,-1.69158 6.76067,-1.26763 10.56354,2.1127 3.80287,3.38033 7.1832,8.87337 10.98607,10.98608 z"
             style="fill:url(#radialGradient5159);fill-opacity:1;stroke:#000000;stroke-width:2;stroke-linecap:butt;stroke-linejoin:miter;stroke-miterlimit:4;stroke-dasharray:none;stroke-opacity:1" />
          <path
             inkscape:connector-curvature="0"
             style="fill:url(#radialGradient5161);fill-opacity:1;stroke:#000000;stroke-width:2;stroke-linecap:butt;stroke-linejoin:miter;stroke-miterlimit:4;stroke-dasharray:none;stroke-opacity:1"
             d="m 247.8579,111.6871 c -8.34232,3.7077 13.96072,-3.60459 -72.67712,44.36685 -43.07856,23.85263 -46.05701,25.35248 -46.05701,25.35248 0,0 -5.91558,1.26763 -10.98607,1.26763 -5.0705,0 -7.1832,5.91558 -2.95779,6.76066 4.22541,0.84508 -0.84508,9.29591 5.49304,10.56353 6.33812,1.26762 9.71845,-10.56353 12.67624,-13.09878 2.95779,-2.53525 16.3994,-12.67284 90.42385,-51.97259 36.33255,-19.28903 19.4369,-11.40862 38.8738,-8.87337 6.18635,0.80692 11.01626,-3.04971 6.76067,-6.33812 -9.29592,-7.1832 0.84508,-14.3664 -6.76066,-17.32419 -4.34978,-1.69158 -3.80288,-4.22542 -7.60575,-0.84509 -3.80287,3.38033 -5.07049,5.0705 -7.1832,10.14099 z"
             id="path2836"
             sodipodi:nodetypes="cscsssssssssc" />
        </g>
        <g
           id="g3646"
           style="fill:url(#radialGradient5171);fill-opacity:1;stroke:#000000;stroke-width:2;stroke-miterlimit:4;stroke-dasharray:none;stroke-opacity:1">
          <path
             inkscape:connector-curvature="0"
             sodipodi:nodetypes="cccscssc"
             id="path2828"
             d="m 212.11577,99.010866 c -0.84509,-3.380331 -18.16928,13.098784 -18.16928,13.098784 l -2.53525,-3.38033 c 0,0 -4.64796,0.84508 -5.91558,7.1832 -1.26762,6.33812 -0.42254,8.87337 -0.42254,8.87337 0,0 7.1832,-8.45083 12.2537,-8.02829 5.07049,0.42254 13.09878,-2.53525 16.05657,-4.22541 2.95779,-1.69017 -5.49304,-10.98608 -1.26762,-13.521324 z"
             style="fill:url(#radialGradient5165);fill-opacity:1;stroke:#000000;stroke-width:2;stroke-linecap:butt;stroke-linejoin:miter;stroke-miterlimit:4;stroke-dasharray:none;stroke-opacity:1" />
          <path
             inkscape:connector-curvature="0"
             sodipodi:nodetypes="csccsscsc"
             id="path2826"
             d="m 177.04483,90.98258 c 0,0 -1.26762,2.95779 7.18321,4.647955 8.45082,1.690166 10.56353,2.535249 10.56353,2.535249 l 0,10.986076 c 0,0 -4.64796,3.38033 -6.76066,3.80287 -2.11271,0.42254 -8.87337,7.60575 -8.87337,10.14099 0,2.53525 -12.67624,0 -12.67624,0 0,0 -13.09878,-6.33812 -1.69017,-21.12706 11.40862,-14.788952 12.67624,-9.295914 12.2537,-10.98608 z"
             style="fill:url(#radialGradient5167);fill-opacity:1;stroke:#000000;stroke-width:2;stroke-linecap:butt;stroke-linejoin:miter;stroke-miterlimit:4;stroke-dasharray:none;stroke-opacity:1" />
          <path
             inkscape:connector-curvature="0"
             sodipodi:nodetypes="csssc"
             id="path2830"
             d="m 168.594,131.12401 c 0,0 -5.0705,5.49304 0,14.78895 1.58029,2.89719 11.83116,15.21149 10.56354,6.33812 -0.51056,-3.57391 5.49304,-10.56354 -0.84508,-16.47912 -6.33812,-5.91557 -8.45083,-4.64795 -9.71846,-4.64795 z"
             style="fill:url(#radialGradient5169);fill-opacity:1;stroke:#000000;stroke-width:2;stroke-linecap:butt;stroke-linejoin:miter;stroke-miterlimit:4;stroke-dasharray:none;stroke-opacity:1" />
        </g>
        <g
           id="g3651"
           style="fill:url(#radialGradient5179);fill-opacity:1;stroke:#000000;stroke-width:2;stroke-miterlimit:4;stroke-dasharray:none;stroke-opacity:1">
          <path
             inkscape:connector-curvature="0"
             sodipodi:nodetypes="cscssc"
             id="path2832"
             d="m 182.96041,153.94124 c 3.38033,0 1.69017,-3.80287 8.02829,-4.64795 6.33812,-0.84508 4.64795,5.91558 4.64795,5.91558 0,0 4.64796,6.76066 -1.26762,3.38033 -5.91558,-3.38033 -4.22542,2.95779 -9.29591,0.42254 -5.0705,-2.53525 -0.42254,-4.64795 -2.11271,-5.0705 z"
             style="fill:url(#radialGradient5173);fill-opacity:1;stroke:#000000;stroke-width:2;stroke-linecap:butt;stroke-linejoin:miter;stroke-miterlimit:4;stroke-dasharray:none;stroke-opacity:1" />
          <path
             inkscape:connector-curvature="0"
             sodipodi:nodetypes="csssscssscsscsssccsscsscssc"
             id="path2818"
             d="m 153.80506,89.714956 c 0,0 -8.45083,6.338121 -9.71846,15.211494 -1.26762,8.87337 14.78895,24.08485 14.78895,25.77502 0,1.69016 1.26763,9.71845 4.22542,9.29591 2.95779,-0.42254 10.98607,-6.76066 9.71845,-8.02829 -1.26763,-1.26762 4.22541,3.80287 4.22541,3.80287 0,0 1.26763,13.94387 1.69017,11.40862 0.42254,-2.53525 2.53525,-10.14099 5.07049,-9.71845 2.53525,0.42254 3.38033,-3.80287 0.84509,-8.45083 -2.53525,-4.64795 -3.80288,-5.49303 -3.80288,-5.49303 0,0 -7.1832,-1e-5 -13.09878,-0.84509 -1.67318,-0.23903 -10.98608,-13.94386 2.53525,-26.620103 13.52132,-12.676241 25.77502,-8.450828 25.77502,-8.450828 0,0 11.40862,7.183204 12.2537,11.408617 0.84509,4.225414 5.0705,3.380334 2.95779,18.169274 -0.84509,5.91558 2.95779,-6.33812 5.0705,-11.40861 2.11271,-5.0705 2.53524,-5.49304 2.53524,-5.49304 l 6.33813,-2.957789 c 0,0 3.80287,-7.605745 32.95822,-32.113144 7.38288,-6.205897 -16.90165,4.225414 -21.97215,5.493038 -5.07049,1.267624 -1.69016,-4.225414 -1.69016,-4.225414 0,0 -8.02828,3.380331 -11.40862,3.380331 -4.22541,0 -11.40862,-2.95779 -18.16928,-1.267624 -6.76066,1.690166 -16.05657,8.028286 -16.05657,8.028286 0,0 -2.95779,-2.95779 -6.33812,-3.802872 -3.38033,-0.845083 -21.97215,2.957789 -24.92994,6.760661 -2.95779,3.802873 -3.80287,10.140993 -3.80287,10.140993 z"
             style="fill:url(#radialGradient5175);fill-opacity:1;stroke:#000000;stroke-width:2;stroke-linecap:butt;stroke-linejoin:miter;stroke-miterlimit:4;stroke-dasharray:none;stroke-opacity:1" />
          <path
             inkscape:connector-curvature="0"
             sodipodi:nodetypes="cscsccscsscc"
             id="path2820"
             d="m 182.96041,138.72975 c 0,0 -4.64795,0.84509 -5.0705,8.87337 -0.42254,8.02829 0.84509,9.71845 0.84509,9.71845 0,0 4.64795,-8.87336 12.2537,-9.71845 7.60574,-0.84508 11.83116,-0.84508 11.83116,-0.84508 l 24.08485,-33.38077 c 0,0 -8.87337,0.42254 -6.76066,-6.76066 2.11271,-7.183202 5.91558,-10.986075 5.91558,-10.986075 0,0 -8.45083,0.422542 -10.98608,6.338125 -1.48875,3.47374 3.80288,13.52132 -11.40861,25.77502 -15.21149,12.2537 -13.09878,14.3664 -13.09878,14.3664 0,0 -3.38034,-2.95778 -7.60575,-3.38033 z"
             style="fill:url(#radialGradient5177);fill-opacity:1;stroke:#000000;stroke-width:2;stroke-linecap:butt;stroke-linejoin:miter;stroke-miterlimit:4;stroke-dasharray:none;stroke-opacity:1" />
        </g>
        <g
           id="g3660">
          <path
             inkscape:connector-curvature="0"
             id="path2822"
             d="m 328.73718,48.728444 c -1.69016,-0.845083 -20.70453,-2.95779 -62.53612,24.084858 -41.8316,27.042647 -42.67668,32.535688 -42.67668,32.535688 0,0 -0.84508,3.80287 1.69017,4.64795 2.53525,0.84508 4.22541,0 4.22541,0 0,0 56.62054,-55.775458 99.29722,-61.268496 z"
             style="fill:#000000;stroke:#000000;stroke-width:1px;stroke-linecap:butt;stroke-linejoin:miter;stroke-opacity:1" />
          <path
             inkscape:connector-curvature="0"
             sodipodi:nodetypes="cscssc"
             id="path2824"
             d="m 236.20062,67.742805 c 2.95779,-1.690165 30.00044,-10.986075 29.15536,-7.605744 -0.84509,3.380331 -30.00044,29.577895 -30.00044,29.577895 0,0 46.43627,-49.014797 98.0296,-49.014798 8.87336,0 -12.2537,-8.450828 -41.8316,1.267624 -30.41593,9.993804 -41.83159,16.479113 -55.35292,25.775023 z"
             style="fill:#000000;stroke:#000000;stroke-width:1px;stroke-linecap:butt;stroke-linejoin:miter;stroke-opacity:1" />
        </g>
      </g>
      <path
         inkscape:connector-curvature="0"
         sodipodi:nodetypes="csc"
         id="path3616"
         d="M 60.289111,159.79821 C 61.73585,161.24495 170.18107,213.32264 217.62209,130.86341 237.94407,95.540925 187.60224,43.697332 187.60224,43.697332"
         style="fill:none;stroke:none" />
      <g
         id="text3618"
         style="font-style:normal;font-variant:normal;font-weight:normal;font-stretch:normal;font-size:74.55999756px;font-family:Christopherhand;-inkscape-font-specification:Christopherhand;fill:#000000;fill-opacity:1;stroke:none"
         transform="matrix(0.54732436,0,0,0.54732436,10.272304,7.5111818)">
        <path
           inkscape:connector-curvature="0"
           id="path5041"
           style="font-weight:bold;font-size:10px;font-family:FreeSans;-inkscape-font-specification:'FreeSans Bold'"
           d="m 94.91719,279.83806 -1.11137,2.1722 -1.335369,-0.68321 3.320446,-6.4899 1.335369,0.68322 -1.457535,2.84879 3.994737,-1.55067 1.575732,0.80619 -4.020819,1.46993 0.976353,5.16117 -1.593541,-0.81531 -0.661044,-3.95519 -1.022959,0.35278" />
        <path
           inkscape:connector-curvature="0"
           id="path5043"
           style="font-weight:bold;font-size:10px;font-family:FreeSans;-inkscape-font-specification:'FreeSans Bold'"
           d="m 99.410482,283.77711 c -0.298962,-0.91053 -0.223159,-1.87848 0.227408,-2.90386 0.45056,-1.02537 1.11229,-1.73585 1.98519,-2.13146 0.879,-0.39291 1.79761,-0.37883 2.75585,0.0422 0.96433,0.42376 1.59904,1.09223 1.90411,2.00544 0.30773,0.90712 0.22828,1.89167 -0.23837,2.95366 -0.43448,0.98875 -1.08951,1.68398 -1.96508,2.08568 -0.86679,0.39828 -1.78846,0.38287 -2.765,-0.0462 -0.97045,-0.42643 -1.60515,-1.09491 -1.904108,-2.00544 m 4.462678,-3.81722 c -0.55542,-0.24405 -1.09484,-0.22621 -1.61826,0.0535 -0.52074,0.27363 -0.93532,0.76139 -1.24374,1.46328 -0.30843,0.70189 -0.38866,1.34021 -0.24071,1.91496 0.15063,0.56864 0.50365,0.97499 1.05907,1.21904 0.5493,0.24138 1.08432,0.22525 1.60507,-0.0484 0.52684,-0.27095 0.94045,-0.74821 1.24083,-1.43179 0.31647,-0.7202 0.40072,-1.36768 0.25278,-1.94242 -0.14186,-0.57206 -0.49354,-0.98147 -1.05504,-1.22821" />
        <path
           inkscape:connector-curvature="0"
           id="path5045"
           style="font-weight:bold;font-size:10px;font-family:FreeSans;-inkscape-font-specification:'FreeSans Bold'"
           d="m 109.0722,282.66149 -2.12434,5.26779 -1.39114,-0.56101 2.72648,-6.76095 2.07744,0.83777 -0.94501,5.87276 3.35632,-4.90035 2.09599,0.84524 -2.72648,6.76095 -1.39114,-0.561 2.12433,-5.26779 -3.32072,4.78532 -1.39114,-0.561 0.90941,-5.75773" />
        <path
           inkscape:connector-curvature="0"
           id="path5047"
           style="font-weight:bold;font-size:10px;font-family:FreeSans;-inkscape-font-specification:'FreeSans Bold'"
           d="m 116.76282,291.93261 c -0.24735,-0.0429 -0.49586,-0.11121 -0.74555,-0.20485 -0.24968,-0.0936 -0.48493,-0.20678 -0.70574,-0.33944 -0.21458,-0.13031 -0.42564,-0.29846 -0.63318,-0.50446 -0.20131,-0.20366 -0.3597,-0.42682 -0.47517,-0.66949 -0.11548,-0.24267 -0.17867,-0.52981 -0.18958,-0.86143 -0.002,-0.33551 0.0656,-0.68742 0.20368,-1.0557 l 1.73468,-4.62542 1.40448,0.52673 -1.73468,4.62541 c -0.30434,0.81148 -0.0227,1.37992 0.84499,1.70532 0.86765,0.32539 1.45364,0.0824 1.75797,-0.72912 l 1.73469,-4.62542 1.40447,0.52673 -1.73468,4.62541 c -0.13812,0.36829 -0.3215,0.67688 -0.55012,0.92578 -0.22005,0.245 -0.45335,0.42095 -0.69992,0.52784 -0.24657,0.10689 -0.51577,0.16969 -0.80759,0.18841 -0.28558,0.0211 -0.55517,0.009 -0.80875,-0.0363" />
        <path
           inkscape:connector-curvature="0"
           id="path5049"
           style="font-weight:bold;font-size:10px;font-family:FreeSans;-inkscape-font-specification:'FreeSans Bold'"
           d="m 124.26897,294.46123 -1.09397,-5.72623 -1.67042,4.75513 -1.41522,-0.49715 2.41615,-6.87796 1.45296,0.51041 1.08274,5.6375 1.64391,-4.67965 1.41522,0.49715 -2.41615,6.87795 -1.41522,-0.49715" />
        <path
           inkscape:connector-curvature="0"
           id="path5051"
           style="font-weight:bold;font-size:10px;font-family:FreeSans;-inkscape-font-specification:'FreeSans Bold'"
           d="m 130.61449,288.91585 -2.31929,6.91122 -1.42206,-0.47722 2.31929,-6.91122 1.42206,0.47722" />
        <path
           inkscape:connector-curvature="0"
           id="path5053"
           style="font-weight:bold;font-size:10px;font-family:FreeSans;-inkscape-font-specification:'FreeSans Bold'"
           d="m 134.42179,291.47392 -1.85509,5.74807 -1.4275,-0.4607 1.85509,-5.74807 -2.10318,-0.67876 0.38392,-1.18959 5.55773,1.79367 -0.38392,1.18958 -2.02705,-0.6542" />
        <path
           inkscape:connector-curvature="0"
           id="path5055"
           style="font-weight:bold;font-size:10px;font-family:FreeSans;-inkscape-font-specification:'FreeSans Bold'"
           d="m 139.45489,297.8157 -2.61213,-0.79352 -0.89613,1.26411 -1.46394,-0.44473 4.59714,-6.22242 1.58833,0.48251 0.29223,7.70773 -1.47351,-0.44763 -0.032,-1.54605 m -0.029,-1.3152 -0.0806,-3.00309 -1.73738,2.45082 1.81796,0.55227" />
        <path
           inkscape:connector-curvature="0"
           id="path5057"
           style="font-weight:bold;font-size:10px;font-family:FreeSans;-inkscape-font-specification:'FreeSans Bold'"
           d="m 148.09094,296.55745 -1.34695,-0.38172 c 0.1559,-0.74574 -0.23116,-1.2504 -1.1612,-1.51398 -0.37202,-0.10542 -0.68979,-0.10886 -0.9533,-0.0103 -0.26171,0.0921 -0.42983,0.2697 -0.50435,0.53267 -0.0727,0.25657 -0.0342,0.47535 0.11542,0.65634 0.15146,0.17458 0.46922,0.3859 0.95326,0.63394 l 1.03683,0.52249 c 0.61146,0.31188 1.02109,0.66356 1.22889,1.05505 0.2096,0.38508 0.23625,0.85342 0.0799,1.40503 -0.20177,0.71196 -0.61327,1.19818 -1.2345,1.45867 -0.61941,0.25407 -1.38131,0.25295 -2.28569,-0.003 -0.89797,-0.25449 -1.54075,-0.65146 -1.92835,-1.19091 -0.38118,-0.53764 -0.48789,-1.18804 -0.32011,-1.95122 l 1.40468,0.39809 c -0.0816,0.3857 -0.0159,0.71614 0.19718,0.99132 0.21304,0.27518 0.56329,0.48185 1.05076,0.62 0.43616,0.1236 0.80294,0.13747 1.10035,0.0416 0.30382,-0.094 0.49754,-0.2886 0.58116,-0.58365 0.08,-0.28222 0.0424,-0.52847 -0.11284,-0.73876 -0.15522,-0.21029 -0.46063,-0.42849 -0.91623,-0.65462 l -0.92682,-0.47054 c -0.67379,-0.33646 -1.12052,-0.69173 -1.34018,-1.0658 -0.21966,-0.37406 -0.25224,-0.83369 -0.0977,-1.37889 0.1945,-0.6863 0.57536,-1.15002 1.14261,-1.39117 0.57547,-0.24572 1.28333,-0.24953 2.12357,-0.0114 0.24373,0.0691 0.4733,0.15146 0.68871,0.24714 0.22181,0.0975 0.44646,0.23394 0.67395,0.40927 0.22929,0.16892 0.41422,0.35992 0.55479,0.57298 0.14237,0.20666 0.23451,0.46836 0.2764,0.78511 0.0501,0.31216 0.0234,0.65104 -0.0802,1.01664" />
        <path
           inkscape:connector-curvature="0"
           id="path5059"
           style="font-weight:bold;font-size:10px;font-family:FreeSans;-inkscape-font-specification:'FreeSans Bold'"
           d="m 158.1494,301.69826 -0.60275,2.52916 -1.45913,-0.34774 1.69002,-7.0914 3.13228,0.74649 c 0.73929,0.1762 1.25867,0.49872 1.55814,0.96758 0.30594,0.47042 0.37391,1.0623 0.20391,1.77565 -0.17156,0.71984 -0.50289,1.2474 -0.99399,1.58268 -0.49112,0.33528 -1.06092,0.42565 -1.70942,0.2711 l -1.81906,-0.43352 m 0.28979,-1.21595 1.36186,0.32456 c 0.75874,0.18083 1.22235,-0.0822 1.39082,-0.78907 0.0865,-0.36315 0.0567,-0.65469 -0.0897,-0.87461 -0.13986,-0.21837 -0.40434,-0.37392 -0.79344,-0.46666 l -1.36186,-0.32456 -0.5077,2.13034" />
        <path
           inkscape:connector-curvature="0"
           id="path5061"
           style="font-weight:bold;font-size:10px;font-family:FreeSans;-inkscape-font-specification:'FreeSans Bold'"
           d="m 164.74946,302.6714 -0.40237,1.84667 3.85945,0.84093 -0.26611,1.22135 -5.32507,-1.16027 1.552,-7.12288 5.14919,1.12195 -0.26612,1.22134 -3.68358,-0.80261 -0.35127,1.61218 3.40999,0.743 -0.26611,1.22134 -3.41,-0.743" />
        <path
           inkscape:connector-curvature="0"
           id="path5063"
           style="font-weight:bold;font-size:10px;font-family:FreeSans;-inkscape-font-specification:'FreeSans Bold'"
           d="m 173.38621,307.66174 -1.90467,-5.50988 -0.9705,4.94568 -1.47192,-0.28884 1.40375,-7.15357 1.51118,0.29654 1.88082,5.42367 0.95509,-4.86717 1.47193,0.28884 -1.40375,7.15357 -1.47193,-0.28884" />
        <path
           inkscape:connector-curvature="0"
           id="path5065"
           style="font-weight:bold;font-size:10px;font-family:FreeSans;-inkscape-font-specification:'FreeSans Bold'"
           d="m 181.92435,304.15417 c -0.13009,-0.81399 -0.63528,-1.29698 -1.51559,-1.44896 -0.62411,-0.10774 -1.15481,0.0273 -1.59212,0.40505 -0.43074,0.37892 -0.71302,0.95598 -0.84685,1.73117 -0.12703,0.73579 -0.0408,1.37307 0.25852,1.91185 0.30594,0.53992 0.75782,0.86148 1.35565,0.96469 0.092,0.0159 0.19878,0.0242 0.32044,0.0249 0.12935,-0.005 0.2851,-0.0252 0.46725,-0.0614 0.18328,-0.0428 0.35683,-0.10753 0.52064,-0.19426 0.16381,-0.0867 0.31856,-0.219 0.46427,-0.3968 0.14684,-0.18437 0.25551,-0.4024 0.32603,-0.65407 l -1.6358,-0.28241 0.21265,-1.23177 2.87743,0.49675 -0.67028,3.88257 -0.88688,-0.15311 -0.0141,-0.97663 c -0.3451,0.3531 -0.70434,0.59214 -1.0777,0.71711 -0.37338,0.12497 -0.80313,0.14549 -1.28927,0.0616 -0.97229,-0.16786 -1.7158,-0.66154 -2.23055,-1.48106 -0.50819,-0.81838 -0.66815,-1.77284 -0.47988,-2.86337 0.19281,-1.11681 0.67122,-1.96783 1.43525,-2.55305 0.76403,-0.58521 1.66175,-0.78879 2.69316,-0.61074 0.86717,0.14971 1.54253,0.48956 2.02609,1.01954 0.48354,0.53 0.70723,1.17411 0.67105,1.93233 l -1.38945,-0.23987" />
        <path
           inkscape:connector-curvature="0"
           id="path5067"
           style="font-weight:bold;font-size:10px;font-family:FreeSans;-inkscape-font-specification:'FreeSans Bold'"
           d="m 189.29348,305.28809 c -0.15002,-0.81056 -0.66692,-1.281 -1.55068,-1.41134 -0.62657,-0.0924 -1.1538,0.0556 -1.5817,0.444 -0.42132,0.38937 -0.68936,0.97318 -0.80413,1.75142 -0.10893,0.73868 -0.007,1.37366 0.30536,1.90493 0.31909,0.53225 0.77873,0.84263 1.37891,0.93114 0.0923,0.0136 0.19931,0.0193 0.32095,0.017 0.1292,-0.008 0.2844,-0.0322 0.46561,-0.0728 0.18217,-0.0473 0.35408,-0.11625 0.51571,-0.20697 0.16163,-0.0907 0.31309,-0.22675 0.4544,-0.40808 0.14227,-0.18792 0.24556,-0.40854 0.30988,-0.66187 l -1.64224,-0.24218 0.18236,-1.23663 2.88876,0.42601 -0.57481,3.89784 -0.89037,-0.1313 -0.038,-0.97599 c -0.33634,0.36147 -0.6896,0.60925 -1.05979,0.74334 -0.37019,0.13409 -0.79932,0.16515 -1.28737,0.0932 -0.97611,-0.14395 -1.73152,-0.61924 -2.26622,-1.42588 -0.52811,-0.80567 -0.71144,-1.75591 -0.54998,-2.85074 0.16534,-1.1212 0.62273,-1.9837 1.37217,-2.5875 0.74944,-0.60378 1.64189,-0.82932 2.67736,-0.67663 0.87058,0.12839 1.55408,0.45157 2.0505,0.96952 0.4964,0.51797 0.73582,1.1564 0.71826,1.91529 l -1.39492,-0.20571" />
        <path
           inkscape:connector-curvature="0"
           id="path5069"
           style="font-weight:bold;font-size:10px;font-family:FreeSans;-inkscape-font-specification:'FreeSans Bold'"
           d="m 194.99037,311.1896 c -0.25051,0.0164 -0.50811,0.009 -0.77281,-0.0238 -0.2647,-0.0323 -0.51996,-0.087 -0.76577,-0.164 -0.23919,-0.0762 -0.48387,-0.19004 -0.73403,-0.34147 -0.24354,-0.15062 -0.44996,-0.33029 -0.61925,-0.53901 -0.16929,-0.20871 -0.29822,-0.47295 -0.38679,-0.79271 -0.0812,-0.32556 -0.0979,-0.68356 -0.0502,-1.074 l 0.59861,-4.9036 1.48895,0.18177 -0.59862,4.9036 c -0.10502,0.86028 0.30239,1.34656 1.22223,1.45885 0.91983,0.1123 1.43226,-0.2617 1.53729,-1.12198 l 0.59861,-4.90359 1.48895,0.18176 -0.59862,4.9036 c -0.0477,0.39043 -0.15335,0.73349 -0.31705,1.02916 -0.15628,0.28987 -0.34168,0.51573 -0.5562,0.6776 -0.21454,0.16186 -0.46142,0.28619 -0.74066,0.37299 -0.27263,0.0876 -0.5375,0.13923 -0.79462,0.15485" />
        <path
           inkscape:connector-curvature="0"
           id="path5071"
           style="font-weight:bold;font-size:10px;font-family:FreeSans;-inkscape-font-specification:'FreeSans Bold'"
           d="m 202.88205,311.86388 -2.43108,-5.29872 -0.48531,5.01658 -1.49303,-0.14444 0.70197,-7.25612 1.53284,0.14829 2.39897,5.21523 0.4776,-4.93695 1.49303,0.14444 -0.70196,7.25612 -1.49303,-0.14443" />
        <path
           inkscape:connector-curvature="0"
           id="path5073"
           style="font-weight:bold;font-size:10px;font-family:FreeSans;-inkscape-font-specification:'FreeSans Bold'"
           d="m 210.09,310.95446 -2.72325,-0.19186 -0.5921,1.43193 -1.52622,-0.10753 3.09593,-7.08995 1.6559,0.11666 2.00143,7.44908 -1.53619,-0.10823 -0.3755,-1.5001 m -0.32114,-1.27573 -0.74736,-2.90971 -1.14794,2.77618 1.8953,0.13353" />
        <path
           inkscape:connector-curvature="0"
           id="path5075"
           style="font-weight:bold;font-size:10px;font-family:FreeSans;-inkscape-font-specification:'FreeSans Bold'"
           d="m 222.90239,305.6512 -0.0751,6.03954 3.48973,0.0434 -0.0155,1.24991 -4.98961,-0.062 0.0906,-7.28943 1.49988,0.0186" />
        <path
           inkscape:connector-curvature="0"
           id="path5077"
           style="font-weight:bold;font-size:10px;font-family:FreeSans;-inkscape-font-specification:'FreeSans Bold'"
           d="m 228.7129,305.67099 0.042,7.28988 -1.49998,0.009 -0.042,-7.28988 1.49998,-0.009" />
        <path
           inkscape:connector-curvature="0"
           id="path5079"
           style="font-weight:bold;font-size:10px;font-family:FreeSans;-inkscape-font-specification:'FreeSans Bold'"
           d="m 234.50725,312.8435 -3.06471,-4.95923 0.13578,5.03817 -1.49946,0.0404 -0.19639,-7.28735 1.53944,-0.0415 3.02257,4.88034 -0.13362,-4.9582 1.49945,-0.0404 0.1964,7.28735 -1.49946,0.0404" />
        <path
           inkscape:connector-curvature="0"
           id="path5081"
           style="font-weight:bold;font-size:10px;font-family:FreeSans;-inkscape-font-specification:'FreeSans Bold'"
           d="m 241.04543,312.68826 c -0.24351,0.0611 -0.49836,0.0994 -0.76457,0.11504 -0.26621,0.0156 -0.52713,0.008 -0.78276,-0.0241 -0.24898,-0.0321 -0.51009,-0.10025 -0.78334,-0.2044 -0.26659,-0.10455 -0.50186,-0.24432 -0.70581,-0.41933 -0.20395,-0.175 -0.37814,-0.41186 -0.52257,-0.71057 -0.13817,-0.30576 -0.2188,-0.65496 -0.24186,-1.04762 l -0.28975,-4.9315 1.49742,-0.088 0.28974,4.93149 c 0.0508,0.86518 0.53878,1.27059 1.46386,1.21624 0.92507,-0.0543 1.36218,-0.51412 1.31136,-1.37929 l -0.28975,-4.9315 1.49742,-0.088 0.28974,4.9315 c 0.0231,0.39266 -0.0194,0.7491 -0.1275,1.06932 -0.10181,0.31318 -0.24374,0.56861 -0.42578,0.76629 -0.18206,0.19769 -0.40267,0.36425 -0.66184,0.49968 -0.25252,0.13504 -0.50385,0.23329 -0.75401,0.29473" />
        <path
           inkscape:connector-curvature="0"
           id="path5083"
           style="font-weight:bold;font-size:10px;font-family:FreeSans;-inkscape-font-specification:'FreeSans Bold'"
           d="m 247.67431,308.27684 2.66701,3.49301 -1.7727,0.16106 -1.62319,-2.39294 -1.15537,2.6454 -1.73286,0.15744 1.95848,-3.86306 -2.53845,-3.40427 1.7727,-0.16107 1.49192,2.27434 1.11733,-2.51141 1.73287,-0.15744 -1.91774,3.75894" />
        <path
           inkscape:connector-curvature="0"
           id="path5085"
           style="font-weight:bold;font-size:10px;font-family:FreeSans;-inkscape-font-specification:'FreeSans Bold'"
           d="m 263.78633,309.86931 -3.72141,-4.48749 0.83157,4.97093 -1.47944,0.24749 -1.20281,-7.19009 1.5189,-0.25409 3.66876,4.41519 -0.81837,-4.89202 1.47944,-0.24749 1.20281,7.19008 -1.47945,0.24749" />
        <path
           inkscape:connector-curvature="0"
           id="path5087"
           style="font-weight:bold;font-size:10px;font-family:FreeSans;-inkscape-font-specification:'FreeSans Bold'"
           d="m 270.23596,308.78373 c -0.23213,0.0956 -0.47877,0.17039 -0.73992,0.22434 -0.26115,0.054 -0.52049,0.0837 -0.77803,0.0893 -0.25101,0.004 -0.51922,-0.0255 -0.80465,-0.089 -0.27891,-0.0649 -0.53191,-0.16921 -0.75901,-0.3129 -0.2271,-0.14369 -0.4337,-0.35288 -0.6198,-0.62758 -0.18091,-0.28257 -0.31116,-0.61645 -0.39074,-1.00165 l -0.99951,-4.83783 1.46897,-0.3035 0.99951,4.83783 c 0.17535,0.84874 0.71678,1.17937 1.62428,0.99188 0.9075,-0.18749 1.27357,-0.70561 1.09823,-1.55436 l -0.99951,-4.83782 1.46897,-0.3035 0.99951,4.83783 c 0.0796,0.3852 0.089,0.74404 0.0284,1.07652 -0.0555,0.32461 -0.15899,0.59787 -0.31055,0.81979 -0.15158,0.22192 -0.3458,0.41862 -0.58266,0.59009 -0.23035,0.17013 -0.46485,0.30367 -0.70349,0.40063" />
        <path
           inkscape:connector-curvature="0"
           id="path5089"
           style="font-weight:bold;font-size:10px;font-family:FreeSans;-inkscape-font-specification:'FreeSans Bold'"
           d="m 277.63651,301.68063 -1.35957,0.33404 c -0.23313,-0.72532 -0.81906,-0.97266 -1.75781,-0.74202 -0.3755,0.0923 -0.65343,0.24636 -0.83378,0.46229 -0.18194,0.20946 -0.24031,0.44691 -0.17509,0.71235 0.0636,0.25897 0.20522,0.43013 0.42478,0.51348 0.21797,0.0769 0.59865,0.10349 1.14203,0.0798 l 1.15957,-0.0584 c 0.68569,-0.0312 1.21562,0.072 1.58979,0.30962 0.37256,0.23112 0.62724,0.62507 0.76405,1.18184 0.17655,0.71863 0.0592,1.34471 -0.35203,1.87823 -0.41284,0.52706 -1.07568,0.90273 -1.98853,1.12701 -0.90638,0.22269 -1.66137,0.19538 -2.26497,-0.082 -0.59713,-0.27891 -1.0114,-0.79154 -1.24283,-1.53788 l 1.41784,-0.34835 c 0.11974,0.37561 0.34022,0.63036 0.66145,0.76425 0.32122,0.13389 0.72785,0.14039 1.21988,0.0195 0.44024,-0.10816 0.76593,-0.27742 0.97707,-0.50779 0.2176,-0.23195 0.28982,-0.49683 0.21665,-0.79464 -0.07,-0.28486 -0.22442,-0.48033 -0.46329,-0.5864 -0.23888,-0.10606 -0.61223,-0.14477 -1.12005,-0.11611 l -1.03826,0.0491 c -0.75204,0.0406 -1.31598,-0.0474 -1.69185,-0.26396 -0.37586,-0.21657 -0.63139,-0.60001 -0.7666,-1.15031 -0.1702,-0.69273 -0.0684,-1.28411 0.30552,-1.77414 0.37877,-0.49808 0.9922,-0.85131 1.84031,-1.0597 0.24602,-0.0604 0.4863,-0.10231 0.72085,-0.12562 0.24102,-0.0249 0.50374,-0.0174 0.78815,0.0226 0.28283,0.0335 0.538,0.1081 0.76551,0.22382 0.22593,0.10926 0.43539,0.2912 0.62839,0.54583 0.19787,0.24659 0.34215,0.55438 0.43282,0.9234" />
        <path
           inkscape:connector-curvature="0"
           id="path5091"
           style="font-weight:bold;font-size:10px;font-family:FreeSans;-inkscape-font-specification:'FreeSans Bold'"
           d="m 283.567,303.74237 -2.62408,0.75308 -0.0655,1.54813 -1.47064,0.42205 0.47855,-7.7216 1.59559,-0.45792 4.43319,6.312 -1.48025,0.42482 -0.86688,-1.28056 m -0.73891,-1.0884 -1.69931,-2.47736 -0.12697,3.00148 1.82628,-0.52412" />
        <path
           inkscape:connector-curvature="0"
           id="path5093"
           style="font-weight:bold;font-size:10px;font-family:FreeSans;-inkscape-font-specification:'FreeSans Bold'"
           d="m 295.40087,294.8559 2.17692,5.63406 -1.39919,0.54062 -2.17692,-5.63406 -2.06147,0.79653 -0.45052,-1.16599 5.4475,-2.10484 0.45052,1.16599 -1.98684,0.76769" />
        <path
           inkscape:connector-curvature="0"
           id="path5095"
           style="font-weight:bold;font-size:10px;font-family:FreeSans;-inkscape-font-specification:'FreeSans Bold'"
           d="m 300.54661,295.88859 0.75062,1.73455 3.62512,-1.56876 0.49644,1.14719 -5.00175,2.16449 -2.89525,-6.69042 4.83656,-2.09299 0.49644,1.14719 -3.45993,1.49726 0.65531,1.5143 3.20295,-1.38607 0.49644,1.14719 -3.20295,1.38607" />
        <path
           inkscape:connector-curvature="0"
           id="path5097"
           style="font-weight:bold;font-size:10px;font-family:FreeSans;-inkscape-font-specification:'FreeSans Bold'"
           d="m 310.42183,294.79874 -4.8385,-3.25199 2.20331,4.53288 -1.34907,0.65575 -3.18694,-6.55649 1.38505,-0.67323 4.76755,3.19752 -2.16834,-4.46093 1.34908,-0.65575 3.18693,6.55649 -1.34907,0.65575" />
        <path
           inkscape:connector-curvature="0"
           id="path5099"
           style="font-weight:bold;font-size:10px;font-family:FreeSans;-inkscape-font-specification:'FreeSans Bold'"
           d="m 314.95247,286.79129 c -0.60804,-0.55659 -1.30402,-0.62071 -2.08795,-0.19235 -0.55577,0.3037 -0.88744,0.73945 -0.99502,1.30723 -0.10172,0.56459 0.036,1.19205 0.41325,1.88237 0.35804,0.65523 0.8218,1.10074 1.39128,1.33654 0.57533,0.2326 1.12918,0.20345 1.66155,-0.0875 0.0819,-0.0448 0.17071,-0.10467 0.26643,-0.17977 0.0984,-0.0841 0.20761,-0.19702 0.32775,-0.33864 0.11694,-0.14746 0.21259,-0.30609 0.28695,-0.47588 0.0744,-0.16977 0.11331,-0.36959 0.11687,-0.59945 3.4e-4,-0.23569 -0.0501,-0.47402 -0.15139,-0.71497 l -1.4567,0.796 -0.5994,-1.09691 2.5624,-1.4002 1.8893,3.45748 -0.78978,0.43156 -0.61829,-0.75611 c -0.0507,0.49113 -0.18341,0.90171 -0.39811,1.23175 -0.21471,0.33004 -0.53851,0.61334 -0.97143,0.8499 -0.86583,0.47313 -1.75511,0.54882 -2.66783,0.22709 -0.90687,-0.32493 -1.62564,-0.97296 -2.15631,-1.9441 -0.54345,-0.99453 -0.69795,-1.9585 -0.46349,-2.89192 0.23446,-0.9334 0.81093,-1.65105 1.72942,-2.15295 0.77222,-0.42197 1.51246,-0.57577 2.22072,-0.46139 0.70825,0.1144 1.28395,0.47975 1.7271,1.09606 l -1.23732,0.67612" />
        <path
           inkscape:connector-curvature="0"
           id="path5101"
           style="font-weight:bold;font-size:10px;font-family:FreeSans;-inkscape-font-specification:'FreeSans Bold'"
           d="m 321.25483,283.03546 c -0.63442,-0.52632 -1.33269,-0.55647 -2.09483,-0.0904 -0.54032,0.33041 -0.85038,0.78178 -0.93018,1.35413 -0.0741,0.56888 0.094,1.18889 0.50442,1.86002 0.38952,0.63701 0.87443,1.05941 1.45472,1.2672 0.58597,0.20431 1.13775,0.14822 1.65532,-0.16827 0.0796,-0.0487 0.16541,-0.11286 0.25735,-0.19253 0.0942,-0.0888 0.19778,-0.2069 0.31088,-0.3542 0.10962,-0.15298 0.19743,-0.31608 0.26344,-0.48929 0.066,-0.1732 0.0952,-0.37467 0.0875,-0.60443 -0.0111,-0.23543 -0.0731,-0.47102 -0.18602,-0.70675 l -1.41621,0.866 -0.65211,-1.06643 2.49117,-1.52332 2.05543,3.36137 -0.76782,0.46952 -0.65438,-0.72511 c -0.0267,0.49302 -0.13929,0.90957 -0.33765,1.24967 -0.19838,0.34011 -0.50801,0.63884 -0.92889,0.8962 -0.84176,0.51473 -1.7263,0.63365 -2.65361,0.35674 -0.92162,-0.28038 -1.67109,-0.89264 -2.24842,-1.83678 -0.59124,-0.96689 -0.7925,-1.9222 -0.60378,-2.86592 0.18873,-0.94371 0.72957,-1.68858 1.62252,-2.23462 0.75077,-0.45907 1.48264,-0.64873 2.19563,-0.56898 0.71298,0.0798 1.30579,0.41665 1.77842,1.01065 l -1.20293,0.73557" />
        <path
           inkscape:connector-curvature="0"
           id="path5103"
           style="font-weight:bold;font-size:10px;font-family:FreeSans;-inkscape-font-specification:'FreeSans Bold'"
           d="m 328.59631,282.35615 -2.25833,1.53391 0.42061,1.49134 -1.26565,0.85966 -1.95353,-7.48572 1.3732,-0.9327 6.18064,4.61455 -1.27392,0.86528 -1.22302,-0.94632 m -1.0415,-0.80366 -2.3872,-1.82382 0.81547,2.89137 1.57173,-1.06755" />
        <path
           inkscape:connector-curvature="0"
           id="path5105"
           style="font-weight:bold;font-size:10px;font-family:FreeSans;-inkscape-font-specification:'FreeSans Bold'"
           d="m 334.45,278.36651 c -0.12002,-0.15998 -0.21137,-0.28731 -0.27404,-0.38197 -0.0627,-0.0947 -0.12002,-0.17665 -0.17202,-0.24599 -0.18402,-0.24531 -0.3747,-0.37729 -0.57204,-0.39594 -0.20133,-0.024 -0.43266,0.062 -0.69397,0.25806 l -1.37591,1.03212 1.73421,2.31185 -1.19993,0.9001 -4.37451,-5.83161 3.12779,-2.34628 c 0.29865,-0.22402 0.59263,-0.36537 0.88196,-0.42408 0.29466,-0.0627 0.55733,-0.0514 0.788,0.0339 0.23601,0.0813 0.44202,0.18931 0.61803,0.32395 0.17201,0.12933 0.32603,0.28465 0.46204,0.46596 0.52806,0.70396 0.56013,1.42996 0.0962,2.17799 0.18799,-0.0493 0.33065,-0.0814 0.42799,-0.096 0.0933,-0.02 0.20466,-0.016 0.334,0.012 0.13467,0.024 0.23667,0.06 0.30601,0.10797 0.0747,0.044 0.18668,0.14333 0.33603,0.29797 0.15467,0.15066 0.29669,0.30665 0.42604,0.46797 0.12934,0.16132 0.3187,0.40264 0.56806,0.72395 0.16802,0.22399 0.37336,0.31997 0.61603,0.28794 l 0.16202,0.21599 -1.28792,0.96611 c -0.17868,-0.0827 -0.32935,-0.17797 -0.45202,-0.28596 -0.11735,-0.11198 -0.27803,-0.30397 -0.48205,-0.57596 m -2.12429,-3.23181 c -0.22403,-0.29864 -0.44137,-0.44395 -0.65204,-0.43594 -0.21467,0.003 -0.46599,0.11205 -0.75397,0.32807 l -1.4479,1.08613 1.14013,1.5199 1.4479,-1.08613 c 0.28265,-0.21202 0.4553,-0.4207 0.51795,-0.62605 0.068,-0.20933 -0.016,-0.47132 -0.25207,-0.78598" />
        <path
           inkscape:connector-curvature="0"
           id="path5107"
           style="font-weight:bold;font-size:10px;font-family:FreeSans;-inkscape-font-specification:'FreeSans Bold'"
           d="m 339.88806,273.72323 -2.10515,1.73817 0.55809,1.44552 -1.17982,0.97414 -2.64428,-7.27048 1.28006,-1.05691 6.5847,4.01699 -1.18753,0.9805 -1.30607,-0.82793 m -1.11202,-0.70285 -2.54714,-1.59283 1.08201,2.80254 1.46513,-1.20971" />
        <path
           inkscape:connector-curvature="0"
           id="path5109"
           style="font-weight:bold;font-size:10px;font-family:FreeSans;-inkscape-font-specification:'FreeSans Bold'"
           d="m 351.88523,261.6279 c 0.17012,0.16929 0.3073,0.36223 0.41155,0.57882 0.10424,0.21659 0.17085,0.46627 0.19983,0.74904 0.0337,0.27805 -0.0268,0.58933 -0.18155,0.93383 -0.15471,0.34451 -0.40371,0.68925 -0.74698,1.03422 l -2.3136,2.32501 -5.16748,-5.14209 2.29243,-2.30375 c 0.31977,-0.32134 0.64211,-0.55076 0.96704,-0.68828 0.32964,-0.14223 0.62649,-0.19481 0.89057,-0.15776 0.26406,0.0277 0.49283,0.086 0.68633,0.17509 0.19349,0.0891 0.35876,0.20183 0.49581,0.33819 0.2221,0.22102 0.35941,0.46582 0.41193,0.73438 0.0525,0.26858 0.0345,0.61275 -0.054,1.03251 0.90451,-0.23792 1.60723,-0.10766 2.10815,0.39079 m -5.85413,0.29726 1.1696,1.16385 1.14974,-1.15542 c 0.49845,-0.50091 0.55393,-0.94417 0.16643,-1.32977 -0.39223,-0.3903 -0.83757,-0.33499 -1.33603,0.16592 l -1.14974,1.15542 m 2.05565,2.04555 1.33972,1.33314 1.2626,-1.26883 c 0.52197,-0.52454 0.56085,-1.00783 0.11664,-1.44986 -0.44894,-0.44673 -0.93439,-0.40782 -1.45636,0.11672 l -1.2626,1.26883" />
        <path
           inkscape:connector-curvature="0"
           id="path5111"
           style="font-weight:bold;font-size:10px;font-family:FreeSans;-inkscape-font-specification:'FreeSans Bold'"
           d="m 355.85995,258.22408 -1.84003,2.01673 0.75567,1.35276 -1.03123,1.13025 -3.63965,-6.82679 1.11884,-1.22629 7.08382,3.0519 -1.03797,1.13764 -1.40945,-0.6362 m -1.19975,-0.53963 -2.74568,-1.21911 1.46507,2.6227 1.28061,-1.40359" />
        <path
           inkscape:connector-curvature="0"
           id="path5113"
           style="font-weight:bold;font-size:10px;font-family:FreeSans;-inkscape-font-specification:'FreeSans Bold'"
           d="m 360.645,252.99238 c -0.15336,-0.12838 -0.27135,-0.23149 -0.35397,-0.30936 -0.0826,-0.0779 -0.15717,-0.1446 -0.22362,-0.20023 -0.23516,-0.19685 -0.45092,-0.28183 -0.64731,-0.25496 -0.20149,0.0226 -0.40708,0.15915 -0.61677,0.40963 l -1.10405,1.31889 2.21604,1.85506 -0.96284,1.1502 -5.58994,-4.6794 2.5098,-2.99817 c 0.23964,-0.28626 0.49361,-0.49098 0.76191,-0.61416 0.27258,-0.12827 0.5309,-0.17721 0.77495,-0.1468 0.24834,0.0253 0.47355,0.0834 0.67565,0.17436 0.19698,0.0866 0.38238,0.20273 0.55619,0.34821 0.67478,0.56488 0.87168,1.2644 0.5907,2.09857 0.17177,-0.0909 0.30336,-0.15467 0.39478,-0.19118 0.0863,-0.0408 0.19561,-0.0623 0.32792,-0.0646 0.13659,-0.007 0.24411,0.004 0.32257,0.0353 0.0827,0.0258 0.21446,0.0969 0.39516,0.21342 0.18498,0.11138 0.35885,0.23084 0.5216,0.35838 0.16275,0.12756 0.40218,0.31929 0.71829,0.57521 0.2147,0.17973 0.43652,0.22632 0.66548,0.13976 l 0.20703,0.17331 -1.03344,1.23454 c -0.19283,-0.0397 -0.36128,-0.0981 -0.50536,-0.17525 -0.13981,-0.0822 -0.34006,-0.2325 -0.60077,-0.45075 m -2.80577,-2.66174 c -0.28627,-0.23963 -0.53105,-0.33151 -0.73432,-0.27563 -0.20839,0.0516 -0.42813,0.21544 -0.65921,0.49148 l -1.16182,1.3879 1.45691,1.21959 1.16182,-1.3879 c 0.2268,-0.27093 0.34727,-0.5135 0.3614,-0.72773 0.0184,-0.21932 -0.12318,-0.45522 -0.42478,-0.70771" />
        <path
           inkscape:connector-curvature="0"
           id="path5115"
           style="font-weight:bold;font-size:10px;font-family:FreeSans;-inkscape-font-specification:'FreeSans Bold'"
           d="m 364.90701,247.24055 -1.66698,2.16196 0.86493,1.28565 -0.93424,1.21165 -4.19166,-6.50247 1.01362,-1.3146 7.31191,2.45572 -0.94035,1.21957 -1.45723,-0.51748 m -1.24026,-0.43858 -2.83708,-0.98792 1.67691,2.49259 1.16017,-1.50467" />
        <path
           inkscape:connector-curvature="0"
           id="path5117"
           style="font-weight:bold;font-size:10px;font-family:FreeSans;-inkscape-font-specification:'FreeSans Bold'"
           d="m 364.50748,240.04203 4.91263,3.51392 -0.87267,1.22003 -4.91263,-3.51393 -1.28572,1.7975 -1.01669,-0.72722 3.39758,-4.74996 1.01668,0.72722 -1.23918,1.73244" />
        <path
           inkscape:connector-curvature="0"
           id="path5119"
           style="font-weight:bold;font-size:10px;font-family:FreeSans;-inkscape-font-specification:'FreeSans Bold'"
           d="m 372.78027,224.80215 8.03481,4.66326 -0.40158,0.69191 -8.0348,-4.66326 0.40157,-0.69191" />
        <path
           inkscape:connector-curvature="0"
           id="path5121"
           style="font-weight:bold;font-size:10px;font-family:FreeSans;-inkscape-font-specification:'FreeSans Bold'"
           d="m 381.78876,208.51347 c -0.89251,-0.0313 -1.44253,0.36687 -1.65006,1.19458 -0.14429,0.57553 -0.0371,1.08007 0.32155,1.51364 0.35866,0.43358 0.92921,0.74846 1.71166,0.94463 0.76951,0.19294 1.40981,0.18852 1.92089,-0.0132 0.5127,-0.20823 0.83957,-0.59364 0.98063,-1.15623 0.11349,-0.45265 0.0814,-0.84558 -0.0962,-1.17879 -0.17763,-0.33319 -0.4871,-0.57917 -0.92841,-0.73793 l 0.35507,-1.41617 c 0.79696,0.24793 1.36661,0.70348 1.70895,1.36664 0.33586,0.66154 0.39355,1.43204 0.17305,2.31148 -0.24644,0.98291 -0.77159,1.67944 -1.57547,2.08959 -0.81035,0.40852 -1.78458,0.47011 -2.92269,0.18476 -1.14456,-0.28697 -1.97692,-0.80494 -2.49706,-1.55392 -0.52013,-0.74898 -0.65535,-1.62139 -0.40568,-2.61724 0.20915,-0.83417 0.6033,-1.46045 1.18243,-1.87885 0.58076,-0.42484 1.27047,-0.57151 2.06912,-0.44001 l -0.34776,1.38707" />
        <path
           inkscape:connector-curvature="0"
           id="path5123"
           style="font-weight:bold;font-size:10px;font-family:FreeSans;-inkscape-font-specification:'FreeSans Bold'"
           d="m 380.01271,204.536 7.18198,1.2503 -0.25726,1.47777 -7.18198,-1.2503 0.25726,-1.47777" />
        <path
           inkscape:connector-curvature="0"
           id="path5125"
           style="font-weight:bold;font-size:10px;font-family:FreeSans;-inkscape-font-specification:'FreeSans Bold'"
           d="m 387.905,200.0778 -5.3148,2.3957 5.01323,0.51874 -0.15438,1.49203 -7.25129,-0.75031 0.1585,-1.53182 5.23111,-2.36415 -4.93366,-0.5105 0.15439,-1.49204 7.25128,0.75031 -0.15438,1.49204" />
        <path
           inkscape:connector-curvature="0"
           id="path5127"
           style="font-weight:bold;font-size:10px;font-family:FreeSans;-inkscape-font-specification:'FreeSans Bold'"
           d="m 382.12105,193.9975 6.03881,0.11956 -0.0297,1.49971 -6.03882,-0.11957 -0.0437,2.20957 -1.24975,-0.0248 0.11561,-5.83885 1.24975,0.0247 -0.0422,2.12959" />
        <path
           inkscape:connector-curvature="0"
           id="path5129"
           style="font-weight:bold;font-size:10px;font-family:FreeSans;-inkscape-font-specification:'FreeSans Bold'"
           d="m 386.47165,187.43842 0.15251,2.72574 1.49508,0.40711 0.0855,1.52761 -7.4233,-2.1787 -0.0927,-1.65741 7.13784,-2.92332 0.086,1.5376 -1.44089,0.56137 m -1.22514,0.47919 -2.79248,1.10773 2.89862,0.7893 -0.10614,-1.89703" />
        <path
           inkscape:connector-curvature="0"
           id="path5131"
           style="font-weight:bold;font-size:10px;font-family:FreeSans;-inkscape-font-specification:'FreeSans Bold'"
           d="m 383.8007,175.21634 2.3863,-0.50909 0.31296,1.46699 -7.12956,1.521 -0.31296,-1.46698 3.12957,-0.66766 -3.72421,-2.11962 -0.3693,-1.73105 3.67805,2.19082 3.38684,-4.015 0.37347,1.7506 -2.65048,3.00923 0.91932,0.57076" />
        <path
           inkscape:connector-curvature="0"
           id="path5133"
           style="font-weight:bold;font-size:10px;font-family:FreeSans;-inkscape-font-specification:'FreeSans Bold'"
           d="m 382.38986,165.39167 0.72632,2.6316 1.54739,0.0813 0.40706,1.47485 -7.71634,-0.55713 -0.44164,-1.60017 6.3568,-4.3687 0.40972,1.4845 -1.28931,0.8538 m -1.09587,0.72778 -2.49453,1.67401 3.00003,0.15752 -0.5055,-1.83153" />
        <path
           inkscape:connector-curvature="0"
           id="path5135"
           style="font-weight:bold;font-size:10px;font-family:FreeSans;-inkscape-font-specification:'FreeSans Bold'"
           d="m 377.15239,162.62872 5.38187,-1.816 0.47958,1.42127 -6.90737,2.33074 -0.71617,-2.12243 5.07355,-3.10508 -5.90481,0.64155 -0.72257,-2.14138 6.90737,-2.33074 0.47958,1.42126 -5.38187,1.816 5.7943,-0.5937 0.47958,1.42127 -4.96304,3.05724" />
        <path
           inkscape:connector-curvature="0"
           id="path5137"
           style="font-weight:bold;font-size:10px;font-family:FreeSans;-inkscape-font-specification:'FreeSans Bold'"
           d="m 372.9364,155.5623 6.81823,-2.57988 0.53084,1.40293 -6.81823,2.57988 -0.53084,-1.40293" />
        <path
           inkscape:connector-curvature="0"
           id="path5139"
           style="font-weight:bold;font-size:10px;font-family:FreeSans;-inkscape-font-specification:'FreeSans Bold'"
           d="m 369.19355,141.31869 0.58922,1.26997 c -0.66695,0.36825 -0.79701,0.99081 -0.39017,1.86769 0.16274,0.35075 0.3674,0.59386 0.61398,0.72933 0.24054,0.13827 0.48479,0.14989 0.73273,0.0349 0.2419,-0.11223 0.38264,-0.2841 0.42221,-0.51559 0.0335,-0.22868 -0.0136,-0.60737 -0.14126,-1.13606 l -0.28023,-1.12671 c -0.16243,-0.66691 -0.16305,-1.20679 -0.002,-1.61966 0.15516,-0.41005 0.49279,-0.73573 1.01286,-0.97704 0.67127,-0.31144 1.30823,-0.31667 1.91088,-0.0157 0.5966,0.3038 1.09272,0.88203 1.48834,1.73472 0.39281,0.84665 0.51118,1.5928 0.35509,2.23846 -0.15889,0.63962 -0.58229,1.14473 -1.27021,1.51535 l -0.61447,-1.32439 c 0.34557,-0.18974 0.55318,-0.45509 0.6228,-0.79607 0.0696,-0.34097 -0.002,-0.74126 -0.21543,-1.20087 -0.19079,-0.41122 -0.41952,-0.69828 -0.68618,-0.86119 -0.26947,-0.16894 -0.54329,-0.18888 -0.82148,-0.0598 -0.26608,0.12346 -0.4282,0.31259 -0.48637,0.5674 -0.0582,0.25481 -0.0243,0.62864 0.10142,1.12148 l 0.24787,1.00943 c 0.18446,0.73019 0.20655,1.30053 0.0663,1.71103 -0.14026,0.41049 -0.46741,0.73498 -0.98145,0.97348 -0.64707,0.30022 -1.24699,0.31399 -1.79977,0.0413 -0.56162,-0.27593 -1.02622,-0.80999 -1.39379,-1.60221 -0.10661,-0.2298 -0.1939,-0.45755 -0.26188,-0.68324 -0.0708,-0.23174 -0.11389,-0.491 -0.12937,-0.77779 -0.0215,-0.28399 0.003,-0.54874 0.0724,-0.79427 0.0638,-0.24271 0.20206,-0.48325 0.41483,-0.72161 0.20393,-0.24159 0.47824,-0.44236 0.82294,-0.6023" />
        <path
           inkscape:connector-curvature="0"
           id="path5141"
           style="font-weight:bold;font-size:10px;font-family:FreeSans;-inkscape-font-specification:'FreeSans Bold'"
           d="m 370.09191,135.08576 1.23089,2.43677 1.53303,-0.22542 0.68985,1.36565 -7.67473,0.97509 -0.74845,-1.48169 5.37075,-5.53621 0.69434,1.37459 -1.09568,1.09122 m -0.93087,0.92956 -2.11554,2.13295 2.9722,-0.43704 -0.85666,-1.69591" />
        <path
           inkscape:connector-curvature="0"
           id="path5143"
           style="font-weight:bold;font-size:10px;font-family:FreeSans;-inkscape-font-specification:'FreeSans Bold'"
           d="m 364.39179,133.28315 4.97808,-2.73515 0.72232,1.31463 -6.38913,3.51044 -1.07865,-1.96319 4.44762,-3.94982 -5.69963,1.67112 -1.08828,-1.98071 6.38912,-3.51044 0.72231,1.31463 -4.97808,2.73516 5.59927,-1.60457 0.72231,1.31463 -4.34726,3.88327" />
        <path
           inkscape:connector-curvature="0"
           id="path5145"
           style="font-weight:bold;font-size:10px;font-family:FreeSans;-inkscape-font-specification:'FreeSans Bold'"
           d="m 362.9902,124.51105 2.24088,-1.3185 0.76068,1.29281 -6.28309,3.69689 -1.63291,-2.77525 c -0.3854,-0.65502 -0.5129,-1.25296 -0.3825,-1.79379 0.12704,-0.54658 0.50658,-1.00582 1.13861,-1.3777 0.6378,-0.37527 1.24773,-0.50209 1.8298,-0.38048 0.58207,0.12163 1.04215,0.46973 1.38022,1.04431 l 0.94831,1.61171 m -1.07734,0.6339 -0.70997,-1.20663 c -0.39554,-0.67226 -0.90647,-0.82414 -1.53277,-0.45564 -0.32176,0.18933 -0.51119,0.41294 -0.5683,0.67085 -0.0605,0.25217 0.0107,0.55063 0.21356,0.89538 l 0.70996,1.20662 1.88752,-1.11058" />
        <path
           inkscape:connector-curvature="0"
           id="path5147"
           style="font-weight:bold;font-size:10px;font-family:FreeSans;-inkscape-font-specification:'FreeSans Bold'"
           d="m 359.40566,116.42605 1.443,2.31747 1.50687,-0.36104 0.80871,1.2988 -7.5574,1.65465 -0.87743,-1.40916 4.85641,-5.99247 0.814,1.30729 -0.99416,1.18446 m -0.8444,1.00876 -1.91719,2.31287 2.92148,-0.69998 -1.00429,-1.61289" />
        <path
           inkscape:connector-curvature="0"
           id="path5149"
           style="font-weight:bold;font-size:10px;font-family:FreeSans;-inkscape-font-specification:'FreeSans Bold'"
           d="m 352.18798,115.95366 6.11859,-3.9632 0.81547,1.25897 -6.11859,3.9632 -0.81547,-1.25897" />
        <path
           inkscape:connector-curvature="0"
           id="path5151"
           style="font-weight:bold;font-size:10px;font-family:FreeSans;-inkscape-font-specification:'FreeSans Bold'"
           d="m 347.44494,106.08298 4.62175,-3.30179 0.87195,1.22053 -5.93179,4.23769 -1.30212,-1.82266 3.95208,-4.44562 -5.46346,2.33003 -1.31374,-1.83894 5.93179,-4.237685 0.87195,1.220533 -4.62175,3.301792 5.37163,-2.25213 0.87195,1.22053 -3.86024,4.36772" />
        <path
           inkscape:connector-curvature="0"
           id="path5153"
           style="font-weight:bold;font-size:10px;font-family:FreeSans;-inkscape-font-specification:'FreeSans Bold'"
           d="m 344.28463,94.633049 1.63816,2.183884 1.46997,-0.490105 0.91808,1.223934 -7.38583,2.302527 -0.9961,-1.327929 4.31955,-6.390308 0.92408,1.231934 -0.88791,1.266063 m -0.75392,1.078054 -1.70982,2.470122 2.84993,-0.950203 -1.14011,-1.519919" />
        <path
           inkscape:connector-curvature="0"
           id="path5155"
           style="font-weight:bold;font-size:10px;font-family:FreeSans;-inkscape-font-specification:'FreeSans Bold'"
           d="m 337.23041,92.972824 4.76093,-3.716868 0.92306,1.182351 -4.76093,3.716868 1.35998,1.741997 -0.98529,0.769219 -3.5938,-4.603287 0.9853,-0.769219 1.31075,1.678939" />
        <path
           inkscape:connector-curvature="0"
           id="path5157"
           style="font-weight:bold;font-size:10px;font-family:FreeSans;-inkscape-font-specification:'FreeSans Bold'"
           d="m 333.57059,90.378344 5.68681,-4.561171 0.93851,1.170126 -5.68681,4.561171 -0.93851,-1.170126" />
      </g>
    </g>
  </g>
</svg>
