<?xml version="1.0" encoding="UTF-8" standalone="no"?>
<!-- Created with Inkscape (http://www.inkscape.org/) -->

<svg
   xmlns:dc="http://purl.org/dc/elements/1.1/"
   xmlns:cc="http://creativecommons.org/ns#"
   xmlns:rdf="http://www.w3.org/1999/02/22-rdf-syntax-ns#"
   xmlns:svg="http://www.w3.org/2000/svg"
   xmlns="http://www.w3.org/2000/svg"
   xmlns:sodipodi="http://sodipodi.sourceforge.net/DTD/sodipodi-0.dtd"
   xmlns:inkscape="http://www.inkscape.org/namespaces/inkscape"
   width="500"
   height="500"
   id="svg2"
   version="1.1"
   inkscape:version="0.48.5 r10040"
   sodipodi:docname="New document 1">
  <defs
     id="defs4" />
  <sodipodi:namedview
     id="base"
     pagecolor="#ffffff"
     bordercolor="#666666"
     borderopacity="1.0"
     inkscape:pageopacity="0.0"
     inkscape:pageshadow="2"
     inkscape:zoom="0.49497475"
     inkscape:cx="130.69762"
     inkscape:cy="241.38272"
     inkscape:document-units="px"
     inkscape:current-layer="layer1"
     showgrid="false"
     inkscape:snap-page="true"
     inkscape:window-width="1366"
     inkscape:window-height="716"
     inkscape:window-x="0"
     inkscape:window-y="26"
     inkscape:window-maximized="1" />
  <metadata
     id="metadata7">
    <rdf:RDF>
      <cc:Work
         rdf:about="">
        <dc:format>image/svg+xml</dc:format>
        <dc:type
           rdf:resource="http://purl.org/dc/dcmitype/StillImage" />
        <dc:title></dc:title>
      </cc:Work>
    </rdf:RDF>
  </metadata>
  <g
     inkscape:label="Layer 1"
     inkscape:groupmode="layer"
     id="layer1"
     transform="translate(0,-552.36218)">
    <g
       id="g3035"
       inkscape:export-filename="/home/winardiaris/git/GnomeAsiaSummit2015/Artworks/Logo/Kominfo/kominfo-logo-600px.png"
       inkscape:export-xdpi="108"
       inkscape:export-ydpi="108"
       transform="translate(-82.832504,458.60924)">
      <rect
         y="93.752945"
         x="82.832504"
         height="500"
         width="500"
         id="rect3010"
         style="fill:none;stroke:none" />
      <g
         transform="translate(-25.956352,10.022894)"
         id="g3025">
        <g
           id="g3012"
           transform="translate(52.937112,-17.14288)">
          <path
             style="fill:#0c86c4"
             d="m 286.73857,463.43734 c -41.59267,-5.30965 -76.02985,-22.52076 -105.08569,-52.52 -56.06373,-57.88405 -63.94345,-147.03147 -18.9417,-214.29736 25.55923,-38.20438 63.42281,-63.66955 109.52739,-73.66271 9.25212,-2.0054 13.29288,-2.27587 34,-2.27587 20.56078,0 24.77129,0.27775 33.66436,2.22077 26.90065,5.87743 49.13568,15.92522 70.21387,31.72897 10.28215,7.70922 15.88825,13.05569 14.81503,14.12891 -0.36352,0.36352 -3.70571,0.10415 -7.4271,-0.57638 -10.12029,-1.85068 -45.05024,-2.52968 -57.36771,-1.11516 -74.30736,8.53336 -140.00549,51.36888 -169.70436,110.64813 -18.22942,36.3861 -21.61866,75.19525 -9.33596,106.90334 12.861,33.20101 48.05362,60.81427 86.14187,67.58969 11.03035,1.96216 33.84556,1.68634 42.5,-0.5138 22.62665,-5.75216 35.36619,-17.92415 34.29271,-32.76493 -0.59783,-8.26492 -4.30406,-13.25295 -13.23397,-17.81096 -5.8277,-2.97457 -7.84802,-3.49487 -13.45792,-3.46583 -11.61088,0.0601 -19.50082,5.35851 -19.50082,13.09554 0,1.85366 -0.42289,3.37029 -0.93976,3.37029 -1.7414,0 -3.5964,-3.47626 -3.62844,-6.79966 -0.10436,-10.82747 14.3391,-20.25341 30.8997,-20.16545 22.51745,0.1196 40.06066,8.96915 46.75126,23.58335 2.16661,4.73249 2.4682,6.59718 2.13436,13.1965 -0.46626,9.21694 -2.54395,14.00248 -8.66882,19.96682 -12.94403,12.60478 -52.99938,22.68244 -77.6483,19.5358 z M 274.53738,449.1275 c -25.32896,-3.57651 -51.78811,-18.38683 -67.30213,-37.67187 -7.24818,-9.01001 -15.32521,-25.05775 -18.02916,-35.82102 -3.9522,-15.732 -4.30578,-37.90433 -0.86914,-54.50343 2.80368,-13.54191 10.3053,-30.73278 19.20527,-44.0112 20.49741,-30.58136 62.39489,-63.82026 101.69635,-80.67967 30.32858,-13.01025 56.54728,-17.86575 92.22834,-17.07995 17.57499,0.38705 21.05919,0.73395 26.19175,2.60769 11.67467,4.26207 19.19695,9.85484 24.98668,18.57744 12.77499,19.24633 22.80276,50.08592 25.14275,77.32449 0.4982,5.7993 0.37935,8.25 -0.40011,8.25 -0.60986,0 -3.43952,-1.76403 -6.28813,-3.92006 -6.18138,-4.67851 -15.97049,-8.08956 -32.97598,-11.4906 -19.96798,-3.99352 -31.39533,-4.91584 -53.3853,-4.30883 -34.17266,0.9433 -56.37426,5.24593 -76.47195,14.8201 -45.13363,21.50084 -78.02805,63.10881 -78.02805,98.69727 0,6.69768 2.93262,19.19456 5.83647,24.8712 6.62164,12.94437 23.67518,26.40747 39.10361,30.87075 15.90853,4.60218 35.50139,1.20896 44.77265,-7.75401 7.72244,-7.46566 3.95627,-20.81316 -6.30698,-22.35222 -3.45815,-0.51859 -5.03063,-0.21052 -7.8641,1.54066 -1.94791,1.20387 -3.54165,1.7806 -3.54165,1.28161 0,-1.68095 4.65336,-5.29607 8.08327,-6.27975 8.81147,-2.5271 16.88929,0.0158 23.77308,7.48386 7.4812,8.11615 6.64923,16.43545 -2.53968,25.39567 -6.03197,5.88184 -16.23763,11.16706 -25.19764,13.04913 -7.46105,1.56721 -24.37873,2.1535 -31.82022,1.10274 z m 6.20119,-17.02953 c -15.88487,-3.18841 -30.49062,-13.83116 -37.13443,-27.05869 -6.53526,-13.01143 -5.30891,-28.88013 3.69371,-47.79546 14.29068,-30.02605 40.72696,-50.91557 80.94072,-63.95803 41.7633,-13.54503 76.50764,-14.53481 111,-3.16213 23.86906,7.87001 32.20517,13.62668 35.67574,24.6366 1.55899,4.94569 1.54992,5.78437 -0.15204,14.05957 -3.26663,15.8829 -6.55598,25.63783 -12.40894,36.80015 -5.92476,11.29927 -18.84732,31.5 -20.15078,31.5 -0.40204,0 -1.03891,-2.87532 -1.41525,-6.38959 -0.4056,-3.78744 -1.89662,-8.95311 -3.66121,-12.68432 -3.92998,-8.30995 -14.88029,-19.12876 -24.38752,-24.09467 -28.00053,-14.62551 -77.45621,-15.84022 -104,-2.55442 -2.2,1.10116 -7.73296,4.45619 -12.29546,7.45563 -17.02091,11.18974 -24.56437,22.16922 -24.50853,35.67211 0.0409,9.88167 1.69405,14.97824 6.57679,20.27539 10.19988,11.06556 28.05382,13.66257 35.23724,5.12557 2.57874,-3.06466 2.77842,-4.85225 1.01157,-9.0557 -1.17324,-2.79121 2.01844,-2.1502 4.40581,0.88486 2.85056,3.6239 2.6741,8.42404 -0.43293,11.77658 -6.55857,7.07682 -24.85928,11.20305 -37.99449,8.56655 z"
             id="path3002"
             inkscape:connector-curvature="0" />
          <path
             style="fill:#075196"
             d="m 277.73857,461.58208 c -41.30117,-7.71307 -77.2102,-28.04678 -102.26852,-57.91021 -19.83215,-23.6351 -32.36546,-49.6221 -38.40292,-79.62597 -1.95253,-9.70332 -2.29915,-14.51655 -2.29915,-31.92592 0,-17.36477 0.34893,-22.23337 2.28152,-31.83379 10.79562,-53.62864 43.95824,-97.53809 91.80562,-121.55656 61.25865,-30.75066 135.31722,-22.24723 187.85923,21.57007 8.93496,7.45129 9.07952,8.27694 1.29847,7.41621 -3.45084,-0.38172 -10.09925,-1.11398 -14.77425,-1.62722 -54.92661,-6.03014 -120.49346,14.45335 -164.88535,51.51119 -33.23873,27.74732 -54.28836,61.47124 -62.74213,100.5201 -2.81021,12.98067 -2.60188,40.40726 0.39733,52.30698 4.6997,18.64664 12.83539,33.3133 26.11831,47.08491 24.62847,25.53458 54.50963,37.60329 89.98718,36.34494 15.12747,-0.53656 21.89906,-2.01961 32.62466,-7.14519 13.69462,-6.54442 19.88765,-14.66578 19.86065,-26.04469 -0.0175,-7.36489 -1.74928,-10.9586 -7.88259,-16.35735 -5.46732,-4.81253 -11.84517,-7.1896 -19.29018,-7.1896 -11.39551,0 -18.91746,4.44422 -19.88713,11.75 -0.66272,4.99315 -1.59588,5.36592 -3.27639,1.30881 -1.6761,-4.04647 -0.01,-8.70824 4.74124,-13.26507 6.69345,-6.41974 11.39174,-8.14392 23.4445,-8.6037 22.68576,-0.86539 39.36958,6.52559 47.30116,20.95455 2.57449,4.68344 2.94142,6.35921 2.92439,13.35541 -0.0204,8.37836 -1.07724,11.53433 -6.11668,18.26584 -5.58205,7.45631 -20.01012,14.3936 -39.31897,18.90529 -13.61774,3.18192 -37.43714,4.04373 -49.5,1.79097 z m -8,-14.56728 c -34.37093,-6.8593 -63.86795,-30.5958 -75.86571,-61.04978 -3.7477,-9.5128 -5.69643,-19.63004 -6.34809,-32.9574 -2.26459,-46.3143 19.57733,-86.05823 67.28503,-122.43293 34.19605,-26.07275 66.31265,-40.76915 103.98365,-47.58239 9.95996,-1.80137 16.01678,-2.17802 36.44512,-2.26637 24.29129,-0.10505 24.56345,-0.0828 31.94848,2.61287 10.97047,4.0044 19.02922,9.87144 24.05147,17.51028 9.58341,14.57638 17.73872,35.35495 21.90561,55.81242 2.10511,10.33513 4.21845,26.66781 3.5386,27.34766 -0.21435,0.21434 -1.86447,-0.73311 -3.66694,-2.10545 -9.15826,-6.97279 -25.07901,-11.6321 -54.01946,-15.80913 -22.02437,-3.17883 -70.13558,-0.0631 -90.75776,5.87749 -30.9019,8.9019 -66.04499,34.65033 -83.45854,61.14791 -14.72616,22.40829 -19.31732,44.50833 -13.19176,63.5 3.0373,9.41684 6.46594,15.13338 13.22056,22.0425 19.43427,19.8788 47.69635,26.02941 69.19654,15.05908 7.75092,-3.95486 10.54155,-7.60398 10.97446,-14.35056 0.46463,-7.24099 -1.94138,-11.5315 -8.01192,-14.2872 -4.31329,-1.95801 -3.68017,-2.40887 2.77066,-1.97307 10.89043,0.73572 20.43465,12.61718 17.43538,21.70505 -2.59735,7.87006 -13.31152,16.42164 -25.47104,20.32986 -5.6592,1.81894 -9.77539,2.29733 -21.96434,2.55271 -8.25,0.17286 -17.25,-0.13474 -20,-0.68355 z"
             id="path3000"
             inkscape:connector-curvature="0" />
          <path
             style="fill:#27165e"
             d="M 281.73857,461.61643 C 210.96682,450.24751 156.93979,401.41409 139.81071,333.33209 c -3.65309,-14.51975 -4.84439,-25.03081 -4.78424,-42.21211 0.19346,-55.25662 26.3157,-105.93455 71.28036,-138.28601 11.19186,-8.05238 33.74643,-19.48752 46.67634,-23.66483 18.58314,-6.00373 29.47857,-7.5481 53.2554,-7.54866 18.75191,-4.4e-4 22.96991,0.30352 33,2.37804 21.31394,4.40837 42.70527,13.09714 60.36149,24.51778 9.83775,6.36338 23.81967,17.50154 23.20944,18.48892 -0.2425,0.39236 -4.85766,0.13018 -10.25592,-0.58263 -12.17774,-1.608 -41.85996,-1.78229 -53.84692,-0.31619 -78.4196,9.59137 -147.08174,57.42172 -174.00878,121.21527 -15.95787,37.8062 -16.07836,76.33489 -0.33397,106.79831 15.00083,29.02475 45.15182,51.10356 80.07859,58.63951 12.17062,2.62599 36.52744,2.40658 46.93172,-0.42276 15.67534,-4.26275 27.79365,-12.44334 31.93091,-21.55528 2.55184,-5.62017 2.53721,-14.55766 -0.0321,-19.59386 -4.05204,-7.94272 -16.56317,-15.06761 -26.45829,-15.06761 -8.96908,0 -18.53124,5.82044 -20.11367,12.24309 -0.89303,3.62456 -2.4625,2.52489 -2.4625,-1.72538 0,-5.31931 5.21607,-11.0642 13.75996,-15.15499 7.07406,-3.38704 16.98077,-4.06544 28.943,-1.98199 11.40395,1.98623 18.77359,5.17382 24.79588,10.72496 7.12605,6.56857 9.72845,11.75547 10.29026,20.50977 0.55656,8.67232 -1.23655,14.54078 -6.16196,20.16671 -13.08559,14.94672 -55.31015,25.34351 -84.12714,20.71428 z"
             id="path2998"
             inkscape:connector-curvature="0" />
        </g>
        <text
           xml:space="preserve"
           style="font-size:32px;font-style:normal;font-variant:normal;font-weight:normal;font-stretch:normal;line-height:125%;letter-spacing:0px;word-spacing:0px;fill:#27165e;fill-opacity:1;stroke:none;font-family:Comic Sans MS;-inkscape-font-specification:Comic Sans MS"
           x="207.23335"
           y="516.4259"
           id="text3017"
           sodipodi:linespacing="125%"><tspan
             sodipodi:role="line"
             id="tspan3019"
             x="207.23335"
             y="516.4259"
             style="font-size:64px;font-style:normal;font-variant:normal;font-weight:normal;font-stretch:normal;fill:#27165e;fill-opacity:1;font-family:FreeSans;-inkscape-font-specification:FreeSans">KOMINFO</tspan></text>
        <text
           xml:space="preserve"
           style="font-size:32px;font-style:normal;font-variant:normal;font-weight:normal;font-stretch:normal;line-height:125%;letter-spacing:0px;word-spacing:0px;fill:#27165e;fill-opacity:1;stroke:none;font-family:Comic Sans MS;-inkscape-font-specification:Comic Sans MS"
           x="141.42136"
           y="563.44836"
           id="text3021"
           sodipodi:linespacing="125%"><tspan
             sodipodi:role="line"
             id="tspan3023"
             x="141.42136"
             y="563.44836"
             style="font-style:normal;font-variant:normal;font-weight:normal;font-stretch:normal;fill:#27165e;fill-opacity:1;font-family:FreeSans;-inkscape-font-specification:FreeSans">Direktorat Keamanan Informasi</tspan></text>
      </g>
    </g>
  </g>
</svg>
